o convex_0
v -0.026139 -0.107357 0.032099
v 0.006386 -0.109277 -0.027217
v -0.014654 -0.113104 -0.025295
v -0.008917 -0.076749 -0.002331
v 0.058042 -0.101619 0.030183
v 0.046557 -0.076749 -0.013822
v 0.048477 -0.115015 -0.021474
v 0.031255 -0.076749 0.018704
v -0.039533 -0.116931 0.022531
v -0.037613 -0.088234 -0.015732
v -0.037613 -0.084403 0.018704
v 0.044649 -0.113104 0.030183
v -0.043361 -0.116931 -0.013822
v 0.058042 -0.097796 -0.023385
v 0.054214 -0.076749 0.005310
v 0.004477 -0.082495 -0.019553
v -0.007008 -0.082495 0.024441
v -0.047190 -0.101619 0.009136
v -0.039533 -0.101619 -0.021474
v -0.041442 -0.105446 0.030183
v 0.059962 -0.107357 0.003393
v 0.048477 -0.115015 0.014878
v 0.058042 -0.097796 0.030183
v 0.000649 -0.116931 -0.019553
v 0.040820 -0.084403 -0.021474
v 0.040820 -0.113104 -0.027217
v -0.037613 -0.082495 -0.002331
v -0.041442 -0.115015 0.028267
v 0.059962 -0.090145 0.005310
v 0.025517 -0.101619 -0.027217
v -0.007008 -0.076749 0.009136
v -0.047190 -0.107357 -0.009996
v -0.047190 -0.115015 0.012962
v -0.041442 -0.115015 -0.021474
v 0.048477 -0.076749 0.014878
v 0.033164 -0.082495 0.024441
v 0.006386 -0.095884 0.030183
v -0.035705 -0.095884 0.028267
v 0.052305 -0.113104 0.024441
v 0.027426 -0.111184 0.032099
v -0.041442 -0.086322 -0.002331
v -0.018482 -0.105446 -0.025295
v -0.014654 -0.080576 -0.011900
v 0.019780 -0.076749 -0.013822
v 0.038911 -0.115015 0.026357
v -0.037613 -0.115015 0.030183
v 0.052305 -0.113104 -0.021474
v 0.054214 -0.076749 -0.002331
v 0.059962 -0.103534 -0.013822
v 0.029346 -0.103534 0.032099
v -0.024220 -0.116931 -0.021474
v 0.059962 -0.097796 0.026357
v -0.041442 -0.090145 0.018704
v -0.037613 -0.082495 0.011046
v -0.007008 -0.078664 0.016788
v 0.040820 -0.103534 -0.027217
v -0.033785 -0.116931 0.024441
v 0.059962 -0.090145 -0.004247
v -0.043361 -0.101619 -0.017642
v 0.054214 -0.113104 -0.009996
v -0.012745 -0.086322 -0.019553
v -0.045270 -0.107357 0.022531
v -0.035705 -0.084403 -0.011900
v -0.035705 -0.086322 0.022531
f 53 20 64 
f 6 4 8 
f 6 8 15 
f 9 13 24 
f 7 22 24 
f 6 14 25 
f 3 2 26 
f 16 25 30 
f 26 2 30 
f 8 4 31 
f 13 9 33 
f 9 28 33 
f 32 13 33 
f 18 32 33 
f 13 32 34 
f 15 8 35 
f 23 15 35 
f 23 35 36 
f 8 17 36 
f 35 8 36 
f 36 17 37 
f 23 36 37 
f 20 1 38 
f 37 17 38 
f 1 37 38 
f 5 12 39 
f 21 5 39 
f 12 5 40 
f 32 18 41 
f 2 3 42 
f 30 2 42 
f 3 34 42 
f 34 19 42 
f 4 6 44 
f 6 25 44 
f 25 16 44 
f 43 4 44 
f 16 43 44 
f 39 12 45 
f 22 39 45 
f 1 20 46 
f 28 9 46 
f 20 28 46 
f 12 40 46 
f 40 1 46 
f 45 12 46 
f 7 26 47 
f 26 14 47 
f 14 6 48 
f 6 15 48 
f 15 29 48 
f 29 21 49 
f 47 14 49 
f 5 23 50 
f 37 1 50 
f 23 37 50 
f 40 5 50 
f 1 40 50 
f 7 24 51 
f 24 13 51 
f 3 26 51 
f 26 7 51 
f 34 3 51 
f 13 34 51 
f 5 21 52 
f 23 5 52 
f 15 23 52 
f 29 15 52 
f 21 29 52 
f 41 18 53 
f 41 53 54 
f 4 27 54 
f 31 4 54 
f 11 31 54 
f 27 41 54 
f 53 11 54 
f 17 8 55 
f 11 17 55 
f 8 31 55 
f 31 11 55 
f 25 14 56 
f 14 26 56 
f 30 25 56 
f 26 30 56 
f 9 24 57 
f 24 22 57 
f 22 45 57 
f 46 9 57 
f 45 46 57 
f 14 48 58 
f 48 29 58 
f 49 14 58 
f 29 49 58 
f 10 19 59 
f 19 34 59 
f 34 32 59 
f 41 10 59 
f 32 41 59 
f 22 7 60 
f 21 39 60 
f 39 22 60 
f 7 47 60 
f 49 21 60 
f 47 49 60 
f 10 16 61 
f 19 10 61 
f 16 30 61 
f 42 19 61 
f 30 42 61 
f 28 20 62 
f 18 33 62 
f 33 28 62 
f 20 53 62 
f 53 18 62 
f 16 10 63 
f 27 4 63 
f 10 41 63 
f 41 27 63 
f 4 43 63 
f 43 16 63 
f 17 11 64 
f 38 17 64 
f 20 38 64 
f 11 53 64 
o convex_1
v 0.042734 -0.000212 0.009136
v -0.018488 -0.015526 -0.002340
v -0.016574 -0.017436 -0.006166
v 0.042734 -0.076749 0.016791
v 0.044649 -0.059525 -0.015735
v 0.031254 -0.000212 -0.017650
v 0.017867 -0.076749 -0.011906
v -0.003179 -0.000212 0.012962
v 0.017867 -0.076749 0.014876
v 0.054222 -0.076749 -0.002340
v 0.027432 -0.015526 0.018705
v 0.050393 -0.028913 -0.009995
v -0.005094 -0.000212 -0.011906
v 0.050393 -0.036578 0.012962
v 0.019774 -0.042294 -0.017650
v -0.016574 -0.011697 0.009136
v 0.012130 -0.076749 0.007222
v 0.019774 -0.044219 0.018705
v 0.033169 -0.000212 0.016791
v 0.044649 -0.000212 -0.006166
v 0.054222 -0.038481 0.003396
v 0.044649 -0.076749 -0.013821
v -0.016574 -0.000212 -0.006166
v 0.050393 -0.076749 0.012962
v 0.012130 -0.076749 -0.004255
v 0.015959 -0.002130 -0.017650
v 0.036998 -0.036578 0.018705
v 0.040827 -0.028913 -0.017650
v 0.052307 -0.063353 -0.009995
v 0.029347 -0.071003 -0.015735
v -0.005094 -0.015526 -0.011906
v -0.018488 -0.015526 0.005311
v 0.040827 -0.002130 -0.013821
v -0.016574 -0.000212 0.007222
v 0.014052 -0.000212 0.016791
v 0.021681 -0.076749 0.016791
v 0.044649 -0.038481 0.016791
v 0.035083 -0.053786 -0.017650
v 0.054222 -0.044219 -0.006166
v 0.054222 -0.055697 0.007222
v 0.033169 -0.059525 0.018705
v 0.048478 -0.040383 -0.013821
v 0.050393 -0.021264 0.005311
v -0.005094 -0.015526 0.012962
v 0.021681 -0.076749 -0.013821
v -0.014659 -0.015526 -0.008080
v 0.052307 -0.028913 -0.004255
v 0.044649 -0.013608 0.012962
v 0.019774 -0.017436 0.018705
v 0.017867 -0.055697 -0.015735
v 0.015959 -0.027003 -0.017650
v 0.042734 -0.017436 -0.015735
v 0.014052 -0.076749 0.011051
v -0.016574 -0.013608 0.009136
v 0.044649 -0.000212 0.005311
v 0.054222 -0.076749 0.003396
v 0.052307 -0.076749 -0.008080
v 0.014052 -0.076749 -0.008080
v 0.038912 -0.013608 0.016791
v 0.052307 -0.038481 -0.009995
v 0.048478 -0.061436 -0.013821
v 0.052307 -0.034667 0.009136
v 0.048478 -0.063353 0.014876
v 0.000650 -0.013608 -0.013821
f 115 95 128 
f 65 70 72 
f 71 68 73 
f 68 71 74 
f 72 70 77 
f 71 73 81 
f 65 72 83 
f 70 65 84 
f 74 71 86 
f 67 66 87 
f 72 77 87 
f 68 74 88 
f 66 67 89 
f 81 66 89 
f 71 81 89 
f 77 70 90 
f 70 79 90 
f 75 82 91 
f 83 75 91 
f 79 70 92 
f 66 81 96 
f 87 66 96 
f 70 84 97 
f 84 76 97 
f 80 72 98 
f 72 87 98 
f 96 80 98 
f 87 96 98 
f 83 72 99 
f 75 83 99 
f 73 68 100 
f 91 68 101 
f 69 86 102 
f 92 69 102 
f 79 92 102 
f 94 79 102 
f 86 94 102 
f 85 74 103 
f 74 93 103 
f 74 85 104 
f 78 88 104 
f 68 91 105 
f 91 82 105 
f 100 68 105 
f 82 100 105 
f 72 80 108 
f 100 82 108 
f 86 71 109 
f 79 94 109 
f 94 86 109 
f 71 67 110 
f 67 87 110 
f 87 77 110 
f 77 95 110 
f 109 71 110 
f 76 84 111 
f 85 103 111 
f 84 107 111 
f 107 85 111 
f 65 83 112 
f 82 75 113 
f 75 99 113 
f 99 72 113 
f 72 108 113 
f 108 82 113 
f 95 79 114 
f 79 109 114 
f 110 95 114 
f 109 110 114 
f 90 79 115 
f 79 95 115 
f 92 70 116 
f 70 97 116 
f 97 76 116 
f 106 92 116 
f 81 73 117 
f 96 81 117 
f 96 117 118 
f 80 96 118 
f 73 100 118 
f 108 80 118 
f 100 108 118 
f 117 73 118 
f 84 65 119 
f 107 84 119 
f 65 112 119 
f 88 74 120 
f 74 104 120 
f 104 88 120 
f 74 86 121 
f 93 74 121 
f 67 71 122 
f 89 67 122 
f 71 89 122 
f 83 91 123 
f 101 78 123 
f 91 101 123 
f 112 83 123 
f 78 112 123 
f 103 93 124 
f 93 106 124 
f 76 111 124 
f 111 103 124 
f 116 76 124 
f 106 116 124 
f 86 69 125 
f 69 92 125 
f 92 106 125 
f 106 93 125 
f 121 86 125 
f 93 121 125 
f 104 85 126 
f 78 104 126 
f 85 107 126 
f 112 78 126 
f 107 119 126 
f 119 112 126 
f 68 88 127 
f 88 78 127 
f 78 101 127 
f 101 68 127 
f 77 90 128 
f 95 77 128 
f 90 115 128 
o convex_2
v 0.065700 0.013182 0.011051
v 0.002566 0.013182 -0.021476
v 0.002566 0.015091 -0.021476
v -0.039531 0.018921 0.007219
v -0.014650 -0.000212 0.009135
v 0.036999 -0.000212 -0.015728
v 0.065700 0.020835 -0.015728
v 0.010230 0.020835 0.018703
v 0.031256 -0.000212 0.016791
v -0.043363 0.020835 -0.006169
v -0.014650 -0.000212 -0.008077
v 0.063778 0.020835 0.012963
v -0.003176 0.015091 0.020619
v 0.067610 0.009358 -0.004249
v 0.044640 -0.000212 0.007219
v 0.004476 0.018921 -0.021476
v 0.031256 -0.000212 -0.017648
v 0.071442 0.020835 0.003395
v 0.067610 0.013182 -0.013821
v -0.029967 0.009358 0.009135
v -0.028046 0.009358 -0.009993
v 0.008309 -0.000212 -0.015728
v 0.014040 -0.000212 0.016791
v -0.018482 -0.000212 -0.004249
v -0.033788 0.020835 0.009135
v 0.000656 0.018921 0.020619
v -0.043363 0.018921 -0.006169
v 0.044640 -0.000212 -0.008077
v 0.000656 0.020835 -0.015728
v 0.067610 0.011266 0.007219
v 0.065700 0.015091 -0.015728
v 0.008309 0.015091 -0.021476
v -0.005087 0.013182 -0.019560
v 0.071442 0.018921 -0.006169
v 0.065700 0.011266 -0.013821
v 0.036999 -0.000212 0.014871
v -0.026135 0.005530 0.007219
v -0.003176 -0.000212 0.012963
v -0.026135 0.009358 0.011051
v 0.063778 0.015091 0.012963
v -0.005087 0.018921 -0.019560
v 0.017861 -0.000212 -0.017648
v 0.069521 0.011266 -0.004249
v 0.069521 0.017007 0.009135
v -0.005087 -0.000212 -0.011909
v -0.031878 0.009358 0.003395
v -0.003176 0.018921 0.020619
v -0.003176 0.020835 0.018703
v 0.069521 0.020835 -0.011909
v -0.043363 0.018921 -0.002337
v -0.018482 -0.000212 0.003395
v 0.071442 0.017007 0.001483
v -0.039531 0.020835 0.007219
v 0.065700 0.009358 0.005311
v -0.024225 0.020835 -0.011909
v -0.028046 0.011266 0.011051
v 0.061868 0.011266 -0.015728
v 0.063778 0.009358 -0.011909
v 0.063778 0.011266 0.011051
v 0.067610 0.020835 0.011051
v -0.031878 0.009358 -0.002337
v 0.069521 0.013182 -0.009993
v 0.008309 0.018921 -0.021476
v 0.000656 0.015091 0.020619
f 137 168 192 
f 133 134 137 
f 136 135 138 
f 134 133 139 
f 135 136 140 
f 137 134 143 
f 130 131 144 
f 134 139 145 
f 135 140 146 
f 145 139 150 
f 133 137 151 
f 137 141 151 
f 139 133 152 
f 149 139 152 
f 136 138 153 
f 140 136 154 
f 149 152 155 
f 143 134 156 
f 142 143 156 
f 138 135 157 
f 135 144 157 
f 135 147 159 
f 130 144 160 
f 145 130 160 
f 135 159 160 
f 159 145 160 
f 131 130 161 
f 130 150 161 
f 155 138 161 
f 149 155 161 
f 159 147 163 
f 137 143 164 
f 133 148 165 
f 133 151 166 
f 151 141 166 
f 148 133 167 
f 133 166 167 
f 166 141 167 
f 140 154 168 
f 137 164 168 
f 144 131 169 
f 131 161 169 
f 161 138 169 
f 130 145 170 
f 150 130 170 
f 145 150 170 
f 158 142 171 
f 129 158 172 
f 168 129 172 
f 139 149 173 
f 150 139 173 
f 161 150 173 
f 149 161 173 
f 165 148 174 
f 132 141 175 
f 141 154 175 
f 154 136 175 
f 136 153 176 
f 153 175 176 
f 175 136 176 
f 135 146 177 
f 147 135 177 
f 146 162 177 
f 148 132 178 
f 138 155 178 
f 174 148 178 
f 155 174 178 
f 152 133 179 
f 133 165 179 
f 174 152 179 
f 165 174 179 
f 162 146 180 
f 158 171 180 
f 171 162 180 
f 146 172 180 
f 172 158 180 
f 153 138 181 
f 132 175 181 
f 175 153 181 
f 178 132 181 
f 138 178 181 
f 143 142 182 
f 142 158 182 
f 164 143 182 
f 158 164 182 
f 138 157 183 
f 157 144 183 
f 144 169 183 
f 169 138 183 
f 141 132 184 
f 132 148 184 
f 167 141 184 
f 148 167 184 
f 134 145 185 
f 145 159 185 
f 163 134 185 
f 159 163 185 
f 156 134 186 
f 142 156 186 
f 134 163 186 
f 163 142 186 
f 158 129 187 
f 164 158 187 
f 129 168 187 
f 168 164 187 
f 146 140 188 
f 140 168 188 
f 172 146 188 
f 168 172 188 
f 155 152 189 
f 174 155 189 
f 152 174 189 
f 142 163 190 
f 163 147 190 
f 171 142 190 
f 162 171 190 
f 147 177 190 
f 177 162 190 
f 144 135 191 
f 160 144 191 
f 135 160 191 
f 141 137 192 
f 154 141 192 
f 168 154 192 
o convex_3
v 0.082905 0.039976 0.011046
v -0.029953 0.039971 -0.027217
v -0.045269 0.047622 -0.025303
v -0.087345 0.032325 0.018702
v -0.031861 0.070581 0.011051
v 0.069515 0.061013 -0.021474
v 0.067607 0.020835 -0.015732
v 0.019754 0.024664 0.024445
v 0.015938 0.064836 0.024445
v -0.087345 0.026580 -0.009994
v -0.085438 0.064836 -0.008080
v -0.087345 0.051445 0.022531
v 0.075256 0.066753 0.003394
v -0.010823 0.064836 -0.025303
v 0.071423 0.039976 -0.027217
v -0.047176 0.020835 0.011051
v 0.000623 0.022752 -0.025303
v 0.067607 0.020835 0.011046
v 0.073348 0.051445 0.020617
v -0.098845 0.049529 -0.011909
v -0.014656 0.072498 -0.004252
v -0.087345 0.064836 0.011051
v -0.045269 0.038065 0.026359
v -0.102661 0.041888 0.009137
v -0.087345 0.045711 -0.019560
v 0.082905 0.034236 -0.011903
v 0.071423 0.066753 -0.011903
v -0.043343 0.020835 -0.011909
v 0.082905 0.055274 -0.011903
v 0.017846 0.062930 -0.027217
v -0.089271 0.024664 0.001480
v 0.071423 0.036148 0.020617
v -0.102661 0.055269 0.007223
v -0.008933 0.064836 0.024445
v -0.087345 0.032325 -0.015732
v -0.089271 0.057185 -0.015732
v 0.079089 0.024669 0.005303
v -0.008933 0.024664 0.024445
v 0.077164 0.061013 0.012960
v -0.026138 0.072498 0.005308
v -0.100753 0.038065 -0.008080
v 0.036977 0.049529 0.024445
v 0.019754 0.066748 0.022531
v -0.012748 0.055269 0.026359
v -0.087345 0.026580 0.012965
v 0.065682 0.068670 -0.000429
v -0.045269 0.070581 -0.006166
v 0.069515 0.032320 -0.025303
v 0.075256 0.049534 -0.025303
v -0.087345 0.059102 0.018702
v -0.045269 0.053362 0.026359
v 0.019754 0.064836 -0.025303
v -0.085438 0.066748 0.005308
v -0.087345 0.039971 0.022531
v 0.010197 0.022752 0.022531
v -0.098845 0.032325 0.009137
v 0.077164 0.022752 -0.009989
v -0.028046 0.051445 -0.027217
v 0.082905 0.055274 0.007217
v -0.096920 0.059102 -0.006166
v 0.079089 0.036148 -0.021474
v -0.014656 0.034231 0.026359
v 0.075256 0.030408 0.016788
v 0.017846 0.022752 -0.025303
f 207 240 256 
f 208 199 210 
f 195 194 217 
f 199 208 220 
f 202 209 220 
f 209 199 220 
f 193 218 221 
f 198 219 221 
f 219 205 221 
f 207 194 222 
f 220 208 223 
f 202 220 223 
f 216 204 225 
f 197 214 226 
f 209 202 227 
f 194 209 227 
f 217 194 227 
f 203 206 228 
f 217 212 228 
f 218 193 229 
f 212 217 233 
f 202 223 233 
f 225 212 233 
f 216 225 233 
f 227 202 233 
f 217 227 233 
f 211 201 234 
f 200 224 234 
f 224 211 234 
f 201 211 235 
f 197 226 235 
f 226 201 235 
f 231 205 235 
f 211 231 235 
f 232 197 235 
f 201 226 236 
f 234 201 236 
f 223 208 237 
f 230 196 237 
f 208 230 237 
f 205 219 238 
f 219 213 238 
f 213 232 238 
f 235 205 238 
f 232 235 238 
f 206 203 239 
f 213 206 239 
f 232 213 239 
f 198 221 241 
f 222 198 241 
f 207 222 241 
f 225 204 242 
f 214 225 242 
f 226 214 242 
f 226 242 243 
f 204 215 243 
f 215 236 243 
f 236 226 243 
f 242 204 243 
f 206 213 244 
f 219 198 244 
f 213 219 244 
f 222 206 244 
f 198 222 244 
f 214 197 245 
f 225 214 245 
f 197 232 245 
f 239 203 245 
f 232 239 245 
f 215 204 246 
f 204 216 246 
f 196 230 246 
f 230 215 246 
f 210 200 247 
f 208 210 247 
f 230 208 247 
f 200 230 247 
f 216 233 248 
f 233 223 248 
f 237 196 248 
f 223 237 248 
f 196 246 248 
f 246 216 248 
f 210 199 249 
f 229 210 249 
f 218 229 249 
f 194 195 250 
f 195 217 250 
f 222 194 250 
f 206 222 250 
f 228 206 250 
f 217 228 250 
f 211 193 251 
f 193 221 251 
f 221 205 251 
f 205 231 251 
f 231 211 251 
f 212 225 252 
f 203 228 252 
f 228 212 252 
f 245 203 252 
f 225 245 252 
f 221 218 253 
f 199 240 253 
f 240 207 253 
f 207 241 253 
f 241 221 253 
f 249 199 253 
f 218 249 253 
f 230 200 254 
f 215 230 254 
f 200 234 254 
f 236 215 254 
f 234 236 254 
f 200 210 255 
f 193 211 255 
f 224 200 255 
f 211 224 255 
f 210 229 255 
f 229 193 255 
f 194 207 256 
f 209 194 256 
f 199 209 256 
f 240 199 256 
