o convex_0
v 0.025391 0.051367 0.003286
v -0.025505 0.085308 -0.003228
v -0.025505 0.085308 -0.000619
v -0.005924 -0.011265 0.009814
v 0.022787 -0.011254 -0.016284
v 0.024086 -0.011254 0.018950
v -0.007229 0.073548 0.015034
v -0.008534 0.094448 -0.013675
v -0.000709 -0.011265 -0.012368
v 0.012341 0.055279 -0.017592
v 0.007121 0.081396 0.009814
v 0.033227 0.007015 -0.000619
v 0.003211 -0.011265 0.020258
v -0.011144 0.068332 -0.016284
v 0.022787 0.038337 0.016338
v -0.021584 0.095741 0.005898
v 0.004511 0.089232 -0.005840
v 0.024086 0.044857 -0.009759
v -0.025505 0.095741 -0.008451
v -0.012449 0.103589 0.000685
v 0.008426 0.044869 0.018950
v 0.031916 -0.011254 0.008510
v -0.005924 -0.011265 -0.003228
v 0.007121 -0.011265 -0.016284
v -0.017669 0.070940 0.009814
v 0.030611 0.016144 0.011118
v -0.021584 0.076179 -0.011060
v 0.025391 0.017459 -0.013672
v 0.014951 0.074875 -0.003228
v 0.008426 0.074875 -0.013675
v -0.018974 0.099665 -0.012368
v -0.003308 0.072244 -0.017592
v 0.016256 0.061811 0.013730
v -0.011144 0.094448 0.008510
v 0.031916 -0.007342 -0.004535
v 0.018866 0.005711 0.020258
v 0.029306 0.038337 -0.000619
v 0.017561 0.037044 -0.017592
v 0.009725 0.082700 0.003289
v -0.024194 0.081396 0.003289
v 0.005816 0.021372 0.020258
v -0.007229 0.100958 -0.005840
v 0.000596 0.077472 0.013730
v -0.024194 0.099665 0.000685
v -0.004613 -0.011265 0.012426
v -0.005924 0.064419 0.016342
v 0.026696 0.040945 0.009814
v -0.015059 0.069636 -0.014980
v 0.029306 0.022676 -0.007147
v 0.014951 0.048759 0.017646
v -0.003308 0.095741 0.004594
v 0.022787 0.055291 -0.005843
v 0.021476 0.059203 0.007202
v -0.016364 0.081396 0.011122
v 0.025391 0.014840 0.017642
v -0.003308 -0.011265 -0.009756
v 0.031916 0.020068 0.005898
v 0.005816 0.068332 -0.017592
v 0.033227 -0.011254 0.000685
v 0.013646 0.026588 -0.017592
v -0.016364 0.103589 -0.007147
v -0.024194 0.082700 -0.008451
v 0.020171 0.043553 -0.014976
v 0.014951 0.064419 -0.012368
f 63 10 64 
f 3 2 4 
f 4 9 13 
f 2 3 19 
f 6 13 22 
f 4 2 23 
f 9 4 23 
f 13 9 24 
f 6 22 26 
f 8 17 30 
f 17 29 30 
f 27 19 31 
f 24 14 32 
f 31 8 32 
f 14 31 32 
f 20 16 34 
f 5 28 35 
f 13 6 36 
f 28 5 38 
f 32 10 38 
f 29 17 39 
f 3 4 40 
f 13 36 41 
f 36 21 41 
f 17 8 42 
f 7 21 43 
f 33 11 43 
f 34 7 43 
f 11 34 43 
f 19 3 44 
f 16 20 44 
f 3 40 44 
f 40 16 44 
f 4 13 45 
f 13 25 45 
f 40 4 45 
f 25 40 45 
f 21 7 46 
f 13 41 46 
f 41 21 46 
f 15 26 47 
f 33 15 47 
f 37 1 47 
f 24 9 48 
f 14 24 48 
f 9 27 48 
f 31 14 48 
f 27 31 48 
f 28 18 49 
f 12 35 49 
f 35 28 49 
f 37 12 49 
f 18 37 49 
f 15 33 50 
f 21 36 50 
f 43 21 50 
f 33 43 50 
f 34 11 51 
f 20 34 51 
f 11 39 51 
f 39 17 51 
f 17 42 51 
f 42 20 51 
f 29 1 52 
f 37 18 52 
f 1 37 52 
f 1 29 53 
f 11 33 53 
f 39 11 53 
f 29 39 53 
f 47 1 53 
f 33 47 53 
f 25 13 54 
f 7 34 54 
f 34 16 54 
f 16 40 54 
f 40 25 54 
f 46 7 54 
f 13 46 54 
f 26 15 55 
f 6 26 55 
f 36 6 55 
f 15 50 55 
f 50 36 55 
f 9 23 56 
f 27 9 56 
f 22 12 57 
f 26 22 57 
f 12 37 57 
f 47 26 57 
f 37 47 57 
f 8 30 58 
f 30 10 58 
f 32 8 58 
f 10 32 58 
f 12 22 59 
f 22 13 59 
f 24 5 59 
f 13 24 59 
f 5 35 59 
f 35 12 59 
f 5 24 60 
f 24 32 60 
f 38 5 60 
f 32 38 60 
f 8 31 61 
f 31 19 61 
f 42 8 61 
f 20 42 61 
f 19 44 61 
f 44 20 61 
f 2 19 62 
f 23 2 62 
f 19 27 62 
f 56 23 62 
f 27 56 62 
f 18 28 63 
f 38 10 63 
f 28 38 63 
f 30 29 64 
f 10 30 64 
f 29 52 64 
f 52 18 64 
f 18 63 64 
o convex_1
v -0.028119 -0.088266 -0.012371
v -0.046384 -0.088266 -0.013675
v -0.046384 -0.088266 -0.005846
v -0.026810 -0.069998 -0.008455
v -0.026810 -0.077832 0.000681
v -0.045079 -0.081743 -0.016286
v -0.041164 -0.093488 -0.007152
v -0.026810 -0.076526 -0.014980
v -0.039859 -0.089572 -0.017592
v -0.046384 -0.083047 -0.007152
v -0.026810 -0.086963 -0.004540
v -0.028119 -0.075222 0.000681
v -0.042469 -0.092182 -0.004540
v -0.042469 -0.093488 -0.013675
v -0.026810 -0.084353 -0.014980
v -0.028119 -0.069998 -0.009759
v -0.028119 -0.071306 -0.003236
v -0.046384 -0.085657 -0.004540
v -0.046384 -0.081743 -0.009759
v -0.045079 -0.084353 -0.017592
v -0.028119 -0.072612 -0.013675
v -0.033339 -0.090876 -0.013675
v -0.045079 -0.090876 -0.004540
v -0.046384 -0.081743 -0.014980
v -0.043774 -0.089572 -0.017592
v -0.038554 -0.084353 -0.017592
v -0.043774 -0.093488 -0.012371
v -0.030729 -0.089572 -0.007152
v -0.030729 -0.085657 -0.016286
v -0.039859 -0.093488 -0.013675
v -0.026810 -0.085657 -0.003236
v -0.042469 -0.086963 -0.003236
v -0.026810 -0.071306 -0.003236
v -0.041164 -0.092182 -0.004540
v -0.043774 -0.093488 -0.007152
v -0.043774 -0.083047 -0.004540
v -0.039859 -0.093488 -0.008455
v -0.028119 -0.069998 -0.008455
v -0.028119 -0.071306 -0.012371
v -0.029424 -0.088266 -0.004540
v -0.030729 -0.089572 -0.013675
v -0.026810 -0.071306 -0.012371
v -0.026810 -0.086963 -0.012371
v -0.045079 -0.089572 -0.016286
v -0.028119 -0.077832 0.000681
v -0.030729 -0.081743 -0.016286
v -0.038554 -0.092182 -0.014980
v -0.046384 -0.086963 -0.014980
v -0.026810 -0.075222 0.000681
v -0.030729 -0.086963 -0.003236
v -0.033339 -0.089572 -0.014980
v -0.045079 -0.086963 -0.017592
v -0.038554 -0.092182 -0.005846
v -0.043774 -0.092182 -0.014980
v -0.028119 -0.088266 -0.007152
v -0.042469 -0.084353 -0.003236
v -0.033339 -0.090876 -0.008455
v -0.029424 -0.086963 -0.014980
v -0.038554 -0.088266 -0.017592
v -0.046384 -0.086963 -0.004540
v -0.026810 -0.072612 -0.013675
f 85 106 125 
f 68 69 72 
f 66 67 74 
f 72 69 75 
f 72 75 79 
f 74 67 82 
f 66 74 83 
f 74 81 83 
f 84 70 85 
f 72 84 85 
f 80 70 88 
f 66 83 88 
f 83 80 88 
f 70 84 88 
f 73 78 89 
f 84 73 89 
f 84 72 90 
f 73 84 90 
f 67 66 91 
f 78 71 91 
f 72 79 93 
f 71 78 94 
f 78 73 94 
f 75 69 95 
f 87 77 96 
f 69 68 97 
f 68 81 97 
f 81 76 97 
f 77 71 98 
f 69 77 98 
f 71 77 99 
f 87 67 99 
f 77 87 99 
f 67 91 99 
f 91 71 99 
f 76 81 100 
f 81 74 100 
f 74 82 100 
f 82 76 100 
f 71 94 101 
f 94 86 101 
f 68 80 102 
f 81 68 102 
f 80 83 102 
f 83 81 102 
f 70 80 103 
f 85 70 103 
f 92 75 104 
f 75 95 104 
f 95 98 104 
f 101 92 104 
f 65 92 105 
f 92 86 105 
f 68 72 106 
f 80 68 106 
f 103 80 106 
f 85 103 106 
f 75 65 107 
f 79 75 107 
f 65 105 107 
f 105 79 107 
f 91 66 108 
f 69 76 109 
f 77 69 109 
f 76 96 109 
f 96 77 109 
f 90 72 110 
f 72 93 110 
f 93 90 110 
f 94 73 111 
f 86 94 111 
f 105 86 111 
f 66 88 112 
f 88 84 112 
f 108 66 112 
f 76 69 113 
f 69 97 113 
f 97 76 113 
f 95 69 114 
f 69 98 114 
f 98 95 114 
f 111 73 115 
f 105 111 115 
f 84 89 116 
f 89 108 116 
f 112 84 116 
f 108 112 116 
f 98 71 117 
f 71 101 117 
f 104 98 117 
f 101 104 117 
f 89 78 118 
f 78 91 118 
f 108 89 118 
f 91 108 118 
f 65 75 119 
f 92 65 119 
f 75 92 119 
f 76 82 120 
f 96 76 120 
f 82 96 120 
f 86 92 121 
f 92 101 121 
f 101 86 121 
f 93 79 122 
f 73 93 122 
f 79 105 122 
f 115 73 122 
f 105 115 122 
f 73 90 123 
f 93 73 123 
f 90 93 123 
f 82 67 124 
f 67 87 124 
f 96 82 124 
f 87 96 124 
f 72 85 125 
f 106 72 125 
o convex_2
v 0.028001 -0.039988 0.005898
v -0.026810 -0.086950 -0.012368
v -0.026810 -0.086950 -0.005840
v -0.005924 -0.011280 -0.003228
v 0.022775 -0.011280 -0.016284
v 0.003200 -0.011280 0.020258
v 0.004505 -0.069992 0.015034
v 0.011030 -0.067377 -0.008451
v 0.024080 -0.011280 0.018950
v -0.025499 -0.071296 0.003289
v -0.026810 -0.075208 -0.014980
v 0.000601 -0.064769 -0.017592
v 0.007115 -0.011280 -0.016284
v -0.016364 -0.067377 0.012426
v 0.031922 -0.016496 -0.003228
v 0.007115 -0.075208 0.003289
v 0.017561 -0.050419 0.017646
v 0.018860 -0.045203 -0.013675
v -0.005924 -0.011280 0.009814
v 0.004505 -0.041292 0.020258
v 0.022775 -0.054331 -0.000619
v -0.005924 -0.081734 0.007206
v -0.000704 -0.079127 -0.008451
v -0.026810 -0.068688 -0.001923
v 0.031922 -0.011280 0.008510
v -0.003314 -0.011280 -0.009756
v 0.016256 -0.062161 0.011122
v 0.025391 -0.030853 0.016342
v -0.012449 -0.069992 -0.017592
v -0.002009 -0.011280 0.016342
v -0.007229 -0.053027 0.017646
v -0.009839 -0.077823 0.011122
v -0.026810 -0.068688 -0.011060
v -0.007229 -0.075208 -0.016284
v 0.012335 -0.039988 -0.017592
v 0.028001 -0.039988 -0.001923
v -0.005924 -0.083038 -0.005840
v 0.017561 -0.026934 0.020258
v 0.007115 -0.062161 -0.016284
v 0.026696 -0.026934 -0.009756
v -0.000704 -0.060857 0.017646
v 0.013640 -0.068688 -0.001923
v -0.026810 -0.081734 -0.000619
v 0.009725 -0.054331 0.018950
v -0.016364 -0.062161 0.012426
v 0.031922 -0.023023 0.004594
v 0.021476 -0.051723 0.012426
v 0.017561 -0.041292 -0.016284
v -0.012449 -0.063465 -0.017592
v -0.000704 -0.011280 -0.012368
v 0.029306 -0.011280 -0.008451
v 0.007115 -0.072600 0.011122
v 0.020171 -0.056938 -0.004535
v -0.026810 -0.083038 -0.014980
v 0.011030 -0.032157 -0.017592
v -0.007229 -0.013888 0.000685
v -0.013754 -0.081734 0.007206
v 0.013640 -0.062161 0.015034
v -0.002009 -0.081734 0.001985
v 0.028001 -0.033461 0.011122
v 0.016256 -0.064769 0.005898
v -0.008534 -0.081734 -0.011060
v -0.022889 -0.066073 0.005898
v -0.018974 -0.075208 0.008510
f 168 182 189 
f 130 129 131 
f 130 131 134 
f 127 128 136 
f 129 130 138 
f 131 129 144 
f 136 128 149 
f 135 144 149 
f 130 134 150 
f 129 138 151 
f 150 134 153 
f 131 144 155 
f 145 131 156 
f 147 132 157 
f 136 149 158 
f 129 151 158 
f 151 136 158 
f 154 137 159 
f 137 154 160 
f 126 146 161 
f 128 127 162 
f 134 131 163 
f 131 145 163 
f 142 153 163 
f 153 134 163 
f 143 133 164 
f 133 148 164 
f 159 137 164 
f 148 159 164 
f 140 161 165 
f 161 143 165 
f 156 139 166 
f 145 156 166 
f 139 157 166 
f 157 132 166 
f 141 148 167 
f 148 133 167 
f 149 128 168 
f 135 149 168 
f 163 145 169 
f 142 163 169 
f 166 132 169 
f 145 166 169 
f 135 139 170 
f 131 155 170 
f 139 156 170 
f 156 131 170 
f 140 150 171 
f 126 161 171 
f 161 140 171 
f 146 126 172 
f 153 142 172 
f 160 130 173 
f 137 160 173 
f 143 164 173 
f 164 137 173 
f 130 165 173 
f 165 143 173 
f 136 138 174 
f 154 136 174 
f 160 154 174 
f 138 136 175 
f 136 151 175 
f 151 138 175 
f 130 150 176 
f 150 140 176 
f 165 130 176 
f 140 165 176 
f 132 147 177 
f 133 143 178 
f 143 161 178 
f 161 146 178 
f 167 133 178 
f 146 167 178 
f 127 136 179 
f 136 154 179 
f 159 127 179 
f 154 159 179 
f 138 130 180 
f 130 160 180 
f 174 138 180 
f 160 174 180 
f 144 129 181 
f 149 144 181 
f 158 149 181 
f 129 158 181 
f 128 147 182 
f 147 157 182 
f 168 128 182 
f 169 132 183 
f 142 169 183 
f 172 142 183 
f 152 172 183 
f 132 177 183 
f 177 152 183 
f 147 128 184 
f 148 141 184 
f 128 162 184 
f 162 148 184 
f 177 147 184 
f 141 177 184 
f 150 153 185 
f 171 150 185 
f 126 171 185 
f 172 126 185 
f 153 172 185 
f 167 146 186 
f 141 167 186 
f 146 172 186 
f 172 152 186 
f 177 141 186 
f 152 177 186 
f 127 159 187 
f 159 148 187 
f 162 127 187 
f 148 162 187 
f 144 135 188 
f 155 144 188 
f 135 170 188 
f 170 155 188 
f 139 135 189 
f 157 139 189 
f 135 168 189 
f 182 157 189 
