# Blender v3.0.1 OBJ File: 'env_objects.blend11'
# www.blender.org
o Cube
v 0.015000 -0.075000 -0.025000
v 0.015000 -0.075000 0.025000
v -0.015000 -0.075000 -0.025000
v -0.015000 -0.075000 0.025000
v 0.015000 0.075000 -0.025000
v 0.015000 0.075000 0.025000
v -0.015000 0.075000 -0.025000
v -0.015000 0.075000 0.025000
v -0.002870 -0.006929 0.025000
v -0.002870 -0.006929 -0.025000
v -0.004167 -0.006236 0.025000
v -0.004167 -0.006236 -0.025000
v -0.006929 0.002870 0.025000
v -0.006929 0.002870 -0.025000
v -0.007356 0.001463 0.025000
v -0.007356 0.001463 -0.025000
v -0.001463 -0.007356 0.025000
v -0.001463 -0.007356 -0.025000
v -0.005303 0.005303 0.025000
v -0.005303 0.005303 -0.025000
v 0.006236 0.004167 0.025000
v 0.006236 0.004167 -0.025000
v 0.006929 0.002870 0.025000
v 0.006929 0.002870 -0.025000
v -0.004167 0.006236 0.025000
v -0.004167 0.006236 -0.025000
v 0.007356 0.001463 0.025000
v 0.007356 0.001463 -0.025000
v 0.006929 -0.002870 0.025000
v 0.006929 -0.002870 -0.025000
v -0.000000 -0.007500 0.025000
v -0.000000 -0.007500 -0.025000
v -0.006929 -0.002870 0.025000
v -0.006929 -0.002870 -0.025000
v 0.006236 -0.004167 0.025000
v 0.006236 -0.004167 -0.025000
v 0.001463 0.007356 0.025000
v 0.001463 0.007356 -0.025000
v 0.005303 0.005303 0.025000
v 0.005303 0.005303 -0.025000
v 0.002870 0.006929 0.025000
v 0.002870 0.006929 -0.025000
v 0.000000 0.007500 0.025000
v 0.000000 0.007500 -0.025000
v -0.005303 -0.005303 0.025000
v -0.005303 -0.005303 -0.025000
v -0.006236 -0.004167 0.025000
v -0.006236 -0.004167 -0.025000
v 0.007500 -0.000000 0.025000
v 0.007500 -0.000000 -0.025000
v -0.007500 0.000000 0.025000
v -0.007500 0.000000 -0.025000
v -0.001463 0.007356 0.025000
v -0.001463 0.007356 -0.025000
v -0.006236 0.004167 0.025000
v -0.006236 0.004167 -0.025000
v -0.002870 0.006929 0.025000
v -0.002870 0.006929 -0.025000
v 0.002870 -0.006929 0.025000
v 0.002870 -0.006929 -0.025000
v 0.004167 -0.006236 0.025000
v 0.004167 -0.006236 -0.025000
v 0.001463 -0.007356 0.025000
v 0.001463 -0.007356 -0.025000
v 0.005303 -0.005303 0.025000
v 0.005303 -0.005303 -0.025000
v 0.007356 -0.001463 0.025000
v 0.007356 -0.001463 -0.025000
v 0.004167 0.006236 0.025000
v 0.004167 0.006236 -0.025000
v -0.007356 -0.001463 0.025000
v -0.007356 -0.001463 -0.025000
v -0.002870 -0.066929 0.025000
v -0.002870 -0.066929 -0.025000
v -0.004167 -0.066236 0.025000
v -0.004167 -0.066236 -0.025000
v -0.006929 -0.057130 0.025000
v -0.006929 -0.057130 -0.025000
v -0.007356 -0.058537 0.025000
v -0.007356 -0.058537 -0.025000
v -0.001463 -0.067356 0.025000
v -0.001463 -0.067356 -0.025000
v -0.005303 -0.054697 0.025000
v -0.005303 -0.054697 -0.025000
v 0.006236 -0.055833 0.025000
v 0.006236 -0.055833 -0.025000
v 0.006929 -0.057130 0.025000
v 0.006929 -0.057130 -0.025000
v -0.004167 -0.053764 0.025000
v -0.004167 -0.053764 -0.025000
v 0.007356 -0.058537 0.025000
v 0.007356 -0.058537 -0.025000
v 0.006929 -0.062870 0.025000
v 0.006929 -0.062870 -0.025000
v -0.000000 -0.067500 0.025000
v -0.000000 -0.067500 -0.025000
v -0.006929 -0.062870 0.025000
v -0.006929 -0.062870 -0.025000
v 0.006236 -0.064167 0.025000
v 0.006236 -0.064167 -0.025000
v 0.001463 -0.052644 0.025000
v 0.001463 -0.052644 -0.025000
v 0.005303 -0.054697 0.025000
v 0.005303 -0.054697 -0.025000
v 0.002870 -0.053071 0.025000
v 0.002870 -0.053071 -0.025000
v 0.000000 -0.052500 0.025000
v 0.000000 -0.052500 -0.025000
v -0.005303 -0.065303 0.025000
v -0.005303 -0.065303 -0.025000
v -0.006236 -0.064167 0.025000
v -0.006236 -0.064167 -0.025000
v 0.007500 -0.060000 0.025000
v 0.007500 -0.060000 -0.025000
v -0.007500 -0.060000 0.025000
v -0.007500 -0.060000 -0.025000
v -0.001463 -0.052644 0.025000
v -0.001463 -0.052644 -0.025000
v -0.006236 -0.055833 0.025000
v -0.006236 -0.055833 -0.025000
v -0.002870 -0.053071 0.025000
v -0.002870 -0.053071 -0.025000
v 0.002870 -0.066929 0.025000
v 0.002870 -0.066929 -0.025000
v 0.004167 -0.066236 0.025000
v 0.004167 -0.066236 -0.025000
v 0.001463 -0.067356 0.025000
v 0.001463 -0.067356 -0.025000
v 0.005303 -0.065303 0.025000
v 0.005303 -0.065303 -0.025000
v 0.007356 -0.061463 0.025000
v 0.007356 -0.061463 -0.025000
v 0.004167 -0.053764 0.025000
v 0.004167 -0.053764 -0.025000
v -0.007356 -0.061463 0.025000
v -0.007356 -0.061463 -0.025000
v -0.002870 0.053071 0.025000
v -0.002870 0.053071 -0.025000
v -0.004167 0.053764 0.025000
v -0.004167 0.053764 -0.025000
v -0.006929 0.062870 0.025000
v -0.006929 0.062870 -0.025000
v -0.007356 0.061463 0.025000
v -0.007356 0.061463 -0.025000
v -0.001463 0.052644 0.025000
v -0.001463 0.052644 -0.025000
v -0.005303 0.065303 0.025000
v -0.005303 0.065303 -0.025000
v 0.006236 0.064167 0.025000
v 0.006236 0.064167 -0.025000
v 0.006929 0.062870 0.025000
v 0.006929 0.062870 -0.025000
v -0.004167 0.066236 0.025000
v -0.004167 0.066236 -0.025000
v 0.007356 0.061463 0.025000
v 0.007356 0.061463 -0.025000
v 0.006929 0.057130 0.025000
v 0.006929 0.057130 -0.025000
v -0.000000 0.052500 0.025000
v -0.000000 0.052500 -0.025000
v -0.006929 0.057130 0.025000
v -0.006929 0.057130 -0.025000
v 0.006236 0.055833 0.025000
v 0.006236 0.055833 -0.025000
v 0.001463 0.067356 0.025000
v 0.001463 0.067356 -0.025000
v 0.005303 0.065303 0.025000
v 0.005303 0.065303 -0.025000
v 0.002870 0.066929 0.025000
v 0.002870 0.066929 -0.025000
v 0.000000 0.067500 0.025000
v 0.000000 0.067500 -0.025000
v -0.005303 0.054697 0.025000
v -0.005303 0.054697 -0.025000
v -0.006236 0.055833 0.025000
v -0.006236 0.055833 -0.025000
v 0.007500 0.060000 0.025000
v 0.007500 0.060000 -0.025000
v -0.007500 0.060000 0.025000
v -0.007500 0.060000 -0.025000
v -0.001463 0.067356 0.025000
v -0.001463 0.067356 -0.025000
v -0.006236 0.064167 0.025000
v -0.006236 0.064167 -0.025000
v -0.002870 0.066929 0.025000
v -0.002870 0.066929 -0.025000
v 0.002870 0.053071 0.025000
v 0.002870 0.053071 -0.025000
v 0.004167 0.053764 0.025000
v 0.004167 0.053764 -0.025000
v 0.001463 0.052644 0.025000
v 0.001463 0.052644 -0.025000
v 0.005303 0.054697 0.025000
v 0.005303 0.054697 -0.025000
v 0.007356 0.058537 0.025000
v 0.007356 0.058537 -0.025000
v 0.004167 0.066236 0.025000
v 0.004167 0.066236 -0.025000
v -0.007356 0.058537 0.025000
v -0.007356 0.058537 -0.025000
vt 0.625000 0.000000
vt 0.375000 0.250000
vt 0.375000 0.000000
vt 0.625000 0.250000
vt 0.375000 0.500000
vt 0.625000 0.500000
vt 0.375000 0.750000
vt 0.625000 0.750000
vt 0.375000 1.000000
vt 0.337740 0.612807
vt 0.262260 0.612807
vt 0.261548 0.601082
vt 0.650000 0.562500
vt 0.647561 0.563701
vt 0.718750 0.701339
vt 0.750000 0.534673
vt 0.718750 0.534673
vt 0.625000 0.701339
vt 0.656250 0.534673
vt 0.625000 0.534673
vt 0.656250 0.701339
vt 0.687500 0.534673
vt 0.218750 0.701339
vt 0.250000 0.534673
vt 0.218750 0.534673
vt 0.781250 0.701339
vt 0.812500 0.534673
vt 0.781250 0.534673
vt 0.750000 0.701339
vt 0.843750 0.701339
vt 0.875000 0.534673
vt 0.843750 0.534673
vt 0.000000 0.701339
vt 0.031250 0.534673
vt 0.000000 0.534673
vt 0.468750 0.701339
vt 0.500000 0.534673
vt 0.468750 0.534673
vt 0.156250 0.701339
vt 0.187500 0.534673
vt 0.156250 0.534673
vt 0.500000 0.701339
vt 0.531250 0.534673
vt 0.031250 0.701339
vt 0.062500 0.534673
vt 0.875000 0.701339
vt 0.906250 0.534673
vt 0.406250 0.701339
vt 0.437500 0.534673
vt 0.406250 0.534673
vt 0.906250 0.701339
vt 0.937500 0.534673
vt 0.593750 0.701339
vt 0.593750 0.534673
vt 0.093750 0.701339
vt 0.125000 0.534673
vt 0.093750 0.534673
vt 0.187500 0.701339
vt 0.237740 0.637193
vt 0.161549 0.648918
vt 0.162260 0.637193
vt 0.562500 0.701339
vt 0.562500 0.534673
vt 0.375000 0.701339
vt 0.375000 0.534673
vt 0.312500 0.701339
vt 0.343750 0.534673
vt 0.312500 0.534673
vt 0.968750 0.701339
vt 1.000000 0.534673
vt 0.968750 0.534673
vt 0.812500 0.701339
vt 0.250000 0.701339
vt 0.281250 0.534673
vt 0.687500 0.701339
vt 0.437500 0.701339
vt 0.062500 0.701339
vt 0.937500 0.701339
vt 0.531250 0.701339
vt 0.281250 0.701339
vt 0.125000 0.701339
vt 0.875000 0.750000
vt 0.850000 0.687500
vt 0.852439 0.686299
vt 0.343750 0.701339
vt 0.718750 0.701339
vt 0.750000 0.534673
vt 0.718750 0.534673
vt 0.625000 0.701339
vt 0.656250 0.534673
vt 0.625000 0.534673
vt 0.656250 0.701339
vt 0.687500 0.534673
vt 0.218750 0.701339
vt 0.250000 0.534673
vt 0.218750 0.534673
vt 0.781250 0.701339
vt 0.812500 0.534673
vt 0.781250 0.534673
vt 0.750000 0.701339
vt 0.843750 0.701339
vt 0.875000 0.534673
vt 0.843750 0.534673
vt 0.000000 0.701339
vt 0.031250 0.534673
vt 0.000000 0.534673
vt 0.468750 0.701339
vt 0.500000 0.534673
vt 0.468750 0.534673
vt 0.156250 0.701339
vt 0.187500 0.534673
vt 0.156250 0.534673
vt 0.500000 0.701339
vt 0.531250 0.534673
vt 0.031250 0.701339
vt 0.062500 0.534673
vt 0.875000 0.701339
vt 0.906250 0.534673
vt 0.406250 0.701339
vt 0.437500 0.534673
vt 0.406250 0.534673
vt 0.906250 0.701339
vt 0.937500 0.534673
vt 0.593750 0.701339
vt 0.593750 0.534673
vt 0.093750 0.701339
vt 0.125000 0.534673
vt 0.093750 0.534673
vt 0.150000 0.562500
vt 0.147561 0.563701
vt 0.125000 0.500000
vt 0.187500 0.701339
vt 0.837740 0.612807
vt 0.762260 0.612807
vt 0.761548 0.601082
vt 0.562500 0.701339
vt 0.562500 0.534673
vt 0.375000 0.701339
vt 0.375000 0.534673
vt 0.312500 0.701339
vt 0.343750 0.534673
vt 0.312500 0.534673
vt 0.968750 0.701339
vt 1.000000 0.534673
vt 0.968750 0.534673
vt 0.812500 0.701339
vt 0.250000 0.701339
vt 0.281250 0.534673
vt 0.687500 0.701339
vt 0.437500 0.701339
vt 0.062500 0.701339
vt 0.937500 0.701339
vt 0.531250 0.701339
vt 0.281250 0.701339
vt 0.125000 0.701339
vt 0.343750 0.701339
vt 0.718750 0.701339
vt 0.750000 0.534673
vt 0.718750 0.534673
vt 0.625000 0.701339
vt 0.656250 0.534673
vt 0.625000 0.534673
vt 0.656250 0.701339
vt 0.687500 0.534673
vt 0.218750 0.701339
vt 0.250000 0.534673
vt 0.218750 0.534673
vt 0.781250 0.701339
vt 0.812500 0.534673
vt 0.781250 0.534673
vt 0.750000 0.701339
vt 0.843750 0.701339
vt 0.875000 0.534673
vt 0.843750 0.534673
vt 0.000000 0.701339
vt 0.031250 0.534673
vt 0.000000 0.534673
vt 0.468750 0.701339
vt 0.500000 0.534673
vt 0.468750 0.534673
vt 0.156250 0.701339
vt 0.187500 0.534673
vt 0.156250 0.534673
vt 0.500000 0.701339
vt 0.531250 0.534673
vt 0.031250 0.701339
vt 0.062500 0.534673
vt 0.875000 0.701339
vt 0.906250 0.534673
vt 0.406250 0.701339
vt 0.437500 0.534673
vt 0.406250 0.534673
vt 0.906250 0.701339
vt 0.937500 0.534673
vt 0.593750 0.701339
vt 0.593750 0.534673
vt 0.093750 0.701339
vt 0.125000 0.534673
vt 0.093750 0.534673
vt 0.187500 0.701339
vt 0.350000 0.687500
vt 0.352439 0.686299
vt 0.562500 0.701339
vt 0.562500 0.534673
vt 0.375000 0.701339
vt 0.375000 0.534673
vt 0.312500 0.701339
vt 0.343750 0.534673
vt 0.312500 0.534673
vt 0.968750 0.701339
vt 1.000000 0.534673
vt 0.968750 0.534673
vt 0.812500 0.701339
vt 0.250000 0.701339
vt 0.281250 0.534673
vt 0.687500 0.701339
vt 0.437500 0.701339
vt 0.062500 0.701339
vt 0.937500 0.701339
vt 0.531250 0.701339
vt 0.281250 0.701339
vt 0.125000 0.701339
vt 0.662260 0.637193
vt 0.737740 0.637193
vt 0.738452 0.648918
vt 0.343750 0.701339
vt 0.625000 1.000000
vt 0.362500 0.625000
vt 0.362260 0.612807
vt 0.237740 0.612807
vt 0.237500 0.625000
vt 0.238452 0.601082
vt 0.361548 0.601082
vt 0.360393 0.590277
vt 0.239607 0.590277
vt 0.241161 0.580806
vt 0.358839 0.580806
vt 0.356945 0.573033
vt 0.243055 0.573033
vt 0.245216 0.567258
vt 0.354783 0.567257
vt 0.352439 0.563701
vt 0.247561 0.563701
vt 0.250000 0.562500
vt 0.350000 0.562500
vt 0.347561 0.563701
vt 0.252439 0.563701
vt 0.345216 0.567257
vt 0.254784 0.567258
vt 0.256945 0.573033
vt 0.343055 0.573033
vt 0.341161 0.580806
vt 0.258839 0.580806
vt 0.339607 0.590277
vt 0.260393 0.590277
vt 0.338452 0.601082
vt 0.337500 0.625000
vt 0.262500 0.625000
vt 0.737500 0.625000
vt 0.662500 0.625000
vt 0.662260 0.612807
vt 0.661549 0.601082
vt 0.637740 0.612807
vt 0.637500 0.625000
vt 0.638452 0.601082
vt 0.660393 0.590277
vt 0.658839 0.580806
vt 0.639607 0.590277
vt 0.641161 0.580806
vt 0.656945 0.573033
vt 0.654783 0.567257
vt 0.643055 0.573033
vt 0.645216 0.567257
vt 0.652439 0.563701
vt 0.262260 0.637193
vt 0.125000 0.750000
vt 0.137500 0.625000
vt 0.137740 0.637193
vt 0.261548 0.648918
vt 0.260393 0.659723
vt 0.138452 0.648918
vt 0.139607 0.659723
vt 0.258839 0.669194
vt 0.256945 0.676967
vt 0.141161 0.669194
vt 0.143055 0.676967
vt 0.254784 0.682742
vt 0.252439 0.686299
vt 0.145216 0.682742
vt 0.147561 0.686299
vt 0.250000 0.687500
vt 0.150000 0.687500
vt 0.152439 0.686299
vt 0.247561 0.686299
vt 0.245216 0.682742
vt 0.154784 0.682743
vt 0.243055 0.676967
vt 0.156945 0.676967
vt 0.241161 0.669194
vt 0.158839 0.669194
vt 0.239607 0.659723
vt 0.160393 0.659723
vt 0.238452 0.648918
vt 0.162500 0.625000
vt 1.000000 0.701339
vt 0.762500 0.625000
vt 0.837500 0.625000
vt 0.837740 0.637193
vt 0.838451 0.648918
vt 0.862260 0.637193
vt 0.862500 0.625000
vt 0.861549 0.648918
vt 0.839607 0.659723
vt 0.841161 0.669194
vt 0.860393 0.659723
vt 0.858839 0.669194
vt 0.843055 0.676967
vt 0.845216 0.682742
vt 0.856945 0.676967
vt 0.854783 0.682742
vt 0.847562 0.686299
vt 0.162260 0.612807
vt 0.161549 0.601082
vt 0.137740 0.612807
vt 0.138452 0.601082
vt 0.160393 0.590277
vt 0.158839 0.580806
vt 0.139607 0.590277
vt 0.141161 0.580806
vt 0.156945 0.573033
vt 0.154784 0.567258
vt 0.143055 0.573033
vt 0.145216 0.567258
vt 0.152439 0.563701
vt 0.875000 0.500000
vt 0.862260 0.612807
vt 0.861549 0.601082
vt 0.737740 0.612807
vt 0.738452 0.601082
vt 0.860393 0.590277
vt 0.739607 0.590277
vt 0.741161 0.580806
vt 0.858839 0.580806
vt 0.856945 0.573033
vt 0.743055 0.573033
vt 0.745216 0.567258
vt 0.854784 0.567258
vt 0.852439 0.563701
vt 0.747561 0.563701
vt 0.750000 0.562500
vt 0.850000 0.562500
vt 0.847561 0.563701
vt 0.752439 0.563701
vt 0.845216 0.567257
vt 0.754784 0.567258
vt 0.843055 0.573033
vt 0.756945 0.573033
vt 0.758839 0.580806
vt 0.841161 0.580806
vt 0.839607 0.590277
vt 0.760393 0.590277
vt 0.838452 0.601082
vt 1.000000 0.701339
vt 0.337740 0.637193
vt 0.338452 0.648918
vt 0.362260 0.637193
vt 0.361548 0.648918
vt 0.339607 0.659723
vt 0.341161 0.669194
vt 0.360393 0.659723
vt 0.358839 0.669194
vt 0.343055 0.676967
vt 0.345216 0.682742
vt 0.356945 0.676967
vt 0.354784 0.682742
vt 0.347561 0.686299
vt 1.000000 0.701339
vt 0.637740 0.637193
vt 0.638452 0.648918
vt 0.762260 0.637193
vt 0.761549 0.648918
vt 0.639607 0.659723
vt 0.760393 0.659723
vt 0.758839 0.669194
vt 0.641161 0.669194
vt 0.643056 0.676967
vt 0.756945 0.676967
vt 0.754784 0.682742
vt 0.645217 0.682742
vt 0.647561 0.686299
vt 0.752439 0.686299
vt 0.750000 0.687500
vt 0.650000 0.687500
vt 0.652439 0.686299
vt 0.747561 0.686299
vt 0.654783 0.682742
vt 0.745216 0.682742
vt 0.656945 0.676967
vt 0.743055 0.676967
vt 0.741161 0.669194
vt 0.658839 0.669194
vt 0.660393 0.659723
vt 0.739607 0.659723
vt 0.661548 0.648918
vn 0.0000 -1.0000 0.0000
vn -1.0000 0.0000 0.0000
vn 0.0000 1.0000 0.0000
vn 1.0000 0.0000 0.0000
vn -0.0000 0.0000 -1.0000
vn 0.0000 -0.0000 1.0000
vn -0.0980 -0.9952 0.0000
vn -0.6344 -0.7730 0.0000
vn -0.4714 -0.8819 0.0000
vn 0.0980 0.9952 0.0000
vn 0.2903 -0.9569 0.0000
vn 0.0980 -0.9952 0.0000
vn 0.6344 -0.7730 0.0000
vn 0.9952 0.0980 -0.0000
vn -0.9952 0.0980 0.0000
vn 0.4714 0.8819 0.0000
vn -0.9952 -0.0980 -0.0000
vn 0.9569 0.2903 0.0000
vn 0.7730 -0.6344 0.0000
vn -0.8819 0.4714 0.0000
vn 0.8819 -0.4714 0.0000
vn -0.7730 -0.6344 0.0000
vn 0.7730 0.6344 0.0000
vn 0.2903 0.9569 0.0000
vn -0.8819 -0.4714 0.0000
vn -0.7730 0.6344 0.0000
vn -0.4714 0.8819 0.0000
vn 0.9952 -0.0980 0.0000
vn 0.4714 -0.8819 0.0000
vn -0.0980 0.9952 0.0000
vn -0.2903 -0.9569 0.0000
vn -0.9569 0.2903 0.0000
vn 0.8819 0.4714 0.0000
vn 0.9569 -0.2903 0.0000
vn -0.9569 -0.2903 0.0000
vn -0.2903 0.9569 0.0000
vn 0.6344 0.7730 0.0000
vn -0.6344 0.7730 0.0000
s off
f 2/1/1 3/2/1 1/3/1
f 4/4/2 7/5/2 3/2/2
f 8/6/3 5/7/3 7/5/3
f 6/8/4 1/9/4 5/7/4
f 146/10/5 54/11/5 58/12/5
f 8/6/6 179/13/6 143/14/6
f 37/15/7 44/16/7 38/17/7
f 39/18/8 70/19/8 40/20/8
f 69/21/9 42/22/9 70/19/9
f 17/23/10 32/24/10 18/25/10
f 53/26/11 58/27/11 54/28/11
f 43/29/12 54/28/12 44/16/12
f 25/30/13 20/31/13 26/32/13
f 51/33/14 72/34/14 52/35/14
f 67/36/15 50/37/15 68/38/15
f 11/39/16 10/40/16 12/41/16
f 49/42/17 28/43/17 50/37/17
f 71/44/18 34/45/18 72/34/18
f 19/46/19 56/47/19 20/31/19
f 35/48/20 30/49/20 36/50/20
f 55/51/21 14/52/21 56/47/21
f 21/53/22 40/20/22 22/54/22
f 47/55/23 46/56/23 48/57/23
f 9/58/24 18/25/24 10/40/24
f 64/59/5 106/60/5 102/61/5
f 23/62/25 22/54/25 24/63/25
f 65/64/26 36/50/26 66/65/26
f 59/66/27 62/67/27 60/68/27
f 15/69/28 52/70/28 16/71/28
f 57/72/29 26/32/29 58/27/29
f 31/73/30 64/74/30 32/24/30
f 41/75/31 38/17/31 42/22/31
f 29/76/32 68/38/32 30/49/32
f 33/77/33 48/57/33 34/45/33
f 13/78/34 16/71/34 14/52/34
f 27/79/35 24/63/35 28/43/35
f 63/80/36 60/68/36 64/74/36
f 45/81/37 12/41/37 46/56/37
f 2/82/6 113/83/6 131/84/6
f 61/85/38 66/65/38 62/67/38
f 101/86/7 108/87/7 102/88/7
f 103/89/8 134/90/8 104/91/8
f 133/92/9 106/93/9 134/90/9
f 81/94/10 96/95/10 82/96/10
f 117/97/11 122/98/11 118/99/11
f 107/100/12 118/99/12 108/87/12
f 89/101/13 84/102/13 90/103/13
f 115/104/14 136/105/14 116/106/14
f 131/107/15 114/108/15 132/109/15
f 75/110/16 74/111/16 76/112/16
f 113/113/17 92/114/17 114/108/17
f 135/115/18 98/116/18 136/105/18
f 83/117/19 120/118/19 84/102/19
f 99/119/20 94/120/20 100/121/20
f 119/122/21 78/123/21 120/118/21
f 85/124/22 104/91/22 86/125/22
f 111/126/23 110/127/23 112/128/23
f 116/129/5 136/130/5 3/131/5
f 73/132/24 82/96/24 74/111/24
f 117/133/6 17/134/6 9/135/6
f 87/136/25 86/125/25 88/137/25
f 129/138/26 100/121/26 130/139/26
f 123/140/27 126/141/27 124/142/27
f 79/143/28 116/144/28 80/145/28
f 121/146/29 90/103/29 122/98/29
f 95/147/30 128/148/30 96/95/30
f 105/149/31 102/88/31 106/93/31
f 93/150/32 132/109/32 94/120/32
f 97/151/33 112/128/33 98/116/33
f 77/152/34 80/145/34 78/123/34
f 91/153/35 88/137/35 92/114/35
f 127/154/36 124/142/36 128/148/36
f 109/155/37 76/112/37 110/127/37
f 125/156/38 130/139/38 126/141/38
f 165/157/7 172/158/7 166/159/7
f 167/160/8 198/161/8 168/162/8
f 197/163/9 170/164/9 198/161/9
f 145/165/10 160/166/10 146/167/10
f 181/168/11 186/169/11 182/170/11
f 171/171/12 182/170/12 172/158/12
f 153/172/13 148/173/13 154/174/13
f 179/175/14 200/176/14 180/177/14
f 195/178/15 178/179/15 196/180/15
f 139/181/16 138/182/16 140/183/16
f 177/184/17 156/185/17 178/179/17
f 199/186/18 162/187/18 200/176/18
f 147/188/19 184/189/19 148/173/19
f 163/190/20 158/191/20 164/192/20
f 183/193/21 142/194/21 184/189/21
f 149/195/22 168/162/22 150/196/22
f 175/197/23 174/198/23 176/199/23
f 137/200/24 146/167/24 138/182/24
f 178/201/5 156/202/5 5/7/5
f 151/203/25 150/196/25 152/204/25
f 193/205/26 164/192/26 194/206/26
f 187/207/27 190/208/27 188/209/27
f 143/210/28 180/211/28 144/212/28
f 185/213/29 154/174/29 186/169/29
f 159/214/30 192/215/30 160/166/30
f 169/216/31 166/159/31 170/164/31
f 157/217/32 196/180/32 158/191/32
f 161/218/33 176/199/33 162/187/33
f 141/219/34 144/212/34 142/194/34
f 155/220/35 152/204/35 156/185/35
f 191/221/36 188/209/36 192/215/36
f 173/222/37 140/183/37 174/198/37
f 191/223/6 37/224/6 41/225/6
f 189/226/38 194/206/38 190/208/38
f 2/1/1 4/4/1 3/2/1
f 4/4/2 8/6/2 7/5/2
f 8/6/3 6/8/3 5/7/3
f 6/8/4 2/227/4 1/9/4
f 7/5/5 5/7/5 172/228/5
f 7/5/5 172/228/5 182/229/5
f 18/230/5 32/231/5 3/131/5
f 10/232/5 18/230/5 3/131/5
f 7/5/5 182/229/5 186/233/5
f 7/5/5 186/233/5 154/234/5
f 12/235/5 10/232/5 3/131/5
f 46/236/5 12/235/5 3/131/5
f 7/5/5 154/234/5 148/237/5
f 7/5/5 148/237/5 184/238/5
f 48/239/5 46/236/5 3/131/5
f 34/240/5 48/239/5 3/131/5
f 7/5/5 184/238/5 142/241/5
f 7/5/5 142/241/5 144/242/5
f 72/243/5 34/240/5 3/131/5
f 52/244/5 72/243/5 3/131/5
f 7/5/5 144/242/5 180/245/5
f 7/5/5 180/245/5 200/246/5
f 52/244/5 3/131/5 7/5/5
f 16/247/5 52/244/5 7/5/5
f 7/5/5 200/246/5 16/247/5
f 200/246/5 162/248/5 16/247/5
f 14/249/5 16/247/5 162/248/5
f 14/249/5 162/248/5 56/250/5
f 162/248/5 176/251/5 56/250/5
f 56/250/5 176/251/5 174/252/5
f 20/253/5 56/250/5 174/252/5
f 20/253/5 174/252/5 140/254/5
f 26/255/5 20/253/5 140/254/5
f 26/255/5 140/254/5 138/256/5
f 58/12/5 26/255/5 138/256/5
f 146/10/5 160/257/5 44/258/5
f 58/12/5 138/256/5 146/10/5
f 146/10/5 44/258/5 54/11/5
f 43/259/6 159/260/6 145/261/6
f 43/259/6 145/261/6 137/262/6
f 181/263/6 171/264/6 8/6/6
f 185/265/6 181/263/6 8/6/6
f 43/259/6 137/262/6 139/266/6
f 43/259/6 139/266/6 173/267/6
f 153/268/6 185/265/6 8/6/6
f 147/269/6 153/268/6 8/6/6
f 43/259/6 173/267/6 175/270/6
f 43/259/6 175/270/6 161/271/6
f 183/272/6 147/269/6 8/6/6
f 141/273/6 183/272/6 8/6/6
f 8/6/6 43/259/6 199/274/6
f 43/259/6 161/271/6 199/274/6
f 143/14/6 141/273/6 8/6/6
f 8/6/6 199/274/6 179/13/6
f 37/15/7 43/29/7 44/16/7
f 39/18/8 69/21/8 70/19/8
f 69/21/9 41/75/9 42/22/9
f 17/23/10 31/73/10 32/24/10
f 53/26/11 57/72/11 58/27/11
f 43/29/12 53/26/12 54/28/12
f 25/30/13 19/46/13 20/31/13
f 51/33/14 71/44/14 72/34/14
f 67/36/15 49/42/15 50/37/15
f 11/39/16 9/58/16 10/40/16
f 49/42/17 27/79/17 28/43/17
f 71/44/18 33/77/18 34/45/18
f 19/46/19 55/51/19 56/47/19
f 35/48/20 29/76/20 30/49/20
f 55/51/21 13/78/21 14/52/21
f 21/53/22 39/18/22 40/20/22
f 47/55/23 45/81/23 46/56/23
f 9/58/24 17/23/24 18/25/24
f 38/275/5 44/258/5 5/7/5
f 1/276/5 3/131/5 96/277/5
f 1/276/5 96/277/5 128/278/5
f 42/279/5 38/275/5 5/7/5
f 70/280/5 42/279/5 5/7/5
f 1/276/5 128/278/5 124/281/5
f 1/276/5 124/281/5 126/282/5
f 40/283/5 70/280/5 5/7/5
f 22/284/5 40/283/5 5/7/5
f 1/276/5 126/282/5 130/285/5
f 1/276/5 130/285/5 100/286/5
f 24/287/5 22/284/5 5/7/5
f 28/288/5 24/287/5 5/7/5
f 1/276/5 100/286/5 94/289/5
f 1/276/5 94/289/5 132/290/5
f 28/288/5 5/7/5 50/291/5
f 5/7/5 1/276/5 50/291/5
f 1/276/5 132/290/5 114/292/5
f 1/276/5 114/292/5 92/293/5
f 68/294/5 50/291/5 1/276/5
f 30/295/5 68/294/5 92/293/5
f 68/294/5 1/276/5 92/293/5
f 92/293/5 88/296/5 30/295/5
f 36/297/5 30/295/5 86/298/5
f 30/295/5 88/296/5 86/298/5
f 66/299/5 36/297/5 86/298/5
f 66/299/5 86/298/5 104/300/5
f 62/301/5 66/299/5 104/300/5
f 62/301/5 104/300/5 134/302/5
f 60/303/5 62/301/5 134/302/5
f 60/303/5 134/302/5 106/60/5
f 108/304/5 32/231/5 64/59/5
f 64/59/5 60/303/5 106/60/5
f 102/61/5 108/304/5 64/59/5
f 23/62/25 21/53/25 22/54/25
f 65/64/26 35/48/26 36/50/26
f 59/66/27 61/85/27 62/67/27
f 15/69/28 51/305/28 52/70/28
f 57/72/29 25/30/29 26/32/29
f 31/73/30 63/80/30 64/74/30
f 41/75/31 37/15/31 38/17/31
f 29/76/32 67/36/32 68/38/32
f 33/77/33 47/55/33 48/57/33
f 13/78/34 15/69/34 16/71/34
f 27/79/35 23/62/35 24/63/35
f 63/80/36 59/66/36 60/68/36
f 45/81/37 11/39/37 12/41/37
f 31/306/6 107/307/6 101/308/6
f 31/306/6 101/308/6 105/309/6
f 127/310/6 95/311/6 2/82/6
f 123/312/6 127/310/6 2/82/6
f 31/306/6 105/309/6 133/313/6
f 31/306/6 133/313/6 103/314/6
f 125/315/6 123/312/6 2/82/6
f 129/316/6 125/315/6 2/82/6
f 31/306/6 103/314/6 85/317/6
f 31/306/6 85/317/6 87/318/6
f 99/319/6 129/316/6 2/82/6
f 93/320/6 99/319/6 2/82/6
f 2/82/6 31/306/6 91/321/6
f 31/306/6 87/318/6 91/321/6
f 131/84/6 93/320/6 2/82/6
f 2/82/6 91/321/6 113/83/6
f 61/85/38 65/64/38 66/65/38
f 101/86/7 107/100/7 108/87/7
f 103/89/8 133/92/8 134/90/8
f 133/92/9 105/149/9 106/93/9
f 81/94/10 95/147/10 96/95/10
f 117/97/11 121/146/11 122/98/11
f 107/100/12 117/97/12 118/99/12
f 89/101/13 83/117/13 84/102/13
f 115/104/14 135/115/14 136/105/14
f 131/107/15 113/113/15 114/108/15
f 75/110/16 73/132/16 74/111/16
f 113/113/17 91/153/17 92/114/17
f 135/115/18 97/151/18 98/116/18
f 83/117/19 119/122/19 120/118/19
f 99/119/20 93/150/20 94/120/20
f 119/122/21 77/152/21 78/123/21
f 85/124/22 103/89/22 104/91/22
f 111/126/23 109/155/23 110/127/23
f 32/231/5 108/304/5 118/322/5
f 32/231/5 118/322/5 122/323/5
f 82/324/5 96/277/5 3/131/5
f 74/325/5 82/324/5 3/131/5
f 32/231/5 122/323/5 90/326/5
f 32/231/5 90/326/5 84/327/5
f 76/328/5 74/325/5 3/131/5
f 110/329/5 76/328/5 3/131/5
f 32/231/5 84/327/5 120/330/5
f 32/231/5 120/330/5 78/331/5
f 112/332/5 110/329/5 3/131/5
f 98/333/5 112/332/5 3/131/5
f 3/131/5 32/231/5 80/334/5
f 32/231/5 78/331/5 80/334/5
f 136/130/5 98/333/5 3/131/5
f 3/131/5 80/334/5 116/129/5
f 73/132/24 81/94/24 82/96/24
f 2/82/6 95/311/6 4/335/6
f 95/311/6 81/336/6 4/335/6
f 81/336/6 73/337/6 4/335/6
f 53/338/6 43/259/6 8/6/6
f 57/339/6 53/338/6 8/6/6
f 4/335/6 73/337/6 75/340/6
f 25/341/6 57/339/6 8/6/6
f 19/342/6 25/341/6 8/6/6
f 4/335/6 75/340/6 109/343/6
f 4/335/6 109/343/6 111/344/6
f 55/345/6 19/342/6 8/6/6
f 13/346/6 55/345/6 8/6/6
f 4/335/6 111/344/6 97/347/6
f 4/335/6 97/347/6 135/348/6
f 15/349/6 13/346/6 8/6/6
f 51/350/6 15/349/6 8/6/6
f 4/335/6 135/348/6 115/351/6
f 4/335/6 115/351/6 79/352/6
f 51/350/6 8/6/6 4/335/6
f 71/353/6 51/350/6 4/335/6
f 4/335/6 79/352/6 71/353/6
f 79/352/6 77/354/6 71/353/6
f 33/355/6 71/353/6 77/354/6
f 33/355/6 77/354/6 119/356/6
f 47/357/6 33/355/6 119/356/6
f 47/357/6 119/356/6 45/358/6
f 119/356/6 83/359/6 45/358/6
f 45/358/6 83/359/6 89/360/6
f 11/361/6 45/358/6 89/360/6
f 11/361/6 89/360/6 121/362/6
f 9/135/6 11/361/6 121/362/6
f 117/133/6 107/307/6 31/306/6
f 9/135/6 121/362/6 117/133/6
f 117/133/6 31/306/6 17/134/6
f 87/136/25 85/124/25 86/125/25
f 129/138/26 99/119/26 100/121/26
f 123/140/27 125/156/27 126/141/27
f 79/143/28 115/363/28 116/144/28
f 121/146/29 89/101/29 90/103/29
f 95/147/30 127/154/30 128/148/30
f 105/149/31 101/86/31 102/88/31
f 93/150/32 131/107/32 132/109/32
f 97/151/33 111/126/33 112/128/33
f 77/152/34 79/143/34 80/145/34
f 91/153/35 87/136/35 88/137/35
f 127/154/36 123/140/36 124/142/36
f 109/155/37 75/110/37 76/112/37
f 125/156/38 129/138/38 130/139/38
f 165/157/7 171/171/7 172/158/7
f 167/160/8 197/163/8 198/161/8
f 197/163/9 169/216/9 170/164/9
f 145/165/10 159/214/10 160/166/10
f 181/168/11 185/213/11 186/169/11
f 171/171/12 181/168/12 182/170/12
f 153/172/13 147/188/13 148/173/13
f 179/175/14 199/186/14 200/176/14
f 195/178/15 177/184/15 178/179/15
f 139/181/16 137/200/16 138/182/16
f 177/184/17 155/220/17 156/185/17
f 199/186/18 161/218/18 162/187/18
f 147/188/19 183/193/19 184/189/19
f 163/190/20 157/217/20 158/191/20
f 183/193/21 141/219/21 142/194/21
f 149/195/22 167/160/22 168/162/22
f 175/197/23 173/222/23 174/198/23
f 137/200/24 145/165/24 146/167/24
f 44/258/5 160/257/5 192/364/5
f 44/258/5 192/364/5 188/365/5
f 166/366/5 172/228/5 5/7/5
f 170/367/5 166/366/5 5/7/5
f 44/258/5 188/365/5 190/368/5
f 44/258/5 190/368/5 194/369/5
f 198/370/5 170/367/5 5/7/5
f 168/371/5 198/370/5 5/7/5
f 44/258/5 194/369/5 164/372/5
f 44/258/5 164/372/5 158/373/5
f 150/374/5 168/371/5 5/7/5
f 152/375/5 150/374/5 5/7/5
f 5/7/5 44/258/5 196/376/5
f 44/258/5 158/373/5 196/376/5
f 156/202/5 152/375/5 5/7/5
f 5/7/5 196/376/5 178/201/5
f 151/203/25 149/195/25 150/196/25
f 193/205/26 163/190/26 164/192/26
f 187/207/27 189/226/27 190/208/27
f 143/210/28 179/377/28 180/211/28
f 185/213/29 153/172/29 154/174/29
f 159/214/30 191/221/30 192/215/30
f 169/216/31 165/157/31 166/159/31
f 157/217/32 195/178/32 196/180/32
f 161/218/33 175/197/33 176/199/33
f 141/219/34 143/210/34 144/212/34
f 155/220/35 151/203/35 152/204/35
f 191/221/36 187/207/36 188/209/36
f 173/222/37 139/181/37 140/183/37
f 8/6/6 171/264/6 6/8/6
f 171/264/6 165/378/6 6/8/6
f 165/378/6 169/379/6 6/8/6
f 63/380/6 31/306/6 2/82/6
f 59/381/6 63/380/6 2/82/6
f 6/8/6 169/379/6 197/382/6
f 61/383/6 59/381/6 2/82/6
f 65/384/6 61/383/6 2/82/6
f 6/8/6 197/382/6 167/385/6
f 6/8/6 167/385/6 149/386/6
f 35/387/6 65/384/6 2/82/6
f 29/388/6 35/387/6 2/82/6
f 6/8/6 149/386/6 151/389/6
f 6/8/6 151/389/6 155/390/6
f 67/391/6 29/388/6 2/82/6
f 49/392/6 67/391/6 2/82/6
f 6/8/6 155/390/6 177/393/6
f 6/8/6 177/393/6 195/394/6
f 49/392/6 2/82/6 6/8/6
f 27/395/6 49/392/6 6/8/6
f 6/8/6 195/394/6 27/395/6
f 195/394/6 157/396/6 27/395/6
f 23/397/6 27/395/6 157/396/6
f 23/397/6 157/396/6 163/398/6
f 21/399/6 23/397/6 163/398/6
f 21/399/6 163/398/6 39/400/6
f 163/398/6 193/401/6 39/400/6
f 39/400/6 193/401/6 189/402/6
f 69/403/6 39/400/6 189/402/6
f 69/403/6 189/402/6 187/404/6
f 41/225/6 69/403/6 187/404/6
f 191/223/6 159/260/6 43/259/6
f 41/225/6 187/404/6 191/223/6
f 191/223/6 43/259/6 37/224/6
f 189/226/38 193/205/38 194/206/38
