# https://github.com/mikedh/trimesh

v -0.02500000 -0.02500000 -0.02500000 0.49803922 0.49803922 0.00000000
v -0.02500000 -0.02500000 0.02500000 0.60000000 0.20000000 0.40000000
v -0.02500000 0.02500000 -0.02500000 0.60000000 0.60000000 0.40000000
v -0.02500000 0.02500000 0.02500000 0.49803922 0.49803922 0.24705882
v 0.02500000 -0.02500000 -0.02500000 0.40000000 0.40000000 0.60000000
v 0.02500000 -0.02500000 0.02500000 0.24705882 0.74901961 0.74901961
v 0.02500000 0.02500000 -0.02500000 0.49803922 0.49803922 1.00000000
v 0.02500000 0.02500000 0.02500000 0.60000000 0.60000000 0.60000000

f 2 4 1
f 5 2 1
f 1 4 3
f 3 5 1
f 2 8 4
f 6 2 5
f 6 8 2
f 4 8 3
f 7 5 3
f 3 8 7
f 7 6 5
f 8 6 7