o convex_0
v 0.009986 0.009185 0.002220
v -0.012988 -0.009956 -0.004480
v -0.012988 -0.009956 0.005092
v -0.008200 0.018762 0.003177
v 0.001370 0.016845 -0.008310
v 0.010944 -0.009956 -0.003523
v 0.004242 -0.009956 0.007964
v 0.003284 0.016845 0.007964
v -0.010116 0.012061 -0.005437
v 0.008072 0.018762 -0.002565
v 0.005200 -0.009956 -0.007352
v -0.006286 0.015887 0.007964
v 0.009986 -0.009956 0.006050
v -0.006286 -0.009956 -0.007352
v 0.008072 0.013016 -0.006395
v -0.007244 0.014931 -0.007352
v -0.004372 -0.008039 0.007964
v 0.007114 0.013975 0.007007
v -0.010116 0.013016 0.005092
v -0.007244 0.018762 -0.002565
v 0.009986 0.010143 -0.002565
v 0.007114 0.018762 0.002220
v 0.010944 -0.008039 0.004135
v 0.009028 0.010143 0.006050
v -0.012988 -0.007083 -0.002565
v -0.003414 0.015887 -0.008310
v 0.008072 -0.009956 -0.006395
v 0.006156 0.014931 -0.007352
v -0.012030 -0.009956 -0.005437
v -0.010116 0.013975 -0.002565
v -0.002453 0.017804 -0.007352
v -0.002453 0.018762 0.005092
v 0.005200 0.014931 0.007964
v -0.012988 -0.007083 0.003177
v -0.010116 0.011102 0.006050
v 0.008072 0.018762 0.000305
v 0.009028 0.012061 -0.005437
v 0.008072 -0.009956 0.007007
v 0.002328 0.014931 -0.008310
v -0.003414 -0.009956 0.007964
v -0.003414 0.017804 0.007007
v 0.001370 0.018762 -0.004480
v 0.009986 0.011102 -0.000651
v 0.009028 0.013016 0.004135
v -0.010116 0.013975 0.003177
v 0.010944 -0.006125 0.000305
v 0.008072 0.000574 0.007007
v 0.002328 0.017804 0.007007
v -0.009158 0.013016 -0.006395
v -0.008200 0.018762 -0.000651
v -0.005328 0.016845 -0.007352
v -0.002453 0.013975 -0.008310
v -0.012988 -0.008039 0.005092
v 0.001370 0.017804 -0.007352
v 0.004242 0.016845 -0.007352
v -0.006286 0.013016 0.007964
v 0.010944 -0.009956 0.004135
v -0.008200 0.014931 -0.006395
v -0.012030 -0.007083 -0.005437
v 0.009986 0.008232 0.003177
v -0.007244 -0.009956 0.007007
v -0.009158 0.013975 0.006050
v -0.004372 0.016845 0.007964
v 0.009986 -0.007083 0.006050
f 24 47 64 
f 3 2 6 
f 3 6 7 
f 6 2 11 
f 7 8 12 
f 7 6 13 
f 11 2 14 
f 7 12 17 
f 4 10 20 
f 10 4 22 
f 2 3 25 
f 9 2 25 
f 14 16 26 
f 6 11 27 
f 15 6 27 
f 15 27 28 
f 10 15 28 
f 27 11 28 
f 14 2 29 
f 16 14 29 
f 9 25 30 
f 5 26 31 
f 22 4 32 
f 8 7 33 
f 22 8 33 
f 18 22 33 
f 25 3 34 
f 30 25 34 
f 10 22 36 
f 22 18 36 
f 6 15 37 
f 15 10 37 
f 21 6 37 
f 10 21 37 
f 7 13 38 
f 33 7 38 
f 26 5 39 
f 5 28 39 
f 28 11 39 
f 3 7 40 
f 7 17 40 
f 32 4 41 
f 20 10 42 
f 31 20 42 
f 21 10 43 
f 1 23 43 
f 10 36 43 
f 43 36 44 
f 18 24 44 
f 36 18 44 
f 1 43 44 
f 19 4 45 
f 4 30 45 
f 30 34 45 
f 6 21 46 
f 23 6 46 
f 21 43 46 
f 43 23 46 
f 24 18 47 
f 18 33 47 
f 38 13 47 
f 33 38 47 
f 8 22 48 
f 22 32 48 
f 41 8 48 
f 32 41 48 
f 4 20 50 
f 30 4 50 
f 9 30 50 
f 26 16 51 
f 20 31 51 
f 31 26 51 
f 11 14 52 
f 14 26 52 
f 39 11 52 
f 26 39 52 
f 3 12 53 
f 34 3 53 
f 12 35 53 
f 35 19 53 
f 19 45 53 
f 45 34 53 
f 5 31 54 
f 42 10 54 
f 31 42 54 
f 28 5 55 
f 10 28 55 
f 5 54 55 
f 54 10 55 
f 12 3 56 
f 17 12 56 
f 13 6 57 
f 6 23 57 
f 23 13 57 
f 49 9 58 
f 16 49 58 
f 50 20 58 
f 9 50 58 
f 51 16 58 
f 20 51 58 
f 2 9 59 
f 29 2 59 
f 16 29 59 
f 9 49 59 
f 49 16 59 
f 23 1 60 
f 24 23 60 
f 1 44 60 
f 44 24 60 
f 3 40 61 
f 40 17 61 
f 56 3 61 
f 17 56 61 
f 12 4 62 
f 4 19 62 
f 35 12 62 
f 19 35 62 
f 4 12 63 
f 12 8 63 
f 41 4 63 
f 8 41 63 
f 13 23 64 
f 23 24 64 
f 47 13 64 
o convex_1
v 0.004243 0.102987 0.001263
v -0.008202 0.018762 -0.000651
v -0.007244 0.018762 -0.002566
v 0.008072 0.018762 0.000306
v -0.008202 0.018762 0.003178
v 0.000413 0.098214 -0.002566
v -0.005328 0.098214 0.003178
v 0.006157 0.018762 0.003178
v 0.008072 0.018762 -0.002566
v -0.005328 0.098214 -0.000651
v 0.007115 0.077147 -0.002566
v 0.008072 0.067584 0.000306
v 0.000413 0.103957 0.003178
v -0.008202 0.051316 0.001263
v 0.002326 0.104919 -0.001608
v 0.007115 0.077147 0.001263
v 0.005198 0.098214 -0.001608
v -0.006287 0.090548 0.003178
v -0.001498 0.104919 -0.000651
v -0.007244 0.073318 0.000306
v -0.002456 0.077147 -0.002566
v 0.008072 0.060888 -0.002566
v 0.004243 0.098214 -0.002566
v 0.003285 0.068528 0.003178
v -0.008202 0.039838 0.003178
v -0.002456 0.103957 0.003178
v -0.007244 0.061840 -0.000651
v 0.006157 0.090548 0.000306
v 0.007115 0.019724 0.002220
v -0.006287 0.093424 0.001263
v -0.008202 0.048440 0.000306
v -0.007244 0.021638 -0.002566
v -0.006287 0.085758 -0.000651
v -0.007244 0.075233 0.002220
v 0.001369 0.104919 0.002220
v 0.007115 0.080984 -0.001608
v 0.004243 0.103957 -0.000651
v -0.004372 0.101081 0.000306
v 0.000413 0.104919 -0.001608
v 0.005198 0.038868 0.003178
v 0.001369 0.095338 0.003178
v 0.006157 0.087681 0.001263
v -0.001498 0.086728 -0.002566
v -0.008202 0.051316 0.002220
v -0.005328 0.099167 0.002220
v 0.007115 0.080984 0.000306
v 0.008072 0.066614 -0.001608
v -0.006287 0.092462 0.000306
v -0.007244 0.069498 0.003178
v 0.004243 0.102987 -0.001608
v 0.006157 0.086728 -0.002566
v 0.006157 0.021638 0.003178
v -0.001498 0.104919 0.002220
v 0.005198 0.098214 0.000306
v -0.005328 0.044611 -0.002566
v -0.006287 0.093424 0.002220
v 0.005198 0.096291 0.001263
v -0.008202 0.024514 -0.000651
v 0.006157 0.090548 -0.001608
v 0.003285 0.099167 -0.002566
v 0.004243 0.103957 0.000306
v -0.007244 0.075233 0.001263
v -0.005328 0.099167 0.000306
v -0.000543 0.093424 -0.002566
f 107 74 128 
f 66 67 68 
f 66 68 69 
f 71 69 72 
f 69 68 72 
f 68 67 73 
f 67 70 73 
f 73 70 75 
f 68 73 76 
f 71 72 77 
f 66 69 78 
f 69 71 82 
f 70 67 85 
f 73 75 86 
f 76 73 86 
f 75 70 87 
f 77 72 88 
f 78 69 89 
f 69 82 89 
f 71 77 90 
f 72 68 93 
f 68 76 93 
f 76 80 93 
f 66 78 95 
f 78 84 95 
f 84 91 95 
f 95 91 96 
f 67 66 96 
f 85 67 96 
f 74 96 97 
f 91 84 97 
f 96 91 97 
f 77 65 99 
f 79 83 99 
f 90 77 99 
f 83 74 102 
f 90 83 102 
f 70 74 103 
f 74 83 103 
f 83 79 103 
f 88 72 104 
f 80 88 104 
f 77 88 105 
f 88 80 105 
f 77 105 106 
f 105 80 106 
f 70 85 107 
f 85 74 107 
f 78 89 108 
f 98 78 108 
f 71 90 109 
f 90 102 109 
f 80 76 110 
f 76 100 110 
f 100 92 110 
f 92 106 110 
f 106 80 110 
f 86 75 111 
f 76 86 111 
f 75 100 111 
f 100 76 111 
f 94 74 112 
f 74 97 112 
f 97 84 112 
f 89 82 113 
f 82 98 113 
f 108 89 113 
f 98 108 113 
f 87 79 114 
f 81 87 114 
f 101 81 114 
f 79 101 114 
f 75 87 115 
f 87 81 115 
f 100 75 115 
f 72 93 116 
f 93 80 116 
f 104 72 116 
f 80 104 116 
f 83 90 117 
f 99 83 117 
f 90 99 117 
f 92 81 118 
f 81 101 118 
f 74 85 119 
f 85 96 119 
f 96 74 119 
f 82 71 120 
f 98 82 120 
f 94 98 120 
f 71 109 120 
f 109 94 120 
f 65 77 121 
f 77 106 121 
f 106 92 121 
f 118 65 121 
f 92 118 121 
f 66 95 122 
f 95 96 122 
f 96 66 122 
f 81 92 123 
f 92 100 123 
f 115 81 123 
f 100 115 123 
f 87 70 124 
f 79 87 124 
f 70 103 124 
f 103 79 124 
f 99 65 125 
f 79 99 125 
f 101 79 125 
f 65 118 125 
f 118 101 125 
f 84 78 126 
f 78 98 126 
f 98 94 126 
f 94 112 126 
f 112 84 126 
f 74 94 127 
f 102 74 127 
f 94 109 127 
f 109 102 127 
f 74 70 128 
f 70 107 128 
o convex_2
v -0.012990 -0.082707 -0.001608
v -0.018731 -0.031975 0.007007
v -0.020647 -0.031975 0.007007
v -0.006287 -0.009956 -0.006394
v -0.020647 -0.030061 -0.007352
v -0.006287 -0.009956 0.006048
v -0.020647 -0.088447 0.004134
v -0.007246 -0.070256 0.005091
v -0.020647 -0.086534 -0.005437
v -0.006287 -0.056855 -0.004479
v -0.020647 -0.019531 0.004134
v -0.013943 -0.009956 -0.003522
v -0.012990 -0.046340 -0.007352
v -0.010117 -0.072177 -0.005437
v -0.014902 -0.084613 0.005091
v -0.020647 -0.019531 -0.005437
v -0.013943 -0.009956 0.005091
v -0.006287 -0.037722 0.006048
v -0.015858 -0.039636 0.007007
v -0.006287 -0.065465 -0.001608
v -0.006287 -0.034852 -0.006394
v -0.009160 -0.076952 0.001262
v -0.019688 -0.089412 0.000305
v -0.008203 -0.054942 0.006048
v -0.014902 -0.081751 -0.005437
v -0.020647 -0.021452 0.006048
v -0.020647 -0.038687 0.007007
v -0.020647 -0.041549 -0.007352
v -0.012990 -0.009956 -0.005437
v -0.006287 -0.064516 0.004134
v -0.017772 -0.084613 0.005091
v -0.011076 -0.079838 0.005091
v -0.010117 -0.059733 -0.006394
v -0.010117 -0.076952 -0.002565
v -0.020647 -0.021452 -0.006394
v -0.016815 -0.086534 -0.002565
v -0.013943 -0.084613 0.003177
v -0.013943 -0.036766 -0.007352
v -0.008203 -0.009956 0.006048
v -0.008203 -0.009956 -0.006394
v -0.019688 -0.089412 0.003177
v -0.009160 -0.068350 -0.005437
v -0.007246 -0.071220 0.001262
v -0.008203 -0.074090 0.005091
v -0.011076 -0.080794 0.001262
v -0.019688 -0.086534 -0.005437
v -0.015858 -0.086534 0.001262
v -0.012990 -0.078873 -0.005437
v -0.020647 -0.089412 0.000305
v -0.009160 -0.055906 -0.006394
v -0.014902 -0.046340 -0.007352
v -0.007246 -0.069299 -0.001608
v -0.018731 -0.016661 -0.000651
v -0.010117 -0.078873 0.004134
v -0.013943 -0.082707 -0.003522
v -0.019688 -0.087491 -0.004479
v -0.016815 -0.031975 -0.007352
v -0.009160 -0.073133 -0.003522
v -0.015858 -0.035809 0.007007
v -0.008203 -0.074090 0.000305
v -0.011076 -0.075039 -0.005437
v -0.010117 -0.078873 0.000305
v -0.007246 -0.071220 0.004134
v -0.018731 -0.088447 0.004134
f 169 165 192 
f 131 130 134 
f 131 133 135 
f 135 133 137 
f 132 134 138 
f 133 131 139 
f 134 132 140 
f 133 139 144 
f 134 140 145 
f 138 134 146 
f 130 131 147 
f 146 134 147 
f 138 146 148 
f 132 138 149 
f 141 132 149 
f 136 146 152 
f 147 143 152 
f 146 147 152 
f 139 131 154 
f 145 139 154 
f 131 135 155 
f 147 131 155 
f 137 133 156 
f 133 141 156 
f 140 132 157 
f 144 140 157 
f 146 136 158 
f 148 146 158 
f 135 143 159 
f 143 147 159 
f 155 135 159 
f 147 155 159 
f 152 143 160 
f 153 141 161 
f 133 144 163 
f 144 157 163 
f 160 143 165 
f 132 141 166 
f 141 133 166 
f 131 134 167 
f 134 145 167 
f 154 131 167 
f 145 154 167 
f 132 133 168 
f 157 132 168 
f 133 163 168 
f 163 157 168 
f 138 148 170 
f 149 138 170 
f 142 161 170 
f 136 152 172 
f 152 160 172 
f 165 129 173 
f 137 141 174 
f 141 153 174 
f 164 129 175 
f 151 164 175 
f 129 165 175 
f 169 151 175 
f 165 169 175 
f 153 161 176 
f 135 137 177 
f 169 135 177 
f 151 169 177 
f 141 149 178 
f 161 141 178 
f 149 170 178 
f 170 161 178 
f 141 137 179 
f 137 156 179 
f 156 141 179 
f 148 171 180 
f 144 139 181 
f 140 144 181 
f 139 145 181 
f 145 140 181 
f 160 165 182 
f 150 172 182 
f 172 160 182 
f 165 173 182 
f 162 129 183 
f 129 164 183 
f 174 153 183 
f 164 174 183 
f 153 176 183 
f 176 162 183 
f 164 151 184 
f 137 174 184 
f 174 164 184 
f 177 137 184 
f 151 177 184 
f 133 132 185 
f 132 166 185 
f 166 133 185 
f 142 170 186 
f 170 148 186 
f 148 180 186 
f 134 130 187 
f 130 147 187 
f 147 134 187 
f 172 150 188 
f 171 172 188 
f 180 171 188 
f 162 186 188 
f 186 180 188 
f 161 142 189 
f 176 161 189 
f 162 176 189 
f 142 186 189 
f 186 162 189 
f 129 162 190 
f 173 129 190 
f 150 182 190 
f 182 173 190 
f 188 150 190 
f 162 188 190 
f 158 136 191 
f 148 158 191 
f 171 148 191 
f 136 172 191 
f 172 171 191 
f 143 135 192 
f 165 143 192 
f 135 169 192 
o convex_3
v 0.015731 -0.094189 0.007007
v -0.006287 -0.066440 -0.004480
v -0.005328 -0.070269 -0.006395
v 0.007114 -0.041558 -0.003523
v 0.015731 -0.097062 -0.008310
v 0.000416 -0.041558 0.007964
v 0.004243 -0.090361 0.007007
v -0.003414 -0.041558 -0.007352
v 0.008071 -0.041558 0.005092
v 0.002329 -0.089405 -0.008310
v -0.006287 -0.052082 0.001263
v 0.011901 -0.098018 0.005092
v 0.009985 -0.050171 0.000305
v -0.006287 -0.041558 -0.006395
v -0.002457 -0.079831 0.000305
v 0.000416 -0.074091 0.007007
v 0.015731 -0.093234 -0.008310
v 0.006157 -0.042514 0.007964
v 0.000416 -0.041558 -0.007352
v 0.008071 -0.096106 -0.004480
v 0.004243 -0.075047 0.007964
v -0.006287 -0.061656 0.001263
v -0.002457 -0.041558 0.006050
v 0.002329 -0.090361 0.001263
v -0.000541 -0.076959 -0.008310
v 0.015731 -0.090361 0.004135
v 0.015731 -0.098018 0.007007
v -0.001500 -0.083660 -0.004480
v -0.006287 -0.041558 -0.000651
v -0.005328 -0.064529 -0.007352
v 0.014771 -0.098985 -0.001608
v 0.007114 -0.095145 0.005092
v 0.009985 -0.050171 0.004135
v 0.000416 -0.079831 0.006050
v 0.015731 -0.090361 -0.004480
v 0.006157 -0.041558 -0.004480
v 0.008071 -0.041558 -0.001608
v 0.012858 -0.097062 -0.008310
v -0.003414 -0.076959 -0.007352
v -0.004371 -0.075047 -0.002565
v 0.007114 -0.041558 0.007007
v 0.009985 -0.096106 0.007007
v 0.005200 -0.093234 -0.007352
v -0.001500 -0.044425 0.007007
v 0.002329 -0.076003 -0.008310
v 0.006157 -0.073130 0.007964
v 0.000416 -0.051127 0.007964
v -0.006287 -0.064529 -0.006395
v -0.000541 -0.084615 0.001263
v -0.005328 -0.051127 -0.007352
v -0.000541 -0.080787 0.004135
v 0.002329 -0.090361 -0.005437
v 0.009028 -0.044425 0.000305
v 0.015731 -0.098985 0.004135
v 0.011901 -0.098018 -0.003523
v 0.009985 -0.052082 0.005092
v 0.000416 -0.085577 -0.008310
v 0.015731 -0.098018 -0.007352
v 0.002329 -0.068357 0.007964
v -0.001500 -0.083660 -0.001608
v -0.006287 -0.063573 0.000305
v 0.002329 -0.084615 0.007007
v 0.007114 -0.094189 -0.008310
v -0.000541 -0.085577 -0.005437
f 252 220 256 
f 198 196 200 
f 196 198 201 
f 198 200 206 
f 194 203 206 
f 193 197 209 
f 197 202 209 
f 200 196 211 
f 210 198 213 
f 203 194 214 
f 198 206 215 
f 203 214 215 
f 209 202 217 
f 193 209 218 
f 197 193 219 
f 193 210 219 
f 206 203 221 
f 215 206 221 
f 203 215 221 
f 212 204 224 
f 199 216 224 
f 216 212 224 
f 193 218 225 
f 218 205 225 
f 208 214 226 
f 209 205 227 
f 205 218 227 
f 218 209 227 
f 196 209 228 
f 211 196 228 
f 209 211 228 
f 196 201 229 
f 209 196 229 
f 202 197 230 
f 194 195 232 
f 195 231 232 
f 231 220 232 
f 201 198 233 
f 210 193 233 
f 198 210 233 
f 213 199 234 
f 204 219 234 
f 219 213 234 
f 224 204 234 
f 199 224 234 
f 212 216 235 
f 214 208 236 
f 215 214 236 
f 198 215 236 
f 200 211 237 
f 211 209 237 
f 217 200 237 
f 209 217 237 
f 210 213 238 
f 219 210 238 
f 213 219 238 
f 213 198 239 
f 198 236 239 
f 236 208 239 
f 195 194 240 
f 194 206 240 
f 206 222 240 
f 231 195 240 
f 222 231 240 
f 216 199 241 
f 206 200 242 
f 200 217 242 
f 222 206 242 
f 217 222 242 
f 226 214 243 
f 241 199 243 
f 207 241 243 
f 202 235 244 
f 235 216 244 
f 205 209 245 
f 201 225 245 
f 225 205 245 
f 229 201 245 
f 209 229 245 
f 197 219 246 
f 219 204 246 
f 204 223 246 
f 204 212 247 
f 223 204 247 
f 212 230 247 
f 193 225 248 
f 225 201 248 
f 201 233 248 
f 233 193 248 
f 217 202 249 
f 222 217 249 
f 231 222 249 
f 230 197 250 
f 197 246 250 
f 246 223 250 
f 223 247 250 
f 247 230 250 
f 213 239 251 
f 239 208 251 
f 207 232 252 
f 232 220 252 
f 216 241 252 
f 241 207 252 
f 214 194 253 
f 194 232 253 
f 232 207 253 
f 207 243 253 
f 243 214 253 
f 199 213 254 
f 208 226 254 
f 243 199 254 
f 226 243 254 
f 251 208 254 
f 213 251 254 
f 202 230 255 
f 230 212 255 
f 235 202 255 
f 212 235 255 
f 220 231 256 
f 202 244 256 
f 244 216 256 
f 249 202 256 
f 231 249 256 
f 216 252 256 
o convex_4
v 0.014771 -0.031015 0.007964
v -0.006287 -0.041547 -0.006394
v -0.003414 -0.041547 -0.007352
v -0.006287 -0.009956 -0.007352
v -0.006287 -0.009956 0.007006
v 0.015731 -0.021444 -0.005438
v -0.000541 -0.041547 0.007964
v 0.010944 -0.009956 0.005092
v 0.015731 -0.034840 -0.002565
v 0.005200 -0.009956 -0.007352
v -0.006287 -0.037713 0.006050
v 0.008071 -0.041547 0.005092
v 0.013815 -0.030059 -0.007352
v 0.005200 -0.009956 0.007964
v 0.015731 -0.023361 0.007006
v 0.006157 -0.041547 -0.004480
v 0.010944 -0.009956 -0.004480
v 0.015731 -0.033884 0.006050
v -0.003414 -0.009956 0.007964
v 0.015731 -0.031973 -0.006394
v 0.005200 -0.041547 0.007964
v 0.015731 -0.020489 0.002219
v -0.006287 -0.041547 0.000306
v 0.000416 -0.041547 -0.007352
v -0.005328 -0.037713 0.007006
v 0.011901 -0.010915 -0.001607
v 0.008071 -0.041547 -0.001607
v 0.015731 -0.024317 -0.006394
v -0.006287 -0.031973 -0.007352
v 0.015731 -0.034840 0.004135
v 0.009985 -0.009956 0.006050
v 0.015731 -0.021444 0.006050
v -0.004371 -0.041547 0.004135
v 0.015731 -0.032926 0.007006
v 0.007114 -0.041547 0.007006
v 0.014771 -0.028142 0.007964
v 0.003286 -0.041547 -0.006394
v -0.001500 -0.039630 0.007964
v 0.013815 -0.027187 -0.007352
v -0.006287 -0.022403 0.007006
v 0.015731 -0.020489 -0.003523
v 0.015731 -0.033884 -0.004480
v 0.009985 -0.010915 -0.005438
v -0.003414 -0.015702 0.007964
v 0.011901 -0.010915 0.000306
v 0.008071 -0.009956 0.007006
v 0.007114 -0.041547 -0.003523
v -0.006287 -0.038674 0.005092
f 279 289 304 
f 260 258 261 
f 258 259 263 
f 260 261 264 
f 259 260 266 
f 260 264 266 
f 261 258 267 
f 263 259 268 
f 259 266 269 
f 263 257 270 
f 264 261 270 
f 265 262 271 
f 268 259 272 
f 266 264 273 
f 265 271 274 
f 263 270 275 
f 270 261 275 
f 262 265 276 
f 257 263 277 
f 263 268 277 
f 271 262 278 
f 258 263 279 
f 267 258 279 
f 259 269 280 
f 272 259 280 
f 269 276 280 
f 267 263 281 
f 273 264 282 
f 265 268 283 
f 268 272 283 
f 262 276 284 
f 276 269 284 
f 259 258 285 
f 260 259 285 
f 258 260 285 
f 268 265 286 
f 265 274 286 
f 264 270 287 
f 287 271 288 
f 271 278 288 
f 264 287 288 
f 279 263 289 
f 271 257 290 
f 274 271 290 
f 257 277 290 
f 290 277 291 
f 277 268 291 
f 268 286 291 
f 286 274 291 
f 274 290 291 
f 270 257 292 
f 271 270 292 
f 257 271 292 
f 276 272 293 
f 272 280 293 
f 280 276 293 
f 263 275 294 
f 281 263 294 
f 269 266 295 
f 266 284 295 
f 284 269 295 
f 261 267 296 
f 275 261 296 
f 267 281 296 
f 262 273 297 
f 278 262 297 
f 273 282 297 
f 282 278 297 
f 276 265 298 
f 272 276 298 
f 273 262 299 
f 266 273 299 
f 284 266 299 
f 262 284 299 
f 294 275 300 
f 281 294 300 
f 275 296 300 
f 296 281 300 
f 282 264 301 
f 278 282 301 
f 264 288 301 
f 288 278 301 
f 270 271 302 
f 287 270 302 
f 271 287 302 
f 265 283 303 
f 283 272 303 
f 298 265 303 
f 272 298 303 
f 263 267 304 
f 267 279 304 
f 289 263 304 
o convex_5
v -0.035963 -0.077922 0.002220
v -0.050321 -0.071226 -0.003523
v -0.050321 -0.071226 0.002220
v -0.038837 -0.090366 -0.001606
v -0.045534 -0.064522 -0.007352
v -0.035963 -0.087493 -0.007352
v -0.049363 -0.064522 0.006050
v -0.035963 -0.090366 0.005092
v -0.046491 -0.081750 0.005092
v -0.045534 -0.081750 -0.007352
v -0.041709 -0.064522 -0.000651
v -0.050321 -0.064522 -0.006395
v -0.045534 -0.064522 0.006050
v -0.035963 -0.078879 -0.004479
v -0.042666 -0.087493 0.003177
v -0.048406 -0.076012 0.006050
v -0.047449 -0.079835 -0.005437
v -0.035963 -0.083665 0.005092
v -0.042666 -0.086536 -0.005437
v -0.049363 -0.072182 -0.007352
v -0.042666 -0.064522 0.003177
v -0.042666 -0.082709 0.006050
v -0.036923 -0.089408 -0.006395
v -0.050321 -0.064522 0.005092
v -0.048406 -0.077922 0.004134
v -0.043620 -0.086536 -0.001606
v -0.043620 -0.064522 -0.005437
v -0.035963 -0.084621 -0.007352
v -0.040752 -0.088451 0.005092
v -0.035963 -0.076969 -0.001606
v -0.035963 -0.090366 -0.004479
v -0.049363 -0.075056 -0.004479
v -0.035963 -0.080794 0.004134
v -0.040752 -0.086536 -0.007352
v -0.041709 -0.064522 0.001263
v -0.045534 -0.083665 -0.003523
v -0.049363 -0.064522 -0.007352
v -0.038837 -0.090366 0.002220
v -0.044577 -0.082709 0.006050
v -0.049363 -0.072182 0.006050
v -0.041709 -0.088451 -0.001606
v -0.045534 -0.083665 0.004134
v -0.048406 -0.076012 -0.007352
v -0.040752 -0.088451 -0.004479
v -0.044577 -0.084621 -0.005437
v -0.050321 -0.070270 0.004134
v -0.042666 -0.064522 -0.003523
v -0.035963 -0.077922 -0.003523
v -0.042666 -0.078879 0.006050
v -0.044577 -0.084621 0.005092
v -0.035963 -0.076969 0.000305
v -0.049363 -0.075056 0.003177
v -0.048406 -0.077922 -0.004479
v -0.037880 -0.090366 -0.003523
v -0.036923 -0.090366 0.005092
v -0.050321 -0.069311 -0.005437
v -0.049363 -0.074097 -0.006395
v -0.035963 -0.078879 0.003177
v -0.049363 -0.074097 0.005092
v -0.040752 -0.087493 -0.006395
v -0.041709 -0.088451 0.002220
v -0.046491 -0.081750 -0.005437
v -0.050321 -0.068355 0.005092
v -0.045534 -0.081750 0.006050
f 354 343 368 
f 310 305 312 
f 309 310 314 
f 309 311 315 
f 306 307 316 
f 311 309 316 
f 315 311 317 
f 305 310 318 
f 317 311 320 
f 312 305 322 
f 309 314 324 
f 315 317 325 
f 317 320 326 
f 312 322 326 
f 316 307 328 
f 311 316 328 
f 313 320 329 
f 309 315 331 
f 331 318 332 
f 310 309 332 
f 318 310 332 
f 309 331 332 
f 305 318 334 
f 312 308 335 
f 310 312 335 
f 327 310 335 
f 307 306 336 
f 322 305 337 
f 317 322 337 
f 325 317 337 
f 314 310 338 
f 323 314 338 
f 310 327 338 
f 315 325 339 
f 334 315 339 
f 316 309 341 
f 309 324 341 
f 324 316 341 
f 308 312 342 
f 312 326 343 
f 326 320 343 
f 320 311 344 
f 311 328 344 
f 319 330 345 
f 330 323 345 
f 308 342 345 
f 313 329 346 
f 330 319 346 
f 329 340 346 
f 340 330 346 
f 324 314 347 
f 308 345 348 
f 345 323 348 
f 314 323 349 
f 323 330 349 
f 330 340 349 
f 328 307 350 
f 331 315 351 
f 331 351 352 
f 318 331 352 
f 315 334 352 
f 334 318 352 
f 351 315 352 
f 322 317 353 
f 317 326 353 
f 326 322 353 
f 319 333 354 
f 333 343 354 
f 313 346 354 
f 346 319 354 
f 305 334 355 
f 339 305 355 
f 334 339 355 
f 307 336 356 
f 336 329 356 
f 350 307 356 
f 329 336 357 
f 340 329 357 
f 347 321 357 
f 335 308 358 
f 327 335 358 
f 308 348 358 
f 342 312 359 
f 333 342 359 
f 312 343 359 
f 343 333 359 
f 306 316 360 
f 316 324 360 
f 360 324 361 
f 336 306 361 
f 324 347 361 
f 357 336 361 
f 347 357 361 
f 306 360 361 
f 337 305 362 
f 325 337 362 
f 305 339 362 
f 339 325 362 
f 329 320 363 
f 320 344 363 
f 344 350 363 
f 356 329 363 
f 350 356 363 
f 323 338 364 
f 338 327 364 
f 348 323 364 
f 327 358 364 
f 358 348 364 
f 333 319 365 
f 342 333 365 
f 319 345 365 
f 345 342 365 
f 347 314 366 
f 321 347 366 
f 314 349 366 
f 349 340 366 
f 357 321 366 
f 340 357 366 
f 344 328 367 
f 328 350 367 
f 350 344 367 
f 320 313 368 
f 343 320 368 
f 313 354 368 
o convex_6
v -0.020647 -0.074095 0.001263
v -0.035963 -0.091326 -0.002565
v -0.035005 -0.091326 -0.003522
v -0.020647 -0.089410 0.004135
v -0.020647 -0.085581 -0.006395
v -0.035963 -0.077926 0.001263
v -0.035963 -0.084623 -0.007352
v -0.035963 -0.090367 0.005092
v -0.021605 -0.076969 -0.004480
v -0.021605 -0.079840 0.004135
v -0.024476 -0.091326 -0.001606
v -0.035963 -0.077926 -0.002565
v -0.035963 -0.081754 0.004135
v -0.026390 -0.089410 -0.006395
v -0.025434 -0.091326 0.004135
v -0.020647 -0.074095 -0.001606
v -0.020647 -0.089410 -0.002565
v -0.035963 -0.087496 -0.007352
v -0.020647 -0.082711 -0.006395
v -0.035005 -0.084623 0.005092
v -0.035963 -0.080798 -0.005437
v -0.021605 -0.075055 0.002220
v -0.031176 -0.090367 0.005092
v -0.035005 -0.091326 0.004135
v -0.031176 -0.091326 -0.004480
v -0.020647 -0.079840 0.004135
v -0.035963 -0.089410 -0.006395
v -0.021605 -0.074095 -0.001606
v -0.023519 -0.088452 -0.006395
v -0.035963 -0.079840 0.003177
v -0.021605 -0.090367 0.003177
v -0.034049 -0.087496 -0.007352
v -0.023519 -0.090367 -0.003522
v -0.021605 -0.074095 0.001263
v -0.021605 -0.076969 0.003177
v -0.020647 -0.088452 -0.004480
v -0.020647 -0.076969 -0.004480
v -0.027348 -0.091326 -0.003522
v -0.035963 -0.084623 0.005092
v -0.031176 -0.088452 0.005092
v -0.021605 -0.090367 -0.000654
v -0.035963 -0.091326 0.003177
v -0.024476 -0.091326 0.003177
v -0.035005 -0.084623 -0.007352
v -0.027348 -0.090367 -0.005437
v -0.020647 -0.076969 0.003177
v -0.020647 -0.087496 -0.005437
v -0.035005 -0.090367 -0.005437
v -0.034049 -0.085581 -0.007352
v -0.022561 -0.090367 0.004135
v -0.022561 -0.090367 -0.002565
f 385 409 419 
f 369 372 373 
f 370 374 375 
f 374 370 376 
f 370 371 379 
f 375 374 380 
f 374 376 381 
f 370 379 383 
f 369 373 384 
f 373 372 385 
f 370 375 386 
f 384 373 387 
f 377 375 389 
f 375 380 389 
f 376 383 391 
f 388 376 391 
f 370 383 392 
f 383 376 392 
f 379 371 393 
f 372 369 394 
f 378 388 394 
f 391 372 394 
f 371 370 395 
f 370 386 395 
f 386 382 395 
f 382 393 395 
f 380 374 396 
f 369 384 396 
f 384 377 396 
f 377 389 396 
f 389 380 396 
f 374 381 398 
f 381 390 398 
f 385 372 399 
f 386 375 400 
f 382 386 400 
f 387 373 400 
f 397 382 400 
f 373 397 400 
f 382 397 401 
f 390 369 402 
f 369 396 402 
f 396 374 402 
f 374 398 402 
f 398 390 402 
f 390 381 403 
f 378 394 403 
f 373 385 404 
f 385 401 404 
f 401 397 404 
f 375 377 405 
f 377 384 405 
f 384 387 405 
f 379 393 406 
f 401 379 406 
f 381 376 407 
f 376 388 407 
f 388 378 407 
f 378 403 407 
f 403 381 407 
f 388 391 408 
f 394 388 408 
f 391 394 408 
f 399 379 409 
f 385 399 409 
f 376 370 410 
f 370 392 410 
f 392 376 410 
f 383 379 411 
f 379 399 411 
f 400 375 412 
f 375 405 412 
f 405 387 412 
f 393 382 413 
f 382 401 413 
f 406 393 413 
f 401 406 413 
f 369 390 414 
f 394 369 414 
f 390 403 414 
f 403 394 414 
f 397 373 415 
f 373 404 415 
f 404 397 415 
f 393 371 416 
f 371 395 416 
f 395 393 416 
f 387 400 417 
f 400 412 417 
f 412 387 417 
f 372 391 418 
f 391 383 418 
f 399 372 418 
f 383 411 418 
f 411 399 418 
f 379 401 419 
f 401 385 419 
f 409 379 419 
o convex_7
v -0.035008 -0.032931 -0.004480
v -0.050321 -0.064522 -0.006395
v -0.050321 -0.064522 0.005092
v -0.034049 -0.050159 -0.000651
v -0.041709 -0.041553 0.007007
v -0.034049 -0.042508 0.007007
v -0.047449 -0.049203 -0.003522
v -0.041709 -0.064522 0.001262
v -0.034049 -0.041553 -0.008310
v -0.043620 -0.064522 -0.005437
v -0.041709 -0.042508 -0.008310
v -0.034049 -0.033890 0.006049
v -0.045535 -0.064522 0.006049
v -0.049364 -0.056863 0.006049
v -0.045535 -0.064522 -0.007352
v -0.034049 -0.049203 0.004134
v -0.040751 -0.038677 -0.000651
v -0.049364 -0.057818 -0.007352
v -0.046492 -0.048251 0.006049
v -0.034049 -0.033890 -0.007352
v -0.050321 -0.058777 -0.003522
v -0.035008 -0.032931 0.003176
v -0.034049 -0.045378 -0.006395
v -0.043620 -0.042508 -0.003522
v -0.044577 -0.050159 0.007007
v -0.043620 -0.051114 -0.008310
v -0.041709 -0.064522 -0.001608
v -0.046492 -0.049203 -0.007352
v -0.041709 -0.040591 0.006049
v -0.049364 -0.054945 0.003176
v -0.037879 -0.036766 0.007007
v -0.045535 -0.045378 0.001262
v -0.038837 -0.037718 -0.007352
v -0.049364 -0.064522 0.006049
v -0.042663 -0.063564 0.004134
v -0.049364 -0.064522 -0.007352
v -0.035965 -0.036766 -0.008310
v -0.050321 -0.059735 0.003176
v -0.049364 -0.054945 -0.004480
v -0.034049 -0.049203 -0.002566
v -0.044577 -0.044419 -0.005437
v -0.034049 -0.034849 0.007007
v -0.047449 -0.049203 0.001262
v -0.038837 -0.036766 -0.004480
v -0.034049 -0.045378 0.006049
v -0.034049 -0.050159 0.002220
v -0.034049 -0.032931 -0.004480
v -0.043620 -0.042508 0.002220
v -0.043620 -0.044419 0.007007
v -0.035008 -0.033890 -0.007352
v -0.042663 -0.050159 0.007007
v -0.044577 -0.044419 0.005092
v -0.049364 -0.055901 -0.006395
v -0.037879 -0.035804 0.003176
v -0.048406 -0.052076 0.004134
v -0.043620 -0.063564 0.005092
v -0.045535 -0.045378 -0.003522
v -0.043620 -0.047295 -0.008310
v -0.038837 -0.038677 -0.008310
v -0.035008 -0.033890 0.006049
v -0.039794 -0.048251 -0.008310
v -0.034049 -0.036766 -0.008310
v -0.043620 -0.043464 -0.006395
v -0.034049 -0.032931 0.003176
f 466 441 483 
f 422 421 427 
f 425 423 428 
f 427 421 429 
f 425 428 431 
f 422 427 432 
f 429 421 434 
f 423 425 435 
f 431 428 439 
f 421 422 440 
f 420 436 441 
f 428 423 442 
f 429 434 442 
f 434 428 442 
f 425 424 444 
f 430 428 445 
f 423 427 446 
f 427 429 446 
f 424 425 450 
f 448 424 450 
f 422 432 453 
f 433 422 453 
f 432 444 453 
f 444 433 453 
f 432 427 454 
f 427 435 454 
f 434 421 455 
f 421 437 455 
f 445 434 455 
f 437 445 455 
f 428 430 456 
f 422 433 457 
f 440 422 457 
f 433 449 457 
f 449 440 457 
f 449 426 458 
f 440 449 458 
f 442 423 459 
f 429 442 459 
f 423 446 459 
f 446 429 459 
f 447 426 460 
f 425 431 461 
f 450 425 461 
f 426 449 462 
f 451 426 462 
f 438 451 462 
f 436 420 463 
f 443 436 463 
f 420 452 463 
f 452 443 463 
f 425 432 464 
f 435 425 464 
f 427 423 465 
f 423 435 465 
f 435 427 465 
f 439 420 466 
f 431 439 466 
f 420 441 466 
f 436 443 467 
f 448 436 467 
f 443 451 467 
f 438 433 468 
f 444 424 468 
f 433 444 468 
f 424 448 468 
f 448 438 468 
f 420 439 469 
f 452 420 469 
f 439 456 469 
f 432 425 470 
f 425 444 470 
f 444 432 470 
f 438 448 471 
f 451 438 471 
f 448 467 471 
f 467 451 471 
f 437 421 472 
f 421 440 472 
f 426 447 472 
f 447 437 472 
f 440 458 472 
f 458 426 472 
f 441 436 473 
f 436 448 473 
f 450 441 473 
f 448 450 473 
f 433 438 474 
f 449 433 474 
f 462 449 474 
f 438 462 474 
f 432 454 475 
f 454 435 475 
f 464 432 475 
f 435 464 475 
f 426 451 476 
f 451 443 476 
f 460 426 476 
f 443 460 476 
f 430 445 477 
f 445 437 477 
f 437 447 477 
f 447 430 477 
f 430 452 478 
f 456 430 478 
f 452 469 478 
f 469 456 478 
f 431 441 479 
f 441 450 479 
f 461 431 479 
f 450 461 479 
f 428 434 480 
f 445 428 480 
f 434 445 480 
f 439 428 481 
f 428 456 481 
f 456 439 481 
f 430 447 482 
f 452 430 482 
f 443 452 482 
f 460 443 482 
f 447 460 482 
f 441 431 483 
f 431 466 483 
o convex_8
v -0.032133 -0.045371 -0.005437
v -0.020647 -0.031019 0.007007
v -0.020647 -0.022406 0.006049
v -0.034049 -0.033892 0.007007
v -0.022562 -0.022406 -0.006395
v -0.020647 -0.049205 0.002220
v -0.020647 -0.040587 -0.007352
v -0.034049 -0.032933 -0.007352
v -0.034049 -0.048244 0.004134
v -0.020647 -0.043457 0.006049
v -0.021604 -0.020492 0.004134
v -0.034049 -0.040587 -0.008310
v -0.020647 -0.020492 -0.005437
v -0.034049 -0.049205 -0.001608
v -0.020647 -0.048244 -0.001608
v -0.034049 -0.041543 0.007007
v -0.034049 -0.031978 -0.004480
v -0.020647 -0.030063 -0.007352
v -0.034049 -0.031978 0.003176
v -0.021604 -0.020492 -0.005437
v -0.030218 -0.036759 -0.008310
v -0.020647 -0.048244 0.004134
v -0.020647 -0.044416 -0.005437
v -0.020647 -0.038673 0.007007
v -0.034049 -0.049205 0.003176
v -0.030218 -0.028149 -0.001608
v -0.030218 -0.029105 0.006049
v -0.034049 -0.036759 -0.008310
v -0.032133 -0.044416 0.006049
v -0.034049 -0.044416 -0.006395
v -0.020647 -0.049205 0.000305
v -0.032133 -0.031978 0.007007
v -0.024477 -0.024321 0.006049
v -0.032133 -0.040587 -0.008310
v -0.020647 -0.020492 0.004134
v -0.020647 -0.022406 -0.006395
v -0.022562 -0.029105 -0.007352
v -0.020647 -0.046330 0.005092
v -0.028303 -0.029105 -0.007352
v -0.029260 -0.031019 0.007007
v -0.034049 -0.032933 0.006049
v -0.030218 -0.028149 0.000305
v -0.033090 -0.031978 -0.007352
v -0.021604 -0.022406 0.006049
v -0.033090 -0.049205 -0.001608
v -0.033090 -0.044416 -0.006395
v -0.033090 -0.031019 0.003176
v -0.033090 -0.041543 0.007007
v -0.034049 -0.044416 0.006049
v -0.030218 -0.038673 -0.008310
v -0.030218 -0.030063 -0.007352
v -0.032133 -0.030063 -0.003522
v -0.032133 -0.042501 -0.007352
v -0.032133 -0.047286 -0.003522
f 498 528 537 
f 486 485 489 
f 486 489 490 
f 487 491 492 
f 489 485 493 
f 492 491 495 
f 486 490 496 
f 492 495 497 
f 490 489 498 
f 485 487 499 
f 487 492 499 
f 491 487 500 
f 496 490 501 
f 500 487 502 
f 496 488 503 
f 494 496 503 
f 501 490 504 
f 489 493 505 
f 498 484 506 
f 490 498 506 
f 493 485 507 
f 485 499 507 
f 497 489 508 
f 492 497 508 
f 489 505 508 
f 505 492 508 
f 494 503 509 
f 495 491 511 
f 504 495 511 
f 497 495 513 
f 489 497 514 
f 498 489 514 
f 487 485 515 
f 510 487 515 
f 510 515 516 
f 494 510 516 
f 495 504 517 
f 490 506 517 
f 513 495 517 
f 494 486 518 
f 486 496 518 
f 496 494 518 
f 488 496 519 
f 496 501 519 
f 501 504 520 
f 504 511 520 
f 488 519 520 
f 519 501 520 
f 492 505 521 
f 505 493 521 
f 493 512 521 
f 488 520 522 
f 520 511 522 
f 485 486 523 
f 515 485 523 
f 502 487 524 
f 487 510 524 
f 494 509 525 
f 491 500 526 
f 503 488 526 
f 500 503 526 
f 511 491 526 
f 486 494 527 
f 516 515 527 
f 494 516 527 
f 523 486 527 
f 515 523 527 
f 497 513 528 
f 514 497 528 
f 498 514 528 
f 506 484 529 
f 513 517 529 
f 484 528 529 
f 528 513 529 
f 500 502 530 
f 510 494 530 
f 502 524 530 
f 524 510 530 
f 494 525 530 
f 525 509 530 
f 493 507 531 
f 507 499 531 
f 499 512 531 
f 512 493 531 
f 499 492 532 
f 512 499 532 
f 492 521 532 
f 521 512 532 
f 504 490 533 
f 490 517 533 
f 517 504 533 
f 488 522 534 
f 522 511 534 
f 526 488 534 
f 511 526 534 
f 503 500 535 
f 509 503 535 
f 500 530 535 
f 530 509 535 
f 517 506 536 
f 506 529 536 
f 529 517 536 
f 484 498 537 
f 528 484 537 
o convex_9
v 0.026261 -0.089413 0.005092
v 0.016688 -0.098982 -0.003522
v 0.015731 -0.098026 -0.007352
v 0.015731 -0.091328 0.005092
v 0.026261 -0.088456 -0.005437
v 0.025303 -0.098026 0.005092
v 0.026261 -0.096111 -0.007352
v 0.015731 -0.098026 0.007007
v 0.015731 -0.093240 -0.008310
v 0.015731 -0.090370 -0.003522
v 0.025303 -0.087497 0.003176
v 0.026261 -0.097069 0.006049
v 0.022430 -0.098982 -0.001608
v 0.023388 -0.094197 0.007007
v 0.021474 -0.098982 0.006049
v 0.026261 -0.090370 -0.007352
v 0.020517 -0.097069 -0.008310
v 0.025303 -0.087497 -0.003522
v 0.015731 -0.094197 0.007007
v 0.021474 -0.098026 -0.007352
v 0.015731 -0.090370 0.003176
v 0.015731 -0.098982 0.005092
v 0.026261 -0.090370 0.006049
v 0.015731 -0.091328 -0.006395
v 0.026261 -0.097069 -0.004480
v 0.023388 -0.098026 0.007007
v 0.026261 -0.087497 0.003176
v 0.021474 -0.094197 -0.008310
v 0.015731 -0.097069 -0.008310
v 0.024345 -0.098026 -0.004480
v 0.025303 -0.088456 -0.005437
v 0.015731 -0.092285 0.006049
v 0.025303 -0.098026 -0.000651
v 0.024345 -0.095154 0.007007
v 0.025303 -0.090370 0.006049
v 0.020517 -0.098982 -0.003522
v 0.015731 -0.098982 -0.002566
v 0.026261 -0.087497 -0.003522
v 0.022430 -0.098982 0.005092
v 0.016688 -0.098982 0.006049
v 0.025303 -0.097069 -0.006395
v 0.025303 -0.090370 -0.007352
v 0.018603 -0.093240 -0.008310
v 0.024345 -0.097069 -0.007352
v 0.024345 -0.097069 0.007007
v 0.021474 -0.096111 -0.008310
f 554 565 583 
f 542 538 544 
f 541 540 545 
f 540 541 546 
f 546 541 547 
f 544 538 549 
f 539 550 552 
f 542 544 553 
f 547 548 555 
f 541 545 556 
f 545 551 556 
f 539 540 557 
f 540 554 557 
f 547 541 558 
f 541 548 558 
f 548 547 558 
f 545 540 559 
f 539 552 559 
f 549 538 560 
f 556 551 560 
f 546 547 561 
f 547 555 561 
f 544 549 562 
f 549 543 562 
f 543 549 563 
f 551 545 563 
f 545 552 563 
f 552 543 563 
f 538 542 564 
f 548 538 564 
f 555 548 564 
f 553 544 565 
f 554 546 565 
f 540 546 566 
f 546 554 566 
f 554 540 566 
f 542 553 568 
f 555 542 568 
f 546 561 568 
f 561 555 568 
f 541 556 569 
f 543 550 570 
f 562 543 570 
f 550 567 570 
f 567 562 570 
f 549 560 571 
f 560 551 571 
f 551 563 571 
f 538 548 572 
f 548 541 572 
f 560 538 572 
f 556 560 572 
f 541 569 572 
f 569 556 572 
f 550 539 573 
f 539 557 573 
f 567 550 573 
f 557 567 573 
f 540 539 574 
f 559 540 574 
f 539 559 574 
f 542 555 575 
f 564 542 575 
f 555 564 575 
f 550 543 576 
f 543 552 576 
f 552 550 576 
f 552 545 577 
f 545 559 577 
f 559 552 577 
f 544 562 578 
f 567 557 578 
f 562 567 578 
f 553 546 579 
f 568 553 579 
f 546 568 579 
f 546 553 580 
f 553 565 580 
f 565 546 580 
f 554 544 581 
f 557 554 581 
f 544 578 581 
f 578 557 581 
f 563 549 582 
f 549 571 582 
f 571 563 582 
f 544 554 583 
f 565 544 583 
o convex_10
v 0.031048 -0.093237 -0.002565
v 0.037748 -0.071226 0.006050
v 0.037748 -0.071226 -0.004479
v 0.030091 -0.072184 0.001263
v 0.026261 -0.096109 0.006050
v 0.026261 -0.089410 -0.007352
v 0.035832 -0.084623 0.004134
v 0.034876 -0.084623 -0.006395
v 0.032960 -0.071226 -0.006395
v 0.026261 -0.088451 0.005092
v 0.027219 -0.095152 -0.007352
v 0.032005 -0.071226 0.005092
v 0.031048 -0.093237 0.006050
v 0.037748 -0.076971 0.000305
v 0.031048 -0.071226 -0.004479
v 0.026261 -0.085580 -0.002565
v 0.036790 -0.071226 -0.006395
v 0.027219 -0.097070 0.000305
v 0.032960 -0.072184 0.006050
v 0.033918 -0.089410 0.000305
v 0.026261 -0.096109 -0.005437
v 0.030091 -0.092281 -0.007352
v 0.036790 -0.078883 0.006050
v 0.035832 -0.082713 -0.005437
v 0.026261 -0.085580 0.002220
v 0.026261 -0.090366 0.006050
v 0.032960 -0.090366 -0.003523
v 0.033918 -0.088451 0.006050
v 0.035832 -0.084623 -0.000651
v 0.037748 -0.076971 0.004134
v 0.028176 -0.096109 0.006050
v 0.036790 -0.077927 -0.005437
v 0.031048 -0.088451 -0.007352
v 0.028176 -0.095152 -0.006395
v 0.036790 -0.081757 0.001263
v 0.026261 -0.097070 0.004134
v 0.033918 -0.089410 0.004134
v 0.031048 -0.071226 0.003177
v 0.030091 -0.072184 -0.000651
v 0.034876 -0.085580 -0.005437
v 0.026261 -0.086536 -0.004479
v 0.032005 -0.092281 -0.000651
v 0.030091 -0.093237 -0.006395
v 0.035832 -0.080798 -0.006395
v 0.026261 -0.095152 -0.007352
v 0.032005 -0.090366 -0.006395
v 0.029133 -0.095152 -0.003523
v 0.029133 -0.087495 -0.007352
v 0.036790 -0.080798 0.005092
v 0.037748 -0.074100 -0.003523
v 0.036790 -0.079842 -0.003523
v 0.027219 -0.096109 -0.005437
v 0.032005 -0.092281 0.005092
v 0.031048 -0.072184 0.004134
v 0.036790 -0.073141 -0.006395
v 0.031048 -0.090366 -0.007352
v 0.037748 -0.076012 0.005092
v 0.027219 -0.097070 0.004134
v 0.026261 -0.097070 0.000305
v 0.033918 -0.071226 0.006050
v 0.036790 -0.081757 0.003177
v 0.035832 -0.083670 -0.003523
v 0.034876 -0.086536 -0.002565
v 0.037748 -0.072184 -0.004479
f 615 638 647 
f 585 586 592 
f 589 588 593 
f 585 592 595 
f 585 588 596 
f 586 585 597 
f 592 589 598 
f 595 592 598 
f 589 593 599 
f 592 586 600 
f 588 585 602 
f 588 589 604 
f 594 589 605 
f 585 596 606 
f 593 587 608 
f 587 599 608 
f 599 593 608 
f 593 588 609 
f 595 593 609 
f 588 602 609 
f 602 595 609 
f 606 596 611 
f 590 603 612 
f 597 585 613 
f 596 588 614 
f 605 589 616 
f 594 605 617 
f 590 612 618 
f 597 613 618 
f 588 604 619 
f 614 588 619 
f 603 590 620 
f 590 611 620 
f 598 587 621 
f 595 598 621 
f 587 598 622 
f 599 587 622 
f 591 607 623 
f 598 589 624 
f 589 599 624 
f 622 598 624 
f 599 622 624 
f 601 584 625 
f 584 610 625 
f 610 603 625 
f 603 620 625 
f 610 584 626 
f 617 605 626 
f 607 591 627 
f 615 607 627 
f 589 594 628 
f 604 589 628 
f 594 604 628 
f 605 591 629 
f 591 623 629 
f 623 610 629 
f 610 626 629 
f 626 605 629 
f 584 601 630 
f 626 584 630 
f 617 626 630 
f 589 592 631 
f 592 600 631 
f 616 589 631 
f 600 616 631 
f 611 590 632 
f 606 611 632 
f 586 597 633 
f 615 633 634 
f 607 615 634 
f 597 618 634 
f 633 597 634 
f 604 594 635 
f 601 604 635 
f 594 617 635 
f 630 601 635 
f 617 630 635 
f 611 596 636 
f 620 611 636 
f 601 625 636 
f 625 620 636 
f 587 593 637 
f 593 595 637 
f 621 587 637 
f 595 621 637 
f 600 586 638 
f 616 600 638 
f 615 627 638 
f 638 627 639 
f 591 605 639 
f 605 616 639 
f 627 591 639 
f 616 638 639 
f 585 606 640 
f 613 585 640 
f 606 632 640 
f 632 613 640 
f 596 614 641 
f 619 601 641 
f 614 619 641 
f 636 596 641 
f 601 636 641 
f 604 601 642 
f 619 604 642 
f 601 619 642 
f 585 595 643 
f 602 585 643 
f 595 602 643 
f 590 618 644 
f 618 613 644 
f 632 590 644 
f 613 632 644 
f 618 612 645 
f 623 607 645 
f 607 634 645 
f 634 618 645 
f 603 610 646 
f 612 603 646 
f 610 623 646 
f 645 612 646 
f 623 645 646 
f 586 633 647 
f 633 615 647 
f 638 586 647 
o convex_11
v 0.015731 -0.031978 -0.006395
v 0.016689 -0.024318 0.007007
v 0.018602 -0.025276 0.006049
v 0.026260 -0.046331 0.005092
v 0.027218 -0.036757 -0.006395
v 0.016689 -0.022404 -0.004480
v 0.027218 -0.035800 0.007007
v 0.015731 -0.032935 0.007007
v 0.026260 -0.047288 -0.003522
v 0.015731 -0.034847 0.005092
v 0.027218 -0.044416 -0.006395
v 0.015731 -0.025276 -0.006395
v 0.027218 -0.034847 -0.001608
v 0.015731 -0.034847 -0.003522
v 0.027218 -0.042501 0.007007
v 0.015731 -0.022404 0.004134
v 0.016689 -0.022404 0.004134
v 0.027218 -0.047288 0.003178
v 0.026260 -0.047288 0.003178
v 0.026260 -0.033892 0.005092
v 0.026260 -0.044416 -0.006395
v 0.027218 -0.035800 -0.005437
v 0.024346 -0.032935 -0.006395
v 0.015731 -0.024318 0.007007
v 0.015731 -0.022404 -0.004480
v 0.017645 -0.023361 0.001261
v 0.027218 -0.047288 -0.003522
v 0.026260 -0.042501 0.007007
v 0.016689 -0.023361 -0.005437
v 0.027218 -0.034847 0.003178
v 0.025303 -0.044416 -0.005437
v 0.016689 -0.025276 -0.006395
v 0.017645 -0.023361 -0.002566
v 0.025303 -0.032935 0.006049
v 0.027218 -0.046331 0.005092
v 0.016689 -0.023361 0.006049
v 0.018602 -0.025276 -0.005437
v 0.016689 -0.033892 0.007007
v 0.023388 -0.031020 -0.005437
f 670 684 686 
f 650 649 654 
f 654 649 655 
f 655 648 657 
f 651 655 657 
f 648 652 658 
f 652 654 658 
f 652 648 659 
f 648 655 659 
f 654 652 660 
f 657 648 661 
f 656 657 661 
f 654 655 662 
f 658 654 662 
f 659 655 663 
f 653 663 664 
f 658 662 665 
f 651 657 666 
f 657 656 666 
f 665 651 666 
f 656 665 666 
f 648 658 668 
f 658 656 668 
f 653 660 669 
f 660 652 669 
f 652 659 670 
f 669 652 670 
f 655 649 671 
f 663 655 671 
f 663 653 672 
f 659 663 672 
f 653 664 673 
f 656 658 674 
f 665 656 674 
f 658 665 674 
f 651 662 675 
f 662 655 675 
f 672 653 676 
f 659 672 676 
f 654 660 677 
f 667 654 677 
f 664 667 677 
f 660 673 677 
f 673 664 677 
f 661 648 678 
f 656 661 678 
f 648 668 678 
f 668 656 678 
f 670 659 679 
f 659 676 679 
f 676 670 679 
f 660 653 680 
f 653 673 680 
f 673 660 680 
f 650 654 681 
f 664 650 681 
f 654 667 681 
f 667 664 681 
f 662 651 682 
f 651 665 682 
f 665 662 682 
f 649 650 683 
f 650 664 683 
f 664 663 683 
f 671 649 683 
f 663 671 683 
f 670 676 684 
f 676 653 684 
f 655 651 685 
f 651 675 685 
f 675 655 685 
f 653 669 686 
f 669 670 686 
f 684 653 686 
o convex_12
v 0.035833 -0.059731 -0.006395
v 0.028176 -0.037722 0.007007
v 0.028176 -0.036761 0.006049
v 0.031048 -0.071220 -0.004480
v 0.037748 -0.071220 0.006049
v 0.027218 -0.038680 -0.006395
v 0.035833 -0.050165 0.004134
v 0.031048 -0.071220 0.003178
v 0.027218 -0.044424 0.007007
v 0.037748 -0.071220 -0.004480
v 0.033918 -0.047295 -0.005437
v 0.027218 -0.050165 -0.001608
v 0.037748 -0.059731 -0.002566
v 0.032960 -0.071220 -0.006395
v 0.037748 -0.061647 0.006049
v 0.030091 -0.038680 -0.000650
v 0.033918 -0.071220 0.006049
v 0.027218 -0.046337 -0.006395
v 0.032006 -0.043466 0.007007
v 0.028176 -0.036761 -0.004480
v 0.027218 -0.036761 0.006049
v 0.032960 -0.043466 0.004134
v 0.036790 -0.071220 -0.006395
v 0.035833 -0.050165 -0.000650
v 0.036790 -0.057819 -0.005437
v 0.032960 -0.046337 -0.006395
v 0.027218 -0.049211 0.003178
v 0.032006 -0.071220 0.005092
v 0.037748 -0.057819 0.003178
v 0.035833 -0.051123 0.006049
v 0.032960 -0.043466 -0.000650
v 0.032006 -0.048253 0.007007
v 0.031048 -0.041550 -0.005437
v 0.035833 -0.053039 -0.005437
v 0.027218 -0.049211 -0.004480
v 0.031048 -0.040596 0.006049
v 0.037748 -0.063560 -0.004480
v 0.027218 -0.036761 -0.004480
v 0.029134 -0.039638 -0.006395
v 0.034876 -0.048253 0.006049
v 0.033918 -0.045379 -0.000650
v 0.030091 -0.038680 0.003178
v 0.027218 -0.046337 0.006049
v 0.027218 -0.050165 0.001261
v 0.036790 -0.053990 -0.000650
v 0.032006 -0.041550 0.000306
v 0.034876 -0.053039 -0.006395
v 0.035833 -0.052081 -0.004480
v 0.033918 -0.045379 0.004134
v 0.027218 -0.037722 0.007007
v 0.032006 -0.042508 -0.003522
v 0.034876 -0.048253 -0.002566
v 0.037748 -0.057819 0.001261
v 0.037748 -0.059731 0.005092
v 0.029134 -0.037722 0.006049
v 0.036790 -0.069304 -0.006395
v 0.027218 -0.048253 -0.005437
v 0.031048 -0.048253 0.007007
v 0.031048 -0.040596 -0.002566
v 0.032006 -0.041550 0.002220
v 0.031048 -0.041550 0.007007
v 0.033918 -0.046337 -0.003522
v 0.036790 -0.054945 -0.002566
v 0.031048 -0.042508 -0.006395
f 725 719 750 
f 690 691 694 
f 691 690 696 
f 690 694 698 
f 695 692 698 
f 691 696 699 
f 692 687 700 
f 696 690 700 
f 691 699 701 
f 694 691 703 
f 698 692 704 
f 692 700 704 
f 700 690 704 
f 688 695 705 
f 691 701 705 
f 689 702 706 
f 688 689 707 
f 692 695 707 
f 689 706 707 
f 700 687 709 
f 696 700 709 
f 687 692 712 
f 695 698 713 
f 695 694 714 
f 694 703 714 
f 703 695 714 
f 701 699 715 
f 710 693 715 
f 705 701 716 
f 715 693 716 
f 703 691 718 
f 705 695 718 
f 691 705 718 
f 699 711 720 
f 712 697 720 
f 690 698 721 
f 698 704 721 
f 699 696 723 
f 696 709 723 
f 711 699 723 
f 706 692 724 
f 692 707 724 
f 707 706 724 
f 692 706 725 
f 712 692 725 
f 706 719 725 
f 705 716 726 
f 716 693 726 
f 693 710 727 
f 702 689 728 
f 694 695 729 
f 713 694 729 
f 695 713 729 
f 698 694 730 
f 694 713 730 
f 713 698 730 
f 727 717 732 
f 702 728 732 
f 711 687 733 
f 687 712 733 
f 720 711 733 
f 712 720 733 
f 699 720 734 
f 720 697 734 
f 708 722 735 
f 726 693 735 
f 722 726 735 
f 693 727 735 
f 727 732 735 
f 695 688 736 
f 688 707 736 
f 707 695 736 
f 697 719 737 
f 717 727 737 
f 732 717 737 
f 727 710 738 
f 734 697 738 
f 710 734 738 
f 715 699 739 
f 710 715 739 
f 731 710 739 
f 701 715 740 
f 716 701 740 
f 715 716 740 
f 689 688 741 
f 728 689 741 
f 722 728 741 
f 709 687 742 
f 687 711 742 
f 723 709 742 
f 711 723 742 
f 704 690 743 
f 690 721 743 
f 721 704 743 
f 695 703 744 
f 703 718 744 
f 718 695 744 
f 706 702 745 
f 719 706 745 
f 702 732 745 
f 737 719 745 
f 732 737 745 
f 722 708 746 
f 728 722 746 
f 732 728 746 
f 708 735 746 
f 735 732 746 
f 688 705 747 
f 705 726 747 
f 726 722 747 
f 741 688 747 
f 722 741 747 
f 697 737 748 
f 737 727 748 
f 727 738 748 
f 738 697 748 
f 710 731 749 
f 734 710 749 
f 699 734 749 
f 739 699 749 
f 731 739 749 
f 697 712 750 
f 719 697 750 
f 712 725 750 
