o convex_0
v 0.042558 -0.000035 0.044940
v 0.036987 -0.020457 0.039369
v 0.038845 -0.020457 0.039369
v 0.036987 0.022243 0.039369
v 0.036987 -0.018597 0.044940
v 0.036987 0.020383 0.044940
v 0.042558 0.009244 0.039369
v 0.042558 -0.009314 0.043082
v 0.038845 0.022243 0.043082
v 0.042558 -0.005602 0.039369
v 0.040700 0.014816 0.044940
v 0.038845 -0.018597 0.044940
v 0.042558 0.011100 0.043082
v 0.038845 0.022243 0.039369
v 0.040700 -0.016741 0.041227
v 0.038845 -0.020457 0.043082
v 0.040700 -0.013029 0.044940
v 0.040700 -0.016741 0.043082
v 0.038845 0.020383 0.044940
v 0.036987 0.022243 0.043082
v 0.036987 -0.020457 0.043082
v 0.042558 -0.009314 0.041227
v 0.040700 -0.014885 0.039369
v 0.042558 0.011100 0.041227
v 0.042558 -0.001890 0.044940
v 0.040700 0.016672 0.039369
f 14 24 26 
f 3 2 4 
f 4 2 5 
f 5 1 6 
f 4 5 6 
f 3 4 7 
f 7 1 8 
f 3 7 10 
f 7 8 10 
f 6 1 11 
f 1 5 12 
f 1 7 13 
f 11 1 13 
f 9 11 13 
f 7 4 14 
f 4 9 14 
f 9 13 14 
f 2 3 16 
f 12 5 16 
f 3 15 16 
f 1 12 17 
f 15 8 18 
f 12 16 18 
f 16 15 18 
f 8 17 18 
f 17 12 18 
f 9 6 19 
f 6 11 19 
f 11 9 19 
f 4 6 20 
f 6 9 20 
f 9 4 20 
f 5 2 21 
f 2 16 21 
f 16 5 21 
f 10 8 22 
f 8 15 22 
f 22 15 23 
f 3 10 23 
f 15 3 23 
f 10 22 23 
f 13 7 24 
f 14 13 24 
f 8 1 25 
f 1 17 25 
f 17 8 25 
f 7 14 26 
f 24 7 26 
o convex_1
v 0.049987 0.003677 0.031941
v 0.055552 -0.007461 0.013372
v 0.055552 0.001821 0.013372
v 0.036987 -0.000036 0.020802
v 0.036987 -0.009320 0.030081
v 0.061124 -0.007461 0.026368
v 0.064841 0.005534 0.013372
v 0.036987 0.007392 0.031941
v 0.064841 -0.009320 0.013372
v 0.062978 0.005534 0.022658
v 0.036987 0.007392 0.024513
v 0.038849 -0.003748 0.033798
v 0.036987 -0.009320 0.024513
v 0.049987 -0.009320 0.030081
v 0.053695 -0.001891 0.031941
v 0.057411 0.003677 0.030081
v 0.049987 0.007392 0.028226
v 0.064841 -0.005605 0.020802
v 0.057411 0.005534 0.013372
v 0.036987 0.003677 0.033798
v 0.061124 -0.009320 0.024513
v 0.062978 0.003677 0.024513
v 0.036987 0.001821 0.020802
v 0.057411 -0.005605 0.030081
v 0.057411 -0.009320 0.013372
v 0.064841 0.003677 0.020802
v 0.053695 0.005534 0.030081
v 0.055552 -0.007461 0.030081
v 0.036987 -0.007461 0.031941
v 0.046276 0.007392 0.024513
v 0.038849 0.003677 0.033798
v 0.038849 0.007392 0.031941
v 0.057411 0.005534 0.028226
v 0.062978 -0.005605 0.024513
v 0.064841 0.005534 0.017089
v 0.036987 -0.003748 0.033798
v 0.042560 -0.007461 0.031941
v 0.064841 -0.009320 0.015230
v 0.046276 0.005534 0.031941
v 0.059268 -0.009320 0.026368
v 0.053695 -0.000036 0.031941
v 0.048133 -0.005605 0.031941
v 0.051841 -0.003748 0.031941
v 0.049987 0.007392 0.026368
v 0.064841 -0.007461 0.018945
v 0.055552 -0.009320 0.028226
v 0.062978 -0.009320 0.020802
f 64 71 73 
f 29 28 30 
f 28 29 33 
f 30 31 34 
f 28 33 35 
f 30 34 37 
f 30 28 39 
f 31 30 39 
f 35 31 39 
f 31 35 40 
f 37 34 43 
f 35 33 44 
f 33 29 45 
f 37 33 45 
f 34 31 46 
f 40 35 47 
f 44 32 47 
f 42 32 48 
f 36 42 48 
f 29 30 49 
f 30 37 49 
f 45 29 49 
f 37 45 49 
f 32 42 50 
f 42 41 50 
f 28 35 51 
f 39 28 51 
f 35 39 51 
f 44 33 52 
f 36 48 52 
f 48 44 52 
f 31 40 55 
f 46 31 55 
f 33 37 56 
f 37 43 56 
f 38 41 57 
f 34 46 57 
f 46 38 57 
f 43 34 58 
f 53 43 58 
f 34 57 58 
f 42 36 59 
f 36 43 59 
f 53 42 59 
f 43 53 59 
f 32 44 60 
f 48 32 60 
f 44 48 60 
f 43 36 61 
f 33 43 61 
f 52 33 61 
f 36 52 61 
f 38 46 62 
f 55 38 62 
f 46 55 62 
f 55 40 63 
f 38 55 63 
f 35 44 64 
f 47 35 64 
f 27 42 65 
f 42 53 65 
f 57 27 65 
f 53 58 65 
f 58 57 65 
f 47 32 66 
f 40 47 66 
f 32 50 66 
f 50 54 66 
f 41 42 67 
f 42 27 67 
f 27 57 67 
f 57 41 67 
f 40 54 68 
f 38 63 68 
f 63 40 68 
f 41 38 69 
f 50 41 69 
f 54 50 69 
f 38 68 69 
f 68 54 69 
f 43 33 70 
f 33 56 70 
f 56 43 70 
f 44 47 71 
f 64 44 71 
f 54 40 72 
f 40 66 72 
f 66 54 72 
f 47 64 73 
f 71 47 73 
o convex_2
v 0.036987 -0.007463 -0.025621
v 0.053699 0.005535 -0.014483
v 0.053699 0.003679 -0.012624
v 0.053699 -0.009320 -0.018196
v 0.051841 -0.000035 -0.023764
v 0.036987 0.005535 -0.025621
v 0.038846 -0.007463 -0.018196
v 0.036987 0.003679 -0.018196
v 0.051841 -0.009320 -0.012624
v 0.053699 0.005535 -0.020050
v 0.036987 -0.009320 -0.020050
v 0.044416 -0.005604 -0.025621
v 0.053699 -0.005604 -0.021907
v 0.042559 -0.009320 -0.023764
v 0.038846 0.005535 -0.018196
v 0.051841 0.003679 -0.012624
v 0.042559 0.003679 -0.025621
v 0.053699 -0.009320 -0.012624
v 0.046271 0.005535 -0.023764
v 0.048127 -0.007463 -0.023764
v 0.051841 -0.003749 -0.023764
v 0.036987 -0.009320 -0.023764
v 0.051841 -0.009320 -0.020050
v 0.036987 0.001820 -0.018196
v 0.053699 0.001820 -0.021907
v 0.049983 0.005535 -0.014483
v 0.044416 0.001820 -0.025621
v 0.036987 0.005535 -0.020050
v 0.051841 -0.007463 -0.021907
v 0.038846 -0.007463 -0.025621
v 0.048127 -0.009320 -0.021907
v 0.038846 0.005535 -0.025621
f 92 90 105 
f 75 76 77 
f 79 74 81 
f 75 77 83 
f 79 75 83 
f 81 74 84 
f 77 82 84 
f 82 80 84 
f 74 79 85 
f 83 77 86 
f 77 84 87 
f 75 79 88 
f 88 81 89 
f 76 75 89 
f 82 76 89 
f 81 82 89 
f 85 79 90 
f 77 76 91 
f 76 82 91 
f 82 77 91 
f 79 83 92 
f 78 90 92 
f 85 78 94 
f 78 86 94 
f 86 93 94 
f 93 85 94 
f 84 74 95 
f 74 87 95 
f 87 84 95 
f 77 87 96 
f 80 82 97 
f 82 81 97 
f 81 84 97 
f 84 80 97 
f 83 86 98 
f 86 78 98 
f 78 92 98 
f 92 83 98 
f 75 88 99 
f 88 89 99 
f 89 75 99 
f 78 85 100 
f 90 78 100 
f 85 90 100 
f 79 81 101 
f 88 79 101 
f 81 88 101 
f 86 77 102 
f 93 86 102 
f 77 96 102 
f 74 85 103 
f 87 74 103 
f 85 93 103 
f 93 87 103 
f 87 93 104 
f 96 87 104 
f 93 102 104 
f 102 96 104 
f 90 79 105 
f 79 92 105 
o convex_3
v 0.066697 0.003679 -0.001484
v 0.053699 -0.009320 -0.018189
v 0.053699 -0.007463 -0.020050
v 0.055557 0.001820 0.013372
v 0.064840 -0.009320 0.013372
v 0.053699 0.005535 -0.018189
v 0.064840 0.005535 0.013372
v 0.064840 -0.005604 -0.008906
v 0.055557 -0.007463 0.013372
v 0.059272 0.001820 -0.018189
v 0.061125 -0.009320 -0.012622
v 0.066697 -0.007463 0.009656
v 0.059272 0.005535 0.013372
v 0.053699 0.005535 -0.010761
v 0.064840 0.005535 -0.003342
v 0.057414 -0.009320 0.013372
v 0.066697 0.003679 0.013372
v 0.055557 -0.003749 -0.021908
v 0.066697 -0.007463 0.000373
v 0.053699 -0.007463 -0.008906
v 0.061125 -0.005604 -0.016331
v 0.064840 0.001820 -0.008906
v 0.059272 0.005535 -0.014480
v 0.064840 -0.009320 -0.003342
v 0.053699 -0.000035 -0.021908
v 0.055557 -0.007463 -0.020050
v 0.066697 -0.003749 -0.003342
v 0.055557 0.003679 -0.020050
v 0.053699 -0.009320 -0.010761
v 0.066697 -0.005604 0.013372
v 0.061125 0.003679 -0.014480
v 0.061125 -0.000035 -0.016331
v 0.055557 -0.000035 -0.021908
v 0.066697 0.001820 -0.003342
v 0.055557 -0.009320 -0.018189
v 0.064840 -0.007463 -0.007048
v 0.064840 0.003679 -0.007048
v 0.053699 -0.003749 -0.021908
v 0.055557 0.005535 -0.018189
v 0.062982 0.001820 -0.012622
v 0.059272 -0.005604 -0.018189
v 0.057414 0.001820 -0.020050
v 0.053699 0.003679 -0.020050
v 0.053699 -0.005604 -0.008906
v 0.062982 -0.009320 -0.008906
f 141 129 150 
f 108 107 111 
f 109 110 112 
f 110 109 114 
f 110 107 116 
f 109 112 118 
f 112 111 118 
f 111 107 119 
f 109 118 119 
f 118 111 119 
f 111 112 120 
f 112 106 120 
f 107 110 121 
f 110 114 121 
f 106 112 122 
f 112 110 122 
f 117 106 122 
f 117 110 124 
f 106 117 124 
f 114 109 125 
f 119 107 125 
f 113 116 126 
f 111 120 128 
f 110 116 129 
f 124 110 129 
f 108 111 130 
f 107 108 131 
f 108 123 131 
f 106 124 132 
f 113 127 132 
f 107 121 134 
f 121 114 134 
f 125 107 134 
f 114 125 134 
f 110 117 135 
f 122 110 135 
f 117 122 135 
f 128 120 136 
f 126 115 137 
f 123 130 138 
f 130 133 138 
f 127 106 139 
f 106 132 139 
f 132 127 139 
f 116 107 140 
f 107 131 140 
f 131 116 140 
f 116 113 141 
f 124 129 141 
f 132 124 141 
f 113 132 141 
f 120 106 142 
f 106 127 142 
f 136 120 142 
f 127 136 142 
f 123 108 143 
f 108 130 143 
f 130 123 143 
f 111 128 144 
f 133 111 144 
f 128 133 144 
f 113 126 145 
f 127 113 145 
f 136 127 145 
f 115 136 145 
f 137 115 145 
f 126 137 145 
f 115 126 146 
f 126 116 146 
f 116 131 146 
f 131 123 146 
f 133 128 147 
f 136 115 147 
f 128 136 147 
f 123 138 147 
f 138 133 147 
f 115 146 147 
f 146 123 147 
f 130 111 148 
f 111 133 148 
f 133 130 148 
f 109 119 149 
f 125 109 149 
f 119 125 149 
f 129 116 150 
f 116 141 150 
o convex_4
v -0.033569 -0.027885 -0.036763
v 0.005420 -0.000039 -0.033051
v 0.005420 -0.026030 -0.031194
v -0.046573 -0.000039 -0.031194
v -0.040995 -0.000039 -0.038620
v 0.005420 -0.037169 -0.038620
v -0.018724 -0.039024 -0.031194
v 0.005420 -0.000039 -0.036763
v -0.018724 -0.035310 -0.038620
v 0.001705 -0.040883 -0.031194
v -0.039137 -0.024171 -0.031194
v -0.039137 -0.016751 -0.038620
v 0.005420 -0.022316 -0.038620
v -0.044715 -0.007468 -0.036763
v -0.013151 -0.039024 -0.036763
v -0.026139 -0.035310 -0.034907
v -0.037280 -0.000039 -0.031194
v -0.042858 -0.016751 -0.034907
v -0.031712 -0.000039 -0.038620
v 0.005420 -0.039024 -0.031194
v -0.029854 -0.033454 -0.031194
v -0.031712 -0.027885 -0.038620
v -0.037280 -0.026030 -0.034907
v -0.009436 -0.040883 -0.033051
v 0.005420 -0.039024 -0.036763
v -0.044715 -0.011182 -0.031194
v -0.042858 -0.001898 -0.038620
v -0.020576 -0.037169 -0.036763
v -0.040995 -0.018606 -0.036763
v -0.046573 -0.003753 -0.033051
v -0.044715 -0.000039 -0.036763
v -0.013151 -0.037169 -0.038620
v -0.018724 -0.039024 -0.033051
v -0.029854 -0.031599 -0.036763
v -0.009436 -0.040883 -0.031194
v 0.001705 -0.040883 -0.033051
v -0.029854 -0.033454 -0.033051
v -0.044715 -0.011182 -0.034907
v -0.042858 -0.016751 -0.031194
v -0.042858 -0.005612 -0.038620
v -0.026139 -0.031599 -0.038620
v -0.037280 -0.024171 -0.036763
v -0.037280 -0.020461 -0.038620
v -0.040995 -0.020461 -0.034907
v -0.046573 -0.003753 -0.031194
v -0.046573 -0.000039 -0.033051
v -0.016866 -0.039024 -0.034907
v -0.033569 -0.029740 -0.034907
v -0.024281 -0.035310 -0.036763
v -0.039137 -0.024171 -0.033051
v -0.022424 -0.037169 -0.034907
f 187 166 201 
f 154 152 155 
f 152 153 156 
f 153 154 157 
f 155 152 158 
f 152 156 158 
f 155 156 159 
f 153 157 160 
f 157 154 161 
f 155 159 162 
f 156 155 163 
f 158 156 163 
f 153 152 167 
f 154 153 167 
f 152 154 167 
f 155 158 169 
f 163 155 169 
f 158 163 169 
f 156 153 170 
f 153 160 170 
f 157 161 171 
f 162 159 172 
f 171 161 173 
f 172 151 173 
f 174 165 175 
f 165 156 175 
f 156 170 175 
f 170 160 175 
f 161 154 176 
f 155 162 177 
f 164 162 179 
f 168 164 179 
f 154 155 181 
f 155 177 181 
f 177 164 181 
f 164 180 181 
f 159 156 182 
f 156 165 182 
f 178 159 182 
f 165 178 182 
f 157 171 183 
f 174 157 183 
f 151 172 184 
f 160 157 185 
f 157 174 185 
f 174 160 185 
f 160 174 186 
f 174 175 186 
f 175 160 186 
f 183 171 187 
f 184 166 187 
f 164 168 188 
f 168 176 188 
f 180 164 188 
f 176 180 188 
f 168 161 189 
f 161 176 189 
f 176 168 189 
f 162 164 190 
f 177 162 190 
f 164 177 190 
f 172 159 191 
f 159 178 191 
f 184 172 191 
f 172 173 192 
f 173 179 192 
f 192 179 193 
f 162 172 193 
f 179 162 193 
f 172 192 193 
f 168 179 194 
f 179 173 194 
f 176 154 195 
f 154 180 195 
f 180 176 195 
f 180 154 196 
f 154 181 196 
f 181 180 196 
f 165 174 197 
f 178 165 197 
f 174 183 197 
f 183 178 197 
f 173 151 198 
f 171 173 198 
f 151 184 198 
f 187 171 198 
f 184 187 198 
f 178 166 199 
f 166 184 199 
f 191 178 199 
f 184 191 199 
f 161 168 200 
f 173 161 200 
f 168 194 200 
f 194 173 200 
f 166 178 201 
f 178 183 201 
f 183 187 201 
o convex_5
v -0.042858 0.014827 -0.036763
v 0.003562 0.042673 -0.029336
v 0.003562 0.042673 -0.033051
v 0.005420 -0.000035 -0.033051
v -0.046573 -0.000035 -0.029336
v 0.005420 0.037096 -0.038620
v -0.042858 -0.000035 -0.038620
v -0.029854 0.035244 -0.029336
v -0.026139 0.033384 -0.038620
v 0.005420 -0.000035 -0.036763
v 0.005420 0.035244 -0.029336
v -0.015009 0.040813 -0.036763
v -0.042858 0.020391 -0.029336
v -0.037280 0.027811 -0.034905
v 0.005420 0.024103 -0.038620
v -0.013151 0.042673 -0.029336
v -0.039137 -0.000035 -0.029336
v -0.024281 0.038957 -0.033051
v -0.037280 0.022247 -0.038620
v -0.031712 -0.000035 -0.038620
v -0.046573 0.005537 -0.033051
v 0.003562 0.038957 -0.038620
v -0.007578 0.042673 -0.034905
v -0.042858 0.018535 -0.034905
v -0.013151 0.038957 -0.038620
v 0.005420 0.040813 -0.036763
v -0.029854 0.033384 -0.036763
v -0.044715 0.009250 -0.036763
v -0.046573 0.007394 -0.029336
v -0.044715 0.014827 -0.033051
v -0.031712 0.033384 -0.034905
v -0.046573 -0.000035 -0.033051
v -0.039137 0.025959 -0.029336
v -0.020576 0.038957 -0.036763
v -0.013151 0.042673 -0.033051
v 0.005420 0.040813 -0.029336
v -0.024281 0.038957 -0.029336
v -0.040995 0.012966 -0.038620
v -0.040995 0.020391 -0.036763
v -0.037280 0.025959 -0.036763
v -0.039137 0.025959 -0.033051
v -0.044715 -0.000035 -0.036763
v -0.024281 0.037096 -0.036763
v -0.042858 0.005537 -0.038620
v -0.002010 0.042673 -0.034905
v -0.042858 0.020391 -0.031194
v -0.040995 0.022247 -0.034905
v -0.029854 0.035244 -0.033051
v -0.044715 0.014827 -0.029336
v -0.018724 0.037096 -0.038620
v -0.044715 0.012966 -0.034905
v -0.039137 0.018535 -0.038620
v -0.046573 0.007394 -0.031194
v -0.026139 0.037096 -0.034905
f 235 244 255 
f 205 206 208 
f 206 203 209 
f 207 208 210 
f 207 205 211 
f 205 208 211 
f 203 206 212 
f 205 207 212 
f 206 209 214 
f 208 207 216 
f 207 211 216 
f 203 204 217 
f 209 203 217 
f 206 205 218 
f 205 212 218 
f 212 206 218 
f 210 208 220 
f 211 208 221 
f 208 216 221 
f 216 211 221 
f 207 210 223 
f 217 204 224 
f 223 210 226 
f 213 224 226 
f 224 223 226 
f 204 203 227 
f 212 207 227 
f 207 223 227 
f 210 220 228 
f 206 214 230 
f 222 206 230 
f 208 206 233 
f 206 222 233 
f 222 229 233 
f 214 209 234 
f 213 226 235 
f 219 217 236 
f 224 213 236 
f 217 224 236 
f 213 235 236 
f 235 219 236 
f 203 212 237 
f 227 203 237 
f 212 227 237 
f 209 217 238 
f 219 209 238 
f 217 219 238 
f 220 208 239 
f 229 202 239 
f 202 225 240 
f 228 220 241 
f 215 232 241 
f 232 228 241 
f 220 240 241 
f 232 215 242 
f 234 209 242 
f 214 234 242 
f 229 208 243 
f 208 233 243 
f 233 229 243 
f 210 228 244 
f 228 232 244 
f 235 210 244 
f 208 229 245 
f 239 208 245 
f 229 239 245 
f 223 224 246 
f 224 204 246 
f 204 227 246 
f 227 223 246 
f 231 214 247 
f 225 231 247 
f 214 242 247 
f 247 242 248 
f 240 225 248 
f 215 241 248 
f 241 240 248 
f 242 215 248 
f 225 247 248 
f 209 219 249 
f 219 232 249 
f 242 209 249 
f 232 242 249 
f 230 214 250 
f 214 231 250 
f 231 230 250 
f 226 210 251 
f 210 235 251 
f 235 226 251 
f 225 202 252 
f 202 229 252 
f 229 222 252 
f 231 225 252 
f 222 231 252 
f 239 202 253 
f 220 239 253 
f 240 220 253 
f 202 240 253 
f 222 230 254 
f 231 222 254 
f 230 231 254 
f 232 219 255 
f 219 235 255 
f 244 232 255 
o convex_6
v 0.033273 -0.016750 -0.034907
v 0.005420 -0.039030 -0.034907
v 0.005420 -0.039030 -0.031194
v 0.005420 -0.000035 -0.033051
v 0.020280 -0.000035 -0.038620
v 0.036987 -0.000035 -0.031194
v 0.005420 -0.035316 -0.038620
v 0.033273 -0.009322 -0.038620
v 0.020280 -0.033453 -0.031194
v 0.020280 -0.029743 -0.038620
v 0.005420 -0.000035 -0.036763
v 0.033273 -0.000035 -0.038620
v 0.025845 -0.000035 -0.031194
v 0.029559 -0.024174 -0.031194
v 0.005420 -0.026029 -0.031194
v 0.020280 -0.033453 -0.034907
v 0.029559 -0.022315 -0.036763
v 0.005420 -0.022315 -0.038620
v 0.036987 -0.005608 -0.033051
v 0.010991 -0.037171 -0.036763
v 0.033273 -0.018605 -0.031194
v 0.009134 -0.039030 -0.031194
v 0.035127 -0.013036 -0.034907
v 0.029559 -0.018605 -0.038620
v 0.035127 -0.000035 -0.036763
v 0.035127 -0.009322 -0.036763
v 0.027702 -0.026029 -0.034907
v 0.014705 -0.033453 -0.038620
v 0.036987 -0.005608 -0.031194
v 0.033273 -0.018605 -0.033051
v 0.033273 -0.014891 -0.036763
v 0.009134 -0.039030 -0.033051
v 0.036987 -0.000035 -0.033051
v 0.025845 -0.024174 -0.038620
v 0.009134 -0.035316 -0.038620
v 0.012848 -0.037171 -0.034907
v 0.035127 -0.013036 -0.031194
v 0.014705 -0.035316 -0.036763
v 0.029559 -0.024174 -0.033051
v 0.007277 -0.039030 -0.034907
f 290 275 295 
f 257 258 259 
f 260 259 261 
f 257 259 262 
f 262 260 263 
f 261 258 264 
f 262 263 265 
f 259 260 266 
f 262 259 266 
f 260 261 267 
f 263 260 267 
f 258 261 268 
f 261 259 268 
f 261 264 269 
f 259 258 270 
f 258 268 270 
f 268 259 270 
f 269 264 271 
f 260 262 273 
f 266 260 273 
f 262 266 273 
f 261 269 276 
f 258 257 277 
f 264 258 277 
f 271 264 277 
f 265 263 279 
f 267 261 280 
f 263 267 280 
f 280 274 281 
f 274 278 281 
f 263 280 281 
f 271 265 282 
f 265 272 282 
f 262 265 283 
f 274 261 284 
f 261 276 284 
f 278 274 284 
f 272 256 285 
f 276 269 285 
f 256 278 285 
f 278 276 285 
f 282 272 285 
f 256 272 286 
f 278 256 286 
f 279 263 286 
f 272 279 286 
f 281 278 286 
f 263 281 286 
f 277 257 287 
f 271 277 287 
f 261 274 288 
f 280 261 288 
f 274 280 288 
f 272 265 289 
f 265 279 289 
f 279 272 289 
f 257 262 290 
f 262 283 290 
f 283 275 290 
f 287 275 291 
f 271 287 291 
f 276 278 292 
f 284 276 292 
f 278 284 292 
f 265 271 293 
f 283 265 293 
f 275 283 293 
f 271 291 293 
f 291 275 293 
f 269 271 294 
f 271 282 294 
f 285 269 294 
f 282 285 294 
f 287 257 295 
f 275 287 295 
f 257 290 295 
o convex_7
v 0.031416 0.024101 -0.031194
v 0.005420 -0.000031 -0.036763
v 0.020280 -0.000031 -0.038620
v 0.005420 0.037098 -0.038620
v 0.005420 0.040812 -0.031194
v 0.025845 -0.000031 -0.031194
v 0.033273 0.009252 -0.038620
v 0.005420 -0.000031 -0.033051
v 0.036987 -0.000031 -0.031194
v 0.018420 0.035239 -0.036763
v 0.025845 0.025960 -0.038620
v 0.033273 -0.000031 -0.038620
v 0.018420 0.037098 -0.031194
v 0.035127 0.014821 -0.034907
v 0.009134 0.040812 -0.034907
v 0.005420 0.022246 -0.038620
v 0.029559 0.025960 -0.034907
v 0.036987 0.001828 -0.034907
v 0.005420 0.035239 -0.031194
v 0.036987 0.007397 -0.031194
v 0.031416 0.016680 -0.038620
v 0.009134 0.037098 -0.038620
v 0.020280 0.035239 -0.034907
v 0.035127 0.011111 -0.036763
v 0.005420 0.040812 -0.034907
v 0.009134 0.040812 -0.031194
v 0.029559 0.024101 -0.036763
v 0.033273 0.020391 -0.033051
v 0.016563 0.033384 -0.038620
v 0.014705 0.038953 -0.033051
v 0.035127 0.014821 -0.031194
v 0.036987 0.007397 -0.033051
v 0.036987 -0.000031 -0.034907
v 0.010991 0.038953 -0.036763
v 0.033273 0.016680 -0.036763
v 0.022128 0.029670 -0.038620
v 0.018420 0.037098 -0.033051
v 0.033273 0.020391 -0.031194
v 0.031416 0.024101 -0.033051
v 0.029559 0.020391 -0.038620
v 0.014705 0.038953 -0.031194
f 325 321 336 
f 299 297 300 
f 297 298 301 
f 296 300 301 
f 298 299 302 
f 300 297 303 
f 297 301 303 
f 296 301 304 
f 301 298 304 
f 302 299 306 
f 298 302 307 
f 304 298 307 
f 300 296 308 
f 298 297 311 
f 299 298 311 
f 297 299 311 
f 308 296 312 
f 307 302 313 
f 301 300 314 
f 300 303 314 
f 303 301 314 
f 296 304 315 
f 304 313 315 
f 302 306 316 
f 306 299 317 
f 299 310 317 
f 306 305 318 
f 305 310 318 
f 312 306 318 
f 308 312 318 
f 313 302 319 
f 302 316 319 
f 299 300 320 
f 310 299 320 
f 300 310 320 
f 300 308 321 
f 310 300 321 
f 306 312 322 
f 306 317 324 
f 317 305 324 
f 310 321 325 
f 296 315 326 
f 315 309 326 
f 309 323 326 
f 309 315 327 
f 315 313 327 
f 313 319 327 
f 319 309 327 
f 304 307 328 
f 307 313 328 
f 313 304 328 
f 310 305 329 
f 305 317 329 
f 317 310 329 
f 309 319 330 
f 319 316 330 
f 322 312 330 
f 316 322 330 
f 312 323 330 
f 323 309 330 
f 305 306 331 
f 324 305 331 
f 306 324 331 
f 318 310 332 
f 308 318 332 
f 310 325 332 
f 325 308 332 
f 323 296 333 
f 296 326 333 
f 326 323 333 
f 312 296 334 
f 296 323 334 
f 323 312 334 
f 316 306 335 
f 306 322 335 
f 322 316 335 
f 321 308 336 
f 308 325 336 
o convex_8
v -0.013150 -0.046456 0.043081
v -0.026142 -0.029747 0.041225
v -0.026142 -0.029747 0.033798
v -0.041002 -0.031605 0.043081
v -0.005721 -0.040885 0.044940
v -0.013150 -0.040885 0.033798
v -0.005721 -0.037175 0.033798
v -0.031712 -0.039028 0.039369
v -0.039144 -0.029747 0.044940
v -0.005721 -0.046456 0.039369
v -0.031712 -0.031605 0.033798
v -0.018724 -0.044598 0.044940
v -0.005721 -0.037175 0.041225
v -0.029858 -0.029747 0.044940
v -0.018724 -0.044598 0.039369
v -0.005721 -0.046456 0.044940
v -0.026142 -0.042741 0.043081
v -0.020582 -0.039028 0.033798
v -0.039144 -0.029747 0.039369
v -0.039144 -0.033462 0.039369
v -0.033570 -0.037175 0.044940
v -0.005721 -0.040885 0.033798
v -0.035425 -0.037175 0.043081
v -0.028000 -0.035318 0.033798
v -0.009437 -0.046456 0.039369
v -0.024284 -0.042741 0.039369
v -0.031712 -0.029747 0.033798
v -0.037286 -0.035318 0.039369
v -0.041002 -0.029747 0.041225
v -0.026142 -0.042741 0.041225
v -0.020582 -0.044598 0.041225
v -0.039144 -0.031605 0.044940
v -0.013150 -0.046456 0.041225
v -0.035425 -0.037175 0.041225
v -0.020582 -0.044598 0.043081
v -0.009437 -0.039028 0.044940
v -0.007579 -0.046456 0.044940
v -0.041002 -0.031605 0.041225
v -0.041002 -0.029747 0.043081
v -0.009437 -0.037175 0.043081
f 350 372 376 
f 339 338 343 
f 342 339 343 
f 338 339 345 
f 343 341 346 
f 339 342 347 
f 341 345 348 
f 343 338 349 
f 341 343 349 
f 338 345 350 
f 345 341 350 
f 349 338 350 
f 337 346 352 
f 346 341 352 
f 341 348 352 
f 347 342 354 
f 342 351 354 
f 345 339 355 
f 355 347 356 
f 348 345 357 
f 353 348 357 
f 342 343 358 
f 343 346 358 
f 346 342 358 
f 357 340 359 
f 353 357 359 
f 347 354 360 
f 354 344 360 
f 356 347 360 
f 346 337 361 
f 342 346 361 
f 351 342 361 
f 344 354 362 
f 354 351 362 
f 339 347 363 
f 355 339 363 
f 347 355 363 
f 340 356 364 
f 359 340 364 
f 360 344 364 
f 356 360 364 
f 345 355 365 
f 355 356 365 
f 353 359 366 
f 344 362 366 
f 362 351 366 
f 366 351 367 
f 353 366 367 
f 345 340 368 
f 340 357 368 
f 357 345 368 
f 361 337 369 
f 351 361 369 
f 337 367 369 
f 367 351 369 
f 364 344 370 
f 359 364 370 
f 344 366 370 
f 366 359 370 
f 337 348 371 
f 348 353 371 
f 367 337 371 
f 353 367 371 
f 341 349 372 
f 350 341 372 
f 348 337 373 
f 337 352 373 
f 352 348 373 
f 356 340 374 
f 340 365 374 
f 365 356 374 
f 340 345 375 
f 365 340 375 
f 345 365 375 
f 349 350 376 
f 372 349 376 
o convex_9
v -0.029863 -0.029743 0.043081
v -0.052139 -0.007465 0.041225
v -0.050284 -0.013037 0.039369
v -0.040999 -0.007465 0.033798
v -0.033577 -0.029743 0.033798
v -0.042856 -0.029743 0.043081
v -0.044713 -0.005606 0.044940
v -0.028004 -0.027886 0.033798
v -0.046570 -0.005606 0.033798
v -0.048427 -0.018601 0.044940
v -0.028004 -0.027886 0.041225
v -0.040999 -0.022315 0.033798
v -0.033577 -0.029743 0.044940
v -0.044713 -0.026029 0.039369
v -0.042856 -0.005606 0.043081
v -0.050284 -0.005606 0.044940
v -0.044713 -0.014894 0.033798
v -0.040999 -0.029743 0.044940
v -0.028004 -0.029743 0.033798
v -0.052139 -0.005606 0.043081
v -0.029863 -0.027886 0.043081
v -0.040999 -0.007465 0.039369
v -0.048427 -0.018601 0.039369
v -0.042856 -0.005606 0.033798
v -0.042856 -0.029743 0.041225
v -0.050284 -0.014894 0.043081
v -0.050284 -0.013037 0.044940
v -0.033577 -0.027886 0.044940
v -0.028004 -0.029743 0.041225
v -0.046570 -0.007465 0.033798
v -0.052139 -0.005606 0.041225
v -0.050284 -0.014894 0.041225
v -0.046570 -0.022315 0.044940
v -0.052139 -0.007465 0.043081
v -0.040999 -0.029743 0.039369
v -0.042856 -0.027886 0.044940
f 394 409 412 
f 381 377 382 
f 381 380 384 
f 380 381 385 
f 384 380 387 
f 385 381 388 
f 382 377 389 
f 383 386 389 
f 388 381 390 
f 385 383 391 
f 383 387 391 
f 383 385 392 
f 386 383 392 
f 385 388 393 
f 388 390 393 
f 382 389 394 
f 389 386 394 
f 377 381 395 
f 381 384 395 
f 384 387 395 
f 392 385 396 
f 377 387 397 
f 387 383 397 
f 389 377 397 
f 387 380 398 
f 380 391 398 
f 391 387 398 
f 379 393 399 
f 393 390 399 
f 380 385 400 
f 391 380 400 
f 385 391 400 
f 381 382 401 
f 401 382 402 
f 386 392 403 
f 392 396 403 
f 402 386 403 
f 383 389 404 
f 397 383 404 
f 389 397 404 
f 387 377 405 
f 377 395 405 
f 395 387 405 
f 379 378 406 
f 378 385 406 
f 393 379 406 
f 385 393 406 
f 385 378 407 
f 378 396 407 
f 396 385 407 
f 378 379 408 
f 379 399 408 
f 399 390 408 
f 390 401 408 
f 401 402 408 
f 402 378 408 
f 394 386 409 
f 402 382 409 
f 386 402 409 
f 396 378 410 
f 378 402 410 
f 403 396 410 
f 402 403 410 
f 390 381 411 
f 381 401 411 
f 401 390 411 
f 382 394 412 
f 409 382 412 
o convex_10
v 0.005422 -0.046456 0.043081
v 0.031413 -0.029747 0.043081
v 0.031413 -0.029747 0.039369
v -0.005718 -0.037175 0.041225
v -0.005718 -0.040885 0.033798
v 0.023984 -0.029747 0.033798
v 0.020273 -0.040885 0.039369
v -0.005718 -0.044598 0.044940
v 0.022130 -0.029747 0.044940
v 0.018416 -0.040885 0.044940
v 0.016559 -0.029747 0.033798
v 0.005422 -0.040885 0.033798
v -0.005718 -0.046456 0.039369
v -0.005718 -0.037175 0.033798
v 0.003565 -0.046456 0.039369
v -0.005718 -0.040885 0.044940
v 0.023984 -0.031605 0.033798
v 0.027698 -0.035318 0.039369
v 0.029556 -0.031605 0.044940
v 0.016559 -0.029747 0.039369
v 0.025841 -0.037175 0.043081
v 0.009137 -0.044598 0.044940
v 0.010994 -0.039028 0.033798
v 0.010994 -0.044598 0.039369
v 0.016559 -0.042741 0.043081
v 0.031413 -0.031605 0.039369
v -0.005718 -0.046456 0.043081
v 0.018416 -0.029747 0.043081
v 0.031413 -0.031605 0.043081
v 0.018416 -0.035318 0.033798
v 0.029556 -0.029747 0.044940
v 0.023984 -0.037175 0.044940
v 0.020273 -0.040885 0.043081
v 0.005422 -0.046456 0.041225
v 0.025841 -0.037175 0.041225
v 0.016559 -0.042741 0.041225
f 437 436 448 
f 414 415 418 
f 416 417 420 
f 414 418 421 
f 421 420 422 
f 418 417 423 
f 421 418 423 
f 417 418 424 
f 420 417 425 
f 417 424 425 
f 417 416 426 
f 416 423 426 
f 423 417 426 
f 413 425 427 
f 425 424 427 
f 416 420 428 
f 421 416 428 
f 420 421 428 
f 418 415 429 
f 424 418 429 
f 419 429 430 
f 421 422 431 
f 423 416 432 
f 421 423 432 
f 420 413 434 
f 422 420 434 
f 424 429 435 
f 427 424 436 
f 435 419 436 
f 424 435 436 
f 434 413 437 
f 422 434 437 
f 413 436 437 
f 415 414 438 
f 429 415 438 
f 430 429 438 
f 433 430 438 
f 413 420 439 
f 425 413 439 
f 420 425 439 
f 416 421 440 
f 432 416 440 
f 421 432 440 
f 414 431 441 
f 431 433 441 
f 438 414 441 
f 433 438 441 
f 429 419 442 
f 419 435 442 
f 435 429 442 
f 414 421 443 
f 431 414 443 
f 421 431 443 
f 431 422 444 
f 422 433 444 
f 433 431 444 
f 419 433 445 
f 433 422 445 
f 437 419 445 
f 422 437 445 
f 413 427 446 
f 436 413 446 
f 427 436 446 
f 419 430 447 
f 433 419 447 
f 430 433 447 
f 436 419 448 
f 419 437 448 
o convex_11
v 0.036987 -0.007465 0.044940
v 0.020275 -0.029743 0.033798
v 0.020275 -0.029743 0.041225
v 0.033271 -0.029743 0.041225
v 0.033271 -0.005606 0.033798
v 0.036987 -0.011179 0.033798
v 0.036987 -0.022315 0.044940
v 0.023990 -0.029743 0.044940
v 0.033271 -0.005606 0.043081
v 0.029559 -0.026029 0.033798
v 0.020275 -0.027886 0.041225
v 0.036987 -0.022315 0.039369
v 0.036987 -0.005606 0.033798
v 0.031415 -0.029743 0.044940
v 0.020275 -0.027886 0.033798
v 0.025847 -0.029743 0.033798
v 0.023990 -0.027886 0.044940
v 0.035129 -0.016751 0.033798
v 0.035129 -0.007465 0.044940
v 0.036987 -0.005606 0.043081
v 0.035129 -0.026029 0.039369
v 0.036987 -0.024172 0.043081
v 0.035129 -0.026029 0.044940
v 0.033271 -0.029743 0.043081
v 0.036987 -0.024172 0.041225
f 470 452 473 
f 451 450 452 
f 450 453 454 
f 454 449 455 
f 451 452 456 
f 455 449 456 
f 450 454 458 
f 450 451 459 
f 451 456 459 
f 457 453 459 
f 454 455 460 
f 454 453 461 
f 449 454 461 
f 453 457 461 
f 456 452 462 
f 455 456 462 
f 453 450 463 
f 450 459 463 
f 459 453 463 
f 452 450 464 
f 450 458 464 
f 456 449 465 
f 459 456 465 
f 457 459 465 
f 458 454 466 
f 454 460 466 
f 449 457 467 
f 465 449 467 
f 457 465 467 
f 457 449 468 
f 449 461 468 
f 461 457 468 
f 452 464 469 
f 464 458 469 
f 458 466 469 
f 466 460 469 
f 460 455 470 
f 455 462 471 
f 470 455 471 
f 470 471 472 
f 462 452 472 
f 452 470 472 
f 471 462 472 
f 452 469 473 
f 469 460 473 
f 460 470 473 
o convex_12
v -0.037291 0.037098 0.039369
v -0.052143 -0.005602 0.039369
v -0.052143 -0.005602 0.043081
v -0.042861 -0.005602 0.033798
v -0.035433 0.025955 0.044940
v -0.048427 0.022244 0.041225
v -0.037291 0.029671 0.033798
v -0.042861 -0.005602 0.043081
v -0.046571 0.011109 0.033798
v -0.048427 0.020388 0.044940
v -0.035433 0.022244 0.033798
v -0.046571 -0.005602 0.044940
v -0.035433 0.035238 0.044940
v -0.052143 0.011109 0.041225
v -0.042861 0.031527 0.043081
v -0.046571 -0.005602 0.033798
v -0.044714 0.027815 0.039369
v -0.035433 0.037098 0.039369
v -0.050284 0.014820 0.044940
v -0.035433 0.022244 0.041225
v -0.052143 0.007397 0.039369
v -0.050284 -0.005602 0.044940
v -0.048427 0.020388 0.039369
v -0.039148 0.027815 0.033798
v -0.037291 0.035238 0.044940
v -0.052143 0.011109 0.043081
v -0.035433 0.029671 0.033798
v -0.037291 0.037098 0.043081
v -0.041004 0.033383 0.039369
v -0.044714 0.016676 0.033798
v -0.042861 0.029671 0.044940
v -0.046571 0.025955 0.043081
v -0.050284 0.014820 0.039369
v -0.048427 0.022244 0.043081
v -0.046571 0.025955 0.041225
v -0.035433 0.037098 0.043081
v -0.042861 0.031527 0.041225
v -0.046571 0.024099 0.044940
f 504 505 511 
f 476 475 477 
f 476 477 481 
f 480 477 482 
f 477 480 484 
f 481 477 484 
f 476 481 485 
f 481 478 485 
f 478 483 485 
f 483 478 486 
f 478 484 486 
f 475 476 487 
f 477 475 489 
f 475 482 489 
f 482 477 489 
f 480 474 491 
f 486 484 491 
f 485 483 492 
f 478 481 493 
f 484 478 493 
f 481 484 493 
f 482 475 494 
f 475 487 494 
f 476 485 495 
f 492 476 495 
f 485 492 495 
f 487 479 496 
f 479 490 496 
f 474 480 497 
f 480 482 497 
f 496 490 497 
f 483 486 498 
f 487 476 499 
f 479 487 499 
f 476 492 499 
f 492 483 499 
f 484 480 500 
f 480 491 500 
f 491 484 500 
f 474 488 501 
f 491 474 501 
f 498 486 501 
f 474 497 502 
f 497 490 502 
f 482 496 503 
f 497 482 503 
f 496 497 503 
f 483 498 504 
f 501 488 504 
f 498 501 504 
f 504 488 505 
f 482 494 506 
f 494 487 506 
f 496 482 506 
f 487 496 506 
f 479 499 507 
f 499 483 507 
f 505 479 507 
f 483 505 507 
f 490 479 508 
f 479 505 508 
f 505 488 508 
f 486 491 509 
f 491 501 509 
f 501 486 509 
f 488 474 510 
f 474 502 510 
f 502 490 510 
f 490 508 510 
f 508 488 510 
f 483 504 511 
f 505 483 511 
o convex_13
v -0.035431 0.038959 0.043081
v -0.007578 0.048244 0.044940
v -0.007578 0.048244 0.039369
v -0.033569 0.025961 0.043081
v -0.035431 0.025961 0.033798
v -0.007578 0.038959 0.033798
v -0.031715 0.035246 0.033798
v -0.009438 0.038959 0.043081
v -0.022429 0.046386 0.041225
v -0.035431 0.029678 0.044940
v -0.015008 0.042669 0.033798
v -0.031715 0.040813 0.044940
v -0.007578 0.042669 0.044940
v -0.031715 0.040813 0.039369
v -0.007578 0.038959 0.041225
v -0.035431 0.031536 0.033798
v -0.020581 0.046386 0.039369
v -0.033569 0.025961 0.033798
v -0.015008 0.048244 0.043081
v -0.007578 0.042669 0.033798
v -0.013151 0.048244 0.039369
v -0.024286 0.044527 0.044940
v -0.035431 0.025961 0.043081
v -0.035431 0.038959 0.041225
v -0.020581 0.040813 0.033798
v -0.035431 0.037103 0.044940
v -0.029856 0.042669 0.043081
v -0.033569 0.029678 0.044940
v -0.022429 0.046386 0.043081
v -0.011294 0.048244 0.044940
v -0.029856 0.042669 0.041225
v -0.018724 0.046386 0.044940
v -0.015008 0.048244 0.041225
f 530 532 544 
f 514 513 517 
f 517 516 518 
f 512 516 521 
f 517 518 522 
f 521 513 523 
f 517 513 524 
f 515 519 524 
f 513 521 524 
f 515 517 526 
f 519 515 526 
f 517 524 526 
f 524 519 526 
f 516 512 527 
f 518 516 527 
f 518 525 528 
f 515 516 529 
f 516 517 529 
f 517 515 529 
f 513 514 530 
f 514 517 531 
f 522 514 531 
f 517 522 531 
f 514 522 532 
f 522 528 532 
f 530 514 532 
f 523 513 533 
f 516 515 534 
f 521 516 534 
f 515 521 534 
f 525 518 535 
f 527 512 535 
f 518 527 535 
f 522 518 536 
f 528 522 536 
f 518 528 536 
f 512 521 537 
f 523 512 537 
f 521 523 537 
f 512 523 538 
f 535 512 538 
f 521 515 539 
f 515 524 539 
f 524 521 539 
f 530 520 540 
f 523 533 540 
f 538 523 540 
f 520 538 540 
f 513 530 541 
f 533 513 541 
f 520 528 542 
f 528 525 542 
f 525 535 542 
f 538 520 542 
f 535 538 542 
f 530 540 543 
f 540 533 543 
f 541 530 543 
f 533 541 543 
f 528 520 544 
f 520 530 544 
f 532 528 544 
o convex_14
v 0.036987 0.025960 0.043081
v 0.023989 0.025960 0.033798
v 0.023989 0.025960 0.043081
v 0.033272 -0.005606 0.033798
v 0.035130 -0.005606 0.043081
v 0.036987 0.012961 0.033798
v 0.036987 0.009251 0.044940
v 0.036987 -0.005606 0.033798
v 0.027703 0.027818 0.033798
v 0.027703 0.027818 0.044940
v 0.035130 0.027818 0.039369
v 0.033272 -0.005606 0.041225
v 0.036987 0.024101 0.044940
v 0.036987 -0.005606 0.043081
v 0.036987 0.025960 0.039369
v 0.027703 0.024101 0.044940
v 0.023989 0.027818 0.043081
v 0.035130 0.018533 0.033798
v 0.033272 0.027818 0.044940
v 0.023989 0.027818 0.033798
v 0.035130 0.009251 0.044940
v 0.031414 0.024101 0.033798
v 0.035130 0.027818 0.043081
f 563 545 567 
f 547 546 548 
f 548 546 550 
f 550 545 551 
f 549 548 552 
f 548 550 552 
f 550 551 552 
f 550 546 553 
f 553 554 555 
f 547 548 556 
f 548 549 556 
f 549 547 556 
f 551 545 557 
f 554 551 557 
f 551 549 558 
f 549 552 558 
f 552 551 558 
f 545 550 559 
f 553 555 559 
f 555 545 559 
f 547 549 560 
f 554 547 560 
f 551 554 560 
f 546 547 561 
f 547 554 561 
f 554 553 561 
f 550 553 562 
f 559 550 562 
f 555 554 563 
f 557 545 563 
f 554 557 563 
f 553 546 564 
f 546 561 564 
f 561 553 564 
f 549 551 565 
f 560 549 565 
f 551 560 565 
f 553 559 566 
f 562 553 566 
f 559 562 566 
f 545 555 567 
f 555 563 567 
o convex_15
v 0.027696 0.027818 0.033798
v 0.005423 0.048244 0.043081
v 0.005423 0.048244 0.041225
v -0.007574 0.038957 0.041225
v 0.033269 0.027818 0.044940
v -0.007574 0.042670 0.033798
v 0.020272 0.042670 0.039369
v -0.007574 0.048244 0.044940
v 0.010993 0.040816 0.033798
v 0.025841 0.027818 0.044940
v 0.022127 0.040816 0.044940
v 0.022127 0.027818 0.033798
v 0.033269 0.031533 0.039369
v -0.007574 0.038957 0.033798
v -0.007574 0.042670 0.044940
v 0.003568 0.048244 0.039369
v 0.023986 0.033392 0.033798
v 0.022127 0.027818 0.043081
v -0.007574 0.048244 0.039369
v 0.031410 0.033392 0.043081
v 0.014703 0.044529 0.044940
v 0.005423 0.042670 0.033798
v 0.027696 0.037105 0.039369
v 0.012848 0.046386 0.041225
v 0.033269 0.027818 0.039369
v 0.010993 0.046386 0.039369
v 0.025841 0.038957 0.043081
v 0.033269 0.029676 0.044940
v -0.000146 0.048244 0.044940
v 0.020272 0.042670 0.043081
v 0.018417 0.037105 0.033798
v 0.027696 0.029676 0.033798
v 0.012848 0.046386 0.043081
v 0.009138 0.046386 0.044940
v 0.033269 0.031533 0.043081
v 0.025841 0.038957 0.041225
f 594 590 603 
f 569 570 575 
f 573 571 575 
f 568 573 576 
f 568 572 577 
f 572 575 577 
f 575 572 578 
f 573 568 579 
f 568 577 579 
f 571 573 581 
f 573 579 581 
f 579 571 581 
f 575 571 582 
f 571 577 582 
f 577 575 582 
f 575 570 583 
f 568 576 584 
f 577 571 585 
f 571 579 585 
f 579 577 585 
f 573 575 586 
f 575 583 586 
f 583 573 586 
f 575 578 588 
f 576 573 589 
f 573 583 589 
f 584 574 590 
f 580 584 590 
f 587 580 590 
f 570 569 591 
f 583 570 591 
f 572 568 592 
f 568 580 592 
f 580 572 592 
f 574 576 593 
f 576 589 593 
f 589 583 593 
f 591 574 593 
f 583 591 593 
f 578 587 594 
f 587 590 594 
f 578 572 595 
f 572 580 595 
f 587 578 595 
f 569 575 596 
f 575 588 596 
f 574 591 597 
f 594 574 597 
f 578 594 597 
f 576 574 598 
f 584 576 598 
f 574 584 598 
f 580 568 599 
f 568 584 599 
f 584 580 599 
f 588 578 600 
f 591 569 600 
f 578 597 600 
f 597 591 600 
f 569 596 601 
f 596 588 601 
f 600 569 601 
f 588 600 601 
f 580 587 602 
f 595 580 602 
f 587 595 602 
f 590 574 603 
f 574 594 603 
o convex_16
v -0.046573 -0.007469 -0.010765
v -0.024293 -0.037173 -0.027478
v -0.022438 -0.037173 -0.027478
v -0.024293 -0.037173 0.033798
v -0.039142 -0.000035 0.004083
v -0.040999 -0.022316 0.033798
v -0.046573 -0.000035 0.033798
v -0.039142 -0.000035 -0.031193
v -0.022438 -0.031597 0.033798
v -0.039142 -0.024170 -0.031193
v -0.022438 -0.027889 -0.031193
v -0.046573 -0.000035 -0.031193
v -0.035428 -0.029739 0.022653
v -0.042856 -0.000035 0.033798
v -0.044713 -0.014893 0.033798
v -0.022438 -0.027889 0.004083
v -0.044713 -0.013039 -0.031193
v -0.029864 -0.033454 -0.031193
v -0.040999 -0.022316 -0.014474
v -0.028007 -0.035315 0.033798
v -0.022438 -0.037173 0.033798
v -0.046573 -0.007469 0.033798
v -0.035428 -0.029739 0.000387
v -0.044713 -0.014893 -0.010765
v -0.028007 -0.035315 -0.018190
v -0.037285 -0.027889 0.015228
v -0.022438 -0.035315 -0.031193
v -0.046573 -0.005608 -0.031193
v -0.042856 -0.018604 -0.021905
v -0.026150 -0.035315 -0.031193
v -0.037285 -0.027889 0.017086
f 629 616 634 
f 605 606 607 
f 609 607 610 
f 610 608 611 
f 610 607 612 
f 613 611 614 
f 611 608 614 
f 612 606 614 
f 604 610 615 
f 610 611 615 
f 611 613 615 
f 608 610 617 
f 612 608 617 
f 610 612 617 
f 609 610 618 
f 608 612 619 
f 614 608 619 
f 612 614 619 
f 615 613 620 
f 613 614 621 
f 609 618 622 
f 605 607 623 
f 607 609 623 
f 609 616 623 
f 607 606 624 
f 606 612 624 
f 612 607 624 
f 610 604 625 
f 604 618 625 
f 618 610 625 
f 613 621 626 
f 623 616 626 
f 618 604 627 
f 604 620 627 
f 622 618 627 
f 621 605 628 
f 605 623 628 
f 626 621 628 
f 623 626 628 
f 609 622 629 
f 622 613 629 
f 613 626 629 
f 626 616 629 
f 606 605 630 
f 614 606 630 
f 621 614 630 
f 604 615 631 
f 620 604 631 
f 615 620 631 
f 620 613 632 
f 613 622 632 
f 627 620 632 
f 622 627 632 
f 605 621 633 
f 630 605 633 
f 621 630 633 
f 616 609 634 
f 609 629 634 
o convex_17
v -0.022433 -0.037172 -0.031193
v 0.005420 -0.037172 0.033798
v 0.005420 -0.040886 0.033798
v 0.005420 -0.031604 -0.031193
v -0.022433 -0.033461 0.033798
v 0.001704 -0.040886 -0.031193
v -0.022433 -0.029745 -0.031193
v -0.013144 -0.040886 0.033798
v 0.005420 -0.031604 0.004083
v -0.018717 -0.029745 0.004083
v -0.011290 -0.040886 -0.031193
v -0.020574 -0.039029 0.033798
v 0.005420 -0.039029 -0.031193
v -0.018717 -0.033461 0.033798
v -0.020574 -0.039029 -0.001471
v -0.022433 -0.029745 0.004083
v -0.022433 -0.037172 0.033798
v -0.018717 -0.029745 -0.031193
v -0.018717 -0.039029 -0.031193
v -0.013144 -0.040886 -0.018190
v 0.003561 -0.040886 -0.027478
v 0.005420 -0.040886 0.020795
f 637 655 656 
f 636 637 638 
f 637 636 639 
f 635 638 640 
f 638 635 641 
f 635 639 641 
f 637 639 642 
f 640 637 642 
f 636 638 643 
f 643 638 644 
f 635 640 645 
f 640 642 645 
f 642 639 646 
f 638 637 647 
f 640 638 647 
f 639 636 648 
f 636 643 648 
f 644 639 648 
f 643 644 648 
f 642 646 649 
f 646 635 649 
f 641 639 650 
f 644 641 650 
f 639 644 650 
f 639 635 651 
f 635 646 651 
f 646 639 651 
f 638 641 652 
f 644 638 652 
f 641 644 652 
f 635 645 653 
f 649 635 653 
f 649 653 654 
f 645 642 654 
f 642 649 654 
f 653 645 654 
f 637 640 655 
f 640 647 655 
f 655 647 656 
f 647 637 656 
o convex_18
v -0.026150 0.038959 0.007798
v -0.046571 -0.000035 -0.029330
v -0.046571 0.007397 -0.029330
v -0.046571 -0.000035 0.033792
v -0.024292 0.029673 -0.029330
v -0.039142 0.027818 0.033792
v -0.024292 0.033383 0.033792
v -0.039142 -0.000035 0.004085
v -0.039142 0.025959 -0.029330
v -0.039142 -0.000035 -0.029330
v -0.046571 0.011107 0.033792
v -0.028006 0.037101 -0.029330
v -0.042856 -0.000035 0.033792
v -0.042856 0.022245 0.005938
v -0.031721 0.035245 0.033792
v -0.035430 0.031528 -0.020043
v -0.024292 0.037101 -0.029330
v -0.024292 0.029673 0.004085
v -0.024292 0.037101 0.033792
v -0.044712 0.016680 -0.014476
v -0.042856 0.020390 -0.029330
v -0.039142 0.027818 -0.001476
v -0.031721 0.035245 -0.001476
v -0.044712 0.016680 0.033792
v -0.046571 0.011107 -0.005190
v -0.024292 0.038959 0.004085
v -0.028006 0.037101 0.033792
v -0.040998 0.024104 -0.025616
v -0.042856 0.022245 0.018938
v -0.044712 0.014821 -0.029330
v -0.026150 0.038959 0.004085
v -0.033577 0.033383 -0.014476
v -0.037286 0.029673 -0.012616
v -0.024292 0.038959 0.007798
f 675 682 690 
f 659 658 660 
f 658 659 661 
f 662 660 663 
f 660 658 664 
f 661 659 665 
f 658 661 666 
f 661 664 666 
f 664 658 666 
f 659 660 667 
f 660 662 667 
f 661 665 668 
f 663 660 669 
f 664 663 669 
f 660 664 669 
f 662 663 671 
f 668 665 672 
f 663 661 673 
f 661 668 673 
f 661 663 674 
f 664 661 674 
f 663 664 674 
f 671 663 675 
f 663 673 675 
f 676 670 677 
f 665 659 677 
f 670 662 678 
f 662 671 678 
f 671 657 679 
f 678 671 679 
f 667 662 680 
f 676 667 680 
f 670 676 680 
f 659 667 681 
f 667 676 681 
f 673 668 682 
f 675 673 682 
f 657 671 683 
f 671 675 683 
f 675 657 683 
f 672 665 684 
f 677 670 684 
f 665 677 684 
f 670 678 684 
f 662 670 685 
f 680 662 685 
f 670 680 685 
f 676 677 686 
f 677 659 686 
f 659 681 686 
f 681 676 686 
f 679 657 687 
f 668 679 687 
f 657 682 687 
f 682 668 687 
f 668 672 688 
f 672 679 688 
f 679 668 688 
f 679 672 689 
f 678 679 689 
f 672 684 689 
f 684 678 689 
f 657 675 690 
f 682 657 690 
o convex_19
v -0.024290 0.031532 -0.029330
v 0.005420 0.042673 0.033792
v -0.015001 0.042673 0.033792
v 0.003562 0.042673 -0.029330
v 0.005420 0.035246 0.004085
v -0.024290 0.035246 0.033792
v -0.024290 0.038959 -0.029330
v 0.005420 0.035246 -0.029330
v -0.020573 0.031532 0.004085
v -0.015001 0.042673 -0.027470
v 0.005420 0.038959 0.033792
v -0.024290 0.038959 0.033792
v -0.022432 0.040816 -0.001476
v 0.005420 0.040816 -0.029330
v -0.020573 0.031532 -0.029330
v -0.024290 0.031532 0.004085
v -0.020573 0.035246 0.033792
v -0.020573 0.040816 -0.029330
v 0.005420 0.042673 -0.003336
v -0.020573 0.040816 0.033792
v -0.013149 0.042673 -0.029330
v -0.022432 0.040816 0.002231
f 702 710 712 
f 693 692 694 
f 692 693 696 
f 694 691 697 
f 691 696 697 
f 691 694 698 
f 692 695 698 
f 698 695 699 
f 693 694 700 
f 695 692 701 
f 692 696 701 
f 699 695 701 
f 696 693 702 
f 697 696 702 
f 697 702 703 
f 693 700 703 
f 692 698 704 
f 698 694 704 
f 691 698 705 
f 698 699 705 
f 699 691 705 
f 696 691 706 
f 699 696 706 
f 691 699 706 
f 696 699 707 
f 701 696 707 
f 699 701 707 
f 694 697 708 
f 697 703 708 
f 703 700 708 
f 694 692 709 
f 692 704 709 
f 704 694 709 
f 702 693 710 
f 700 694 711 
f 694 708 711 
f 708 700 711 
f 703 702 712 
f 693 703 712 
f 710 693 712 
o convex_20
v 0.014708 -0.037171 -0.031193
v 0.031417 -0.020461 0.033798
v 0.025841 -0.020461 0.033798
v 0.010996 -0.039028 0.033798
v 0.005420 -0.031600 -0.031193
v 0.031417 -0.020461 -0.031193
v 0.005420 -0.035313 0.033798
v 0.023989 -0.031600 0.033798
v 0.005420 -0.039028 -0.031193
v 0.022131 -0.020461 -0.031193
v 0.005420 -0.031600 0.004083
v 0.027701 -0.027891 -0.018190
v 0.022131 -0.020461 0.002225
v 0.029559 -0.026033 0.022653
v 0.005420 -0.039028 0.033798
v 0.018418 -0.035313 -0.029335
v 0.031417 -0.022320 -0.031193
v 0.010996 -0.039028 -0.025614
v 0.018418 -0.035313 0.033798
v 0.031417 -0.022320 0.033798
v 0.023989 -0.031600 -0.005186
v 0.025841 -0.029745 -0.020047
v 0.027701 -0.027891 0.033798
v 0.020273 -0.033458 -0.031193
v 0.009135 -0.039028 -0.031193
v 0.029559 -0.026033 0.020795
f 729 726 738 
f 714 715 716 
f 715 714 718 
f 713 717 718 
f 716 715 719 
f 714 716 720 
f 717 713 721 
f 719 717 721 
f 715 718 722 
f 718 717 722 
f 719 715 723 
f 717 719 723 
f 722 717 723 
f 715 722 725 
f 723 715 725 
f 722 723 725 
f 716 719 727 
f 721 716 727 
f 719 721 727 
f 718 714 729 
f 713 718 729 
f 713 716 730 
f 716 721 730 
f 716 713 731 
f 720 716 731 
f 713 728 731 
f 728 720 731 
f 714 720 732 
f 729 714 732 
f 726 729 732 
f 724 720 733 
f 720 728 733 
f 733 728 734 
f 729 724 734 
f 724 733 734 
f 720 724 735 
f 724 726 735 
f 732 720 735 
f 726 732 735 
f 728 713 736 
f 713 729 736 
f 734 728 736 
f 729 734 736 
f 721 713 737 
f 713 730 737 
f 730 721 737 
f 726 724 738 
f 724 729 738 
o convex_21
v 0.036987 -0.000037 0.033798
v 0.023989 -0.020459 -0.031193
v 0.031414 -0.020459 -0.031193
v 0.027703 -0.020459 0.033798
v 0.031414 -0.000037 -0.031193
v 0.023989 -0.016745 0.002225
v 0.036987 -0.009321 -0.025614
v 0.033272 -0.020459 0.033798
v 0.033272 -0.000037 0.030083
v 0.036987 -0.000037 -0.031193
v 0.036987 -0.011176 0.033798
v 0.035130 -0.014888 -0.031193
v 0.031414 -0.000037 0.002225
v 0.023989 -0.020459 0.002225
v 0.023989 -0.018602 -0.031193
v 0.027703 -0.018602 0.033798
v 0.029561 -0.003751 -0.031193
v 0.033272 -0.018602 -0.031193
v 0.029561 -0.003751 0.002225
v 0.033272 -0.001894 0.033798
v 0.036987 -0.011176 0.011513
v 0.036987 -0.007464 -0.031193
v 0.033272 -0.020459 0.026368
v 0.023989 -0.016745 0.000387
v 0.035130 -0.000037 0.033798
f 747 758 763 
f 740 741 742 
f 741 740 743 
f 742 741 746 
f 739 742 746 
f 739 743 747 
f 743 739 748 
f 741 743 748 
f 739 745 748 
f 745 739 749 
f 739 746 749 
f 741 748 750 
f 747 743 751 
f 740 742 752 
f 744 740 752 
f 742 744 752 
f 743 740 753 
f 740 744 753 
f 742 739 754 
f 744 742 754 
f 747 744 754 
f 751 743 755 
f 743 753 755 
f 741 750 756 
f 744 747 757 
f 747 751 757 
f 751 755 757 
f 755 744 757 
f 754 739 758 
f 747 754 758 
f 745 749 759 
f 749 746 759 
f 750 745 759 
f 748 745 760 
f 750 748 760 
f 745 750 760 
f 746 741 761 
f 741 756 761 
f 756 750 761 
f 759 746 761 
f 750 759 761 
f 753 744 762 
f 744 755 762 
f 755 753 762 
f 739 747 763 
f 758 739 763 
o convex_22
v 0.033273 0.022246 0.009656
v 0.031415 -0.000035 -0.031193
v 0.036987 -0.000035 -0.031193
v 0.036987 -0.000035 0.033798
v 0.022132 0.025961 -0.031193
v 0.025846 0.022246 0.033798
v 0.035130 0.016673 -0.031193
v 0.036987 0.012963 0.033798
v 0.031415 -0.000035 0.000387
v 0.022132 0.022246 0.002225
v 0.029560 0.025961 0.033798
v 0.029560 0.025961 -0.031193
v 0.033273 0.001822 0.031941
v 0.022132 0.025961 0.002225
v 0.022132 0.022246 -0.031193
v 0.036987 0.009253 -0.031193
v 0.033273 0.022246 0.031941
v 0.025846 0.025961 0.033798
v 0.035130 0.018533 0.005940
v 0.031415 0.024104 -0.031193
v 0.036987 0.012963 0.007798
v 0.035130 -0.000035 0.033798
v 0.036987 0.011108 -0.020047
v 0.035130 0.018533 0.013371
v 0.031415 0.024104 0.033798
v 0.033273 -0.000035 0.018937
f 785 776 789 
f 765 766 767 
f 766 765 768 
f 766 768 770 
f 767 766 771 
f 769 767 771 
f 765 767 772 
f 765 772 773 
f 769 771 774 
f 770 768 775 
f 768 774 775 
f 774 764 775 
f 769 773 776 
f 773 772 776 
f 773 769 777 
f 768 773 777 
f 774 768 777 
f 768 765 778 
f 765 773 778 
f 773 768 778 
f 766 770 779 
f 771 766 779 
f 764 774 780 
f 769 774 781 
f 777 769 781 
f 774 777 781 
f 764 780 782 
f 775 764 783 
f 770 775 783 
f 764 782 783 
f 782 770 783 
f 771 779 784 
f 770 782 784 
f 782 771 784 
f 767 769 785 
f 772 767 785 
f 769 776 785 
f 779 770 786 
f 770 784 786 
f 784 779 786 
f 780 771 787 
f 771 782 787 
f 782 780 787 
f 774 771 788 
f 771 780 788 
f 780 774 788 
f 776 772 789 
f 772 785 789 
o convex_23
v 0.010994 0.040816 -0.031193
v 0.029560 0.027820 0.018937
v 0.027702 0.029676 0.033798
v 0.005420 0.035244 0.005940
v 0.020271 0.025961 -0.031193
v 0.010994 0.040816 0.033798
v 0.023986 0.025961 0.033798
v 0.025845 0.031533 -0.031193
v 0.005420 0.040816 -0.031193
v 0.005420 0.037103 0.033798
v 0.022131 0.035244 0.022653
v 0.005420 0.035244 -0.031193
v 0.027702 0.025961 -0.031193
v 0.016564 0.027820 0.002225
v 0.005420 0.040816 0.033798
v 0.018416 0.037103 -0.031193
v 0.029560 0.025961 0.018937
v 0.027702 0.029676 -0.029335
v 0.020271 0.025961 0.002225
v 0.018416 0.037103 0.033798
v 0.016564 0.027820 -0.031193
v 0.027702 0.025961 0.033798
v 0.029560 0.027820 0.000387
v 0.023986 0.033389 -0.027478
v 0.023986 0.033389 0.033798
v 0.029560 0.025961 0.000387
v 0.022131 0.035244 0.013371
v 0.027702 0.027820 -0.031193
f 807 812 817 
f 792 795 796 
f 792 791 797 
f 794 790 797 
f 790 794 798 
f 795 790 798 
f 796 795 799 
f 798 793 799 
f 790 795 800 
f 792 797 800 
f 798 794 801 
f 793 798 801 
f 796 794 802 
f 794 797 802 
f 799 793 803 
f 796 799 803 
f 793 801 803 
f 795 798 804 
f 799 795 804 
f 798 799 804 
f 797 790 805 
f 791 792 806 
f 796 802 806 
f 797 791 807 
f 794 796 808 
f 803 794 808 
f 796 803 808 
f 795 792 809 
f 800 795 809 
f 801 794 810 
f 794 803 810 
f 803 801 810 
f 792 796 811 
f 806 792 811 
f 796 806 811 
f 791 806 812 
f 807 791 812 
f 797 805 813 
f 792 800 814 
f 809 792 814 
f 800 809 814 
f 806 802 815 
f 812 806 815 
f 802 812 815 
f 790 800 816 
f 800 797 816 
f 805 790 816 
f 797 813 816 
f 813 805 816 
f 802 797 817 
f 797 807 817 
f 812 802 817 
