o convex_0
v -0.022537 0.037088 0.041460
v 0.009020 0.042659 0.043315
v 0.009020 0.042659 0.041460
v 0.020163 0.037088 0.043315
v -0.020677 0.038946 0.045173
v 0.020163 0.037088 0.039602
v -0.009538 0.042659 0.039602
v -0.000259 0.042659 0.045173
v 0.018303 0.037088 0.045173
v -0.020677 0.037088 0.039602
v -0.020677 0.037088 0.045173
v 0.020163 0.038946 0.039602
v 0.018303 0.038946 0.045173
v -0.011394 0.042659 0.043315
v -0.022537 0.038946 0.041460
v 0.005309 0.042659 0.039602
v 0.016447 0.040801 0.043315
v -0.016965 0.040801 0.039602
v -0.015109 0.040801 0.045173
v 0.012736 0.040801 0.045173
v 0.020163 0.038946 0.043315
v -0.022537 0.038946 0.043315
v 0.014592 0.040801 0.039602
v -0.020677 0.038946 0.039602
v 0.016447 0.040801 0.041460
v -0.011394 0.042659 0.041460
v -0.022537 0.037088 0.043315
v 0.001597 0.042659 0.045173
f 8 20 28 
f 4 1 6 
f 2 3 7 
f 2 7 8 
f 1 4 9 
f 8 5 9 
f 6 1 10 
f 7 6 10 
f 1 9 11 
f 9 5 11 
f 4 6 12 
f 6 7 12 
f 9 4 13 
f 8 9 13 
f 8 7 14 
f 10 1 15 
f 7 3 16 
f 12 7 16 
f 3 2 17 
f 7 10 18 
f 5 8 19 
f 8 14 19 
f 8 13 20 
f 17 2 20 
f 13 17 20 
f 4 12 21 
f 13 4 21 
f 12 17 21 
f 17 13 21 
f 11 5 22 
f 15 1 22 
f 14 15 22 
f 5 19 22 
f 19 14 22 
f 16 3 23 
f 12 16 23 
f 10 15 24 
f 18 10 24 
f 15 18 24 
f 3 17 25 
f 17 12 25 
f 23 3 25 
f 12 23 25 
f 14 7 26 
f 15 14 26 
f 7 18 26 
f 18 15 26 
f 1 11 27 
f 22 1 27 
f 11 22 27 
f 2 8 28 
f 20 2 28 
o convex_1
v 0.003455 0.066798 -0.003107
v -0.005829 0.037088 -0.025389
v -0.005829 0.038947 -0.025389
v 0.009026 0.044522 -0.023532
v 0.005312 0.055657 0.006178
v -0.005829 0.064940 0.006178
v -0.003971 0.061223 -0.014247
v 0.009026 0.037088 -0.019818
v 0.009026 0.064940 0.006178
v -0.003971 0.037088 -0.017961
v 0.005312 0.059368 -0.017961
v -0.003971 0.057513 0.006178
v -0.000258 0.051943 -0.023532
v 0.009026 0.061223 -0.012390
v 0.007169 0.037088 -0.025389
v 0.009026 0.057513 0.006178
v -0.005829 0.051943 -0.019818
v -0.003971 0.066798 -0.001250
v -0.005829 0.037088 -0.019818
v 0.007169 0.066798 0.006178
v 0.007169 0.053799 -0.021675
v 0.005312 0.044522 -0.025389
v 0.005312 0.064940 -0.008682
v -0.005829 0.064940 -0.001250
v -0.000258 0.055657 0.006178
v 0.009026 0.064940 -0.004965
v -0.000258 0.055657 -0.021675
v -0.002114 0.064940 -0.008682
v -0.005829 0.061223 0.006178
v -0.000258 0.061223 -0.016104
v -0.003971 0.066798 0.006178
v -0.003971 0.055657 -0.019818
v -0.003971 0.042663 -0.025389
v -0.005829 0.059368 -0.012390
v 0.009026 0.053799 -0.019818
v -0.002114 0.037088 -0.017961
v 0.005312 0.061223 -0.016104
v 0.009026 0.037088 -0.023532
v 0.003455 0.051943 -0.023532
v -0.003971 0.048230 -0.023532
v 0.007169 0.066798 0.000607
v 0.003455 0.055657 -0.021675
v -0.003971 0.064940 -0.006822
v -0.002114 0.044522 -0.025389
v -0.005829 0.044522 -0.023532
v 0.007169 0.040808 -0.025389
v -0.000258 0.066798 -0.003107
v -0.002114 0.063085 -0.012390
v 0.009026 0.050088 -0.021675
v 0.007169 0.048230 -0.023532
f 50 49 78 
f 31 30 34 
f 34 33 37 
f 36 32 37 
f 30 36 38 
f 33 34 40 
f 37 32 42 
f 30 31 43 
f 36 30 43 
f 33 36 44 
f 37 33 44 
f 36 37 44 
f 31 34 45 
f 34 30 47 
f 30 38 47 
f 38 40 47 
f 34 37 48 
f 29 46 48 
f 43 31 50 
f 45 34 52 
f 34 46 52 
f 38 33 53 
f 33 40 53 
f 40 38 53 
f 37 42 54 
f 48 37 54 
f 42 51 54 
f 29 51 56 
f 40 34 57 
f 34 47 57 
f 47 40 57 
f 55 35 58 
f 39 55 58 
f 46 34 59 
f 34 48 59 
f 48 46 59 
f 35 55 60 
f 55 41 60 
f 50 31 61 
f 45 52 62 
f 60 45 62 
f 35 60 62 
f 42 32 63 
f 39 42 63 
f 49 39 63 
f 36 33 64 
f 33 38 64 
f 38 36 64 
f 42 39 65 
f 51 42 65 
f 39 58 65 
f 32 36 66 
f 36 43 66 
f 43 32 66 
f 50 41 67 
f 49 50 67 
f 41 55 67 
f 60 41 68 
f 29 48 69 
f 51 29 69 
f 48 54 69 
f 54 51 69 
f 39 49 70 
f 55 39 70 
f 49 67 70 
f 67 55 70 
f 52 46 71 
f 46 56 71 
f 62 52 71 
f 35 62 71 
f 41 50 72 
f 50 61 72 
f 68 41 72 
f 61 68 72 
f 31 45 73 
f 45 60 73 
f 61 31 73 
f 60 68 73 
f 68 61 73 
f 32 43 74 
f 43 50 74 
f 50 32 74 
f 46 29 75 
f 56 46 75 
f 29 56 75 
f 56 51 76 
f 58 35 76 
f 51 65 76 
f 65 58 76 
f 35 71 76 
f 71 56 76 
f 32 49 77 
f 63 32 77 
f 49 63 77 
f 49 32 78 
f 32 50 78 
o convex_2
v 0.007166 0.053800 0.030317
v -0.007686 0.037088 0.024747
v -0.002114 0.037088 0.021033
v 0.007166 0.037088 0.032174
v -0.005826 0.053800 0.030317
v 0.009026 0.053800 0.022891
v -0.005826 0.053800 0.022891
v -0.003969 0.037088 0.034031
v 0.009026 0.037088 0.024747
v 0.001598 0.053800 0.032174
v 0.009026 0.051942 0.030317
v -0.007686 0.042660 0.030317
v 0.003454 0.038947 0.034031
v 0.001598 0.038947 0.021033
v 0.009026 0.037088 0.030317
v -0.007686 0.046372 0.024747
v -0.007686 0.037088 0.030317
v -0.003969 0.038947 0.034031
v -0.003969 0.050084 0.032174
v 0.009026 0.050084 0.022891
v 0.001598 0.037088 0.021033
v 0.005309 0.050084 0.032174
v 0.007166 0.044517 0.032174
v -0.005826 0.044517 0.032174
v -0.007686 0.046372 0.028460
v 0.003454 0.037088 0.034031
v -0.000257 0.053800 0.032174
v 0.009026 0.053800 0.028460
v -0.002114 0.038947 0.021033
v -0.005826 0.050084 0.022891
f 80 85 108 
f 80 81 82 
f 83 79 84 
f 83 84 85 
f 80 82 86 
f 82 81 87 
f 79 83 88 
f 87 84 89 
f 79 88 89 
f 85 84 92 
f 82 87 93 
f 89 82 93 
f 87 89 93 
f 83 85 94 
f 85 80 94 
f 80 90 94 
f 80 86 95 
f 90 80 95 
f 86 90 95 
f 90 86 96 
f 86 91 96 
f 91 88 96 
f 84 87 98 
f 92 84 98 
f 92 98 99 
f 87 81 99 
f 81 92 99 
f 98 87 99 
f 89 88 100 
f 88 91 100 
f 100 91 101 
f 82 89 101 
f 91 82 101 
f 89 100 101 
f 83 90 102 
f 90 96 102 
f 97 83 102 
f 96 97 102 
f 90 83 103 
f 83 94 103 
f 94 90 103 
f 86 82 104 
f 82 91 104 
f 91 86 104 
f 88 83 105 
f 96 88 105 
f 83 97 105 
f 97 96 105 
f 84 79 106 
f 79 89 106 
f 89 84 106 
f 81 85 107 
f 85 92 107 
f 92 81 107 
f 81 80 108 
f 85 81 108 
o convex_3
v -0.005829 0.061226 0.006178
v 0.010883 0.061226 0.022888
v 0.007168 0.061226 0.026603
v 0.007168 0.053800 0.030317
v 0.009025 0.057515 0.006178
v -0.005829 0.053800 0.028460
v -0.003971 0.066798 0.011752
v 0.007168 0.066798 0.006178
v -0.000257 0.055658 0.006178
v -0.005829 0.063083 0.022888
v 0.009025 0.053800 0.021029
v 0.005311 0.064941 0.021029
v -0.002114 0.057515 0.030317
v -0.005829 0.053800 0.021029
v 0.010883 0.063083 0.009892
v -0.005829 0.064941 0.006178
v 0.007168 0.066798 0.011752
v 0.010883 0.057515 0.022888
v -0.003971 0.063083 0.024743
v 0.005311 0.055658 0.006178
v -0.003971 0.057515 0.006178
v -0.003971 0.066798 0.006178
v 0.009025 0.057515 0.028460
v 0.005311 0.057515 0.030317
v 0.009025 0.064941 0.017321
v -0.005829 0.057515 0.028460
v -0.003971 0.053800 0.030317
v -0.002114 0.066798 0.013607
v 0.009025 0.053800 0.028460
v 0.010883 0.057515 0.019174
v -0.002114 0.064941 0.021029
v -0.005829 0.064941 0.017321
v 0.009025 0.064941 0.006178
v 0.010883 0.061226 0.009892
v 0.005311 0.063083 0.024743
v 0.007168 0.055658 0.008035
v 0.005311 0.066798 0.013607
v -0.005829 0.059373 0.008035
v 0.010883 0.063083 0.015467
v -0.002114 0.055658 0.008035
v -0.003971 0.059373 0.028460
v 0.007168 0.059373 0.028460
v -0.003971 0.055658 0.030317
v 0.007168 0.055658 0.030317
f 131 132 152 
f 113 109 116 
f 109 113 117 
f 109 114 118 
f 112 114 119 
f 114 109 122 
f 119 114 122 
f 117 119 122 
f 116 109 124 
f 109 118 124 
f 116 115 125 
f 123 116 125 
f 123 110 126 
f 117 113 128 
f 119 117 128 
f 109 117 129 
f 115 116 130 
f 116 124 130 
f 124 115 130 
f 126 110 131 
f 121 112 132 
f 111 110 133 
f 118 114 134 
f 114 112 135 
f 112 121 135 
f 134 114 135 
f 125 115 136 
f 112 119 137 
f 119 126 137 
f 131 112 137 
f 126 131 137 
f 119 113 138 
f 126 119 138 
f 123 126 138 
f 127 120 139 
f 120 136 139 
f 139 136 140 
f 115 124 140 
f 124 118 140 
f 118 127 140 
f 136 115 140 
f 127 139 140 
f 113 116 141 
f 116 123 141 
f 123 113 141 
f 113 123 142 
f 138 113 142 
f 123 138 142 
f 120 127 143 
f 111 133 143 
f 133 120 143 
f 113 119 144 
f 128 113 144 
f 119 128 144 
f 120 133 145 
f 133 125 145 
f 125 136 145 
f 136 120 145 
f 122 109 146 
f 109 129 146 
f 129 122 146 
f 110 123 147 
f 123 125 147 
f 133 110 147 
f 125 133 147 
f 117 122 148 
f 129 117 148 
f 122 129 148 
f 127 118 149 
f 121 132 149 
f 118 134 149 
f 134 121 149 
f 143 127 149 
f 143 149 150 
f 110 111 150 
f 131 110 150 
f 132 131 150 
f 111 143 150 
f 149 132 150 
f 121 134 151 
f 135 121 151 
f 134 135 151 
f 112 131 152 
f 132 112 152 
o convex_4
v -0.011404 -0.046468 -0.001252
v -0.039250 -0.011197 -0.038387
v -0.041106 -0.013053 -0.036523
v -0.042967 -0.005624 0.004321
v -0.000258 -0.005624 -0.036523
v -0.000258 -0.042754 -0.038387
v -0.000258 -0.035325 0.004321
v -0.029961 -0.035325 -0.034671
v -0.033678 -0.033470 0.004321
v -0.024397 -0.005624 -0.001252
v -0.039250 -0.005624 -0.038387
v -0.000258 -0.046468 0.004321
v -0.015120 -0.044609 -0.032815
v -0.041106 -0.020477 -0.012393
v -0.000258 -0.027901 0.000604
v -0.024397 -0.040895 0.004321
v -0.000258 -0.046468 -0.032815
v -0.035538 -0.029756 -0.032815
v -0.024397 -0.035325 -0.038387
v -0.000258 -0.005624 -0.032815
v -0.042967 -0.005624 -0.032815
v -0.042967 -0.013053 0.004321
v -0.029961 -0.005624 0.002461
v -0.041106 -0.018622 -0.032815
v -0.020684 -0.042754 -0.027242
v -0.026253 -0.005624 -0.038387
v -0.029961 -0.037184 -0.004964
v -0.033678 -0.026046 -0.038387
v -0.037390 -0.027901 0.004321
v -0.000258 -0.031615 -0.038387
v -0.042967 -0.013053 -0.025382
v -0.016972 -0.044609 0.004321
v -0.015120 -0.042754 -0.036523
v -0.007687 -0.046468 -0.030959
v -0.037390 -0.027901 -0.021674
v -0.026253 -0.039039 -0.030959
v -0.041106 -0.020477 0.004321
v -0.022541 -0.040895 -0.034671
v -0.039250 -0.005624 0.004321
v -0.037390 -0.026046 -0.034671
v -0.007687 -0.044609 -0.036523
v -0.039250 -0.024191 -0.027242
v -0.031821 -0.035325 -0.008680
v -0.013260 -0.040895 -0.038387
v -0.024397 -0.040895 -0.014249
v -0.016972 -0.044609 -0.010541
v -0.009543 -0.046468 0.004321
v -0.026253 -0.037184 -0.036523
v -0.042967 -0.009338 -0.032815
v -0.033678 -0.029756 -0.036523
v -0.029961 -0.037184 0.004321
v -0.033678 -0.033470 -0.004964
v -0.037390 -0.018622 -0.038387
v -0.039250 -0.022336 -0.034671
v -0.013260 -0.044609 -0.034671
v -0.041106 -0.005624 -0.036523
v -0.000258 -0.044609 -0.036523
v -0.005831 -0.042754 -0.038387
v -0.018828 -0.042754 -0.034671
v -0.003975 -0.046468 -0.032815
v -0.011404 -0.046468 -0.003108
v -0.031821 -0.033470 -0.034671
v -0.042967 -0.011197 -0.030959
v -0.041106 -0.016767 -0.034671
f 176 215 216 
f 158 157 159 
f 159 156 161 
f 157 156 162 
f 154 155 163 
f 156 157 163 
f 158 154 163 
f 158 159 164 
f 159 161 164 
f 159 157 167 
f 164 161 168 
f 164 153 169 
f 158 164 169 
f 154 158 171 
f 157 162 172 
f 167 157 172 
f 162 167 172 
f 156 163 173 
f 161 156 174 
f 156 173 174 
f 162 156 175 
f 159 167 175 
f 167 162 175 
f 163 157 178 
f 158 163 178 
f 154 171 180 
f 161 174 181 
f 157 158 182 
f 178 157 182 
f 158 178 182 
f 166 174 183 
f 174 173 183 
f 176 166 183 
f 164 168 184 
f 168 177 184 
f 169 153 186 
f 161 181 187 
f 174 166 189 
f 181 174 189 
f 188 160 190 
f 177 188 190 
f 156 159 191 
f 175 156 191 
f 159 175 191 
f 166 176 194 
f 170 187 194 
f 187 181 194 
f 189 166 194 
f 181 189 194 
f 192 170 194 
f 160 188 195 
f 188 179 195 
f 171 158 196 
f 185 171 196 
f 177 168 197 
f 168 179 197 
f 188 177 197 
f 179 188 197 
f 177 165 198 
f 153 184 198 
f 184 177 198 
f 153 164 199 
f 184 153 199 
f 164 184 199 
f 180 171 200 
f 171 185 200 
f 190 160 200 
f 173 155 201 
f 183 173 201 
f 192 180 202 
f 180 200 202 
f 168 161 203 
f 179 168 203 
f 161 195 203 
f 195 179 203 
f 161 187 204 
f 187 170 204 
f 170 195 204 
f 195 161 204 
f 155 154 205 
f 154 180 205 
f 180 192 206 
f 194 176 206 
f 192 194 206 
f 155 205 206 
f 205 180 206 
f 186 165 207 
f 185 193 207 
f 163 155 208 
f 155 173 208 
f 173 163 208 
f 158 169 209 
f 193 158 209 
f 169 193 209 
f 158 193 210 
f 193 185 210 
f 196 158 210 
f 185 196 210 
f 165 177 211 
f 177 190 211 
f 200 185 211 
f 190 200 211 
f 207 165 211 
f 185 207 211 
f 169 186 212 
f 193 169 212 
f 186 207 212 
f 207 193 212 
f 186 153 213 
f 165 186 213 
f 153 198 213 
f 198 165 213 
f 170 192 214 
f 160 195 214 
f 195 170 214 
f 200 160 214 
f 192 202 214 
f 202 200 214 
f 176 183 215 
f 183 201 215 
f 215 201 216 
f 201 155 216 
f 155 206 216 
f 206 176 216 
o convex_5
v -0.039250 0.012950 -0.034672
v -0.000258 0.037088 -0.029103
v -0.000258 0.037088 -0.034672
v -0.000258 -0.005620 -0.032818
v -0.042967 -0.005620 -0.029103
v -0.039250 -0.005620 -0.038387
v -0.000258 0.033372 -0.038387
v -0.024397 0.031511 -0.029103
v -0.026253 0.025943 -0.038387
v -0.000258 -0.005620 -0.036530
v -0.000258 0.024083 -0.029103
v -0.039250 0.014810 -0.029103
v -0.011404 0.035228 -0.036530
v -0.033678 -0.005620 -0.029103
v -0.026253 -0.005620 -0.038387
v -0.028105 0.027799 -0.034672
v -0.000258 0.020374 -0.038387
v -0.041106 0.003665 -0.036530
v -0.009543 0.037088 -0.029103
v -0.037390 0.009242 -0.038387
v -0.042967 0.001809 -0.032818
v -0.033678 0.022226 -0.034672
v -0.020684 0.033372 -0.032818
v -0.037390 0.014810 -0.036530
v -0.024397 0.029659 -0.036530
v -0.009543 0.033372 -0.038387
v -0.042967 -0.005620 -0.032818
v -0.035538 0.020374 -0.029103
v -0.042967 0.001809 -0.029103
v -0.016972 0.035228 -0.030961
v -0.007687 0.037088 -0.032818
v -0.029961 0.022226 -0.038387
v -0.016972 0.033372 -0.036530
v -0.041106 0.009242 -0.032818
v -0.035538 0.020374 -0.032818
v -0.039250 0.011094 -0.036530
v -0.041106 -0.005620 -0.036530
v -0.039250 0.001809 -0.038387
v -0.016972 0.035228 -0.029103
v -0.015120 0.031511 -0.038387
v -0.039250 0.014810 -0.030961
v -0.037390 0.016662 -0.034672
v -0.033678 0.020374 -0.036530
v -0.024397 0.031511 -0.030961
v -0.033678 0.016662 -0.038387
v -0.041106 0.009242 -0.029103
v -0.041106 0.007381 -0.034672
v -0.002119 0.037088 -0.034672
v -0.009543 0.037088 -0.030961
f 247 246 265 
f 219 218 220 
f 220 221 222 
f 219 220 223 
f 221 218 224 
f 223 222 225 
f 220 222 226 
f 223 220 226 
f 220 218 227 
f 218 221 227 
f 221 224 228 
f 221 220 230 
f 220 227 230 
f 227 221 230 
f 222 223 231 
f 226 222 231 
f 223 226 233 
f 231 223 233 
f 226 231 233 
f 218 219 235 
f 224 218 235 
f 225 222 236 
f 238 232 241 
f 219 223 242 
f 223 225 242 
f 222 221 243 
f 221 237 243 
f 237 234 243 
f 228 224 244 
f 221 228 245 
f 237 221 245 
f 229 239 246 
f 235 219 247 
f 229 246 247 
f 225 236 248 
f 239 229 249 
f 241 239 249 
f 229 242 249 
f 237 245 250 
f 232 238 251 
f 244 224 251 
f 228 244 251 
f 217 240 252 
f 250 217 252 
f 234 222 253 
f 222 243 253 
f 243 234 253 
f 222 234 254 
f 236 222 254 
f 234 252 254 
f 252 236 254 
f 224 235 255 
f 239 224 255 
f 235 246 255 
f 246 239 255 
f 225 241 256 
f 242 225 256 
f 241 249 256 
f 249 242 256 
f 217 250 257 
f 250 228 257 
f 228 251 257 
f 257 251 258 
f 240 217 258 
f 238 240 258 
f 251 238 258 
f 217 257 258 
f 240 238 259 
f 241 225 259 
f 238 241 259 
f 225 248 259 
f 224 239 260 
f 241 232 260 
f 239 241 260 
f 251 224 260 
f 232 251 260 
f 248 236 261 
f 236 252 261 
f 252 240 261 
f 240 259 261 
f 259 248 261 
f 245 228 262 
f 228 250 262 
f 250 245 262 
f 234 237 263 
f 237 250 263 
f 252 234 263 
f 250 252 263 
f 219 242 264 
f 242 229 264 
f 247 219 264 
f 229 247 264 
f 246 235 265 
f 235 247 265 
o convex_6
v 0.022023 -0.040895 -0.019817
v 0.040589 -0.003763 0.004321
v 0.036875 -0.003763 0.004321
v 0.025737 -0.003763 -0.038387
v -0.000254 -0.033466 0.004321
v -0.000254 -0.003763 -0.036523
v -0.000254 -0.044611 -0.036523
v 0.036875 -0.020477 -0.036523
v 0.027592 -0.037183 0.004321
v -0.000254 -0.046472 0.004321
v 0.018312 -0.003763 -0.004964
v 0.040589 -0.003763 -0.034671
v 0.038730 -0.020477 0.004321
v 0.033161 -0.029758 -0.034671
v 0.012743 -0.040895 -0.038387
v 0.009029 -0.046472 0.004321
v 0.012743 -0.044611 -0.032815
v -0.000254 -0.027902 0.000604
v -0.000254 -0.031614 -0.038387
v 0.040589 -0.013048 -0.030959
v 0.023878 -0.003763 0.000604
v -0.000254 -0.003763 -0.032815
v 0.036875 -0.013048 -0.038387
v 0.003460 -0.046472 -0.032815
v 0.025737 -0.037183 -0.034671
v 0.035016 -0.027902 -0.029098
v 0.029447 -0.029758 -0.038387
v 0.040589 -0.014909 0.004321
v 0.031306 -0.033466 0.004321
v 0.038730 -0.020477 -0.027242
v 0.014598 -0.044611 0.004321
v 0.029447 -0.035326 -0.014249
v 0.036875 -0.003763 -0.038387
v 0.027592 -0.003763 0.002461
v -0.000254 -0.046472 -0.032815
v 0.035016 -0.027902 0.004321
v -0.000254 -0.040895 -0.038387
v 0.020167 -0.040895 -0.034671
v 0.014598 -0.044611 -0.012393
v 0.007174 -0.044611 -0.036523
v 0.022023 -0.040895 0.004321
v 0.018312 -0.040895 -0.036523
v 0.040589 -0.009336 -0.034671
v 0.005319 -0.046472 -0.030959
v 0.018312 -0.042755 -0.023526
v 0.023878 -0.039043 -0.032815
v 0.036875 -0.024189 -0.030959
v 0.005319 -0.042755 -0.038387
v 0.025737 -0.033466 -0.038387
v 0.027592 -0.037183 -0.006824
v 0.009029 -0.046472 -0.001252
v 0.031306 -0.033466 -0.010541
v 0.040589 -0.014909 -0.010541
v 0.038730 -0.018625 -0.032815
v 0.038730 -0.014909 -0.036523
v 0.016457 -0.042755 -0.034671
v 0.033161 -0.027902 -0.036523
v 0.035016 -0.018625 -0.038387
v 0.036875 -0.022333 -0.034671
v 0.020167 -0.037183 -0.038387
v 0.010888 -0.044611 -0.034671
v 0.023878 -0.037183 -0.036523
v 0.003460 -0.042755 -0.038387
f 302 313 328 
f 268 267 269 
f 267 268 270 
f 268 269 271 
f 270 271 272 
f 267 270 274 
f 270 272 275 
f 274 270 275 
f 268 271 276 
f 269 267 277 
f 267 274 278 
f 274 275 281 
f 271 270 283 
f 271 269 284 
f 272 271 284 
f 269 280 284 
f 277 267 285 
f 268 276 286 
f 283 270 286 
f 276 283 286 
f 276 271 287 
f 271 283 287 
f 283 276 287 
f 280 269 288 
f 281 275 289 
f 280 288 292 
f 279 290 292 
f 267 278 293 
f 285 267 293 
f 278 274 294 
f 293 278 295 
f 274 281 296 
f 290 279 297 
f 294 274 297 
f 269 277 298 
f 288 269 298 
f 277 288 298 
f 270 268 299 
f 268 286 299 
f 286 270 299 
f 275 272 300 
f 272 289 300 
f 289 275 300 
f 278 294 301 
f 294 291 301 
f 272 284 302 
f 284 280 302 
f 296 281 304 
f 289 272 305 
f 266 274 306 
f 274 296 306 
f 290 303 307 
f 305 280 307 
f 277 285 308 
f 288 277 308 
f 281 289 309 
f 304 282 310 
f 296 304 310 
f 266 306 310 
f 306 296 310 
f 290 297 311 
f 303 290 311 
f 266 310 311 
f 310 303 311 
f 291 279 312 
f 295 278 312 
f 278 301 312 
f 301 291 312 
f 302 280 313 
f 305 272 313 
f 280 305 313 
f 280 292 314 
f 292 290 314 
f 274 266 315 
f 297 274 315 
f 266 311 315 
f 311 297 315 
f 282 304 316 
f 304 281 316 
f 281 309 316 
f 309 282 316 
f 279 291 317 
f 291 294 317 
f 297 279 317 
f 294 297 317 
f 285 293 318 
f 295 285 318 
f 293 295 318 
f 285 295 319 
f 308 285 319 
f 295 312 319 
f 273 288 320 
f 288 308 320 
f 308 319 320 
f 307 303 321 
f 305 307 321 
f 303 310 321 
f 310 282 321 
f 273 279 322 
f 279 292 322 
f 322 292 323 
f 288 273 323 
f 292 288 323 
f 273 322 323 
f 279 273 324 
f 312 279 324 
f 319 312 324 
f 273 320 324 
f 320 319 324 
f 307 280 325 
f 280 314 325 
f 289 305 326 
f 282 309 326 
f 309 289 326 
f 321 282 326 
f 305 321 326 
f 290 307 327 
f 314 290 327 
f 307 325 327 
f 325 314 327 
f 272 302 328 
f 313 272 328 
o convex_7
v 0.016457 0.033370 -0.034671
v 0.040589 0.005524 0.004321
v 0.038730 0.011093 0.004321
v -0.000254 0.020373 0.000604
v -0.000254 -0.003759 -0.036523
v 0.040589 -0.003759 -0.034671
v -0.000254 0.037084 0.004321
v 0.027592 -0.003759 0.002461
v -0.000254 0.033370 -0.038387
v 0.020167 0.033370 0.004321
v 0.033161 0.020373 -0.034671
v 0.036875 -0.003759 -0.038387
v 0.040589 -0.003759 0.004321
v 0.009029 0.037084 -0.027242
v 0.018312 -0.003759 -0.004964
v 0.033161 0.022232 0.004321
v 0.038730 0.011093 -0.030959
v 0.031306 0.018518 -0.038387
v 0.027592 0.027801 -0.029098
v -0.000254 -0.003759 -0.032815
v -0.000254 0.037084 -0.032815
v 0.009029 0.037084 0.004321
v -0.000254 0.020373 -0.038387
v 0.022023 0.027801 -0.038387
v 0.022023 0.031511 -0.032815
v -0.000254 0.033370 0.004321
v 0.040589 0.003669 -0.032815
v -0.000254 0.016662 -0.003108
v 0.025737 -0.003759 -0.038387
v 0.038730 0.005524 -0.036523
v 0.025737 0.029656 0.004321
v 0.009029 0.035225 -0.036523
v 0.035016 0.018518 -0.032815
v 0.014598 0.035225 -0.030959
v -0.000254 0.024087 0.002461
v 0.036875 -0.003759 0.004321
v 0.023878 -0.003759 0.000604
v 0.031306 0.024087 -0.027242
v 0.023878 0.029656 -0.034671
v 0.040589 0.005524 -0.025382
v 0.036875 0.005524 -0.038387
v 0.038730 0.009238 -0.034671
v 0.009029 0.033370 -0.038387
v 0.005319 0.037084 -0.032815
v 0.025737 0.029656 -0.004964
v 0.012743 0.035225 -0.034671
v 0.036875 0.011093 -0.036523
v 0.014598 0.033370 -0.036523
v 0.033161 0.022232 -0.008680
v -0.000254 0.035225 -0.036523
v 0.020167 0.033370 0.002461
v 0.018312 0.033370 -0.032815
v 0.040589 -0.000045 -0.034671
v 0.035016 0.011093 -0.038387
v 0.022023 0.029656 -0.036523
v 0.033161 0.018518 -0.036523
v 0.036875 0.014807 -0.032815
v 0.007174 0.037084 -0.030959
v 0.018312 0.029656 -0.038387
v 0.029447 0.025942 -0.029098
f 347 366 388 
f 330 331 335 
f 333 332 335 
f 333 334 336 
f 333 335 337 
f 335 331 338 
f 334 333 340 
f 334 330 341 
f 330 335 341 
f 336 334 341 
f 333 336 343 
f 338 331 344 
f 331 330 345 
f 340 337 346 
f 332 333 348 
f 333 343 348 
f 337 335 349 
f 335 342 349 
f 335 338 350 
f 342 335 350 
f 338 342 350 
f 333 337 351 
f 337 340 351 
f 346 337 352 
f 339 346 352 
f 335 332 354 
f 341 335 354 
f 330 334 355 
f 343 332 356 
f 332 348 356 
f 348 343 356 
f 340 333 357 
f 333 351 357 
f 351 340 357 
f 338 344 359 
f 344 347 359 
f 332 336 363 
f 354 332 363 
f 336 354 363 
f 336 341 364 
f 354 336 364 
f 341 354 364 
f 336 332 365 
f 332 343 365 
f 343 336 365 
f 347 344 366 
f 361 339 366 
f 347 339 367 
f 339 352 367 
f 353 347 367 
f 345 330 368 
f 330 355 368 
f 355 345 368 
f 334 340 369 
f 340 346 369 
f 345 355 370 
f 352 337 371 
f 337 360 371 
f 349 342 372 
f 360 349 372 
f 347 353 373 
f 338 359 373 
f 359 347 373 
f 360 372 374 
f 358 369 375 
f 370 358 375 
f 371 360 376 
f 374 329 376 
f 360 374 376 
f 366 344 377 
f 361 366 377 
f 337 349 378 
f 360 337 378 
f 349 360 378 
f 342 338 379 
f 362 342 379 
f 338 373 379 
f 373 353 379 
f 367 329 380 
f 353 367 380 
f 329 374 380 
f 374 362 380 
f 362 379 380 
f 379 353 380 
f 355 334 381 
f 334 369 381 
f 369 358 381 
f 370 355 381 
f 358 370 381 
f 369 346 382 
f 346 375 382 
f 375 369 382 
f 329 367 383 
f 367 352 383 
f 376 329 383 
f 352 376 383 
f 346 339 384 
f 339 375 384 
f 375 346 384 
f 344 331 385 
f 331 345 385 
f 339 361 385 
f 345 370 385 
f 375 339 385 
f 370 375 385 
f 377 344 385 
f 361 377 385 
f 342 362 386 
f 372 342 386 
f 362 374 386 
f 374 372 386 
f 352 371 387 
f 376 352 387 
f 371 376 387 
f 339 347 388 
f 366 339 388 
o convex_8
v -0.031824 -0.040902 0.045173
v -0.024395 -0.033474 0.041457
v 0.005312 -0.042758 0.043315
v -0.009546 -0.046471 0.035888
v -0.009546 -0.052042 0.043315
v -0.031824 -0.033474 0.035888
v 0.005312 -0.042758 0.035888
v -0.024395 -0.046471 0.039603
v 0.005312 -0.050185 0.045173
v -0.037395 -0.033474 0.045173
v 0.005312 -0.052042 0.039603
v -0.035536 -0.039045 0.039603
v -0.020678 -0.048327 0.045173
v -0.007687 -0.052042 0.039603
v -0.029966 -0.033474 0.045173
v -0.024395 -0.033474 0.035888
v -0.024395 -0.040902 0.035888
v -0.039253 -0.035331 0.041457
v 0.005312 -0.046471 0.045173
v -0.031824 -0.042758 0.043315
v 0.005312 -0.046471 0.035888
v -0.020678 -0.048327 0.039603
v 0.005312 -0.052042 0.043315
v -0.039253 -0.033474 0.041457
v -0.039253 -0.035331 0.043315
v -0.016970 -0.050185 0.041457
v -0.031824 -0.035331 0.035888
v -0.013258 -0.050185 0.045173
v -0.016970 -0.044614 0.035888
v -0.026253 -0.033474 0.043315
v -0.031824 -0.042758 0.041457
v -0.037395 -0.035331 0.039603
v -0.015121 -0.050185 0.039603
v -0.037395 -0.035331 0.045173
v -0.016970 -0.050185 0.043315
v -0.029966 -0.037189 0.035888
v -0.029966 -0.042758 0.045173
v -0.009546 -0.052042 0.041457
v -0.039253 -0.033474 0.043315
v -0.037395 -0.033474 0.039603
f 420 412 428 
f 392 394 395 
f 390 391 395 
f 395 391 397 
f 390 394 398 
f 389 397 398 
f 395 397 399 
f 397 389 401 
f 392 399 402 
f 399 393 402 
f 390 398 403 
f 398 397 403 
f 394 390 404 
f 395 394 404 
f 390 395 404 
f 394 392 405 
f 396 400 405 
f 397 391 407 
f 391 403 407 
f 403 397 407 
f 392 395 409 
f 399 392 409 
f 395 399 409 
f 397 393 411 
f 393 399 411 
f 399 397 411 
f 398 394 412 
f 412 406 413 
f 408 389 413 
f 406 408 413 
f 396 410 414 
f 394 405 415 
f 393 397 416 
f 397 401 416 
f 405 392 417 
f 396 405 417 
f 410 396 417 
f 391 390 418 
f 403 391 418 
f 390 403 418 
f 400 396 419 
f 406 400 419 
f 408 406 419 
f 396 414 419 
f 414 408 419 
f 400 406 420 
f 406 412 420 
f 394 415 420 
f 415 400 420 
f 392 402 421 
f 414 410 421 
f 417 392 421 
f 410 417 421 
f 389 398 422 
f 413 389 422 
f 398 413 422 
f 401 408 423 
f 414 393 423 
f 408 414 423 
f 393 416 423 
f 416 401 423 
f 405 400 424 
f 415 405 424 
f 400 415 424 
f 401 389 425 
f 389 408 425 
f 408 401 425 
f 402 393 426 
f 393 414 426 
f 421 402 426 
f 414 421 426 
f 398 412 427 
f 412 413 427 
f 413 398 427 
f 412 394 428 
f 394 420 428 
o convex_9
v -0.028112 -0.033474 0.043315
v -0.048535 -0.013050 0.041457
v -0.046678 -0.018620 0.039603
v -0.039251 -0.007477 0.035888
v -0.042964 -0.007477 0.045173
v -0.033685 -0.033474 0.035888
v -0.039251 -0.033474 0.045173
v -0.028112 -0.031616 0.035888
v -0.039251 -0.007477 0.043315
v -0.042964 -0.007477 0.035888
v -0.046678 -0.018620 0.045173
v -0.041108 -0.031616 0.039603
v -0.029971 -0.031616 0.045173
v -0.048535 -0.007477 0.043315
v -0.028112 -0.029758 0.039603
v -0.041108 -0.020475 0.035888
v -0.044821 -0.026046 0.043315
v -0.048535 -0.007477 0.039603
v -0.028112 -0.031616 0.043315
v -0.042964 -0.014905 0.035888
v -0.028112 -0.033474 0.035888
v -0.046678 -0.007477 0.045173
v -0.039251 -0.033474 0.039603
v -0.044821 -0.024185 0.039603
v -0.028112 -0.029758 0.037746
v -0.041108 -0.009335 0.045173
v -0.029971 -0.033474 0.045173
v -0.044821 -0.026046 0.041457
v -0.048535 -0.013050 0.043315
v -0.037398 -0.027898 0.035888
v -0.042964 -0.027898 0.045173
v -0.048535 -0.009335 0.039603
v -0.046678 -0.020475 0.043315
v -0.041108 -0.031616 0.043315
v -0.046678 -0.020475 0.041457
f 456 461 463 
f 434 429 435 
f 434 432 436 
f 432 433 437 
f 433 432 438 
f 432 434 438 
f 435 433 439 
f 433 435 441 
f 433 438 442 
f 429 436 443 
f 432 437 443 
f 438 434 444 
f 430 442 446 
f 442 438 446 
f 441 429 447 
f 437 441 447 
f 429 443 447 
f 443 437 447 
f 444 431 448 
f 438 444 448 
f 446 438 448 
f 429 434 449 
f 436 429 449 
f 434 436 449 
f 439 433 450 
f 433 442 450 
f 442 439 450 
f 434 435 451 
f 435 440 451 
f 440 434 451 
f 431 444 452 
f 444 440 452 
f 436 432 453 
f 443 436 453 
f 432 443 453 
f 437 433 454 
f 433 441 454 
f 441 437 454 
f 435 429 455 
f 429 441 455 
f 441 435 455 
f 440 445 456 
f 431 452 456 
f 452 440 456 
f 442 430 457 
f 439 442 457 
f 434 440 458 
f 444 434 458 
f 440 444 458 
f 435 439 459 
f 439 445 459 
f 445 435 459 
f 431 430 460 
f 430 446 460 
f 448 431 460 
f 446 448 460 
f 445 439 461 
f 456 445 461 
f 457 430 461 
f 439 457 461 
f 440 435 462 
f 435 445 462 
f 445 440 462 
f 430 431 463 
f 431 456 463 
f 461 430 463 
o convex_10
v -0.028115 0.035231 0.039603
v -0.048537 -0.007477 0.039603
v -0.048537 -0.007477 0.045173
v -0.039252 -0.007477 0.035888
v -0.026255 0.025942 0.045173
v -0.042967 0.018518 0.045173
v -0.041106 0.011093 0.035888
v -0.026255 0.024086 0.035888
v -0.039252 -0.007477 0.041457
v -0.044823 0.014801 0.039603
v -0.029971 0.033371 0.045173
v -0.037396 0.027803 0.039603
v -0.042967 -0.007477 0.045173
v -0.048537 0.005524 0.043315
v -0.029971 0.027803 0.035888
v -0.026255 0.035231 0.043315
v -0.048537 0.003668 0.039603
v -0.042967 -0.007477 0.035888
v -0.039252 0.025942 0.043315
v -0.026255 0.024086 0.043315
v -0.044823 0.016661 0.041457
v -0.031825 0.033371 0.039603
v -0.026255 0.027803 0.035888
v -0.037396 0.018518 0.035888
v -0.042967 0.005524 0.035888
v -0.046677 0.009237 0.045173
v -0.031825 0.033371 0.043315
v -0.026255 0.035231 0.039603
v -0.026255 0.033371 0.045173
v -0.044823 0.016661 0.043315
v -0.041106 0.022226 0.039603
v -0.039252 0.024086 0.045173
v -0.042967 0.020369 0.041457
v -0.028115 0.035231 0.043315
v -0.048537 -0.003761 0.045173
v -0.048537 0.005524 0.041457
v -0.042967 0.020369 0.043315
v -0.031825 0.025942 0.035888
v -0.044823 0.014801 0.045173
v -0.039252 0.025942 0.041457
f 496 482 503 
f 466 465 467 
f 466 468 469 
f 467 470 471 
f 466 467 472 
f 467 471 472 
f 469 468 474 
f 468 466 476 
f 472 468 476 
f 466 472 476 
f 465 466 477 
f 471 470 478 
f 468 471 479 
f 465 477 480 
f 467 465 481 
f 470 467 481 
f 465 480 481 
f 471 468 483 
f 468 472 483 
f 472 471 483 
f 473 480 484 
f 464 478 485 
f 478 475 485 
f 471 478 486 
f 478 464 486 
f 479 471 486 
f 470 473 487 
f 478 470 487 
f 473 470 488 
f 480 473 488 
f 470 481 488 
f 481 480 488 
f 466 469 489 
f 482 474 490 
f 475 482 490 
f 464 485 490 
f 485 475 490 
f 464 479 491 
f 486 464 491 
f 479 486 491 
f 474 468 492 
f 468 479 492 
f 479 474 492 
f 484 477 493 
f 487 473 494 
f 475 487 494 
f 469 474 495 
f 482 469 495 
f 474 482 495 
f 473 484 496 
f 484 493 496 
f 475 494 496 
f 494 473 496 
f 479 464 497 
f 474 479 497 
f 464 490 497 
f 490 474 497 
f 477 466 498 
f 466 489 498 
f 489 477 498 
f 480 477 499 
f 477 484 499 
f 484 480 499 
f 469 482 500 
f 493 469 500 
f 482 496 500 
f 496 493 500 
f 475 478 501 
f 487 475 501 
f 478 487 501 
f 489 469 502 
f 477 489 502 
f 469 493 502 
f 493 477 502 
f 482 475 503 
f 475 496 503 
o convex_11
v -0.026255 0.025947 0.043315
v 0.005312 0.037088 0.043315
v 0.005312 0.037088 0.035888
v -0.026255 0.037088 0.043315
v -0.026255 0.025947 0.035888
v 0.005312 0.033374 0.035888
v -0.016969 0.035231 0.035888
v -0.024398 0.037088 0.045173
v 0.005312 0.033374 0.041457
v -0.024398 0.027804 0.045173
v -0.024398 0.037088 0.039603
v -0.022538 0.025947 0.035888
v -0.009544 0.035231 0.045173
v -0.026255 0.029662 0.035888
v -0.022538 0.025947 0.041457
v 0.005312 0.035231 0.043315
v -0.011395 0.037088 0.035888
v -0.026255 0.027804 0.045173
v -0.024398 0.025947 0.043315
v -0.009544 0.037088 0.045173
v -0.026255 0.035231 0.045173
v -0.026255 0.037088 0.041457
v -0.024398 0.031518 0.035888
v -0.026255 0.035231 0.039603
f 517 525 527 
f 505 506 507 
f 504 507 508 
f 508 506 509 
f 506 505 509 
f 506 508 510 
f 505 507 511 
f 509 505 512 
f 507 506 514 
f 504 508 515 
f 508 509 515 
f 509 512 515 
f 511 513 516 
f 508 507 517 
f 510 508 517 
f 504 515 518 
f 515 512 518 
f 512 505 519 
f 513 512 519 
f 505 516 519 
f 516 513 519 
f 506 510 520 
f 514 506 520 
f 510 514 520 
f 507 504 521 
f 513 511 521 
f 504 513 521 
f 513 504 522 
f 512 513 522 
f 504 518 522 
f 518 512 522 
f 505 511 523 
f 516 505 523 
f 511 516 523 
f 511 507 524 
f 507 521 524 
f 521 511 524 
f 507 514 525 
f 517 507 525 
f 514 510 526 
f 510 517 526 
f 517 514 526 
f 514 517 527 
f 525 514 527 
o convex_12
v 0.007171 -0.052040 0.041457
v 0.027595 -0.031617 0.043315
v 0.027595 -0.031617 0.035888
v 0.005312 -0.042756 0.043315
v 0.027595 -0.042756 0.045173
v 0.005312 -0.042756 0.035888
v 0.025737 -0.044613 0.039603
v 0.005312 -0.050183 0.045173
v 0.014600 -0.044613 0.035888
v 0.025737 -0.035333 0.045173
v 0.018308 -0.048326 0.045173
v 0.025737 -0.031617 0.043315
v 0.014600 -0.050183 0.039603
v 0.005312 -0.046469 0.035888
v 0.005312 -0.044613 0.045173
v 0.027595 -0.035333 0.035888
v 0.022022 -0.033476 0.035888
v 0.023880 -0.046469 0.043315
v 0.005312 -0.052040 0.043315
v 0.022022 -0.040903 0.035888
v 0.027595 -0.042756 0.039603
v 0.014600 -0.050183 0.043315
v 0.012741 -0.050183 0.045173
v 0.020166 -0.048326 0.041457
v 0.025737 -0.031617 0.035888
v 0.027595 -0.035333 0.045173
v 0.005312 -0.052040 0.041457
v 0.007171 -0.046469 0.035888
v 0.007171 -0.052040 0.043315
v 0.020166 -0.048326 0.043315
v 0.023880 -0.046469 0.041457
v 0.022022 -0.046469 0.045173
v 0.022022 -0.033476 0.037746
f 539 544 560 
f 530 529 532 
f 531 533 535 
f 533 530 536 
f 535 532 537 
f 532 535 538 
f 529 530 539 
f 537 529 539 
f 535 533 541 
f 533 536 541 
f 531 535 542 
f 535 537 542 
f 539 531 542 
f 537 539 542 
f 530 532 543 
f 536 530 543 
f 530 533 544 
f 533 531 544 
f 535 541 546 
f 540 536 547 
f 534 540 547 
f 536 543 547 
f 547 543 548 
f 543 532 548 
f 532 545 548 
f 534 547 548 
f 528 540 549 
f 538 535 550 
f 535 546 550 
f 549 538 550 
f 549 540 551 
f 539 530 552 
f 530 544 552 
f 544 539 552 
f 532 529 553 
f 529 537 553 
f 537 532 553 
f 541 528 554 
f 528 546 554 
f 546 541 554 
f 540 528 555 
f 536 540 555 
f 528 541 555 
f 541 536 555 
f 546 528 556 
f 528 549 556 
f 550 546 556 
f 549 550 556 
f 545 538 557 
f 538 549 557 
f 551 545 557 
f 549 551 557 
f 540 534 558 
f 548 545 558 
f 534 548 558 
f 551 540 558 
f 545 551 558 
f 532 538 559 
f 545 532 559 
f 538 545 559 
f 531 539 560 
f 544 531 560 
o convex_13
v 0.046164 -0.014905 0.043315
v 0.027595 -0.042758 0.041457
v 0.027595 -0.042758 0.043315
v 0.036879 -0.005620 0.035888
v 0.040593 -0.005620 0.045173
v 0.035024 -0.027901 0.035888
v 0.027595 -0.027901 0.035888
v 0.027595 -0.033474 0.045173
v 0.040593 -0.027901 0.045173
v 0.046164 -0.005620 0.039603
v 0.036879 -0.035324 0.039603
v 0.044306 -0.020478 0.039603
v 0.040593 -0.014905 0.035888
v 0.036879 -0.005620 0.039603
v 0.046164 -0.005620 0.045173
v 0.029453 -0.033474 0.035888
v 0.027595 -0.029755 0.043315
v 0.029453 -0.040900 0.045173
v 0.031310 -0.040900 0.039603
v 0.036879 -0.035324 0.043315
v 0.042449 -0.026039 0.043315
v 0.040593 -0.005620 0.035888
v 0.046164 -0.013054 0.039603
v 0.036879 -0.009339 0.043315
v 0.029453 -0.042758 0.043315
v 0.044306 -0.018624 0.045173
v 0.027595 -0.033474 0.035888
v 0.027595 -0.027901 0.039603
v 0.040593 -0.029755 0.041457
v 0.036879 -0.033474 0.045173
v 0.027595 -0.040900 0.045173
v 0.038735 -0.020478 0.035888
v 0.027595 -0.040900 0.039603
v 0.046164 -0.011193 0.045173
v 0.040593 -0.029755 0.043315
v 0.038735 -0.005620 0.043315
v 0.029453 -0.042758 0.041457
v 0.042449 -0.024189 0.045173
v 0.046164 -0.014905 0.041457
v 0.042449 -0.026039 0.041457
f 581 589 600 
f 564 566 567 
f 562 563 567 
f 567 563 568 
f 565 568 569 
f 564 565 570 
f 571 566 572 
f 566 564 573 
f 565 564 574 
f 564 567 574 
f 565 569 575 
f 561 570 575 
f 570 565 575 
f 567 566 576 
f 567 568 577 
f 569 568 578 
f 566 571 579 
f 576 566 579 
f 579 571 580 
f 572 561 581 
f 564 570 582 
f 573 564 582 
f 570 573 582 
f 570 561 583 
f 573 570 583 
f 572 573 583 
f 568 565 584 
f 577 568 584 
f 574 577 584 
f 563 562 585 
f 578 563 585 
f 579 580 585 
f 575 569 586 
f 581 561 586 
f 562 567 587 
f 567 576 587 
f 576 579 587 
f 574 567 588 
f 567 577 588 
f 577 574 588 
f 571 572 589 
f 580 571 589 
f 569 578 590 
f 578 585 590 
f 585 580 590 
f 568 563 591 
f 563 578 591 
f 578 568 591 
f 572 566 592 
f 566 573 592 
f 573 572 592 
f 579 562 593 
f 562 587 593 
f 587 579 593 
f 561 575 594 
f 586 561 594 
f 575 586 594 
f 580 589 595 
f 589 581 595 
f 569 590 595 
f 590 580 595 
f 565 574 596 
f 584 565 596 
f 574 584 596 
f 562 579 597 
f 585 562 597 
f 579 585 597 
f 586 569 598 
f 581 586 598 
f 569 595 598 
f 595 581 598 
f 561 572 599 
f 583 561 599 
f 572 583 599 
f 572 581 600 
f 589 572 600 
o convex_14
v 0.027595 0.020376 0.035888
v 0.023878 0.037088 0.043315
v 0.023878 0.037088 0.041457
v 0.005312 0.033372 0.035888
v 0.007170 0.035230 0.045173
v 0.029452 0.024091 0.045173
v 0.010886 0.037088 0.035888
v 0.029452 0.025948 0.035888
v 0.027595 0.020376 0.041457
v 0.029452 0.031516 0.045173
v 0.007170 0.037088 0.045173
v 0.005312 0.033372 0.041457
v 0.025737 0.035230 0.039603
v 0.005312 0.037088 0.035888
v 0.029452 0.033372 0.041457
v 0.022023 0.037088 0.045173
v 0.029452 0.020376 0.035888
v 0.020163 0.033372 0.035888
v 0.027595 0.024091 0.045173
v 0.005312 0.037088 0.043315
v 0.027595 0.035230 0.043315
v 0.029452 0.020376 0.041457
v 0.022023 0.037088 0.039603
v 0.007170 0.033372 0.043315
v 0.025737 0.029660 0.035888
v 0.016456 0.035230 0.035888
v 0.027595 0.035230 0.041457
v 0.025737 0.035230 0.045173
v 0.029452 0.031516 0.039603
v 0.005312 0.035230 0.043315
v 0.029452 0.033372 0.043315
f 615 621 631 
f 602 603 607 
f 601 604 607 
f 601 607 608 
f 604 601 609 
f 605 606 610 
f 606 608 610 
f 602 607 611 
f 605 610 611 
f 604 609 612 
f 607 604 614 
f 611 607 614 
f 604 612 614 
f 610 608 615 
f 602 611 616 
f 611 610 616 
f 601 608 617 
f 608 606 617 
f 609 601 617 
f 608 607 618 
f 606 605 619 
f 609 606 619 
f 605 611 620 
f 611 614 620 
f 614 612 620 
f 603 602 621 
f 602 616 621 
f 606 609 622 
f 617 606 622 
f 609 617 622 
f 607 603 623 
f 612 609 624 
f 605 612 624 
f 619 605 624 
f 609 619 624 
f 613 608 625 
f 608 618 625 
f 618 613 625 
f 618 607 626 
f 613 618 626 
f 607 623 626 
f 623 613 626 
f 603 621 627 
f 621 615 627 
f 623 603 627 
f 613 623 627 
f 616 610 628 
f 610 621 628 
f 621 616 628 
f 608 613 629 
f 615 608 629 
f 613 627 629 
f 627 615 629 
f 612 605 630 
f 605 620 630 
f 620 612 630 
f 610 615 631 
f 621 610 631 
o convex_15
v 0.044306 0.011095 0.043315
v 0.029452 0.018517 0.035888
v 0.029452 0.018517 0.043315
v 0.036880 -0.005617 0.037746
v 0.040592 -0.005617 0.045173
v 0.031310 0.029657 0.045173
v 0.046164 0.005523 0.039603
v 0.036880 0.025942 0.039603
v 0.046164 -0.005617 0.045173
v 0.040592 -0.005617 0.035888
v 0.036880 0.016660 0.035888
v 0.029452 0.031514 0.039603
v 0.038735 0.022231 0.045173
v 0.046164 -0.005617 0.039603
v 0.029452 0.022231 0.045173
v 0.042447 0.016660 0.039603
v 0.031310 0.024085 0.035888
v 0.036880 -0.003759 0.041457
v 0.040592 0.005523 0.035888
v 0.046164 -0.000045 0.045173
v 0.036880 -0.003759 0.035888
v 0.031310 0.031514 0.043315
v 0.029452 0.029657 0.045173
v 0.031310 0.031514 0.039603
v 0.038735 -0.005617 0.043315
v 0.040592 0.020374 0.043315
v 0.042447 0.014802 0.045173
v 0.046164 0.005523 0.043315
v 0.036880 0.025942 0.043315
v 0.029452 0.024085 0.035888
v 0.036880 -0.005617 0.039603
v 0.040592 0.020374 0.039603
v 0.042447 0.016660 0.043315
v 0.033169 0.022231 0.035888
v 0.044306 0.009238 0.045173
v 0.029452 0.031514 0.043315
v 0.038735 -0.005617 0.035888
f 652 641 668 
f 634 633 635 
f 636 635 640 
f 637 636 640 
f 640 635 641 
f 641 633 642 
f 633 634 643 
f 637 640 644 
f 638 640 645 
f 641 638 645 
f 640 641 645 
f 636 637 646 
f 643 634 646 
f 632 638 647 
f 638 642 647 
f 642 633 648 
f 638 641 650 
f 642 638 650 
f 641 642 650 
f 640 638 651 
f 644 640 651 
f 635 633 652 
f 633 641 652 
f 637 644 653 
f 646 637 654 
f 643 646 654 
f 637 653 654 
f 648 643 655 
f 643 653 655 
f 653 639 655 
f 635 636 656 
f 646 634 656 
f 636 646 656 
f 634 649 656 
f 644 651 658 
f 657 644 658 
f 638 632 659 
f 651 638 659 
f 639 653 660 
f 653 644 660 
f 657 639 660 
f 644 657 660 
f 633 643 661 
f 648 633 661 
f 643 648 661 
f 634 635 662 
f 649 634 662 
f 635 656 662 
f 656 649 662 
f 647 642 663 
f 639 657 663 
f 657 647 663 
f 632 647 664 
f 647 657 664 
f 658 632 664 
f 657 658 664 
f 642 648 665 
f 655 639 665 
f 648 655 665 
f 639 663 665 
f 663 642 665 
f 632 658 666 
f 658 651 666 
f 659 632 666 
f 651 659 666 
f 653 643 667 
f 643 654 667 
f 654 653 667 
f 641 635 668 
f 635 652 668 
o convex_16
v -0.009544 -0.046472 0.035888
v -0.033682 -0.033475 0.004321
v -0.033682 -0.031617 0.004321
v -0.000258 -0.046472 0.004321
v -0.000258 -0.042758 0.035888
v -0.033682 -0.031617 0.035888
v -0.026249 -0.031617 0.004321
v -0.016970 -0.044615 0.004321
v -0.024394 -0.040900 0.035888
v -0.000258 -0.042758 0.004321
v -0.028107 -0.031617 0.035888
v -0.000258 -0.046472 0.035888
v -0.028107 -0.039044 0.011752
v -0.033682 -0.033475 0.035888
v -0.009544 -0.046472 0.004321
v -0.016970 -0.044615 0.035888
v -0.011402 -0.046472 0.013606
v -0.029966 -0.037189 0.035888
v -0.029966 -0.037189 0.004321
v -0.024394 -0.040900 0.004321
v -0.026249 -0.031617 0.006178
v -0.028107 -0.039044 0.019181
v -0.011402 -0.046472 0.021028
f 684 685 691 
f 670 671 672 
f 671 670 674 
f 669 673 674 
f 672 671 675 
f 671 674 675 
f 670 672 676 
f 669 674 677 
f 673 672 678 
f 672 675 678 
f 675 673 678 
f 674 673 679 
f 675 674 679 
f 669 672 680 
f 673 669 680 
f 672 673 680 
f 674 670 682 
f 677 674 682 
f 672 669 683 
f 676 672 683 
f 669 677 684 
f 681 676 684 
f 683 669 685 
f 676 683 685 
f 684 676 685 
f 677 682 686 
f 682 670 686 
f 670 676 687 
f 686 670 687 
f 681 686 687 
f 676 681 688 
f 687 676 688 
f 681 687 688 
f 673 675 689 
f 679 673 689 
f 675 679 689 
f 684 677 690 
f 681 684 690 
f 686 681 690 
f 677 686 690 
f 669 684 691 
f 685 669 691 
o convex_17
v -0.042967 -0.005620 0.035888
v -0.033685 -0.031617 0.004321
v -0.037395 -0.027901 0.004321
v -0.039252 -0.005620 0.004321
v -0.029971 -0.027901 0.035888
v -0.037395 -0.027901 0.035888
v -0.028113 -0.029759 0.006178
v -0.042967 -0.013048 0.004321
v -0.039252 -0.005620 0.035888
v -0.042967 -0.014908 0.035888
v -0.029971 -0.031617 0.035888
v -0.042967 -0.005620 0.004321
v -0.041109 -0.020474 0.004321
v -0.033685 -0.031617 0.035888
v -0.029971 -0.031617 0.004321
v -0.041109 -0.020474 0.035888
v -0.028113 -0.031617 0.009892
v -0.028113 -0.029759 0.009892
v -0.029971 -0.027901 0.004321
v -0.042967 -0.014908 0.032171
v -0.028113 -0.031617 0.006178
f 708 706 712 
f 693 694 695 
f 694 693 697 
f 696 692 697 
f 695 694 699 
f 695 692 700 
f 692 696 700 
f 698 695 700 
f 697 692 701 
f 692 699 701 
f 696 697 702 
f 692 695 703 
f 695 699 703 
f 699 692 703 
f 694 697 704 
f 699 694 704 
f 697 693 705 
f 693 702 705 
f 702 697 705 
f 693 695 706 
f 702 693 706 
f 697 701 707 
f 704 697 707 
f 701 704 707 
f 696 702 708 
f 702 706 708 
f 700 696 709 
f 698 700 709 
f 696 708 709 
f 708 698 709 
f 695 698 710 
f 706 695 710 
f 698 706 710 
f 701 699 711 
f 699 704 711 
f 704 701 711 
f 706 698 712 
f 698 708 712 
o convex_18
v -0.029971 0.027799 0.035888
v -0.042965 -0.005617 -0.029103
v -0.042965 0.001812 -0.029103
v -0.020686 0.014802 -0.029103
v -0.039250 -0.005617 0.035888
v -0.022544 -0.005617 -0.004960
v -0.020686 0.027799 0.035888
v -0.024400 0.031514 -0.029103
v -0.042965 0.005523 0.035888
v -0.037392 0.018517 -0.029103
v -0.024400 -0.005617 -0.021673
v -0.020686 0.031514 -0.029103
v -0.020686 0.031514 0.035888
v -0.037392 0.018517 0.035888
v -0.042965 -0.005617 0.035888
v -0.020686 0.001812 -0.016100
v -0.041106 0.011095 -0.027245
v -0.031824 -0.005617 -0.029103
v -0.031824 0.025942 -0.008676
v -0.024400 0.031514 0.035888
v -0.020686 0.001812 -0.004960
v -0.033680 0.024085 0.030309
v -0.041106 0.011095 0.035888
v -0.022544 -0.005617 -0.017957
v -0.042965 0.003666 -0.027245
v -0.029971 0.027799 0.000612
v -0.033680 0.024085 0.011739
v -0.042965 0.005523 0.021021
v -0.020686 0.005523 -0.021673
v -0.039250 0.014802 -0.029103
v -0.031824 0.025942 0.035888
v -0.041106 0.009238 -0.029103
v -0.020686 0.007381 -0.023530
f 741 736 745 
f 714 715 716 
f 717 714 718 
f 713 717 719 
f 717 718 719 
f 716 715 720 
f 715 714 721 
f 717 713 721 
f 720 715 722 
f 718 714 723 
f 719 716 724 
f 716 720 724 
f 724 720 725 
f 713 719 725 
f 719 724 725 
f 721 713 726 
f 714 717 727 
f 721 714 727 
f 717 721 727 
f 716 719 728 
f 726 722 729 
f 714 716 730 
f 723 714 730 
f 716 723 730 
f 720 722 731 
f 720 713 732 
f 725 720 732 
f 713 725 732 
f 719 718 733 
f 728 719 733 
f 718 728 733 
f 722 726 734 
f 721 726 735 
f 729 721 735 
f 726 729 735 
f 723 716 736 
f 718 723 736 
f 728 718 736 
f 715 721 737 
f 729 715 737 
f 713 720 738 
f 720 731 738 
f 734 713 738 
f 734 738 739 
f 731 722 739 
f 722 734 739 
f 738 731 739 
f 721 729 740 
f 737 721 740 
f 729 737 740 
f 716 728 741 
f 728 736 741 
f 722 715 742 
f 729 722 742 
f 726 713 743 
f 713 734 743 
f 734 726 743 
f 715 729 744 
f 742 715 744 
f 729 742 744 
f 736 716 745 
f 716 741 745 
o convex_19
v 0.014595 -0.044613 0.004321
v 0.025738 -0.033474 0.035888
v 0.022023 -0.033474 0.035888
v -0.000258 -0.046471 0.035888
v -0.000258 -0.042757 0.004321
v 0.025738 -0.033474 0.004321
v 0.022023 -0.040899 0.035888
v -0.000258 -0.042757 0.035888
v 0.025738 -0.037188 0.004321
v -0.000258 -0.046471 0.004321
v 0.007170 -0.046471 0.035888
v 0.007170 -0.039046 0.004321
v 0.009030 -0.046471 0.004321
v 0.014595 -0.044613 0.035888
v 0.025738 -0.037188 0.035888
v 0.022023 -0.040899 0.004321
v 0.023880 -0.033474 0.004321
v 0.022023 -0.033474 0.028457
v 0.009030 -0.046471 0.017324
v 0.007170 -0.039046 0.006178
f 757 753 765 
f 747 748 749 
f 748 747 751 
f 746 750 751 
f 747 749 752 
f 749 748 753 
f 750 749 753 
f 751 747 754 
f 746 751 754 
f 750 746 755 
f 749 750 755 
f 752 749 756 
f 749 755 756 
f 751 750 757 
f 750 753 757 
f 755 746 758 
f 756 755 758 
f 746 752 759 
f 752 756 759 
f 758 746 759 
f 747 752 760 
f 754 747 760 
f 752 754 760 
f 752 746 761 
f 746 754 761 
f 754 752 761 
f 748 751 762 
f 751 757 762 
f 762 757 763 
f 757 748 763 
f 748 762 763 
f 756 758 764 
f 759 756 764 
f 758 759 764 
f 753 748 765 
f 748 757 765 
o convex_20
v 0.027595 -0.037187 0.032171
v 0.040593 -0.003763 0.035888
v 0.040593 -0.003763 0.004321
v 0.025738 -0.029754 0.004321
v 0.038736 -0.020475 0.004321
v 0.036879 -0.003763 0.032171
v 0.040593 -0.014907 0.035888
v 0.025738 -0.031612 0.035888
v 0.027595 -0.037187 0.004321
v 0.036879 -0.003763 0.004321
v 0.035021 -0.027899 0.035888
v 0.031310 -0.033471 0.004321
v 0.025738 -0.037187 0.004321
v 0.040593 -0.014907 0.004321
v 0.025738 -0.035329 0.035888
v 0.036879 -0.005622 0.035888
v 0.038736 -0.020475 0.035888
v 0.035021 -0.027899 0.004321
v 0.029452 -0.035329 0.034031
v 0.025738 -0.037187 0.032171
v 0.031310 -0.033471 0.024746
v 0.025738 -0.029754 0.006178
v 0.027595 -0.035329 0.035888
v 0.038736 -0.003763 0.035888
f 771 781 789 
f 769 768 770 
f 767 768 771 
f 768 767 772 
f 772 767 773 
f 769 770 774 
f 768 769 775 
f 771 768 775 
f 769 771 775 
f 772 773 776 
f 766 774 777 
f 774 770 777 
f 773 769 778 
f 774 766 778 
f 769 774 778 
f 770 768 779 
f 768 772 779 
f 772 770 779 
f 776 773 780 
f 773 778 780 
f 773 767 781 
f 771 773 781 
f 770 772 782 
f 776 770 782 
f 772 776 782 
f 770 776 783 
f 777 770 783 
f 776 777 783 
f 778 766 785 
f 766 780 785 
f 780 778 785 
f 766 777 786 
f 777 776 786 
f 784 766 786 
f 776 784 786 
f 771 769 787 
f 769 773 787 
f 773 771 787 
f 780 766 788 
f 776 780 788 
f 766 784 788 
f 784 776 788 
f 767 771 789 
f 781 767 789 
o convex_21
v -0.000258 0.033374 0.004321
v 0.023881 0.029662 0.035888
v 0.020167 0.033374 0.035888
v 0.023881 0.029662 0.004321
v 0.009030 0.037088 0.004321
v -0.000258 0.037088 0.035888
v 0.022024 0.025947 0.035888
v 0.020167 0.025947 0.004321
v -0.000258 0.033374 0.030317
v 0.010888 0.037088 0.035888
v -0.000258 0.037088 0.004321
v 0.020167 0.033374 0.004321
v 0.023881 0.025947 0.004321
v 0.001599 0.033374 0.035888
v 0.016452 0.035231 0.008035
v 0.020167 0.025947 0.022886
v 0.023881 0.025947 0.035888
v 0.016452 0.035231 0.035888
v 0.010888 0.037088 0.011752
v -0.000258 0.035231 0.035888
f 798 803 809 
f 792 791 793 
f 793 790 794 
f 791 792 795 
f 791 795 796 
f 790 793 797 
f 790 797 798 
f 795 790 798 
f 795 792 799 
f 794 795 799 
f 794 790 800 
f 795 794 800 
f 790 795 800 
f 792 793 801 
f 793 794 801 
f 793 791 802 
f 797 793 802 
f 796 797 802 
f 796 795 803 
f 798 796 803 
f 792 801 804 
f 801 794 804 
f 797 796 805 
f 798 797 805 
f 796 798 805 
f 791 796 806 
f 802 791 806 
f 796 802 806 
f 799 792 807 
f 792 804 807 
f 804 799 807 
f 794 799 808 
f 799 804 808 
f 804 794 808 
f 795 798 809 
f 803 795 809 
o convex_22
v 0.040593 0.005522 0.004321
v 0.025740 0.029661 0.035888
v 0.023881 0.029661 0.035888
v 0.036877 -0.003763 0.035888
v 0.023881 0.024086 0.004321
v 0.040593 0.005522 0.035888
v 0.036877 -0.003763 0.004321
v 0.031310 0.024086 0.004321
v 0.036877 0.016662 0.035888
v 0.023881 0.024086 0.035888
v 0.040593 -0.003763 0.035888
v 0.025740 0.029661 0.004321
v 0.040593 -0.003763 0.004321
v 0.036877 0.016662 0.011752
v 0.033165 0.022227 0.035888
v 0.023881 0.029661 0.004321
v 0.038735 0.011094 0.004321
v 0.033165 0.022227 0.009892
v 0.035021 0.018514 0.004321
f 827 823 828 
f 811 812 813 
f 811 813 815 
f 814 810 816 
f 813 814 816 
f 810 814 817 
f 811 815 818 
f 813 812 819 
f 814 813 819 
f 812 814 819 
f 810 815 820 
f 815 813 820 
f 813 816 820 
f 812 811 821 
f 817 814 821 
f 811 817 821 
f 816 810 822 
f 810 820 822 
f 820 816 822 
f 818 823 824 
f 817 811 824 
f 811 818 824 
f 814 812 825 
f 812 821 825 
f 821 814 825 
f 815 810 826 
f 810 817 826 
f 818 815 826 
f 823 818 826 
f 824 823 827 
f 817 824 827 
f 826 817 828 
f 823 826 828 
f 817 827 828 
o convex_23
v -0.013254 0.022231 0.004320
v -0.020684 0.003664 -0.012385
v -0.020684 0.005523 -0.017959
v -0.000258 0.016663 -0.021675
v -0.020684 0.033372 -0.029103
v -0.000258 0.037088 0.006178
v -0.020684 0.033372 0.006178
v -0.000258 0.037088 -0.029103
v -0.000258 0.018521 -0.001251
v -0.018827 0.016663 -0.029103
v -0.020684 0.011094 0.000600
v -0.011399 0.037088 -0.012385
v -0.000258 0.022231 -0.029103
v -0.018827 0.003664 -0.008682
v -0.000258 0.014808 -0.008682
v -0.011399 0.037088 0.006178
v -0.018827 0.009236 -0.023526
v -0.016967 0.035230 -0.029103
v -0.000258 0.033372 0.006178
v -0.020684 0.027800 0.006178
v -0.020684 0.016663 -0.029103
v -0.000258 0.020376 0.000600
v -0.018827 0.003664 -0.012385
v -0.018827 0.005523 -0.004967
v -0.009544 0.037088 -0.029103
v -0.018827 0.005523 -0.017959
v -0.000258 0.014808 -0.014243
v -0.000258 0.018521 -0.025387
v -0.018827 0.014808 0.002462
v -0.018827 0.011094 0.000600
v -0.016967 0.035230 0.006178
v -0.020684 0.005523 -0.004967
v -0.000258 0.024090 0.002462
v -0.020684 0.009236 -0.023526
v -0.018827 0.027800 0.006178
v -0.020684 0.014808 0.002462
v -0.020684 0.003664 -0.008682
f 842 860 865 
f 831 830 833 
f 833 830 835 
f 834 832 836 
f 832 834 837 
f 833 836 838 
f 835 830 839 
f 834 836 840 
f 836 832 841 
f 838 836 841 
f 832 837 843 
f 837 842 843 
f 835 834 844 
f 834 840 844 
f 838 841 845 
f 833 835 846 
f 836 833 846 
f 844 840 846 
f 834 835 847 
f 837 834 847 
f 835 839 848 
f 847 835 848 
f 831 833 849 
f 833 838 849 
f 838 845 849 
f 837 847 850 
f 830 831 851 
f 842 830 851 
f 843 842 851 
f 842 837 852 
f 840 836 853 
f 836 846 853 
f 846 840 853 
f 831 845 854 
f 851 831 854 
f 832 851 854 
f 832 843 855 
f 851 832 855 
f 843 851 855 
f 841 832 856 
f 845 841 856 
f 854 845 856 
f 832 854 856 
f 850 857 858 
f 837 850 858 
f 839 852 858 
f 852 837 858 
f 857 839 858 
f 835 844 859 
f 846 835 859 
f 844 846 859 
f 839 830 860 
f 852 839 860 
f 842 852 860 
f 847 829 861 
f 850 847 861 
f 829 857 861 
f 857 850 861 
f 845 831 862 
f 831 849 862 
f 849 845 862 
f 829 847 863 
f 847 848 863 
f 857 829 863 
f 848 857 863 
f 848 839 864 
f 839 857 864 
f 857 848 864 
f 830 842 865 
f 860 830 865 
o convex_24
v -0.020684 0.029661 0.006181
v -0.000258 0.037088 0.035888
v -0.011399 0.037088 0.035888
v -0.020684 0.029661 0.035888
v -0.000258 0.033374 0.006181
v -0.011399 0.037088 0.006181
v -0.000258 0.033374 0.035888
v -0.020684 0.033374 0.035888
v -0.000258 0.037088 0.006181
v -0.020684 0.033374 0.006181
v -0.016967 0.029661 0.035888
v -0.016967 0.029661 0.006181
v -0.013254 0.037088 0.021033
v -0.016967 0.035231 0.035888
v -0.016967 0.035231 0.006181
v -0.013254 0.037088 0.022888
f 873 879 881 
f 867 868 869 
f 868 867 871 
f 870 866 871 
f 867 869 872 
f 870 867 872 
f 869 868 873 
f 866 869 873 
f 867 870 874 
f 871 867 874 
f 870 871 874 
f 871 866 875 
f 866 873 875 
f 869 866 876 
f 872 869 876 
f 870 872 876 
f 866 870 877 
f 876 866 877 
f 870 876 877 
f 868 871 878 
f 875 873 878 
f 873 868 879 
f 871 875 880 
f 878 871 880 
f 875 878 880 
f 868 878 881 
f 878 873 881 
f 879 868 881 
