o convex_0
v 0.052259 -0.009307 0.001094
v 0.087747 0.009616 0.004246
v 0.087747 0.009616 0.001883
v -0.036820 0.004883 -0.002058
v 0.077498 -0.002998 -0.005214
v 0.087747 -0.003787 0.009767
v -0.036820 -0.003787 -0.002058
v 0.008136 0.004096 -0.006791
v 0.006560 0.004096 0.005034
v 0.087747 -0.008518 -0.002058
v -0.002908 -0.004576 -0.006001
v 0.006560 -0.006152 0.004246
v 0.088541 0.004883 -0.004424
v 0.085377 0.004096 0.009767
v 0.086953 -0.009307 0.005823
v 0.006560 0.007251 -0.004423
v 0.094063 0.001731 0.005034
v -0.006841 0.007251 0.001094
v 0.007342 -0.007729 -0.003635
v 0.077498 0.008038 0.007399
v -0.005265 -0.002209 0.004246
v -0.036820 0.004883 -0.003635
v 0.086171 0.008827 -0.002058
v 0.007342 -0.007729 0.001880
v 0.007342 -0.003787 -0.006791
v 0.023894 -0.001422 0.006611
v 0.093269 -0.002998 -0.002058
v 0.083020 -0.006152 -0.004424
v -0.036820 -0.003787 -0.003635
v -0.006059 -0.000633 -0.006791
v 0.066454 0.009616 0.000308
v 0.083020 -0.006152 0.008977
v 0.027827 0.002518 -0.006791
v -0.033655 0.003307 -0.000481
v 0.093269 0.004883 -0.000481
v 0.092475 -0.005363 0.005823
v 0.088541 -0.009307 -0.000481
v 0.091693 0.004096 0.008188
v 0.071195 0.009616 0.004246
v 0.086953 0.007251 -0.003635
v 0.078292 -0.008518 -0.002846
v -0.005265 0.007251 -0.003635
v 0.090117 -0.002998 -0.004424
v -0.036820 -0.002998 -0.001271
v 0.053835 -0.009307 -0.001271
v 0.001820 -0.007729 -0.001271
v 0.075922 -0.008518 0.006611
v 0.006560 -0.004576 0.005034
v 0.006560 0.005672 0.004246
v 0.027827 -0.002209 -0.006791
v 0.087747 0.008827 0.006611
v 0.078292 0.007251 0.008188
v -0.006059 0.004883 -0.006001
v 0.084595 -0.003787 0.009767
v 0.023894 0.001731 0.006611
v 0.011288 0.008038 0.000308
v 0.014439 -0.006152 -0.005212
v 0.091693 0.007251 0.003457
v 0.063303 -0.009307 0.004246
v 0.059370 0.008827 0.005034
v 0.091693 -0.003787 0.008188
v -0.005265 0.002518 -0.006791
v 0.086953 0.009616 -0.000481
v -0.005265 0.000155 0.004246
f 21 55 64 
f 7 4 22 
f 4 18 22 
f 12 7 24 
f 11 19 29 
f 7 22 29 
f 8 25 30 
f 25 11 30 
f 11 29 30 
f 29 22 30 
f 2 3 31 
f 15 6 32 
f 8 13 33 
f 13 5 33 
f 25 8 33 
f 18 4 34 
f 27 13 35 
f 17 27 35 
f 27 17 36 
f 27 36 37 
f 15 1 37 
f 10 27 37 
f 36 15 37 
f 14 6 38 
f 2 31 39 
f 13 8 40 
f 8 16 40 
f 16 23 40 
f 35 13 40 
f 28 10 41 
f 10 37 41 
f 22 18 42 
f 31 16 42 
f 5 13 43 
f 27 10 43 
f 13 27 43 
f 28 5 43 
f 10 28 43 
f 4 7 44 
f 7 12 44 
f 34 4 44 
f 21 34 44 
f 37 1 45 
f 19 41 45 
f 41 37 45 
f 24 7 46 
f 1 24 46 
f 7 29 46 
f 29 19 46 
f 45 1 46 
f 19 45 46 
f 12 24 47 
f 15 32 47 
f 32 12 47 
f 26 21 48 
f 12 32 48 
f 44 12 48 
f 21 44 48 
f 18 34 49 
f 34 9 49 
f 5 28 50 
f 28 25 50 
f 33 5 50 
f 25 33 50 
f 14 38 51 
f 2 39 51 
f 9 14 52 
f 49 9 52 
f 20 49 52 
f 14 51 52 
f 51 20 52 
f 16 8 53 
f 42 16 53 
f 22 42 53 
f 6 14 54 
f 32 6 54 
f 26 48 54 
f 48 32 54 
f 14 9 55 
f 21 26 55 
f 54 14 55 
f 26 54 55 
f 18 39 56 
f 39 31 56 
f 42 18 56 
f 31 42 56 
f 19 11 57 
f 11 25 57 
f 25 28 57 
f 41 19 57 
f 28 41 57 
f 3 2 58 
f 17 35 58 
f 38 17 58 
f 2 51 58 
f 51 38 58 
f 1 15 59 
f 24 1 59 
f 47 24 59 
f 15 47 59 
f 39 18 60 
f 49 20 60 
f 18 49 60 
f 20 51 60 
f 51 39 60 
f 6 15 61 
f 15 36 61 
f 36 17 61 
f 38 6 61 
f 17 38 61 
f 8 30 62 
f 30 22 62 
f 53 8 62 
f 22 53 62 
f 23 16 63 
f 31 3 63 
f 16 31 63 
f 40 23 63 
f 35 40 63 
f 3 58 63 
f 58 35 63 
f 9 34 64 
f 34 21 64 
f 55 9 64 
o convex_1
v -0.053380 0.018289 -0.004425
v -0.077817 -0.019553 0.001881
v -0.077817 -0.019553 0.003458
v -0.077817 0.021439 0.002670
v -0.059688 -0.003787 0.008189
v -0.053380 -0.016403 -0.004425
v -0.065989 0.001731 -0.007579
v -0.067566 0.004881 0.008978
v -0.077027 0.011191 -0.002847
v -0.053380 0.018289 -0.002057
v -0.053380 -0.017186 -0.002057
v -0.072298 -0.012460 -0.003636
v -0.064418 -0.010089 0.008189
v -0.062841 0.017497 -0.005211
v -0.077817 0.020652 0.004247
v -0.069932 -0.005363 0.008978
v -0.054169 0.002518 -0.006790
v -0.062054 0.005673 0.008189
v -0.077817 -0.001420 -0.002847
v -0.064418 -0.006150 -0.007579
v -0.062054 -0.020345 -0.002847
v -0.054959 0.000155 0.003458
v -0.061265 0.021439 -0.000480
v -0.062054 0.009616 -0.007579
v -0.069142 -0.020345 0.001881
v -0.066779 0.022231 -0.002057
v -0.077817 -0.018766 0.004247
v -0.077817 0.018289 -0.000480
v -0.058112 0.003306 0.006612
v -0.072298 -0.017978 -0.002057
v -0.053380 -0.009305 -0.006002
v -0.073085 -0.001420 -0.005211
v -0.077817 -0.012460 -0.001270
v -0.062054 -0.011668 0.006612
v -0.071508 0.021439 0.002670
v -0.054959 -0.018766 -0.002057
v -0.063631 -0.012460 -0.006002
v -0.070721 0.016709 -0.003636
v -0.053380 0.012766 -0.006002
v -0.058899 -0.006150 0.007401
v -0.062054 -0.003787 0.008978
v -0.071508 0.003306 0.008189
v -0.077027 -0.013248 0.005035
v -0.064418 0.007249 0.008189
v -0.074661 -0.020345 0.000307
v -0.068355 -0.007730 0.008978
v -0.055746 -0.005363 0.004247
v -0.072298 0.006457 -0.005211
v -0.062841 0.009616 0.006612
v -0.062841 -0.006150 -0.007579
v -0.060475 0.021439 -0.002847
v -0.077817 0.021439 0.001093
v -0.060475 0.009616 -0.007579
v -0.062054 0.001731 0.008978
v -0.065989 -0.013248 0.006612
v -0.077817 0.008032 -0.002847
v -0.065207 0.005673 -0.007579
v -0.064418 -0.020345 0.000307
v -0.054959 -0.018766 -0.003636
v -0.065989 0.022231 0.000307
v -0.053380 0.016709 -0.005211
v -0.071508 0.012766 -0.004425
v -0.059688 0.004881 0.007401
v -0.062841 -0.013248 0.005824
f 122 100 128 
f 66 67 68 
f 70 65 74 
f 70 74 75 
f 68 67 79 
f 66 68 83 
f 75 74 86 
f 84 71 88 
f 79 67 91 
f 67 89 91 
f 83 68 92 
f 86 74 93 
f 65 70 95 
f 84 76 96 
f 71 84 96 
f 66 83 97 
f 76 94 97 
f 83 96 97 
f 96 76 97 
f 68 79 99 
f 75 98 100 
f 76 84 101 
f 94 76 101 
f 85 94 101 
f 78 88 102 
f 90 78 102 
f 73 92 102 
f 65 95 103 
f 95 81 103 
f 93 69 104 
f 98 75 104 
f 77 98 104 
f 72 80 105 
f 104 69 105 
f 77 104 105 
f 72 79 106 
f 80 72 106 
f 79 91 107 
f 91 80 107 
f 106 79 107 
f 80 106 107 
f 79 72 108 
f 99 79 108 
f 67 66 109 
f 89 67 109 
f 85 89 109 
f 94 85 109 
f 66 97 109 
f 97 94 109 
f 91 77 110 
f 80 91 110 
f 105 80 110 
f 77 105 110 
f 75 86 111 
f 86 93 111 
f 104 75 111 
f 93 104 111 
f 71 96 112 
f 82 74 113 
f 74 87 113 
f 87 99 113 
f 108 82 113 
f 99 108 113 
f 84 88 114 
f 95 70 114 
f 81 95 114 
f 101 84 114 
f 70 101 114 
f 74 65 115 
f 65 78 115 
f 87 74 115 
f 78 90 115 
f 68 90 116 
f 92 68 116 
f 90 102 116 
f 102 92 116 
f 88 78 117 
f 103 81 117 
f 81 114 117 
f 114 88 117 
f 72 105 118 
f 105 69 118 
f 108 72 118 
f 82 108 118 
f 77 91 119 
f 91 89 119 
f 92 73 120 
f 83 92 120 
f 96 83 120 
f 112 96 120 
f 73 112 120 
f 88 71 121 
f 71 112 121 
f 89 85 122 
f 85 100 122 
f 70 75 123 
f 75 100 123 
f 100 85 123 
f 101 70 123 
f 85 101 123 
f 90 68 124 
f 68 99 124 
f 99 87 124 
f 87 115 124 
f 115 90 124 
f 78 65 125 
f 65 103 125 
f 117 78 125 
f 103 117 125 
f 73 102 126 
f 102 88 126 
f 112 73 126 
f 88 121 126 
f 121 112 126 
f 74 82 127 
f 69 93 127 
f 93 74 127 
f 118 69 127 
f 82 118 127 
f 98 77 128 
f 100 98 128 
f 77 119 128 
f 119 89 128 
f 89 122 128 
o convex_2
v -0.043129 0.009616 -0.005214
v -0.053374 -0.016403 -0.004425
v -0.051010 -0.016403 -0.004425
v -0.039187 0.003306 -0.001272
v -0.053374 0.018289 -0.002060
v -0.052586 0.005670 -0.006791
v -0.039187 -0.005363 -0.004425
v -0.053374 -0.016403 -0.002849
v -0.036820 -0.003784 -0.001272
v -0.036820 0.004882 -0.003638
v -0.053374 0.018289 -0.004425
v -0.047856 -0.014036 -0.005214
v -0.051010 0.000943 -0.006791
v -0.047068 0.015134 -0.002849
v -0.053374 -0.009306 -0.006002
v -0.036820 0.003306 -0.001272
v -0.047068 0.014346 -0.005214
v -0.040764 0.005670 -0.005214
v -0.039187 -0.003784 -0.001272
v -0.043129 -0.009306 -0.005214
v -0.047068 -0.014036 -0.002849
v -0.036820 -0.003784 -0.003638
v -0.053374 0.012767 -0.006002
v -0.053374 0.015922 -0.002060
v -0.036820 0.004882 -0.002060
v -0.053374 0.000943 -0.006791
v -0.049433 0.011192 -0.006002
v -0.047856 -0.014824 -0.004425
v -0.047068 0.015134 -0.004425
v -0.052586 0.018289 -0.002060
v -0.051010 -0.016403 -0.002849
v -0.051799 0.005670 -0.006791
v -0.050222 0.015922 -0.005214
v -0.040764 0.004091 -0.005214
v -0.051799 -0.009306 -0.006002
v -0.051010 0.017498 -0.004425
v -0.038398 0.003306 -0.004425
v -0.044705 0.011979 -0.005214
v -0.051799 0.012767 -0.006002
v -0.049433 -0.014036 -0.005214
v -0.051010 0.003306 -0.006791
v -0.039187 0.006461 -0.004425
v -0.047856 0.008825 -0.006002
v -0.043918 -0.010881 -0.004425
v -0.052586 0.018289 -0.004425
v -0.053374 0.015922 -0.005214
v -0.049433 -0.015612 -0.002849
v -0.038398 0.004882 -0.004425
v -0.053374 0.002515 -0.006791
v -0.051010 0.017498 -0.002849
f 164 158 178 
f 130 131 136 
f 133 130 136 
f 130 133 139 
f 131 130 140 
f 130 139 143 
f 133 132 144 
f 132 137 144 
f 137 138 144 
f 132 133 147 
f 137 132 147 
f 136 137 147 
f 138 137 150 
f 148 135 150 
f 137 149 150 
f 143 139 151 
f 133 136 152 
f 147 133 152 
f 136 147 152 
f 138 142 153 
f 144 138 153 
f 134 141 154 
f 141 143 154 
f 143 151 154 
f 131 140 156 
f 140 148 156 
f 150 149 156 
f 142 138 157 
f 139 133 158 
f 133 144 158 
f 153 142 158 
f 144 153 158 
f 136 131 159 
f 137 136 159 
f 131 156 159 
f 141 134 160 
f 134 151 160 
f 141 146 162 
f 135 148 162 
f 148 141 162 
f 140 143 163 
f 143 141 163 
f 148 140 163 
f 141 148 163 
f 142 157 164 
f 157 145 164 
f 138 150 165 
f 150 135 165 
f 162 146 165 
f 135 162 165 
f 129 155 166 
f 155 145 166 
f 157 138 166 
f 145 157 166 
f 145 155 167 
f 160 151 167 
f 155 160 167 
f 161 145 167 
f 151 161 167 
f 140 130 168 
f 130 143 168 
f 143 140 168 
f 146 141 169 
f 141 160 169 
f 160 146 169 
f 146 129 170 
f 129 166 170 
f 166 138 170 
f 129 146 171 
f 155 129 171 
f 146 160 171 
f 160 155 171 
f 148 150 172 
f 156 148 172 
f 150 156 172 
f 139 158 173 
f 161 139 173 
f 145 161 173 
f 164 145 173 
f 158 164 173 
f 151 139 174 
f 139 161 174 
f 161 151 174 
f 149 137 175 
f 156 149 175 
f 137 159 175 
f 159 156 175 
f 138 165 176 
f 165 146 176 
f 146 170 176 
f 170 138 176 
f 151 134 177 
f 134 154 177 
f 154 151 177 
f 158 142 178 
f 142 164 178 
o convex_3
v -0.085704 -0.009304 0.001094
v -0.102261 -0.002212 0.012919
v -0.102261 -0.002212 0.014497
v -0.085704 0.000943 0.004248
v -0.085704 -0.016403 0.007401
v -0.095953 -0.005365 0.001883
v -0.095953 0.000943 0.001883
v -0.099895 0.000943 0.014497
v -0.092803 -0.014036 0.006615
v -0.089649 -0.001424 0.000305
v -0.099895 -0.007730 0.012130
v -0.090436 -0.010095 0.001094
v -0.101472 0.000943 0.008977
v -0.095162 -0.010095 0.012130
v -0.086493 -0.014036 0.008188
v -0.086493 -0.016403 0.005037
v -0.096741 -0.006944 0.003460
v -0.085704 0.000943 0.001883
v -0.099107 0.000153 0.014497
v -0.092803 -0.005365 0.000305
v -0.092803 -0.014036 0.008977
v -0.087282 0.000943 0.005826
v -0.092803 -0.010095 0.001883
v -0.099107 -0.004577 0.014497
v -0.099895 -0.000634 0.005826
v -0.102261 0.000943 0.014497
v -0.099895 -0.007730 0.011343
v -0.088070 -0.007730 0.000305
v -0.093590 0.000943 0.001094
v -0.098316 -0.008518 0.012919
v -0.095162 -0.009304 0.003460
v -0.101472 -0.001424 0.009766
v -0.101472 -0.004577 0.014497
v -0.086493 -0.015613 0.008188
v -0.088070 -0.003789 0.000305
v -0.096741 -0.010883 0.011343
v -0.085704 -0.016403 0.005037
v -0.086493 -0.010095 0.001094
v -0.092803 -0.001424 0.000305
v -0.087282 -0.016403 0.007401
v -0.098316 -0.003789 0.004248
v -0.094375 -0.012460 0.010555
v -0.095162 -0.003789 0.001094
v -0.097529 -0.010095 0.009766
v -0.088070 0.000943 0.001094
v -0.093590 -0.007730 0.001094
v -0.099895 0.000943 0.005826
v -0.091224 -0.007730 0.000305
v -0.097529 -0.007730 0.005826
v -0.094375 -0.008518 0.001883
v -0.085704 -0.014036 0.007401
v -0.085704 -0.006156 0.001094
v -0.092803 -0.010883 0.002671
v -0.097529 -0.006156 0.004248
v -0.102261 0.000153 0.012130
v -0.098316 -0.006944 0.013708
v -0.091224 -0.014826 0.006615
v -0.095162 -0.001424 0.001094
v -0.088858 -0.015613 0.008188
v -0.099895 -0.006944 0.010555
v -0.102261 -0.001424 0.012130
v -0.087282 -0.016403 0.005826
v -0.101472 -0.004577 0.012919
v -0.100683 -0.000634 0.007401
f 219 210 242 
f 179 182 183 
f 182 185 186 
f 186 185 191 
f 182 179 196 
f 185 182 196 
f 186 181 197 
f 182 186 200 
f 186 197 200 
f 197 193 200 
f 190 194 201 
f 197 181 202 
f 193 197 202 
f 185 184 203 
f 180 181 204 
f 181 186 204 
f 186 191 204 
f 198 188 206 
f 185 196 207 
f 181 180 211 
f 202 181 211 
f 205 189 211 
f 189 208 211 
f 183 193 212 
f 202 192 212 
f 193 202 212 
f 179 206 213 
f 206 188 213 
f 187 199 214 
f 189 205 214 
f 208 189 214 
f 179 183 215 
f 183 194 215 
f 194 190 215 
f 206 179 216 
f 190 206 216 
f 179 215 216 
f 215 190 216 
f 188 198 217 
f 185 207 217 
f 207 188 217 
f 194 183 218 
f 183 212 218 
f 184 195 219 
f 203 184 219 
f 192 208 220 
f 212 192 220 
f 214 199 220 
f 208 214 220 
f 184 185 221 
f 217 198 221 
f 209 187 222 
f 187 214 222 
f 214 205 222 
f 207 196 223 
f 188 207 223 
f 196 213 223 
f 213 188 223 
f 190 201 224 
f 184 221 224 
f 221 198 224 
f 191 185 225 
f 185 203 225 
f 203 191 225 
f 206 190 226 
f 198 206 226 
f 190 224 226 
f 224 198 226 
f 195 209 227 
f 209 222 227 
f 222 205 227 
f 195 184 228 
f 209 195 228 
f 184 224 228 
f 224 201 228 
f 183 182 229 
f 193 183 229 
f 182 200 229 
f 200 193 229 
f 196 179 230 
f 179 213 230 
f 213 196 230 
f 194 187 231 
f 201 194 231 
f 187 209 231 
f 228 201 231 
f 209 228 231 
f 219 195 232 
f 210 219 232 
f 195 227 232 
f 227 205 232 
f 180 204 233 
f 204 191 233 
f 192 202 234 
f 208 192 234 
f 202 211 234 
f 211 208 234 
f 199 187 235 
f 218 199 235 
f 185 217 236 
f 221 185 236 
f 217 221 236 
f 199 218 237 
f 218 212 237 
f 212 220 237 
f 220 199 237 
f 205 180 238 
f 232 205 238 
f 210 232 238 
f 191 210 239 
f 180 233 239 
f 233 191 239 
f 238 180 239 
f 210 238 239 
f 187 194 240 
f 194 218 240 
f 235 187 240 
f 218 235 240 
f 180 205 241 
f 211 180 241 
f 205 211 241 
f 191 203 242 
f 210 191 242 
f 203 219 242 
o convex_4
v -0.081761 -0.016402 0.001883
v -0.084915 -0.014823 0.007401
v -0.077819 -0.011669 0.004246
v -0.085704 0.000943 0.001094
v -0.077819 0.000943 -0.002060
v -0.084915 0.000943 0.004246
v -0.077819 -0.019557 0.001883
v -0.085704 -0.010880 0.001883
v -0.079398 -0.010880 -0.001271
v -0.085704 -0.017189 0.006612
v -0.077819 0.000943 0.000306
v -0.078608 -0.017980 0.005035
v -0.080186 -0.001423 -0.002060
v -0.085704 -0.016402 0.004246
v -0.085704 0.000943 0.004246
v -0.077819 -0.006154 -0.002060
v -0.081761 -0.010880 -0.000483
v -0.083337 -0.002211 -0.000483
v -0.077819 -0.019557 0.003459
v -0.078608 -0.019557 0.001883
v -0.085704 -0.016402 0.007401
v -0.081761 0.000943 -0.001271
v -0.083337 -0.017980 0.003459
v -0.077819 -0.010880 -0.001271
v -0.080973 -0.017980 0.005824
v -0.083337 0.000943 0.003459
v -0.084125 -0.017189 0.003459
v -0.084125 -0.017980 0.005035
v -0.085704 -0.002211 0.001094
v -0.077819 -0.018768 0.004246
v -0.085704 -0.014823 0.007401
v -0.080186 -0.016402 0.001094
v -0.078608 -0.019557 0.003459
v -0.085704 -0.017189 0.005035
v -0.078608 -0.006154 -0.002060
v -0.080186 0.000154 -0.002060
v -0.084915 -0.016402 0.007401
v -0.080186 -0.009307 -0.001271
v -0.078608 -0.017189 0.005035
v -0.083337 -0.017980 0.005824
v -0.084125 -0.017980 0.004246
v -0.083337 0.000154 -0.000483
v -0.079398 0.000943 -0.002060
v -0.081761 -0.002211 -0.001271
f 259 260 286 
f 244 245 248 
f 247 246 248 
f 247 245 249 
f 246 250 252 
f 245 247 253 
f 247 248 253 
f 252 250 256 
f 244 248 257 
f 248 246 257 
f 246 252 257 
f 247 249 258 
f 255 247 258 
f 259 250 260 
f 249 245 261 
f 251 249 262 
f 249 261 262 
f 257 252 263 
f 246 247 264 
f 249 251 266 
f 258 249 266 
f 251 258 266 
f 248 245 268 
f 245 253 268 
f 253 248 268 
f 256 250 269 
f 259 243 269 
f 250 259 269 
f 265 256 269 
f 243 265 269 
f 250 246 271 
f 246 260 271 
f 260 250 271 
f 245 254 272 
f 261 245 272 
f 254 267 272 
f 267 261 272 
f 244 257 273 
f 263 244 273 
f 257 263 273 
f 243 259 274 
f 259 251 274 
f 251 262 274 
f 265 243 274 
f 262 265 274 
f 262 261 275 
f 261 267 275 
f 270 262 275 
f 252 256 276 
f 270 252 276 
f 258 251 277 
f 255 258 277 
f 247 255 278 
f 255 260 278 
f 254 244 279 
f 244 263 279 
f 267 254 279 
f 263 267 279 
f 251 259 280 
f 259 255 280 
f 277 251 280 
f 255 277 280 
f 245 244 281 
f 254 245 281 
f 244 254 281 
f 263 252 282 
f 267 263 282 
f 252 270 282 
f 275 267 282 
f 270 275 282 
f 256 265 283 
f 265 262 283 
f 262 270 283 
f 276 256 283 
f 270 276 283 
f 260 246 284 
f 246 264 284 
f 278 260 284 
f 264 278 284 
f 264 247 285 
f 247 278 285 
f 278 264 285 
f 255 259 286 
f 260 255 286 
o convex_5
v -0.088069 0.002520 0.001882
v -0.102261 0.000943 0.012920
v -0.101471 0.000943 0.008976
v -0.088860 0.017500 0.005825
v -0.089649 0.000943 0.007402
v -0.088069 0.016711 0.008976
v -0.096741 0.000943 0.002671
v -0.099894 0.009616 0.011343
v -0.099894 0.000943 0.014497
v -0.097528 0.011980 0.012920
v -0.099105 0.004886 0.005825
v -0.092802 0.000943 0.001094
v -0.102261 0.005674 0.013709
v -0.088069 0.000943 0.005825
v -0.090436 0.013557 0.010555
v -0.095165 0.002520 0.001882
v -0.088069 0.015923 0.005036
v -0.096741 0.012770 0.009765
v -0.099894 0.006463 0.014497
v -0.102261 0.005674 0.012132
v -0.097528 0.003309 0.003459
v -0.092013 0.015923 0.009765
v -0.089649 0.000943 0.001094
v -0.099894 0.002520 0.005825
v -0.095951 0.011980 0.012920
v -0.102261 0.000943 0.014497
v -0.088069 0.014346 0.008976
v -0.092802 0.000943 0.009765
v -0.092802 0.001732 0.001094
v -0.092013 0.015923 0.007402
v -0.097528 0.004886 0.004248
v -0.089649 0.001732 0.001094
v -0.088860 0.015923 0.005036
v -0.097528 0.008042 0.013709
v -0.088069 0.017500 0.008189
v -0.090436 0.015133 0.010555
v -0.088069 0.000943 0.001882
v -0.101471 0.005674 0.014497
v -0.099894 0.000943 0.005825
v -0.099894 0.009616 0.012920
v -0.093590 0.015133 0.009765
v -0.094379 0.014346 0.011343
v -0.089649 0.016711 0.005825
v -0.094379 0.003309 0.001882
v -0.088860 0.017500 0.008189
v -0.088069 0.017500 0.005825
v -0.100682 0.008042 0.013709
v -0.096741 0.012770 0.012132
v -0.102261 0.004097 0.014497
v -0.101471 0.001732 0.008976
v -0.100682 0.006463 0.014497
v -0.102261 0.003309 0.012132
v -0.096741 0.002520 0.002671
v -0.099894 0.004097 0.006615
v -0.091225 0.015923 0.006615
v -0.088069 0.004097 0.006615
v -0.092802 0.014346 0.011343
v -0.088069 0.012770 0.004248
v -0.099105 0.003309 0.005036
v -0.095165 0.000943 0.001882
v -0.097528 0.008828 0.013709
v -0.093590 0.015133 0.008976
v -0.100682 0.002520 0.007402
v -0.101471 0.006463 0.011343
f 306 294 350 
f 288 289 291 
f 291 289 293 
f 288 291 295 
f 291 293 298 
f 287 292 300 
f 291 298 300 
f 292 287 303 
f 297 294 304 
f 288 299 306 
f 299 294 306 
f 300 298 309 
f 296 305 311 
f 288 295 312 
f 299 288 312 
f 295 305 312 
f 300 292 313 
f 292 301 313 
f 313 301 314 
f 295 291 314 
f 301 295 314 
f 291 313 314 
f 298 302 315 
f 309 298 315 
f 297 304 316 
f 308 290 316 
f 307 297 317 
f 297 316 317 
f 287 309 318 
f 315 303 318 
f 309 315 318 
f 290 303 319 
f 303 315 319 
f 295 301 320 
f 305 295 320 
f 292 303 321 
f 301 292 322 
f 320 301 322 
f 287 300 323 
f 309 287 323 
f 300 309 323 
f 312 305 324 
f 293 289 325 
f 289 310 325 
f 310 293 325 
f 294 299 326 
f 304 294 326 
f 308 316 327 
f 296 311 328 
f 308 327 328 
f 316 290 329 
f 307 317 329 
f 290 319 329 
f 319 307 329 
f 315 302 330 
f 302 319 330 
f 319 315 330 
f 290 308 331 
f 321 290 331 
f 308 328 331 
f 328 321 331 
f 303 290 332 
f 290 321 332 
f 321 303 332 
f 299 324 333 
f 326 299 333 
f 296 326 333 
f 326 296 334 
f 304 326 334 
f 327 304 334 
f 296 328 334 
f 328 327 334 
f 299 312 335 
f 324 299 335 
f 312 324 335 
f 289 306 336 
f 310 289 336 
f 305 296 337 
f 324 305 337 
f 296 333 337 
f 333 324 337 
f 289 288 338 
f 306 289 338 
f 288 306 338 
f 302 293 339 
f 293 310 339 
f 310 307 339 
f 307 319 339 
f 319 302 339 
f 306 297 340 
f 310 306 340 
f 297 310 340 
f 317 316 341 
f 316 329 341 
f 329 317 341 
f 291 300 342 
f 313 291 342 
f 300 313 342 
f 292 321 343 
f 322 292 343 
f 311 322 343 
f 328 311 343 
f 321 328 343 
f 303 287 344 
f 287 318 344 
f 318 303 344 
f 297 307 345 
f 310 297 345 
f 307 310 345 
f 298 293 346 
f 293 302 346 
f 302 298 346 
f 311 305 347 
f 305 320 347 
f 322 311 347 
f 320 322 347 
f 316 304 348 
f 304 327 348 
f 327 316 348 
f 306 310 349 
f 336 306 349 
f 310 336 349 
f 294 297 350 
f 297 306 350 
o convex_6
v -0.077819 0.016709 -0.000483
v -0.088069 0.000943 0.001883
v -0.088069 0.000943 0.005823
v -0.088069 0.017500 0.005035
v -0.077819 0.019865 0.005035
v -0.077819 0.000943 0.000307
v -0.088069 0.017500 0.008190
v -0.079396 0.008041 -0.002060
v -0.081762 0.013556 -0.000483
v -0.078609 0.020654 0.001094
v -0.077819 0.000943 -0.002060
v -0.077819 0.006463 0.002673
v -0.085703 0.015921 0.008190
v -0.087279 0.018289 0.004246
v -0.087279 0.000943 0.005823
v -0.080185 0.020654 0.004246
v -0.081762 0.000943 -0.001271
v -0.077819 0.011192 -0.002060
v -0.079396 0.018289 0.005823
v -0.077819 0.001732 0.001094
v -0.079396 0.019865 0.005823
v -0.085703 0.019076 0.006613
v -0.088069 0.014345 0.008190
v -0.088069 0.001732 0.001883
v -0.077819 0.020654 0.001094
v -0.083336 0.019865 0.003457
v -0.086492 0.008829 0.001883
v -0.085703 0.017500 0.008190
v -0.079396 0.000943 -0.002060
v -0.084126 0.016709 0.001883
v -0.078609 0.016709 -0.000483
v -0.078609 0.011192 -0.002060
v -0.077819 0.020654 0.004246
v -0.077819 0.018289 0.005035
v -0.080975 0.008829 -0.001271
v -0.088069 0.015134 0.004246
v -0.087279 0.014345 0.008190
v -0.081762 0.001732 -0.001271
v -0.087279 0.018289 0.007401
v -0.082552 0.019865 0.005823
v -0.080185 0.020654 0.002673
v -0.085703 0.019076 0.004246
v -0.080185 0.019076 0.001094
v -0.083336 0.019865 0.005035
v -0.082552 0.019865 0.002673
f 364 376 395 
f 352 353 354 
f 353 352 356 
f 351 355 356 
f 354 353 357 
f 356 352 361 
f 351 356 361 
f 356 355 362 
f 354 357 364 
f 353 356 365 
f 361 352 367 
f 351 361 368 
f 361 358 368 
f 365 362 369 
f 363 365 369 
f 356 362 370 
f 365 356 370 
f 362 365 370 
f 369 355 371 
f 363 369 371 
f 357 353 373 
f 363 357 373 
f 353 365 373 
f 352 354 374 
f 367 352 374 
f 355 351 375 
f 351 360 375 
f 360 366 375 
f 364 359 377 
f 359 374 377 
f 357 363 378 
f 363 371 378 
f 358 361 379 
f 367 358 379 
f 361 367 379 
f 359 364 380 
f 360 351 381 
f 359 360 381 
f 351 368 381 
f 381 368 382 
f 358 359 382 
f 368 358 382 
f 359 381 382 
f 371 355 383 
f 366 371 383 
f 355 375 383 
f 375 366 383 
f 362 355 384 
f 355 369 384 
f 369 362 384 
f 359 358 385 
f 374 359 385 
f 354 364 386 
f 374 354 386 
f 364 377 386 
f 377 374 386 
f 365 363 387 
f 363 373 387 
f 373 365 387 
f 358 367 388 
f 367 374 388 
f 385 358 388 
f 374 385 388 
f 364 357 389 
f 372 364 389 
f 357 378 389 
f 378 371 389 
f 371 366 390 
f 366 372 390 
f 372 389 390 
f 389 371 390 
f 366 360 391 
f 360 376 391 
f 376 366 391 
f 364 372 392 
f 376 364 392 
f 372 376 392 
f 360 359 393 
f 364 360 393 
f 359 380 393 
f 380 364 393 
f 372 366 394 
f 366 376 394 
f 376 372 394 
f 360 364 395 
f 376 360 395 
