o convex_0
v -0.068114 0.107259 0.013553
v 0.003529 0.132725 0.013553
v 0.003529 0.132725 0.008779
v 0.003529 0.097709 0.002411
v -0.061740 0.112034 0.008779
v -0.068114 0.099299 0.015146
v -0.077668 0.097709 0.008779
v 0.001931 0.126356 0.015146
v -0.023542 0.099299 0.002411
v -0.033096 0.126356 0.013553
v 0.003529 0.099299 0.005596
v -0.031506 0.126356 0.008779
v -0.031506 0.124765 0.015146
v 0.000341 0.104074 0.002411
v -0.061740 0.097709 0.013553
v -0.004435 0.132725 0.008779
v -0.007622 0.132725 0.013553
v -0.077668 0.097709 0.013553
v 0.003529 0.131131 0.015146
v -0.072883 0.104074 0.008779
v -0.050597 0.118396 0.013553
v -0.061740 0.108849 0.015146
v -0.023542 0.097709 0.002411
v -0.023542 0.129540 0.010370
v -0.037856 0.124765 0.010370
v -0.002846 0.097709 0.005596
v -0.018765 0.100890 0.002411
v -0.077668 0.099299 0.013553
v -0.039446 0.123171 0.008779
v 0.003529 0.104074 0.002411
v -0.020355 0.129540 0.008779
v -0.013989 0.129540 0.015146
v -0.023542 0.129540 0.013553
v -0.061740 0.112034 0.013553
v -0.077668 0.099299 0.008779
v -0.009212 0.132725 0.010370
v -0.049007 0.116806 0.015146
v -0.056963 0.115215 0.010370
v -0.069696 0.102484 0.015146
v 0.003529 0.127946 0.015146
v -0.041044 0.123171 0.013553
v -0.010802 0.102484 0.002411
v -0.072883 0.104074 0.011962
v -0.066509 0.108849 0.008779
v -0.006025 0.131131 0.015146
v 0.003529 0.097709 0.004005
v -0.039446 0.121581 0.015146
f 41 37 47 
f 3 2 4 
f 4 2 11 
f 8 6 11 
f 6 8 13 
f 4 9 14 
f 7 4 15 
f 11 6 15 
f 2 3 16 
f 3 14 16 
f 2 16 17 
f 7 15 18 
f 15 6 18 
f 11 2 19 
f 13 8 19 
f 2 17 19 
f 6 13 22 
f 4 7 23 
f 9 4 23 
f 7 9 23 
f 10 24 25 
f 24 12 25 
f 15 4 26 
f 11 15 26 
f 9 12 27 
f 14 9 27 
f 7 18 28 
f 9 5 29 
f 12 9 29 
f 5 25 29 
f 25 12 29 
f 3 4 30 
f 14 3 30 
f 4 14 30 
f 12 24 31 
f 27 12 31 
f 13 19 32 
f 10 13 33 
f 24 10 33 
f 13 32 33 
f 32 17 33 
f 1 22 34 
f 9 7 35 
f 20 9 35 
f 7 28 35 
f 28 20 35 
f 17 16 36 
f 31 24 36 
f 16 31 36 
f 24 33 36 
f 33 17 36 
f 22 13 37 
f 21 34 37 
f 34 22 37 
f 25 5 38 
f 21 25 38 
f 5 34 38 
f 34 21 38 
f 18 6 39 
f 6 22 39 
f 22 1 39 
f 28 18 39 
f 1 28 39 
f 8 11 40 
f 11 19 40 
f 19 8 40 
f 13 10 41 
f 25 21 41 
f 10 25 41 
f 21 37 41 
f 16 14 42 
f 14 27 42 
f 31 16 42 
f 27 31 42 
f 28 1 43 
f 20 28 43 
f 1 34 43 
f 43 34 44 
f 5 9 44 
f 9 20 44 
f 34 5 44 
f 20 43 44 
f 19 17 45 
f 17 32 45 
f 32 19 45 
f 4 11 46 
f 26 4 46 
f 11 26 46 
f 37 13 47 
f 13 41 47 
o convex_1
v -0.015583 -0.074241 -0.013509
v -0.077668 -0.004198 -0.008734
v -0.077668 -0.004198 -0.007142
v 0.011489 0.010137 -0.008734
v 0.011489 -0.086980 -0.007142
v -0.069691 0.010137 -0.013509
v 0.011489 -0.059906 -0.013509
v -0.058555 -0.053546 -0.008734
v 0.005118 0.010137 -0.011917
v -0.072885 0.010137 -0.007142
v -0.058555 -0.039210 -0.013509
v -0.037863 -0.072635 -0.007142
v -0.041049 0.010137 -0.013509
v 0.011489 -0.077416 -0.013509
v -0.029921 -0.072635 -0.011917
v -0.006026 -0.085383 -0.008734
v -0.071297 -0.031272 -0.007142
v -0.071297 -0.018524 -0.011917
v 0.011489 0.000583 -0.011917
v -0.047411 -0.059906 -0.011917
v -0.069691 -0.031272 -0.010326
v -0.001253 -0.082198 -0.011917
v 0.011489 -0.082198 -0.007142
v -0.041049 -0.059906 -0.013509
v -0.077668 0.008540 -0.008734
v -0.037863 -0.072635 -0.008734
v -0.069691 -0.005786 -0.013509
v 0.011489 -0.085383 -0.010326
v -0.058555 -0.053546 -0.007142
v -0.021945 -0.080611 -0.007142
v -0.021945 -0.079013 -0.010326
v -0.063329 -0.039210 -0.011917
v -0.074482 -0.021709 -0.008734
v -0.076071 -0.002601 -0.010326
v -0.064926 -0.026491 -0.013509
v -0.064926 -0.043982 -0.008734
v -0.056967 -0.053546 -0.010326
v -0.044234 -0.067872 -0.008734
v -0.076071 0.010137 -0.007142
v -0.009212 -0.080611 -0.011917
v 0.003521 -0.086980 -0.007142
v 0.011489 0.010137 -0.010326
v 0.003521 -0.086980 -0.008734
v -0.021945 -0.080611 -0.008734
v -0.072885 -0.012155 -0.011917
v -0.002841 -0.077416 -0.013509
v -0.056967 -0.048764 -0.011917
v -0.039443 -0.069460 -0.010326
v -0.026736 -0.069460 -0.013509
v -0.049008 -0.051949 -0.013509
v 0.006706 0.008540 -0.011917
v -0.071297 -0.031272 -0.008734
v -0.076071 0.008540 -0.010326
v -0.023551 -0.075819 -0.011917
v -0.076071 -0.015340 -0.007142
v -0.066523 -0.032860 -0.011917
v -0.074482 -0.015340 -0.010326
v -0.006026 -0.083795 -0.010326
v -0.068112 -0.016937 -0.013509
v -0.063329 -0.043982 -0.010326
v -0.012397 -0.083795 -0.007142
v -0.044234 -0.067872 -0.007142
v -0.047411 -0.063090 -0.010326
v -0.077668 0.008540 -0.007142
f 86 72 111 
f 51 52 54 
f 48 53 54 
f 53 51 56 
f 50 52 57 
f 51 53 57 
f 53 48 58 
f 52 50 59 
f 54 53 60 
f 53 56 60 
f 48 54 61 
f 54 52 61 
f 59 50 64 
f 51 54 66 
f 52 51 70 
f 51 57 70 
f 57 52 70 
f 58 48 71 
f 62 67 71 
f 49 50 72 
f 53 58 74 
f 61 52 75 
f 69 61 75 
f 59 64 76 
f 52 59 77 
f 59 73 77 
f 73 62 78 
f 49 72 81 
f 74 58 82 
f 55 76 83 
f 76 64 83 
f 55 83 84 
f 73 59 85 
f 76 55 85 
f 55 84 85 
f 50 57 86 
f 57 53 86 
f 53 72 86 
f 52 77 88 
f 56 51 89 
f 51 66 89 
f 75 52 90 
f 69 75 90 
f 52 88 90 
f 88 63 90 
f 77 73 91 
f 73 78 91 
f 53 74 92 
f 48 61 93 
f 61 69 93 
f 87 48 93 
f 69 87 93 
f 79 58 94 
f 84 79 94 
f 67 84 94 
f 67 62 95 
f 62 73 95 
f 73 85 95 
f 71 48 96 
f 62 71 96 
f 58 71 97 
f 71 67 97 
f 94 58 97 
f 67 94 97 
f 54 60 98 
f 60 56 98 
f 66 54 98 
f 56 89 98 
f 89 66 98 
f 64 80 99 
f 80 68 99 
f 83 64 99 
f 72 53 100 
f 81 72 100 
f 53 92 100 
f 92 81 100 
f 78 62 101 
f 48 87 101 
f 87 78 101 
f 96 48 101 
f 62 96 101 
f 50 49 102 
f 64 50 102 
f 49 80 102 
f 80 64 102 
f 68 65 103 
f 58 79 103 
f 82 58 103 
f 65 68 104 
f 80 49 104 
f 68 80 104 
f 49 81 104 
f 92 65 104 
f 81 92 104 
f 87 69 105 
f 78 87 105 
f 90 63 105 
f 69 90 105 
f 63 91 105 
f 91 78 105 
f 74 82 106 
f 92 74 106 
f 65 92 106 
f 103 65 106 
f 82 103 106 
f 79 84 107 
f 84 83 107 
f 99 68 107 
f 83 99 107 
f 68 103 107 
f 103 79 107 
f 63 88 108 
f 88 77 108 
f 91 63 108 
f 77 91 108 
f 59 76 109 
f 85 59 109 
f 76 85 109 
f 84 67 110 
f 85 84 110 
f 67 95 110 
f 95 85 110 
f 72 50 111 
f 50 86 111 
o convex_2
v -0.052187 0.054702 -0.013509
v 0.011489 0.091334 -0.007142
v 0.011489 0.086549 -0.007142
v -0.076076 0.010137 -0.007142
v 0.005120 0.010137 -0.011917
v 0.009895 0.078593 -0.013509
v -0.069699 0.010137 -0.013509
v 0.011489 0.010137 -0.008734
v -0.039442 0.077004 -0.007142
v -0.013985 0.084959 -0.011917
v -0.071284 0.037208 -0.008734
v -0.041036 0.010137 -0.013509
v -0.058556 0.059486 -0.007142
v -0.034676 0.070629 -0.013509
v 0.011489 0.088147 -0.011917
v -0.017182 0.088147 -0.008734
v -0.041036 0.073816 -0.010326
v -0.063339 0.045172 -0.011917
v 0.011489 0.010137 -0.010326
v -0.074481 0.021288 -0.010326
v -0.007617 0.081780 -0.013509
v -0.058556 0.059486 -0.008734
v -0.074481 0.027655 -0.007142
v -0.002842 0.091334 -0.007142
v -0.063339 0.037208 -0.013509
v -0.072887 0.010137 -0.007142
v -0.050602 0.062665 -0.011917
v -0.002842 0.091334 -0.008734
v -0.069699 0.030842 -0.011917
v -0.034676 0.075406 -0.011917
v -0.034676 0.080175 -0.008734
v -0.045810 0.072227 -0.008734
v -0.025145 0.084959 -0.007142
v 0.009895 0.077004 -0.013509
v -0.076076 0.010137 -0.008734
v -0.076076 0.021288 -0.008734
v -0.064924 0.049949 -0.007142
v -0.064924 0.049949 -0.008734
v -0.058556 0.053112 -0.011917
v 0.005120 0.088147 -0.011917
v 0.011489 0.051522 -0.011917
v -0.072887 0.016512 -0.011917
v -0.018768 0.078593 -0.013509
v -0.021948 0.081780 -0.011917
v 0.011489 0.091334 -0.008734
v 0.006706 0.081780 -0.013509
v -0.068113 0.021288 -0.013509
v -0.069699 0.037208 -0.010326
v -0.010805 0.088147 -0.010326
v -0.025145 0.084959 -0.008734
v -0.041036 0.065853 -0.013509
v -0.039442 0.072227 -0.011917
v -0.017182 0.088147 -0.007142
v -0.072887 0.010137 -0.011917
v -0.045810 0.072227 -0.007142
v -0.060150 0.054702 -0.010326
v -0.071284 0.037208 -0.007142
v -0.076076 0.021288 -0.007142
v -0.056962 0.048359 -0.013509
v -0.074481 0.027655 -0.008734
v -0.064924 0.046770 -0.010326
v -0.066519 0.038806 -0.011917
v -0.072887 0.027655 -0.010326
v -0.006031 0.086549 -0.011917
f 160 151 175 
f 114 113 115 
f 112 117 118 
f 116 115 118 
f 113 114 119 
f 115 116 119 
f 115 113 120 
f 118 117 123 
f 116 118 123 
f 115 120 124 
f 117 112 125 
f 113 119 126 
f 119 116 130 
f 126 119 130 
f 117 125 132 
f 115 124 134 
f 120 113 135 
f 112 118 136 
f 114 115 137 
f 119 114 137 
f 115 119 137 
f 135 113 139 
f 127 135 139 
f 141 128 142 
f 133 124 143 
f 128 138 143 
f 138 133 143 
f 120 142 143 
f 142 128 143 
f 120 135 144 
f 142 120 144 
f 116 123 145 
f 123 117 145 
f 117 126 145 
f 130 116 145 
f 118 115 146 
f 146 115 147 
f 131 146 147 
f 124 133 148 
f 134 124 148 
f 148 133 149 
f 122 148 149 
f 138 112 150 
f 126 132 151 
f 139 126 151 
f 126 130 152 
f 145 126 152 
f 130 145 152 
f 131 140 153 
f 146 131 153 
f 132 125 154 
f 121 132 154 
f 127 121 155 
f 125 141 155 
f 154 125 155 
f 121 154 155 
f 113 126 156 
f 139 113 156 
f 126 139 156 
f 126 117 157 
f 117 132 157 
f 132 126 157 
f 136 118 158 
f 140 136 158 
f 118 153 158 
f 153 140 158 
f 122 149 159 
f 121 127 160 
f 127 139 160 
f 139 151 160 
f 141 142 161 
f 144 127 161 
f 142 144 161 
f 127 155 161 
f 155 141 161 
f 125 112 162 
f 112 138 162 
f 138 128 163 
f 141 125 163 
f 128 141 163 
f 125 162 163 
f 162 138 163 
f 135 127 164 
f 144 135 164 
f 127 144 164 
f 118 146 165 
f 153 118 165 
f 146 153 165 
f 124 120 166 
f 120 143 166 
f 143 124 166 
f 133 138 167 
f 149 133 167 
f 150 129 167 
f 138 150 167 
f 122 134 168 
f 148 122 168 
f 134 148 168 
f 115 134 169 
f 147 115 169 
f 134 147 169 
f 112 136 170 
f 136 129 170 
f 150 112 170 
f 129 150 170 
f 134 122 171 
f 131 147 171 
f 147 134 171 
f 122 159 171 
f 159 149 172 
f 167 129 172 
f 149 167 172 
f 129 136 173 
f 136 140 173 
f 140 159 173 
f 172 129 173 
f 159 172 173 
f 140 131 174 
f 159 140 174 
f 131 171 174 
f 171 159 174 
f 132 121 175 
f 151 132 175 
f 121 160 175 
o convex_3
v 0.086311 -0.037632 -0.013509
v 0.011489 -0.086980 -0.008734
v 0.011489 -0.086980 -0.007142
v 0.011489 0.010137 -0.010326
v 0.102238 0.010137 -0.007142
v 0.011489 -0.077416 -0.013509
v 0.095869 0.010137 -0.013509
v 0.071982 -0.066265 -0.007142
v 0.011489 0.010137 -0.008734
v 0.052893 -0.074241 -0.011917
v 0.011489 0.000583 -0.011917
v 0.099049 -0.026491 -0.008734
v 0.070392 0.010137 -0.013509
v 0.038556 -0.083795 -0.008734
v 0.067203 -0.059906 -0.013509
v 0.087892 -0.048764 -0.007142
v 0.011489 -0.059906 -0.013509
v 0.099049 -0.008970 -0.011917
v 0.076761 -0.059906 -0.010326
v 0.029006 -0.077416 -0.013509
v 0.102238 -0.013752 -0.007142
v 0.048123 -0.080611 -0.007142
v 0.097459 0.010137 -0.007142
v 0.011489 -0.082198 -0.007142
v 0.091081 -0.040798 -0.010326
v 0.027416 -0.082198 -0.011917
v 0.060834 -0.074241 -0.008734
v 0.092680 -0.023297 -0.013509
v 0.102238 0.010137 -0.008734
v 0.070392 -0.063090 -0.011917
v 0.032186 0.010137 -0.011917
v 0.046524 -0.072635 -0.013509
v 0.102238 -0.013752 -0.008734
v 0.022637 -0.086980 -0.008734
v 0.083122 -0.048764 -0.011917
v 0.083122 -0.055133 -0.008734
v 0.099049 -0.021709 -0.010326
v 0.032186 -0.085383 -0.007142
v 0.013088 -0.079013 -0.013509
v 0.095869 -0.034448 -0.007142
v 0.048123 -0.079013 -0.010326
v 0.092680 -0.032860 -0.011917
v 0.011489 -0.085383 -0.010326
v 0.035375 -0.080611 -0.011917
v 0.071982 -0.066265 -0.008734
v 0.092680 -0.040798 -0.008734
v 0.079941 -0.047177 -0.013509
v 0.099049 0.010137 -0.011917
v 0.095869 -0.007383 -0.013509
v 0.060834 -0.072635 -0.010326
v 0.059235 -0.066265 -0.013509
v 0.048123 -0.080611 -0.008734
v 0.032186 -0.083795 -0.010326
v 0.097459 -0.018524 -0.011917
v 0.060834 -0.074241 -0.007142
v 0.022637 -0.085383 -0.010326
v 0.094270 -0.034448 -0.010326
v 0.089500 -0.039210 -0.011917
v 0.087892 -0.048764 -0.008734
v 0.083122 -0.055133 -0.007142
v 0.022637 -0.086980 -0.007142
v 0.084721 -0.050352 -0.010326
v 0.075171 -0.058318 -0.011917
v 0.099049 -0.026491 -0.007142
f 215 187 239 
f 177 178 179 
f 177 179 181 
f 179 180 182 
f 176 181 182 
f 180 178 183 
f 179 178 184 
f 180 179 184 
f 181 179 186 
f 179 182 188 
f 182 181 188 
f 181 176 190 
f 180 183 191 
f 181 186 192 
f 188 181 192 
f 186 188 192 
f 181 190 195 
f 180 191 196 
f 183 178 197 
f 178 180 198 
f 180 184 198 
f 198 184 199 
f 184 178 199 
f 178 198 199 
f 176 182 203 
f 182 180 204 
f 180 196 204 
f 186 179 206 
f 179 188 206 
f 188 186 206 
f 195 190 207 
f 196 187 208 
f 193 204 208 
f 204 196 208 
f 178 177 209 
f 208 187 212 
f 193 208 212 
f 197 178 213 
f 189 197 213 
f 209 189 213 
f 181 195 214 
f 195 201 214 
f 196 191 215 
f 176 203 217 
f 177 181 218 
f 209 177 218 
f 181 214 218 
f 201 195 219 
f 207 185 219 
f 195 207 219 
f 185 216 219 
f 183 202 220 
f 205 194 220 
f 211 183 220 
f 194 211 220 
f 215 191 221 
f 187 215 221 
f 190 176 222 
f 193 182 223 
f 182 204 223 
f 204 193 223 
f 182 193 224 
f 203 182 224 
f 185 205 225 
f 216 185 225 
f 202 216 225 
f 220 202 225 
f 205 220 225 
f 190 205 226 
f 205 185 226 
f 185 207 226 
f 207 190 226 
f 197 189 227 
f 202 197 227 
f 189 216 227 
f 216 202 227 
f 189 209 228 
f 216 189 228 
f 201 219 228 
f 219 216 228 
f 193 212 229 
f 217 203 229 
f 212 217 229 
f 224 193 229 
f 203 224 229 
f 183 197 230 
f 202 183 230 
f 197 202 230 
f 214 201 231 
f 209 218 231 
f 218 214 231 
f 228 209 231 
f 201 228 231 
f 212 187 232 
f 217 212 232 
f 187 221 232 
f 221 200 232 
f 176 217 233 
f 222 176 233 
f 210 222 233 
f 232 200 233 
f 217 232 233 
f 191 211 234 
f 200 221 234 
f 221 191 234 
f 191 183 235 
f 183 211 235 
f 211 191 235 
f 178 209 236 
f 213 178 236 
f 209 213 236 
f 211 194 237 
f 233 200 237 
f 210 233 237 
f 200 234 237 
f 234 211 237 
f 205 190 238 
f 194 205 238 
f 190 222 238 
f 222 210 238 
f 237 194 238 
f 210 237 238 
f 187 196 239 
f 196 215 239 
o convex_4
v 0.071988 0.118399 0.010372
v 0.030595 0.132728 0.013555
v 0.038542 0.129543 0.015147
v 0.003529 0.118399 0.008779
v 0.029007 0.132728 0.008779
v 0.057654 0.118399 0.015147
v 0.003529 0.131133 0.015147
v 0.003529 0.132728 0.008779
v 0.003529 0.118399 0.011963
v 0.067204 0.121584 0.008779
v 0.060837 0.124768 0.013555
v 0.003529 0.127949 0.015147
v 0.067204 0.119994 0.015147
v 0.046510 0.129543 0.010372
v 0.070387 0.118399 0.008779
v 0.003529 0.132728 0.013555
v 0.071988 0.119994 0.013555
v 0.046510 0.129543 0.013555
v 0.065615 0.123176 0.010372
v 0.071988 0.118399 0.013555
v 0.049693 0.127949 0.008779
v 0.056066 0.124768 0.015147
v 0.029007 0.131133 0.015147
v 0.040144 0.131133 0.010372
v 0.071988 0.119994 0.010372
v 0.067204 0.118399 0.015147
f 259 252 265 
f 243 240 245 
f 245 242 246 
f 244 243 247 
f 241 244 247 
f 243 246 247 
f 243 245 248 
f 246 243 248 
f 243 244 249 
f 245 246 251 
f 248 245 251 
f 246 248 251 
f 242 245 252 
f 240 243 254 
f 243 249 254 
f 246 241 255 
f 241 247 255 
f 247 246 255 
f 241 242 257 
f 253 257 258 
f 250 256 258 
f 257 250 258 
f 245 240 259 
f 240 256 259 
f 256 252 259 
f 249 244 260 
f 253 258 260 
f 258 249 260 
f 242 252 261 
f 256 250 261 
f 252 256 261 
f 257 242 261 
f 250 257 261 
f 242 241 262 
f 246 242 262 
f 241 246 262 
f 244 241 263 
f 241 257 263 
f 257 253 263 
f 260 244 263 
f 253 260 263 
f 240 254 264 
f 254 249 264 
f 256 240 264 
f 249 258 264 
f 258 256 264 
f 252 245 265 
f 245 259 265 
o convex_5
v 0.084719 0.054707 -0.008734
v 0.025819 0.089734 -0.008734
v 0.025819 0.089734 -0.010326
v 0.011489 0.010145 -0.008734
v 0.094275 0.010145 -0.013510
v 0.052899 0.069034 -0.013510
v 0.100646 0.010145 -0.008734
v 0.011489 0.053118 -0.011917
v 0.033778 0.010145 -0.011917
v 0.011489 0.088137 -0.011917
v 0.084719 0.043575 -0.013510
v 0.065615 0.073810 -0.010326
v 0.011489 0.089734 -0.008734
v 0.070380 0.010145 -0.013510
v 0.099049 0.024472 -0.010326
v 0.011489 0.010145 -0.010326
v 0.046529 0.081772 -0.011917
v 0.044923 0.084958 -0.008734
v 0.065615 0.064259 -0.013510
v 0.083130 0.053118 -0.011917
v 0.094275 0.038799 -0.008734
v 0.094275 0.032434 -0.011917
v 0.073574 0.067445 -0.008734
v 0.099049 0.014921 -0.011917
v 0.091089 0.045172 -0.010326
v 0.079945 0.061080 -0.010326
v 0.091089 0.030845 -0.013510
v 0.065615 0.070631 -0.011917
v 0.030601 0.086548 -0.011917
v 0.044923 0.084958 -0.010326
v 0.052899 0.064259 -0.013510
v 0.100646 0.018107 -0.008734
v 0.060841 0.076996 -0.008734
v 0.089501 0.043575 -0.011917
v 0.100646 0.010145 -0.010326
v 0.056067 0.076996 -0.011917
v 0.094275 0.038799 -0.010326
v 0.060841 0.076996 -0.010326
v 0.100646 0.018107 -0.010326
v 0.094275 0.018107 -0.013510
v 0.019457 0.088137 -0.011917
v 0.040149 0.086548 -0.010326
v 0.079945 0.049940 -0.013510
v 0.011489 0.089734 -0.010326
v 0.073574 0.067445 -0.010326
v 0.054479 0.069034 -0.013510
v 0.099049 0.010145 -0.011917
v 0.091089 0.045172 -0.008734
v 0.079945 0.061080 -0.008734
v 0.095863 0.027658 -0.011917
v 0.033778 0.088137 -0.008734
v 0.084719 0.054707 -0.010326
v 0.099049 0.024472 -0.008734
f 297 280 318 
f 266 267 269 
f 266 269 272 
f 269 270 272 
f 270 269 274 
f 273 269 275 
f 271 273 275 
f 270 271 276 
f 267 268 278 
f 269 267 278 
f 275 269 278 
f 271 270 279 
f 274 273 279 
f 270 274 279 
f 269 273 281 
f 273 274 281 
f 274 269 281 
f 267 266 283 
f 276 271 284 
f 266 272 286 
f 283 266 288 
f 270 276 292 
f 291 285 293 
f 273 271 296 
f 271 279 296 
f 279 273 296 
f 286 272 297 
f 288 277 298 
f 283 288 298 
f 295 283 298 
f 276 285 299 
f 285 290 299 
f 292 276 299 
f 287 292 299 
f 272 270 300 
f 297 272 300 
f 284 282 301 
f 293 284 301 
f 286 280 302 
f 280 287 302 
f 290 286 302 
f 299 290 302 
f 287 299 302 
f 277 293 303 
f 282 295 303 
f 298 277 303 
f 295 298 303 
f 301 282 303 
f 293 301 303 
f 280 297 304 
f 300 289 304 
f 297 300 304 
f 289 270 305 
f 270 292 305 
f 292 289 305 
f 275 268 306 
f 271 275 306 
f 268 294 306 
f 294 268 307 
f 282 294 307 
f 295 282 307 
f 283 295 307 
f 276 284 308 
f 285 276 308 
f 284 293 308 
f 293 285 308 
f 268 275 309 
f 278 268 309 
f 275 278 309 
f 277 288 310 
f 288 291 310 
f 293 277 310 
f 291 293 310 
f 284 271 311 
f 282 284 311 
f 294 282 311 
f 271 306 311 
f 306 294 311 
f 270 289 312 
f 300 270 312 
f 289 300 312 
f 266 286 313 
f 290 266 313 
f 286 290 313 
f 288 266 314 
f 291 288 314 
f 266 291 314 
f 287 280 315 
f 292 287 315 
f 289 292 315 
f 280 304 315 
f 304 289 315 
f 268 267 316 
f 267 283 316 
f 307 268 316 
f 283 307 316 
f 266 290 317 
f 290 285 317 
f 285 291 317 
f 291 266 317 
f 280 286 318 
f 286 297 318 
o convex_6
v 0.003529 0.097702 0.002412
v 0.057659 0.118399 0.013555
v 0.057659 0.118399 0.010370
v 0.057659 0.097702 0.004004
v 0.003529 0.118399 0.007188
v 0.003529 0.099294 0.005596
v 0.057659 0.099294 0.008778
v 0.003529 0.113620 0.010370
v 0.032184 0.102481 0.002412
v 0.056065 0.113620 0.013555
v 0.048101 0.118399 0.008778
v 0.003529 0.104074 0.002412
v 0.003529 0.118399 0.010370
v 0.024230 0.118399 0.007188
v 0.043327 0.097702 0.007188
v 0.043327 0.099294 0.002412
v 0.052880 0.099294 0.008778
v 0.046511 0.118399 0.013555
v 0.057659 0.115214 0.008778
v 0.054475 0.100887 0.004004
v 0.017861 0.104074 0.002412
v 0.043327 0.097702 0.002412
v 0.003529 0.097702 0.004004
v 0.057659 0.097702 0.007188
v 0.048101 0.113620 0.007188
v 0.046511 0.116807 0.013555
v 0.033773 0.112028 0.005596
v 0.057659 0.113620 0.013555
v 0.057659 0.099294 0.004004
v 0.038553 0.100887 0.002412
v 0.021046 0.097702 0.005596
v 0.033773 0.116807 0.007188
f 345 332 350 
f 321 320 322 
f 320 321 323 
f 323 319 324 
f 322 320 325 
f 323 324 326 
f 323 321 329 
f 319 323 330 
f 327 319 330 
f 320 323 331 
f 323 326 331 
f 323 329 332 
f 330 323 332 
f 319 322 333 
f 319 327 334 
f 326 324 335 
f 325 328 335 
f 328 326 335 
f 324 333 335 
f 333 325 335 
f 328 320 336 
f 320 331 336 
f 331 326 336 
f 321 322 337 
f 329 321 337 
f 327 330 339 
f 332 327 339 
f 330 332 339 
f 322 319 340 
f 319 334 340 
f 334 322 340 
f 324 319 341 
f 319 333 341 
f 322 325 342 
f 333 322 342 
f 325 333 342 
f 329 337 343 
f 337 338 343 
f 326 328 344 
f 328 336 344 
f 336 326 344 
f 327 332 345 
f 343 327 345 
f 329 343 345 
f 325 320 346 
f 320 328 346 
f 328 325 346 
f 322 334 347 
f 337 322 347 
f 334 338 347 
f 338 337 347 
f 334 327 348 
f 338 334 348 
f 327 343 348 
f 343 338 348 
f 333 324 349 
f 324 341 349 
f 341 333 349 
f 332 329 350 
f 329 345 350 
o convex_7
v 0.057659 0.097702 0.008780
v 0.075175 0.118399 0.011963
v 0.078365 0.116807 0.011963
v 0.083130 0.105664 0.015147
v 0.100641 0.097702 0.008780
v 0.059257 0.104074 0.005595
v 0.060845 0.118399 0.015147
v 0.073587 0.118399 0.008780
v 0.100641 0.097702 0.013555
v 0.057659 0.118399 0.010371
v 0.057659 0.097702 0.005595
v 0.094270 0.105664 0.008780
v 0.081533 0.112028 0.015147
v 0.086311 0.097702 0.013555
v 0.099048 0.102481 0.011963
v 0.068808 0.099294 0.005595
v 0.057659 0.113620 0.013555
v 0.064035 0.118399 0.008780
v 0.070397 0.118399 0.015147
v 0.060845 0.116807 0.015147
v 0.094270 0.105664 0.013555
v 0.079949 0.115214 0.008780
v 0.102238 0.099294 0.010371
v 0.057659 0.104074 0.005595
v 0.079949 0.115214 0.013555
v 0.068808 0.097702 0.005595
v 0.100641 0.099294 0.013555
v 0.057659 0.118399 0.013555
v 0.100641 0.099294 0.008780
v 0.092682 0.107256 0.010371
v 0.084722 0.108845 0.015147
v 0.078365 0.116807 0.010371
v 0.092682 0.107256 0.011963
v 0.102238 0.097702 0.011963
v 0.102238 0.099294 0.011963
v 0.099048 0.102481 0.010371
f 380 365 386 
f 357 352 358 
f 351 355 359 
f 357 358 360 
f 355 351 361 
f 351 360 361 
f 357 354 363 
f 359 354 364 
f 351 359 364 
f 356 358 366 
f 361 356 366 
f 360 351 367 
f 358 356 368 
f 360 358 368 
f 352 357 369 
f 357 363 369 
f 354 357 370 
f 364 354 370 
f 351 364 370 
f 357 367 370 
f 367 351 370 
f 366 358 372 
f 362 366 372 
f 356 361 374 
f 361 360 374 
f 368 356 374 
f 360 368 374 
f 353 352 375 
f 352 369 375 
f 369 363 375 
f 371 353 375 
f 363 371 375 
f 355 361 376 
f 366 355 376 
f 361 366 376 
f 357 360 378 
f 367 357 378 
f 360 367 378 
f 355 366 379 
f 366 362 379 
f 373 355 379 
f 362 373 379 
f 354 359 381 
f 363 354 381 
f 371 363 381 
f 359 377 381 
f 377 371 381 
f 352 353 382 
f 358 352 382 
f 372 358 382 
f 362 372 382 
f 380 362 382 
f 353 380 382 
f 353 371 383 
f 371 365 383 
f 365 380 383 
f 380 353 383 
f 359 355 384 
f 355 373 384 
f 377 359 384 
f 377 384 385 
f 365 371 385 
f 373 365 385 
f 371 377 385 
f 384 373 385 
f 373 362 386 
f 365 373 386 
f 362 380 386 
o convex_8
v -0.017165 -0.091754 0.002411
v -0.020351 -0.075837 -0.005549
v -0.020351 -0.075837 -0.007142
v 0.011489 -0.083797 -0.007142
v 0.011489 -0.090161 0.002411
v 0.008302 -0.088570 -0.007142
v -0.025129 -0.082205 0.002411
v -0.025129 -0.080614 -0.007142
v -0.004433 -0.094938 0.000818
v 0.011489 -0.094938 0.002411
v -0.013982 -0.085388 -0.007142
v -0.025129 -0.088570 0.000818
v 0.011489 -0.086979 -0.000774
v -0.021942 -0.080614 0.000818
v -0.025129 -0.075837 -0.005549
v 0.011489 -0.094938 0.000818
v -0.012390 -0.093345 0.000818
v 0.011489 -0.083797 -0.005549
v 0.011489 -0.088570 -0.007142
v -0.004433 -0.094938 0.002411
v -0.025129 -0.088570 0.002411
v -0.006024 -0.086979 -0.007142
v -0.021942 -0.090161 0.000818
v -0.021942 -0.082205 0.002411
v -0.025129 -0.075837 -0.007142
v -0.025129 -0.079021 -0.000774
v -0.021942 -0.082205 -0.007142
v 0.009894 -0.085388 -0.002365
f 399 404 414 
f 389 388 390 
f 389 390 392 
f 387 391 393 
f 389 392 394 
f 391 387 396 
f 390 391 396 
f 394 392 397 
f 393 394 398 
f 391 390 399 
f 399 388 400 
f 391 399 400 
f 388 389 401 
f 394 393 401 
f 395 392 402 
f 390 396 402 
f 396 395 402 
f 397 395 403 
f 390 388 404 
f 399 390 404 
f 392 390 405 
f 390 402 405 
f 402 392 405 
f 396 387 406 
f 395 396 406 
f 387 403 406 
f 403 395 406 
f 387 393 407 
f 393 398 407 
f 392 395 408 
f 397 392 408 
f 395 397 408 
f 398 394 409 
f 403 387 409 
f 397 403 409 
f 387 407 409 
f 407 398 409 
f 393 391 410 
f 391 400 410 
f 389 394 411 
f 401 389 411 
f 394 401 411 
f 400 388 412 
f 388 401 412 
f 401 393 412 
f 393 410 412 
f 410 400 412 
f 394 397 413 
f 409 394 413 
f 397 409 413 
f 388 399 414 
f 404 388 414 
o convex_9
v -0.076076 0.049943 0.000818
v -0.042642 0.070632 -0.005549
v -0.042642 0.070632 -0.007142
v -0.061741 0.046758 -0.007142
v -0.068113 0.046758 0.002411
v -0.060151 0.070632 0.002411
v -0.060151 0.059491 -0.007142
v -0.050604 0.069040 0.002411
v -0.049014 0.070632 -0.007142
v -0.068113 0.062674 0.000818
v -0.066519 0.046758 -0.007142
v -0.042642 0.069040 -0.005549
v -0.076076 0.046758 0.002411
v -0.060151 0.048352 -0.005549
v -0.072891 0.056310 0.002411
v -0.060151 0.070632 0.000818
v -0.050604 0.070632 0.002411
v -0.063335 0.054718 -0.007142
v -0.072891 0.056310 0.000818
v -0.042642 0.069040 -0.007142
v -0.066519 0.046758 0.000818
v -0.076076 0.046758 0.000818
v -0.066519 0.048352 -0.007142
v -0.068113 0.062674 0.002411
v -0.076076 0.049943 0.002411
v -0.061741 0.046758 -0.005549
f 428 435 440 
f 416 417 420 
f 417 418 421 
f 420 419 422 
f 420 417 423 
f 417 421 423 
f 423 421 424 
f 418 419 425 
f 421 418 425 
f 417 416 426 
f 416 422 426 
f 419 420 427 
f 425 419 427 
f 427 420 429 
f 420 423 430 
f 423 424 430 
f 424 420 430 
f 416 420 431 
f 422 416 431 
f 420 422 431 
f 421 425 432 
f 424 421 433 
f 415 429 433 
f 429 424 433 
f 421 432 433 
f 432 415 433 
f 418 417 434 
f 417 426 434 
f 428 418 434 
f 426 428 434 
f 419 418 435 
f 422 419 435 
f 426 422 435 
f 428 426 435 
f 415 425 436 
f 427 415 436 
f 425 427 436 
f 425 415 437 
f 415 432 437 
f 432 425 437 
f 420 424 438 
f 424 429 438 
f 429 420 438 
f 415 427 439 
f 429 415 439 
f 427 429 439 
f 418 428 440 
f 435 418 440 
o convex_10
v -0.047412 0.072231 -0.007142
v -0.018761 0.094518 0.002411
v -0.018761 0.089740 0.002411
v -0.058563 0.070637 0.002411
v -0.020354 0.081782 -0.005549
v -0.028314 0.092924 0.000818
v -0.018761 0.088146 -0.007142
v -0.049010 0.070637 0.002411
v -0.041042 0.070637 -0.007142
v -0.050595 0.080193 0.000818
v -0.034688 0.081782 -0.007142
v -0.041042 0.086554 0.002411
v -0.058563 0.072231 0.000818
v -0.018761 0.083372 -0.007142
v -0.041042 0.086554 0.000818
v -0.020354 0.086554 0.000818
v -0.037871 0.072231 -0.005549
v -0.047412 0.070637 -0.007142
v -0.025131 0.086554 -0.007142
v -0.021948 0.094518 0.000818
v -0.050595 0.080193 0.002411
v -0.044229 0.075415 -0.007142
v -0.028314 0.092924 0.002411
v -0.018761 0.084962 -0.002365
v -0.020354 0.088146 -0.007142
v -0.018761 0.094518 0.000818
v -0.020354 0.088146 0.002411
v -0.058563 0.070637 0.000818
v -0.020354 0.081782 -0.007142
v -0.041042 0.070637 -0.005549
v -0.058563 0.072231 0.002411
f 461 453 471 
f 443 442 444 
f 442 443 447 
f 443 444 448 
f 441 447 449 
f 448 444 449 
f 447 441 451 
f 444 442 452 
f 447 443 454 
f 449 447 454 
f 446 451 455 
f 451 450 455 
f 452 446 455 
f 450 452 455 
f 445 448 457 
f 441 449 458 
f 449 444 458 
f 453 441 458 
f 451 446 459 
f 447 451 459 
f 444 452 461 
f 452 450 461 
f 450 453 461 
f 450 451 462 
f 451 441 462 
f 441 453 462 
f 453 450 462 
f 452 442 463 
f 446 452 463 
f 442 460 463 
f 460 446 463 
f 448 445 464 
f 454 443 464 
f 445 454 464 
f 456 448 464 
f 459 446 465 
f 447 459 465 
f 446 460 465 
f 460 447 465 
f 442 447 466 
f 460 442 466 
f 447 460 466 
f 443 448 467 
f 448 456 467 
f 464 443 467 
f 456 464 467 
f 444 453 468 
f 458 444 468 
f 453 458 468 
f 454 445 469 
f 449 454 469 
f 445 457 469 
f 457 449 469 
f 448 449 470 
f 457 448 470 
f 449 457 470 
f 453 444 471 
f 444 461 471 
o convex_11
v -0.018761 0.083373 -0.007142
v 0.011489 0.099294 0.002411
v 0.011489 0.099294 0.000818
v -0.018761 0.096107 0.002411
v -0.015575 0.089744 0.002411
v 0.009896 0.088151 -0.005549
v -0.001249 0.092923 -0.007142
v 0.011489 0.094516 0.002411
v 0.011489 0.092923 -0.007142
v -0.018761 0.088151 -0.007142
v -0.002842 0.099294 0.000818
v -0.015575 0.083373 -0.005549
v -0.018761 0.096107 0.000818
v 0.009896 0.088151 -0.007142
v -0.018761 0.089744 0.002411
v 0.011489 0.092923 0.000818
v -0.015575 0.089744 -0.007142
v -0.002842 0.099294 0.002411
v 0.001934 0.094516 -0.005549
v 0.011489 0.089744 -0.007142
v -0.018761 0.083373 -0.005549
v -0.017168 0.088151 0.000818
v -0.015575 0.083373 -0.007142
v 0.011489 0.094516 -0.005549
v -0.009206 0.091334 -0.007142
v 0.011489 0.089744 -0.003957
f 491 487 497 
f 473 475 476 
f 474 473 479 
f 473 476 479 
f 472 478 480 
f 474 479 480 
f 472 475 481 
f 478 472 481 
f 473 474 482 
f 481 475 484 
f 475 482 484 
f 472 480 485 
f 477 483 485 
f 475 472 486 
f 476 475 486 
f 479 476 487 
f 480 479 487 
f 483 477 487 
f 478 481 488 
f 481 484 488 
f 475 473 489 
f 473 482 489 
f 482 475 489 
f 480 478 490 
f 478 482 490 
f 482 474 490 
f 477 485 491 
f 485 480 491 
f 480 487 491 
f 472 483 492 
f 486 472 492 
f 486 492 493 
f 476 486 493 
f 487 476 493 
f 483 487 493 
f 492 483 493 
f 483 472 494 
f 472 485 494 
f 485 483 494 
f 474 480 495 
f 490 474 495 
f 480 490 495 
f 482 478 496 
f 484 482 496 
f 478 488 496 
f 488 484 496 
f 487 477 497 
f 477 491 497 
o convex_12
v 0.038552 -0.093345 0.002411
v 0.049695 -0.075837 -0.005549
v 0.049695 -0.075837 -0.007142
v 0.011493 -0.083797 -0.005549
v 0.019454 -0.088570 -0.007142
v 0.011493 -0.090161 0.002411
v 0.046509 -0.082205 0.002411
v 0.049695 -0.090161 0.000818
v 0.011493 -0.094938 0.000818
v 0.043327 -0.083797 -0.007142
v 0.030594 -0.094938 0.000818
v 0.011493 -0.088570 -0.007142
v 0.049695 -0.082205 0.002411
v 0.011493 -0.083797 -0.007142
v 0.046509 -0.075837 -0.005549
v 0.011493 -0.086979 -0.000774
v 0.011493 -0.094938 0.002411
v 0.049695 -0.080614 -0.007142
v 0.049695 -0.090161 0.002411
v 0.030594 -0.086979 -0.007142
v 0.044920 -0.091754 0.000818
v 0.048102 -0.079021 -0.000774
v 0.030594 -0.094938 0.002411
v 0.046509 -0.075837 -0.007142
v 0.038552 -0.093345 0.000818
f 518 498 522 
f 503 498 504 
f 500 499 505 
f 503 501 506 
f 502 500 507 
f 506 502 508 
f 500 502 509 
f 502 506 509 
f 506 501 509 
f 504 498 510 
f 505 499 510 
f 500 509 511 
f 509 501 511 
f 499 500 512 
f 511 501 512 
f 501 503 513 
f 503 504 513 
f 512 501 513 
f 498 503 514 
f 503 506 514 
f 506 508 514 
f 500 505 515 
f 507 500 515 
f 505 507 515 
f 510 498 516 
f 505 510 516 
f 502 507 517 
f 508 502 517 
f 507 505 518 
f 516 498 518 
f 505 516 518 
f 517 507 518 
f 504 510 519 
f 510 499 519 
f 499 512 519 
f 513 504 519 
f 512 513 519 
f 508 498 520 
f 498 514 520 
f 514 508 520 
f 500 511 521 
f 512 500 521 
f 511 512 521 
f 498 508 522 
f 508 517 522 
f 517 518 522 
o convex_13
v 0.075172 -0.058325 -0.005549
v 0.049699 -0.088569 0.000818
v 0.052888 -0.088569 0.000818
v 0.051292 -0.080608 -0.007142
v 0.075172 -0.075832 0.000818
v 0.051292 -0.080608 0.002411
v 0.073579 -0.066287 0.002411
v 0.049699 -0.074239 -0.005549
v 0.075172 -0.064694 -0.007142
v 0.064027 -0.083790 0.002411
v 0.070395 -0.059918 -0.007142
v 0.070395 -0.059918 -0.005549
v 0.071983 -0.079015 0.000818
v 0.060847 -0.075832 -0.007142
v 0.049699 -0.074239 -0.007142
v 0.075172 -0.075832 0.002411
v 0.049699 -0.088569 0.002411
v 0.060847 -0.085383 0.000818
v 0.075172 -0.066287 0.002411
v 0.049699 -0.080608 -0.007142
v 0.049699 -0.082200 0.002411
v 0.071983 -0.067879 -0.007142
v 0.075172 -0.058325 -0.007142
v 0.051292 -0.077425 -0.000774
v 0.052888 -0.088569 0.002411
v 0.073579 -0.058325 -0.005549
v 0.064027 -0.083790 0.000818
v 0.065620 -0.072655 -0.007142
v 0.071983 -0.079015 0.002411
f 535 538 551 
f 525 524 526 
f 523 527 531 
f 529 528 532 
f 531 526 533 
f 528 529 534 
f 533 530 534 
f 526 531 536 
f 524 530 537 
f 533 526 537 
f 530 533 537 
f 527 523 538 
f 529 532 538 
f 535 527 538 
f 524 525 539 
f 530 524 539 
f 532 528 539 
f 525 526 540 
f 526 536 540 
f 523 529 541 
f 538 523 541 
f 529 538 541 
f 526 524 542 
f 524 537 542 
f 537 526 542 
f 528 530 543 
f 530 539 543 
f 539 528 543 
f 531 527 544 
f 527 535 544 
f 536 531 544 
f 523 531 545 
f 531 533 545 
f 530 528 546 
f 528 534 546 
f 534 530 546 
f 539 525 547 
f 532 539 547 
f 525 540 547 
f 540 532 547 
f 529 523 548 
f 534 529 548 
f 533 534 548 
f 523 545 548 
f 545 533 548 
f 535 532 549 
f 536 535 549 
f 532 540 549 
f 540 536 549 
f 535 536 550 
f 544 535 550 
f 536 544 550 
f 532 535 551 
f 538 532 551 
o convex_14
v 0.107013 -0.036037 0.002411
v 0.075172 -0.074238 0.000818
v 0.078357 -0.074238 0.000818
v 0.094276 -0.024893 -0.007142
v 0.100643 -0.026487 0.002411
v 0.089507 -0.048774 -0.007142
v 0.075172 -0.056724 -0.005549
v 0.075172 -0.064684 0.002411
v 0.110198 -0.024893 0.000818
v 0.095864 -0.056724 0.002411
v 0.075172 -0.063095 -0.007142
v 0.099049 -0.029670 -0.007142
v 0.095864 -0.056724 0.000818
v 0.094276 -0.024893 -0.005549
v 0.108604 -0.032853 0.000818
v 0.078357 -0.074238 0.002411
v 0.079955 -0.059912 -0.007142
v 0.094276 -0.040814 -0.007142
v 0.110198 -0.024893 0.002411
v 0.076767 -0.053541 -0.007142
v 0.099049 -0.024893 -0.007142
v 0.100643 -0.048774 0.000818
v 0.102234 -0.024893 0.002411
v 0.076767 -0.053541 -0.005549
v 0.097461 -0.026487 -0.000774
v 0.084728 -0.055135 -0.007142
v 0.110198 -0.028081 0.000818
v 0.075172 -0.074238 0.002411
v 0.076767 -0.063095 -0.007142
v 0.110198 -0.028081 0.002411
v 0.095864 -0.037630 -0.007142
v 0.100643 -0.048774 0.002411
v 0.075172 -0.056724 -0.007142
f 558 571 584 
f 552 556 559 
f 558 553 559 
f 552 559 561 
f 554 553 562 
f 555 557 562 
f 553 558 562 
f 557 555 563 
f 561 554 564 
f 560 555 565 
f 553 554 567 
f 554 561 567 
f 561 559 567 
f 562 557 568 
f 564 554 568 
f 557 563 569 
f 556 552 570 
f 560 565 570 
f 555 562 571 
f 565 555 571 
f 555 560 572 
f 563 555 572 
f 560 563 572 
f 564 557 573 
f 561 564 573 
f 566 552 573 
f 557 569 573 
f 569 566 573 
f 565 556 574 
f 556 570 574 
f 570 565 574 
f 558 559 575 
f 559 565 575 
f 571 558 575 
f 565 571 575 
f 559 556 576 
f 556 565 576 
f 565 559 576 
f 557 564 577 
f 568 557 577 
f 564 568 577 
f 563 560 578 
f 566 563 578 
f 560 570 578 
f 559 553 579 
f 553 567 579 
f 567 559 579 
f 554 562 580 
f 568 554 580 
f 562 568 580 
f 552 566 581 
f 570 552 581 
f 566 578 581 
f 578 570 581 
f 563 566 582 
f 569 563 582 
f 566 569 582 
f 552 561 583 
f 573 552 583 
f 561 573 583 
f 562 558 584 
f 571 562 584 
o convex_15
v 0.105421 0.010137 0.002411
v 0.095871 -0.024888 -0.007142
v 0.100648 -0.024888 -0.007142
v 0.103831 0.010137 -0.007142
v 0.111788 -0.021703 0.002411
v 0.102238 -0.024888 0.002411
v 0.113381 0.010137 0.000818
v 0.099056 0.010137 -0.005549
v 0.113381 -0.013742 0.000818
v 0.097463 -0.021703 -0.002365
v 0.103831 -0.010554 -0.007142
v 0.113381 0.010137 0.002411
v 0.110196 -0.024888 0.000818
v 0.099056 0.010137 -0.007142
v 0.095871 -0.018518 -0.005549
v 0.102238 0.010137 -0.000774
v 0.111788 -0.021703 0.000818
v 0.102238 -0.020109 0.002411
v 0.102238 -0.020109 -0.007142
v 0.113381 -0.013742 0.002411
v 0.097463 -0.024888 -0.002365
v 0.110196 -0.024888 0.002411
v 0.095871 -0.018518 -0.007142
v 0.095871 -0.024888 -0.005549
f 605 599 608 
f 587 586 588 
f 586 587 590 
f 589 585 590 
f 588 585 591 
f 585 588 592 
f 588 591 593 
f 587 588 595 
f 588 593 595 
f 585 589 596 
f 591 585 596 
f 593 591 596 
f 590 587 597 
f 588 586 598 
f 592 588 598 
f 592 598 599 
f 594 592 599 
f 585 592 600 
f 592 594 600 
f 593 589 601 
f 597 587 601 
f 589 597 601 
f 590 585 602 
f 594 590 602 
f 585 600 602 
f 600 594 602 
f 587 595 603 
f 595 593 603 
f 593 601 603 
f 601 587 603 
f 589 593 604 
f 596 589 604 
f 593 596 604 
f 586 590 605 
f 590 594 605 
f 594 599 605 
f 589 590 606 
f 590 597 606 
f 597 589 606 
f 598 586 607 
f 599 598 607 
f 586 599 607 
f 599 586 608 
f 586 605 608 
o convex_16
v 0.064021 0.077007 -0.008734
v 0.027411 0.091331 -0.007142
v 0.027411 0.091331 -0.008734
v 0.011489 0.086554 -0.007142
v 0.067212 0.067455 -0.007142
v 0.064021 0.067455 -0.008734
v 0.011489 0.086554 -0.008734
v 0.052883 0.083371 -0.007142
v 0.011489 0.091331 -0.007142
v 0.049692 0.084963 -0.008734
v 0.067212 0.073824 -0.007142
v 0.011489 0.091331 -0.008734
v 0.064021 0.067455 -0.007142
v 0.067212 0.067455 -0.008734
v 0.035380 0.089737 -0.007142
v 0.067212 0.073824 -0.008734
v 0.059243 0.080188 -0.007142
v 0.035380 0.089737 -0.008734
v 0.059243 0.080188 -0.008734
v 0.049692 0.084963 -0.007142
f 618 623 628 
f 610 612 613 
f 611 609 614 
f 611 614 615 
f 614 612 615 
f 610 613 616 
f 610 611 617 
f 612 610 617 
f 615 612 617 
f 609 611 618 
f 616 613 619 
f 611 615 620 
f 617 611 620 
f 615 617 620 
f 613 612 621 
f 612 614 621 
f 614 613 621 
f 614 609 622 
f 613 614 622 
f 619 613 622 
f 611 610 623 
f 610 616 623 
f 609 619 624 
f 622 609 624 
f 619 622 624 
f 619 609 625 
f 616 619 625 
f 618 611 626 
f 611 623 626 
f 623 618 626 
f 609 618 627 
f 618 616 627 
f 625 609 627 
f 616 625 627 
f 616 618 628 
f 623 616 628 
o convex_17
v 0.091090 0.048337 -0.007142
v 0.067215 0.065853 -0.008734
v 0.067215 0.065853 -0.007142
v 0.097456 0.010137 -0.008734
v 0.087906 0.053114 -0.008734
v 0.102234 0.010137 -0.007142
v 0.099050 0.030845 -0.008734
v 0.070400 0.072229 -0.007142
v 0.097456 0.010137 -0.007142
v 0.070400 0.072229 -0.008734
v 0.099050 0.030845 -0.007142
v 0.102234 0.018099 -0.008734
v 0.083134 0.059483 -0.007142
v 0.067215 0.072229 -0.007142
v 0.102234 0.010137 -0.008734
v 0.095865 0.038801 -0.008734
v 0.102234 0.018099 -0.007142
v 0.067215 0.072229 -0.008734
v 0.083134 0.059483 -0.008734
v 0.095865 0.038801 -0.007142
v 0.091090 0.048337 -0.008734
f 644 633 649 
f 631 630 632 
f 632 630 633 
f 629 631 634 
f 632 633 635 
f 631 629 636 
f 631 632 637 
f 634 631 637 
f 632 634 637 
f 633 630 638 
f 629 634 639 
f 635 639 640 
f 632 635 640 
f 629 633 641 
f 636 629 641 
f 638 636 641 
f 630 631 642 
f 631 636 642 
f 636 638 642 
f 634 632 643 
f 632 640 643 
f 640 634 643 
f 635 633 644 
f 639 635 644 
f 639 634 645 
f 640 639 645 
f 634 640 645 
f 638 630 646 
f 630 642 646 
f 642 638 646 
f 633 638 647 
f 641 633 647 
f 638 641 647 
f 629 639 648 
f 644 629 648 
f 639 644 648 
f 633 629 649 
f 629 644 649 
o convex_18
v 0.092685 0.049941 0.002411
v 0.070396 0.065859 -0.007142
v 0.070396 0.065859 -0.005549
v 0.091090 0.037203 -0.007142
v 0.092685 0.061083 0.000818
v 0.092685 0.048351 -0.007142
v 0.078357 0.065859 0.002411
v 0.076765 0.067452 -0.007142
v 0.086317 0.067452 0.002411
v 0.091090 0.037203 -0.005549
v 0.070396 0.067452 -0.005549
v 0.091090 0.046758 0.000818
v 0.092685 0.037203 -0.005549
v 0.084724 0.059487 -0.007142
v 0.092685 0.061083 0.002411
v 0.078357 0.067452 0.002411
v 0.086317 0.067452 0.000818
v 0.089498 0.051537 0.002411
v 0.092685 0.037203 -0.007142
v 0.089498 0.053118 -0.007142
v 0.070396 0.067452 -0.007142
f 660 657 670 
f 652 651 653 
f 653 651 655 
f 654 650 655 
f 655 651 657 
f 656 650 658 
f 652 653 659 
f 656 652 659 
f 651 652 660 
f 652 656 660 
f 658 657 660 
f 656 659 661 
f 661 659 662 
f 655 650 662 
f 659 653 662 
f 650 661 662 
f 657 654 663 
f 655 657 663 
f 650 654 664 
f 658 650 664 
f 654 658 664 
f 656 658 665 
f 660 656 665 
f 658 660 665 
f 654 657 666 
f 658 654 666 
f 657 658 666 
f 650 656 667 
f 661 650 667 
f 656 661 667 
f 653 655 668 
f 662 653 668 
f 655 662 668 
f 654 655 669 
f 663 654 669 
f 655 663 669 
f 657 651 670 
f 651 660 670 
o convex_19
v 0.111790 0.022880 0.002411
v 0.092685 0.032429 -0.007142
v 0.099057 0.010142 -0.007142
v 0.092685 0.046752 0.002411
v 0.094278 0.045158 -0.007142
v 0.105420 0.010142 0.002411
v 0.095870 0.056301 0.002411
v 0.103828 0.010142 -0.007142
v 0.107011 0.037202 0.000818
v 0.113382 0.010142 0.000818
v 0.102240 0.024469 -0.007142
v 0.092685 0.057895 0.000818
v 0.099057 0.010142 -0.005549
v 0.103828 0.045158 0.000818
v 0.111790 0.022880 0.000818
v 0.095870 0.056301 0.000818
v 0.102240 0.010142 -0.000774
v 0.097465 0.038791 -0.007142
v 0.113382 0.010142 0.002411
v 0.092685 0.045158 -0.007142
v 0.103828 0.045158 0.002411
v 0.092685 0.032429 -0.005549
v 0.113382 0.014919 0.000818
v 0.103828 0.016513 -0.007142
v 0.092685 0.057895 0.002411
v 0.094278 0.057895 0.000818
v 0.113382 0.014919 0.002411
v 0.107011 0.037202 0.002411
f 679 691 698 
f 673 672 675 
f 671 674 676 
f 674 671 677 
f 673 675 678 
f 676 673 678 
f 676 678 680 
f 678 675 681 
f 672 674 682 
f 672 673 683 
f 673 676 683 
f 679 671 685 
f 677 684 686 
f 684 675 686 
f 676 674 687 
f 674 683 687 
f 683 676 687 
f 681 675 688 
f 684 679 688 
f 675 684 688 
f 679 685 688 
f 685 681 688 
f 671 676 689 
f 676 680 689 
f 675 672 690 
f 672 682 690 
f 682 675 690 
f 677 671 691 
f 684 677 691 
f 679 684 691 
f 674 672 692 
f 672 683 692 
f 683 674 692 
f 680 678 693 
f 685 671 693 
f 681 685 693 
f 689 680 693 
f 678 681 694 
f 693 678 694 
f 681 693 694 
f 674 677 695 
f 682 674 695 
f 682 695 696 
f 675 682 696 
f 686 675 696 
f 677 686 696 
f 695 677 696 
f 671 689 697 
f 693 671 697 
f 689 693 697 
f 671 679 698 
f 691 671 698 
o convex_20
v 0.048107 0.081783 -0.007142
v 0.024228 0.099292 0.002411
v 0.024228 0.099292 0.000818
v 0.013084 0.088150 -0.005549
v 0.043329 0.088150 0.002411
v 0.044920 0.088150 -0.007142
v 0.011489 0.092925 -0.007142
v 0.011489 0.094516 0.002411
v 0.048107 0.092925 0.002411
v 0.011489 0.099292 0.000818
v 0.025819 0.092925 -0.007142
v 0.040146 0.096108 0.000818
v 0.044920 0.081783 -0.005549
v 0.013084 0.088150 -0.007142
v 0.048107 0.088150 0.002411
v 0.011489 0.092925 0.000818
v 0.048107 0.088150 -0.005549
v 0.011489 0.099292 0.002411
v 0.046512 0.084967 -0.000774
v 0.011489 0.094516 -0.005549
v 0.044920 0.094516 0.000818
v 0.040146 0.089742 -0.007142
v 0.011489 0.089742 -0.007142
v 0.040146 0.096108 0.002411
v 0.048107 0.081783 -0.005549
v 0.044920 0.081783 -0.007142
v 0.048107 0.086560 -0.007142
v 0.048107 0.092925 0.000818
v 0.021048 0.094516 -0.005549
v 0.032185 0.092925 -0.005549
v 0.011489 0.089742 -0.003957
f 714 721 729 
f 704 699 705 
f 703 700 706 
f 700 703 707 
f 700 701 708 
f 705 706 708 
f 704 705 709 
f 701 700 710 
f 705 699 712 
f 711 702 712 
f 699 707 713 
f 707 703 713 
f 706 705 714 
f 703 706 714 
f 702 711 714 
f 707 699 715 
f 706 700 716 
f 700 708 716 
f 708 706 716 
f 713 703 717 
f 703 714 717 
f 714 711 717 
f 708 701 718 
f 705 708 718 
f 709 705 718 
f 704 710 719 
f 715 704 719 
f 704 709 720 
f 710 704 720 
f 705 712 721 
f 712 702 721 
f 714 705 721 
f 700 707 722 
f 710 700 722 
f 707 719 722 
f 719 710 722 
f 711 699 723 
f 699 713 723 
f 717 711 723 
f 713 717 723 
f 699 711 724 
f 712 699 724 
f 711 712 724 
f 699 704 725 
f 715 699 725 
f 704 715 725 
f 707 715 726 
f 719 707 726 
f 715 719 726 
f 701 709 727 
f 718 701 727 
f 709 718 727 
f 709 701 728 
f 701 710 728 
f 720 709 728 
f 710 720 728 
f 702 714 729 
f 721 702 729 
o convex_21
v 0.075169 0.067452 -0.007142
v 0.049702 0.092926 0.002411
v 0.062441 0.086557 0.002411
v 0.076764 0.067452 0.002411
v 0.048107 0.080189 -0.005549
v 0.052885 0.084964 -0.007142
v 0.084725 0.069048 0.000818
v 0.048107 0.086557 0.002411
v 0.067208 0.067452 -0.007142
v 0.064029 0.078601 -0.007142
v 0.062441 0.086557 0.000818
v 0.048107 0.084964 -0.007142
v 0.084725 0.067452 0.002411
v 0.078355 0.075414 0.000818
v 0.073577 0.070642 -0.007142
v 0.048107 0.092926 0.000818
v 0.067208 0.067452 -0.005549
v 0.048107 0.080189 -0.007142
v 0.048107 0.084964 0.000818
v 0.078355 0.075414 0.002411
v 0.049702 0.092926 0.000818
v 0.071982 0.069048 0.000818
v 0.071982 0.080189 0.000818
v 0.070395 0.073821 -0.007142
v 0.084725 0.067452 0.000818
v 0.075169 0.069048 -0.007142
v 0.056068 0.083371 -0.007142
v 0.084725 0.069048 0.002411
v 0.048107 0.092926 0.002411
f 745 737 758 
f 732 731 733 
f 733 731 737 
f 730 733 738 
f 735 730 738 
f 730 735 739 
f 731 732 740 
f 734 737 741 
f 735 738 741 
f 732 733 742 
f 733 730 742 
f 730 739 744 
f 743 736 744 
f 735 741 745 
f 741 737 745 
f 738 733 746 
f 734 738 746 
f 738 734 747 
f 734 741 747 
f 741 738 747 
f 733 737 748 
f 737 734 748 
f 734 746 748 
f 732 742 749 
f 736 743 749 
f 731 740 750 
f 740 735 750 
f 745 731 750 
f 735 745 750 
f 746 733 751 
f 733 748 751 
f 748 746 751 
f 739 740 752 
f 740 732 752 
f 743 739 752 
f 732 749 752 
f 749 743 752 
f 739 743 753 
f 744 739 753 
f 743 744 753 
f 730 736 754 
f 742 730 754 
f 736 742 754 
f 736 730 755 
f 730 744 755 
f 744 736 755 
f 739 735 756 
f 740 739 756 
f 735 740 756 
f 742 736 757 
f 749 742 757 
f 736 749 757 
f 737 731 758 
f 731 745 758 
o convex_22
v -0.066530 -0.102891 0.011962
v -0.107912 -0.050373 0.008778
v -0.107912 -0.050373 0.011962
v -0.056971 -0.059920 0.004004
v -0.056971 -0.096526 0.013555
v -0.058571 -0.072657 0.002412
v -0.098358 -0.048770 0.013555
v -0.088809 -0.082199 0.008778
v -0.077675 -0.048770 0.002412
v -0.056971 -0.107665 0.008778
v -0.090400 -0.079016 0.013555
v -0.096768 -0.066291 0.007188
v -0.066530 -0.048770 0.002412
v -0.058571 -0.107665 0.013555
v -0.068120 -0.101300 0.008778
v -0.069711 -0.050373 0.005596
v -0.104726 -0.048770 0.007188
v -0.101540 -0.063103 0.013555
v -0.098358 -0.069474 0.008778
v -0.077675 -0.093344 0.013555
v -0.056971 -0.059920 0.002412
v -0.076079 -0.053555 0.002412
v -0.104726 -0.053555 0.007188
v -0.106317 -0.048770 0.013555
v -0.077675 -0.093344 0.008778
v -0.061753 -0.106074 0.008778
v -0.066530 -0.048770 0.004004
v -0.056971 -0.072657 0.002412
v -0.104726 -0.058329 0.008778
v -0.088809 -0.082199 0.011962
v -0.071307 -0.059920 0.002412
v -0.056971 -0.107665 0.013555
v -0.056971 -0.090155 0.011962
v -0.104726 -0.058329 0.011962
v -0.106317 -0.053555 0.013555
v -0.098358 -0.069474 0.010370
v -0.063343 -0.051964 0.004004
v -0.107912 -0.048770 0.008778
v -0.061753 -0.106074 0.013555
v -0.074488 -0.096526 0.010370
v -0.058571 -0.107665 0.008778
v -0.095172 -0.072657 0.013555
v -0.095172 -0.067883 0.007188
v -0.099949 -0.061512 0.007188
v -0.077675 -0.050373 0.002412
f 780 781 803 
f 762 763 768 
f 763 765 769 
f 764 767 771 
f 767 765 771 
f 763 769 772 
f 765 767 775 
f 769 765 776 
f 770 766 777 
f 772 769 778 
f 762 768 779 
f 764 771 779 
f 767 764 780 
f 760 775 781 
f 775 767 781 
f 765 775 782 
f 776 765 782 
f 766 770 783 
f 764 773 783 
f 778 766 783 
f 759 773 784 
f 773 764 784 
f 771 765 785 
f 765 774 785 
f 768 764 786 
f 779 768 786 
f 764 779 786 
f 761 760 787 
f 760 781 787 
f 781 777 787 
f 777 766 788 
f 766 778 788 
f 778 769 788 
f 764 770 789 
f 780 764 789 
f 770 780 789 
f 768 763 790 
f 772 768 790 
f 763 772 790 
f 763 762 791 
f 765 763 791 
f 774 765 791 
f 761 787 792 
f 787 777 792 
f 782 761 793 
f 776 782 793 
f 761 792 793 
f 792 776 793 
f 777 788 794 
f 776 792 794 
f 792 777 794 
f 762 779 795 
f 779 771 795 
f 771 785 795 
f 785 774 795 
f 791 762 795 
f 774 791 795 
f 760 761 796 
f 775 760 796 
f 761 782 796 
f 782 775 796 
f 778 759 797 
f 772 778 797 
f 759 784 797 
f 784 772 797 
f 773 759 798 
f 759 778 798 
f 783 773 798 
f 778 783 798 
f 764 768 799 
f 768 772 799 
f 784 764 799 
f 772 784 799 
f 769 776 800 
f 788 769 800 
f 776 794 800 
f 794 788 800 
f 770 764 801 
f 783 770 801 
f 764 783 801 
f 770 777 802 
f 780 770 802 
f 777 781 802 
f 781 780 802 
f 767 780 803 
f 781 767 803 
o convex_23
v -0.112687 -0.039214 0.011962
v -0.080855 -0.012152 0.004004
v -0.068115 -0.045583 0.004004
v -0.109508 -0.042400 0.007188
v -0.109508 -0.012152 0.013555
v -0.115876 -0.012152 0.007188
v -0.099948 -0.048770 0.013555
v -0.077671 -0.048770 0.002412
v -0.090406 -0.012152 0.002412
v -0.117470 -0.013747 0.013555
v -0.106320 -0.048770 0.007188
v -0.068115 -0.048770 0.002412
v -0.107914 -0.048770 0.013555
v -0.117470 -0.021708 0.008778
v -0.088821 -0.024894 0.002412
v -0.080855 -0.012152 0.002412
v -0.077671 -0.047175 0.007188
v -0.115876 -0.018521 0.007188
v -0.111098 -0.043992 0.008778
v -0.099948 -0.045583 0.013555
v -0.085638 -0.034439 0.002412
v -0.115876 -0.024894 0.013555
v -0.068115 -0.048770 0.004004
v -0.112687 -0.032848 0.007188
v -0.117470 -0.012152 0.008778
v -0.068115 -0.045583 0.002412
v -0.117470 -0.012152 0.013555
v -0.090406 -0.018521 0.002412
v -0.079266 -0.047175 0.002412
v -0.111098 -0.042400 0.013555
v -0.114281 -0.034439 0.008778
v -0.115876 -0.028074 0.011962
v -0.109508 -0.047175 0.008778
v -0.117470 -0.020116 0.011962
v -0.111098 -0.043992 0.011962
v -0.072898 -0.045583 0.005596
v -0.114281 -0.026482 0.007188
v -0.077671 -0.048770 0.007188
v -0.107914 -0.048770 0.008778
v -0.112687 -0.037619 0.013555
f 835 804 843 
f 806 805 808 
f 808 805 809 
f 809 805 812 
f 810 808 813 
f 811 810 814 
f 810 811 815 
f 811 812 815 
f 810 813 816 
f 814 810 816 
f 812 811 818 
f 805 806 819 
f 812 805 819 
f 815 812 819 
f 809 812 821 
f 817 809 821 
f 808 810 823 
f 820 808 823 
f 810 820 823 
f 807 818 824 
f 818 811 824 
f 816 813 825 
f 815 806 826 
f 810 815 826 
f 806 820 826 
f 818 807 827 
f 808 809 828 
f 809 817 828 
f 817 813 828 
f 806 815 829 
f 819 806 829 
f 815 819 829 
f 813 808 830 
f 808 828 830 
f 828 813 830 
f 812 818 831 
f 821 812 831 
f 814 807 832 
f 811 814 832 
f 807 824 832 
f 824 811 832 
f 816 825 833 
f 807 822 834 
f 827 807 834 
f 817 827 834 
f 834 804 835 
f 817 834 835 
f 807 814 836 
f 822 807 836 
f 813 817 837 
f 825 813 837 
f 817 835 837 
f 835 825 837 
f 833 804 838 
f 816 833 838 
f 804 834 838 
f 834 822 838 
f 836 816 838 
f 822 836 838 
f 806 808 839 
f 820 806 839 
f 808 820 839 
f 817 821 840 
f 818 827 840 
f 827 817 840 
f 831 818 840 
f 821 831 840 
f 820 810 841 
f 810 826 841 
f 826 820 841 
f 814 816 842 
f 836 814 842 
f 816 836 842 
f 804 833 843 
f 833 825 843 
f 825 835 843 
o convex_24
v -0.025132 -0.093345 0.007188
v -0.056971 -0.109264 0.008778
v -0.037869 -0.118812 0.008778
v -0.055375 -0.096528 0.013555
v -0.056971 -0.063104 0.002412
v -0.025132 -0.093345 0.002412
v -0.025132 -0.122006 0.013555
v -0.053782 -0.063104 0.004004
v -0.025132 -0.112446 0.013555
v -0.056971 -0.107672 0.013555
v -0.052190 -0.079029 0.002412
v -0.025132 -0.083803 0.002412
v -0.025132 -0.122006 0.008778
v -0.026725 -0.082212 0.004004
v -0.037869 -0.088577 0.002412
v -0.041051 -0.117220 0.013555
v -0.056971 -0.074249 0.002412
v -0.056971 -0.067884 0.005596
v -0.029910 -0.122006 0.008778
v -0.056971 -0.096528 0.013555
v -0.053782 -0.063104 0.002412
v -0.053782 -0.110855 0.013555
v -0.029910 -0.122006 0.011962
v -0.026725 -0.093345 0.002412
v -0.034684 -0.120403 0.008778
v -0.045823 -0.083803 0.002412
v -0.026725 -0.091759 0.007188
v -0.055375 -0.067884 0.005596
v -0.028317 -0.122006 0.013555
v -0.056971 -0.063104 0.004004
v -0.025132 -0.083803 0.004004
v -0.026725 -0.082212 0.002412
v -0.034684 -0.120403 0.011962
v -0.056971 -0.109264 0.011962
v -0.034684 -0.090168 0.002412
f 868 858 878 
f 849 844 850 
f 847 850 852 
f 850 844 852 
f 848 845 853 
f 850 847 853 
f 848 849 854 
f 849 848 855 
f 844 849 855 
f 849 850 856 
f 846 845 858 
f 854 849 858 
f 850 853 859 
f 845 848 860 
f 854 845 860 
f 848 854 860 
f 848 853 861 
f 849 856 862 
f 856 850 862 
f 853 847 863 
f 847 861 863 
f 861 853 863 
f 848 851 864 
f 855 848 864 
f 851 857 864 
f 859 853 865 
f 862 850 866 
f 858 849 867 
f 849 862 867 
f 867 862 868 
f 846 858 868 
f 862 866 868 
f 845 854 869 
f 858 845 869 
f 854 858 869 
f 852 844 870 
f 851 852 870 
f 844 857 870 
f 857 851 870 
f 847 852 871 
f 852 851 871 
f 861 847 871 
f 851 861 871 
f 850 859 872 
f 866 850 872 
f 851 848 873 
f 861 851 873 
f 848 861 873 
f 844 855 874 
f 857 844 874 
f 855 857 874 
f 857 855 875 
f 855 864 875 
f 864 857 875 
f 859 846 876 
f 846 868 876 
f 868 866 876 
f 872 859 876 
f 866 872 876 
f 845 846 877 
f 853 845 877 
f 846 859 877 
f 865 853 877 
f 859 865 877 
f 858 867 878 
f 867 868 878 
o convex_25
v 0.013081 -0.110853 0.010370
v -0.025129 -0.123590 0.008778
v -0.018759 -0.125185 0.008778
v 0.013081 -0.091762 0.002412
v -0.025129 -0.088573 0.005596
v -0.025129 -0.112452 0.013555
v 0.013081 -0.128374 0.008778
v -0.023536 -0.094944 0.002412
v 0.013081 -0.126775 0.013555
v 0.006711 -0.101310 0.002412
v -0.015576 -0.125185 0.013555
v 0.011488 -0.094944 0.005596
v -0.025129 -0.085388 0.002412
v 0.011488 -0.118818 0.013555
v -0.018759 -0.085388 0.004004
v 0.000342 -0.128374 0.008778
v -0.025129 -0.121999 0.013555
v -0.021942 -0.088573 0.005596
v 0.013081 -0.099719 0.002412
v 0.000342 -0.128374 0.011962
v -0.006024 -0.099719 0.002412
v 0.013081 -0.091762 0.004004
v -0.025129 -0.093353 0.002412
v -0.023536 -0.112452 0.013555
v -0.018759 -0.125185 0.011962
v 0.013081 -0.128374 0.011962
v -0.018759 -0.085388 0.002412
v -0.010800 -0.126775 0.008778
v -0.006024 -0.126775 0.013555
v -0.025129 -0.123590 0.011962
v -0.025129 -0.085388 0.004004
v 0.013081 -0.120409 0.013555
v 0.009894 -0.101310 0.002412
v -0.010800 -0.126775 0.011962
v -0.012390 -0.098125 0.002412
f 886 899 913 
f 883 880 884 
f 882 879 885 
f 885 879 887 
f 886 882 888 
f 887 884 889 
f 880 883 891 
f 882 886 891 
f 884 887 892 
f 879 890 892 
f 888 885 894 
f 884 880 895 
f 889 884 895 
f 883 884 896 
f 892 890 896 
f 890 893 896 
f 893 883 896 
f 882 885 897 
f 888 882 897 
f 894 885 898 
f 881 880 899 
f 886 888 899 
f 888 894 899 
f 879 882 900 
f 890 879 900 
f 882 893 900 
f 893 890 900 
f 886 880 901 
f 880 891 901 
f 891 886 901 
f 884 892 902 
f 896 884 902 
f 892 896 902 
f 880 881 903 
f 885 887 904 
f 898 885 904 
f 887 898 904 
f 882 891 905 
f 893 882 905 
f 891 893 905 
f 894 898 906 
f 881 899 906 
f 899 894 906 
f 903 881 906 
f 887 889 907 
f 898 887 907 
f 895 880 908 
f 889 895 908 
f 880 903 908 
f 903 889 908 
f 891 883 909 
f 883 893 909 
f 893 891 909 
f 887 879 910 
f 892 887 910 
f 879 892 910 
f 885 888 911 
f 897 885 911 
f 888 897 911 
f 889 903 912 
f 906 898 912 
f 903 906 912 
f 907 889 912 
f 898 907 912 
f 880 886 913 
f 899 880 913 
o convex_26
v -0.109503 0.026058 0.013555
v -0.119058 -0.010555 0.008778
v -0.117465 -0.005782 0.007188
v -0.082449 -0.012152 0.004004
v -0.090407 0.026058 0.002412
v -0.111096 -0.012152 0.013555
v -0.115872 0.026058 0.007188
v -0.080852 0.026058 0.004004
v -0.090407 -0.012152 0.002412
v -0.117465 0.021274 0.013555
v -0.117465 -0.012152 0.013555
v -0.080852 0.018095 0.002412
v -0.117465 0.022872 0.007188
v -0.092000 0.016506 0.002412
v -0.119058 0.016506 0.011962
v -0.115872 -0.012152 0.007188
v -0.082449 -0.012152 0.002412
v -0.117465 0.026058 0.011962
v -0.080852 0.018095 0.004004
v -0.092000 -0.008965 0.002412
v -0.119058 0.018095 0.008778
v -0.119058 -0.010555 0.011962
v -0.080852 0.026058 0.002412
v -0.109503 0.018095 0.013555
v -0.115872 0.026058 0.013555
v -0.117465 0.026058 0.008778
v -0.117465 -0.012152 0.008778
f 929 924 940 
f 914 918 920 
f 918 914 921 
f 917 919 922 
f 919 914 923 
f 922 919 924 
f 919 923 924 
f 922 918 925 
f 916 915 926 
f 920 918 926 
f 918 922 927 
f 916 926 927 
f 926 918 927 
f 924 923 928 
f 915 916 929 
f 922 924 929 
f 917 922 930 
f 925 917 930 
f 922 925 930 
f 914 920 931 
f 928 923 931 
f 919 917 932 
f 921 914 932 
f 925 921 932 
f 917 925 932 
f 916 927 933 
f 927 922 933 
f 929 916 933 
f 922 929 933 
f 926 915 934 
f 915 928 934 
f 928 931 934 
f 915 924 935 
f 928 915 935 
f 924 928 935 
f 918 921 936 
f 925 918 936 
f 921 925 936 
f 914 919 937 
f 932 914 937 
f 919 932 937 
f 923 914 938 
f 914 931 938 
f 931 923 938 
f 920 926 939 
f 931 920 939 
f 926 934 939 
f 934 931 939 
f 924 915 940 
f 915 929 940 
o convex_27
v -0.115878 0.034021 0.008778
v -0.063339 0.061081 0.004004
v -0.063339 0.061081 0.002412
v -0.079261 0.026062 0.004004
v -0.095178 0.061081 0.013555
v -0.109506 0.026062 0.013555
v -0.106317 0.061081 0.008778
v -0.088816 0.026062 0.002412
v -0.111100 0.049937 0.013555
v -0.079261 0.054712 0.002412
v -0.114284 0.026062 0.007188
v -0.107912 0.051527 0.007188
v -0.115878 0.026062 0.013555
v -0.063339 0.057896 0.004004
v -0.079261 0.026062 0.002412
v -0.107912 0.027656 0.013555
v -0.074489 0.061081 0.002412
v -0.104728 0.061081 0.013555
v -0.088816 0.032431 0.002412
v -0.095178 0.059487 0.013555
v -0.114284 0.030840 0.007188
v -0.111100 0.049937 0.008778
v -0.115878 0.034021 0.011962
v -0.085638 0.041981 0.002412
v -0.088816 0.026062 0.007188
v -0.063339 0.057896 0.002412
v -0.115878 0.026062 0.008778
v -0.106317 0.061081 0.011962
v -0.114284 0.040390 0.008778
v -0.115878 0.030840 0.013555
v -0.111100 0.041981 0.007188
v -0.068117 0.059487 0.005596
v -0.076083 0.059487 0.002412
v -0.106317 0.059487 0.013555
f 958 968 974 
f 942 943 945 
f 945 943 947 
f 944 946 948 
f 946 945 949 
f 943 948 950 
f 948 946 951 
f 946 949 953 
f 951 946 953 
f 943 942 954 
f 948 943 955 
f 944 948 955 
f 954 944 955 
f 945 946 956 
f 947 943 957 
f 943 950 957 
f 945 947 958 
f 949 945 958 
f 950 948 959 
f 948 951 959 
f 945 956 960 
f 956 954 960 
f 951 941 961 
f 959 951 961 
f 949 947 962 
f 947 952 962 
f 941 953 963 
f 952 950 964 
f 950 959 964 
f 946 944 965 
f 944 954 965 
f 956 946 965 
f 954 956 965 
f 943 954 966 
f 955 943 966 
f 954 955 966 
f 941 951 967 
f 953 941 967 
f 951 953 967 
f 947 949 968 
f 958 947 968 
f 961 941 969 
f 949 962 969 
f 941 963 969 
f 963 949 969 
f 953 949 970 
f 949 963 970 
f 963 953 970 
f 959 961 971 
f 962 952 971 
f 952 964 971 
f 964 959 971 
f 961 969 971 
f 969 962 971 
f 942 945 972 
f 954 942 972 
f 945 960 972 
f 960 954 972 
f 952 947 973 
f 950 952 973 
f 947 957 973 
f 957 950 973 
f 949 958 974 
f 968 949 974 
o convex_28
v -0.093581 0.081780 0.008778
v -0.037879 0.097702 0.007188
v -0.037879 0.097702 0.004004
v -0.061754 0.061084 0.004004
v -0.095171 0.061084 0.013555
v -0.079255 0.097702 0.013555
v -0.072887 0.061084 0.002412
v -0.104733 0.061084 0.008778
v -0.079255 0.097702 0.008778
v -0.039469 0.096107 0.008778
v -0.037879 0.081780 0.002412
v -0.063344 0.096107 0.013555
v -0.052205 0.084960 0.002412
v -0.104733 0.062679 0.013555
v -0.037879 0.081780 0.004004
v -0.068122 0.070640 0.002412
v -0.039469 0.092921 0.002412
v -0.091991 0.083372 0.013555
v -0.099949 0.072232 0.008778
v -0.061754 0.061084 0.002412
v -0.037879 0.091333 0.007188
v -0.090394 0.086555 0.008778
v -0.072887 0.064271 0.002412
v -0.063344 0.097702 0.013555
v -0.103130 0.067454 0.011962
v -0.104733 0.062679 0.008778
v -0.039469 0.084960 0.005596
v -0.104733 0.061084 0.013555
v -0.061754 0.077006 0.002412
v -0.039469 0.097702 0.008778
v -0.090394 0.086555 0.010370
v -0.039469 0.097702 0.004004
v -0.037879 0.092921 0.002412
v -0.101539 0.069045 0.013555
v -0.084026 0.092921 0.013555
v -0.093581 0.062679 0.013555
v -0.047428 0.088146 0.002412
v -0.093581 0.081780 0.011962
v -0.103130 0.067454 0.010370
f 1000 999 1013 
f 976 977 980 
f 978 979 981 
f 981 979 982 
f 980 977 983 
f 977 976 985 
f 980 979 986 
f 985 981 987 
f 979 980 988 
f 985 976 989 
f 978 985 989 
f 987 981 990 
f 985 987 991 
f 988 980 992 
f 978 981 994 
f 981 985 994 
f 985 978 994 
f 976 984 995 
f 984 979 995 
f 989 976 995 
f 980 983 996 
f 983 990 996 
f 981 982 997 
f 990 981 997 
f 993 975 997 
f 975 996 997 
f 996 990 997 
f 976 980 998 
f 980 986 998 
f 986 984 998 
f 982 988 1000 
f 997 982 1000 
f 993 997 1000 
f 988 999 1000 
f 979 978 1001 
f 978 989 1001 
f 995 979 1001 
f 989 995 1001 
f 982 979 1002 
f 979 988 1002 
f 988 982 1002 
f 983 987 1003 
f 990 983 1003 
f 987 990 1003 
f 984 976 1004 
f 976 998 1004 
f 998 984 1004 
f 980 996 1005 
f 996 975 1005 
f 983 977 1006 
f 977 991 1006 
f 991 983 1006 
f 977 985 1007 
f 991 977 1007 
f 985 991 1007 
f 988 992 1008 
f 999 988 1008 
f 992 999 1008 
f 992 980 1009 
f 980 1005 1009 
f 1005 992 1009 
f 979 984 1010 
f 986 979 1010 
f 984 986 1010 
f 987 983 1011 
f 983 991 1011 
f 991 987 1011 
f 975 993 1012 
f 999 992 1012 
f 993 999 1012 
f 992 1005 1012 
f 1005 975 1012 
f 999 993 1013 
f 993 1000 1013 
o convex_29
v -0.037866 0.092923 0.002411
v 0.013081 0.097702 0.004003
v 0.013081 0.097702 0.002411
v -0.034674 0.083373 0.004003
v -0.037866 0.097702 0.007187
v -0.028306 0.097702 0.002411
v -0.037866 0.083373 0.002411
v -0.034674 0.092923 0.007187
v 0.013081 0.096107 0.004003
v 0.013081 0.096107 0.002411
v -0.028306 0.097702 0.007187
v -0.037866 0.097702 0.004003
v -0.037866 0.092923 0.007187
v -0.034674 0.083373 0.002411
v -0.037866 0.083373 0.004003
v -0.028306 0.096107 0.007187
v -0.036270 0.094515 0.002411
f 1025 1019 1030 
f 1015 1016 1018 
f 1016 1014 1019 
f 1018 1016 1019 
f 1014 1016 1020 
f 1018 1014 1020 
f 1021 1017 1022 
f 1016 1015 1022 
f 1020 1016 1023 
f 1022 1017 1023 
f 1016 1022 1023 
f 1015 1018 1024 
f 1018 1021 1024 
f 1022 1015 1024 
f 1014 1018 1025 
f 1018 1019 1025 
f 1018 1020 1026 
f 1021 1018 1026 
f 1017 1021 1026 
f 1017 1020 1027 
f 1020 1023 1027 
f 1023 1017 1027 
f 1020 1017 1028 
f 1017 1026 1028 
f 1026 1020 1028 
f 1021 1022 1029 
f 1024 1021 1029 
f 1022 1024 1029 
f 1019 1014 1030 
f 1014 1025 1030 
o convex_30
v 0.059252 -0.085394 0.005596
v 0.013081 -0.128374 0.008778
v 0.046507 -0.121998 0.007188
v 0.059252 -0.112447 0.013555
v 0.013081 -0.091761 0.004004
v 0.013081 -0.120408 0.013555
v 0.057652 -0.091761 0.002412
v 0.013081 -0.099722 0.002412
v 0.059252 -0.120408 0.010370
v 0.029008 -0.126775 0.013555
v 0.059252 -0.080616 0.002412
v 0.059252 -0.118814 0.007188
v 0.044916 -0.125181 0.008778
v 0.032189 -0.099722 0.002412
v 0.056065 -0.080616 0.004004
v 0.051288 -0.121998 0.013555
v 0.013081 -0.091761 0.002412
v 0.013081 -0.126775 0.013555
v 0.025826 -0.128374 0.011962
v 0.056065 -0.112447 0.013555
v 0.025826 -0.128374 0.008778
v 0.046507 -0.096539 0.002412
v 0.019453 -0.118814 0.013555
v 0.059252 -0.118814 0.013555
v 0.049697 -0.121998 0.007188
v 0.057652 -0.085394 0.005596
v 0.044916 -0.125181 0.010370
v 0.059252 -0.090171 0.002412
v 0.013081 -0.128374 0.011962
v 0.056065 -0.080616 0.002412
v 0.035371 -0.126775 0.011962
v 0.059252 -0.120408 0.008778
v 0.054470 -0.121998 0.011962
v 0.051288 -0.094944 0.002412
v 0.059252 -0.080616 0.004004
v 0.038553 -0.125181 0.013555
v 0.040143 -0.098128 0.002412
f 1052 1055 1067 
f 1035 1032 1036 
f 1033 1032 1038 
f 1032 1035 1038 
f 1031 1034 1039 
f 1034 1036 1040 
f 1037 1038 1041 
f 1031 1039 1041 
f 1041 1039 1042 
f 1038 1037 1044 
f 1033 1038 1044 
f 1035 1036 1045 
f 1034 1040 1046 
f 1038 1035 1047 
f 1041 1038 1047 
f 1035 1045 1047 
f 1036 1032 1048 
f 1040 1036 1048 
f 1040 1048 1049 
f 1034 1031 1050 
f 1036 1034 1050 
f 1032 1033 1051 
f 1049 1032 1051 
f 1043 1049 1051 
f 1044 1037 1052 
f 1045 1036 1053 
f 1036 1050 1053 
f 1039 1034 1054 
f 1034 1046 1054 
f 1033 1044 1055 
f 1051 1033 1055 
f 1043 1051 1055 
f 1052 1042 1055 
f 1031 1045 1056 
f 1050 1031 1056 
f 1045 1053 1056 
f 1053 1050 1056 
f 1043 1039 1057 
f 1049 1043 1057 
f 1037 1041 1058 
f 1041 1042 1058 
f 1042 1037 1058 
f 1048 1032 1059 
f 1049 1048 1059 
f 1032 1049 1059 
f 1045 1041 1060 
f 1041 1047 1060 
f 1047 1045 1060 
f 1049 1057 1061 
f 1042 1039 1062 
f 1039 1043 1062 
f 1055 1042 1062 
f 1043 1055 1062 
f 1039 1054 1063 
f 1054 1046 1063 
f 1057 1039 1063 
f 1046 1061 1063 
f 1061 1057 1063 
f 1037 1042 1064 
f 1042 1052 1064 
f 1052 1037 1064 
f 1031 1041 1065 
f 1045 1031 1065 
f 1041 1045 1065 
f 1046 1040 1066 
f 1040 1049 1066 
f 1061 1046 1066 
f 1049 1061 1066 
f 1044 1052 1067 
f 1055 1044 1067 
o convex_31
v 0.078362 -0.110858 0.011962
v 0.119751 -0.072651 0.010370
v 0.119751 -0.072651 0.007188
v 0.059252 -0.079028 0.002412
v 0.064031 -0.117222 0.007188
v 0.059252 -0.112445 0.013555
v 0.110193 -0.077433 0.013555
v 0.068810 -0.072651 0.004004
v 0.086327 -0.074251 0.002412
v 0.095861 -0.099713 0.007188
v 0.059252 -0.090168 0.002412
v 0.094274 -0.098118 0.013555
v 0.107007 -0.072651 0.011962
v 0.059252 -0.118822 0.008778
v 0.111780 -0.083800 0.011962
v 0.062438 -0.117222 0.013555
v 0.059252 -0.079028 0.004004
v 0.068810 -0.086982 0.002412
v 0.100640 -0.096532 0.010370
v 0.111780 -0.083800 0.007188
v 0.067223 -0.117222 0.008778
v 0.059252 -0.106077 0.011962
v 0.068810 -0.072651 0.002412
v 0.083141 -0.107672 0.007188
v 0.084728 -0.107672 0.008778
v 0.118158 -0.075842 0.011962
v 0.059252 -0.117222 0.007188
v 0.119751 -0.074251 0.007188
v 0.086327 -0.072651 0.002412
v 0.111780 -0.079028 0.013555
v 0.118158 -0.072651 0.011962
v 0.062438 -0.118822 0.011962
v 0.116565 -0.079028 0.010370
v 0.081542 -0.109267 0.011962
v 0.059252 -0.117222 0.013555
v 0.060845 -0.110858 0.013555
v 0.103826 -0.093355 0.008778
v 0.075176 -0.110858 0.013555
v 0.099053 -0.096532 0.011962
v 0.076775 -0.112445 0.010370
v 0.062438 -0.090168 0.002412
v 0.078362 -0.080614 0.002412
v 0.091082 -0.102895 0.011962
v 0.089501 -0.104490 0.010370
v 0.116565 -0.079028 0.008778
v 0.062438 -0.118822 0.008778
v 0.076775 -0.112445 0.008778
v 0.103826 -0.093355 0.010370
v 0.059252 -0.118822 0.011962
v 0.119751 -0.074251 0.010370
v 0.100640 -0.096532 0.008778
v 0.067223 -0.117222 0.010370
v 0.084728 -0.075842 0.002412
f 1077 1109 1120 
f 1069 1070 1075 
f 1073 1071 1078 
f 1071 1076 1078 
f 1074 1073 1079 
f 1069 1075 1080 
f 1073 1078 1081 
f 1079 1073 1083 
f 1071 1073 1084 
f 1075 1071 1084 
f 1080 1075 1084 
f 1078 1076 1085 
f 1077 1076 1087 
f 1084 1073 1089 
f 1080 1084 1089 
f 1075 1070 1090 
f 1071 1075 1090 
f 1076 1071 1090 
f 1085 1077 1091 
f 1088 1072 1091 
f 1091 1077 1092 
f 1078 1072 1094 
f 1072 1081 1094 
f 1081 1078 1094 
f 1070 1069 1095 
f 1076 1070 1095 
f 1087 1076 1095 
f 1070 1076 1096 
f 1090 1070 1096 
f 1076 1090 1096 
f 1074 1079 1097 
f 1079 1082 1097 
f 1082 1093 1097 
f 1097 1093 1098 
f 1069 1080 1098 
f 1080 1074 1098 
f 1093 1069 1098 
f 1074 1097 1098 
f 1093 1082 1100 
f 1073 1081 1102 
f 1083 1073 1102 
f 1099 1083 1102 
f 1073 1074 1103 
f 1074 1080 1103 
f 1089 1073 1103 
f 1080 1089 1103 
f 1077 1087 1104 
f 1079 1083 1105 
f 1099 1068 1105 
f 1083 1099 1105 
f 1068 1101 1105 
f 1101 1079 1105 
f 1082 1079 1106 
f 1101 1068 1107 
f 1092 1101 1107 
f 1072 1078 1108 
f 1078 1085 1108 
f 1085 1091 1108 
f 1091 1072 1108 
f 1085 1076 1109 
f 1077 1085 1109 
f 1079 1101 1110 
f 1106 1079 1110 
f 1086 1106 1110 
f 1101 1092 1111 
f 1086 1110 1111 
f 1110 1101 1111 
f 1087 1095 1112 
f 1095 1100 1112 
f 1104 1087 1112 
f 1100 1104 1112 
f 1081 1072 1113 
f 1072 1088 1113 
f 1099 1081 1113 
f 1088 1099 1113 
f 1088 1091 1114 
f 1091 1092 1114 
f 1107 1088 1114 
f 1092 1107 1114 
f 1100 1082 1115 
f 1086 1104 1115 
f 1104 1100 1115 
f 1082 1106 1115 
f 1106 1086 1115 
f 1081 1099 1116 
f 1102 1081 1116 
f 1099 1102 1116 
f 1069 1093 1117 
f 1095 1069 1117 
f 1093 1100 1117 
f 1100 1095 1117 
f 1092 1077 1118 
f 1077 1104 1118 
f 1104 1086 1118 
f 1086 1111 1118 
f 1111 1092 1118 
f 1068 1099 1119 
f 1099 1088 1119 
f 1088 1107 1119 
f 1107 1068 1119 
f 1076 1077 1120 
f 1109 1076 1120 
o convex_32
v 0.124520 -0.032853 0.005595
v 0.071988 -0.072651 0.002411
v 0.071988 -0.072651 0.004003
v 0.108604 -0.010560 0.002411
v 0.118149 -0.010560 0.007187
v 0.102228 -0.072651 0.007187
v 0.100635 -0.058319 0.002411
v 0.087910 -0.071059 0.007187
v 0.118149 -0.010560 0.002411
v 0.127711 -0.010560 0.007187
v 0.102228 -0.072651 0.005595
v 0.107011 -0.012152 0.004003
v 0.119742 -0.045574 0.007187
v 0.087910 -0.072651 0.002411
v 0.111790 -0.039223 0.002411
v 0.114970 -0.055135 0.005595
v 0.071988 -0.071059 0.004003
v 0.127711 -0.018522 0.005595
v 0.116557 -0.023299 0.002411
v 0.126118 -0.026484 0.007187
v 0.071988 -0.071059 0.002411
v 0.127711 -0.010560 0.005595
v 0.087910 -0.072651 0.007187
v 0.119742 -0.045574 0.005595
v 0.108604 -0.064689 0.007187
v 0.107011 -0.012152 0.002411
v 0.108604 -0.064689 0.005595
v 0.107011 -0.048759 0.002411
v 0.095879 -0.072651 0.004003
v 0.121340 -0.026484 0.004003
v 0.118149 -0.015337 0.002411
v 0.114970 -0.055135 0.007187
v 0.108604 -0.010560 0.004003
v 0.122933 -0.037637 0.007187
v 0.127711 -0.018522 0.007187
v 0.094281 -0.066275 0.002411
v 0.107011 -0.058319 0.004003
v 0.122933 -0.037637 0.005595
f 1154 1144 1158 
f 1123 1122 1126 
f 1122 1124 1127 
f 1126 1125 1128 
f 1124 1125 1129 
f 1127 1124 1129 
f 1125 1126 1130 
f 1129 1125 1130 
f 1126 1122 1131 
f 1130 1126 1133 
f 1122 1127 1134 
f 1131 1122 1134 
f 1127 1129 1135 
f 1122 1123 1137 
f 1123 1128 1137 
f 1128 1125 1137 
f 1125 1132 1137 
f 1135 1129 1139 
f 1130 1133 1140 
f 1121 1138 1140 
f 1124 1122 1141 
f 1122 1137 1141 
f 1137 1132 1141 
f 1129 1130 1142 
f 1130 1138 1142 
f 1138 1129 1142 
f 1123 1126 1143 
f 1128 1123 1143 
f 1126 1128 1143 
f 1133 1136 1144 
f 1136 1135 1144 
f 1126 1131 1145 
f 1133 1126 1145 
f 1132 1124 1146 
f 1124 1141 1146 
f 1141 1132 1146 
f 1145 1131 1147 
f 1136 1145 1147 
f 1127 1135 1148 
f 1135 1136 1148 
f 1131 1134 1149 
f 1127 1147 1149 
f 1147 1131 1149 
f 1138 1121 1150 
f 1135 1139 1150 
f 1150 1139 1151 
f 1129 1138 1151 
f 1139 1129 1151 
f 1138 1150 1151 
f 1136 1133 1152 
f 1133 1145 1152 
f 1145 1136 1152 
f 1125 1124 1153 
f 1124 1132 1153 
f 1132 1125 1153 
f 1140 1133 1154 
f 1121 1140 1154 
f 1133 1144 1154 
f 1138 1130 1155 
f 1130 1140 1155 
f 1140 1138 1155 
f 1134 1127 1156 
f 1127 1149 1156 
f 1149 1134 1156 
f 1147 1127 1157 
f 1136 1147 1157 
f 1127 1148 1157 
f 1148 1136 1157 
f 1144 1135 1158 
f 1150 1121 1158 
f 1135 1150 1158 
f 1121 1154 1158 
o convex_33
v 0.140440 -0.028076 0.011963
v 0.095869 -0.072651 0.007187
v 0.095869 -0.072651 0.008779
v 0.122932 -0.010560 0.007187
v 0.127709 -0.061504 0.007187
v 0.108614 -0.072651 0.011963
v 0.132481 -0.010560 0.011963
v 0.142040 -0.010560 0.007187
v 0.119750 -0.072651 0.011963
v 0.121336 -0.072651 0.007187
v 0.122932 -0.010560 0.008779
v 0.138849 -0.034452 0.007187
v 0.142040 -0.010560 0.011963
v 0.134077 -0.048759 0.010371
v 0.095869 -0.071059 0.008779
v 0.124518 -0.066275 0.011963
v 0.142040 -0.021707 0.007187
v 0.108614 -0.069466 0.011963
v 0.137263 -0.039223 0.011963
v 0.124518 -0.067868 0.010371
v 0.095869 -0.071059 0.007187
v 0.142040 -0.018522 0.011963
v 0.134077 -0.048759 0.008779
v 0.121336 -0.072651 0.010371
v 0.134077 -0.047173 0.011963
v 0.134077 -0.047173 0.007187
v 0.142040 -0.021707 0.010371
v 0.138849 -0.034452 0.011963
f 1170 1185 1186 
f 1160 1162 1163 
f 1161 1160 1164 
f 1164 1159 1165 
f 1162 1165 1166 
f 1163 1162 1166 
f 1164 1160 1167 
f 1159 1164 1167 
f 1160 1163 1168 
f 1167 1160 1168 
f 1165 1162 1169 
f 1163 1166 1170 
f 1165 1159 1171 
f 1166 1165 1171 
f 1160 1161 1173 
f 1161 1164 1173 
f 1169 1162 1173 
f 1165 1169 1173 
f 1159 1167 1174 
f 1170 1166 1175 
f 1166 1171 1175 
f 1164 1165 1176 
f 1173 1164 1176 
f 1165 1173 1176 
f 1159 1174 1177 
f 1168 1163 1178 
f 1163 1172 1178 
f 1162 1160 1179 
f 1160 1173 1179 
f 1173 1162 1179 
f 1171 1159 1180 
f 1175 1171 1180 
f 1172 1163 1181 
f 1170 1177 1181 
f 1177 1172 1181 
f 1167 1168 1182 
f 1174 1167 1182 
f 1168 1178 1182 
f 1178 1174 1182 
f 1172 1177 1183 
f 1177 1174 1183 
f 1178 1172 1183 
f 1174 1178 1183 
f 1163 1170 1184 
f 1181 1163 1184 
f 1170 1181 1184 
f 1170 1175 1185 
f 1180 1159 1185 
f 1175 1180 1185 
f 1159 1177 1186 
f 1177 1170 1186 
f 1185 1159 1186 
o convex_34
v 0.142035 0.024464 0.011962
v 0.105426 0.021281 0.002412
v 0.105426 0.021281 0.004004
v 0.142035 -0.010560 0.007188
v 0.132485 -0.010560 0.011962
v 0.108612 -0.010560 0.002412
v 0.142035 0.026053 0.007188
v 0.135667 0.027650 0.013555
v 0.114980 0.027650 0.002412
v 0.143628 -0.007373 0.011962
v 0.118162 -0.010560 0.002412
v 0.108612 -0.010560 0.004004
v 0.105426 0.027650 0.004004
v 0.143628 0.013314 0.007188
v 0.140442 0.002179 0.013555
v 0.118162 0.016501 0.002412
v 0.142035 0.027650 0.008778
v 0.143628 -0.008963 0.007188
v 0.143628 0.014911 0.011962
v 0.138853 0.027650 0.013555
v 0.142035 -0.010560 0.011962
v 0.114980 0.026053 0.007188
v 0.135667 0.021281 0.013555
v 0.105426 0.027650 0.002412
v 0.140442 0.022867 0.013555
v 0.116569 0.026053 0.002412
v 0.140442 0.027650 0.007188
v 0.138853 0.002179 0.013555
v 0.142035 0.027650 0.010370
v 0.143628 0.016501 0.008778
f 1203 1215 1216 
f 1189 1188 1192 
f 1190 1191 1192 
f 1192 1188 1195 
f 1190 1192 1197 
f 1192 1195 1197 
f 1191 1189 1198 
f 1189 1192 1198 
f 1192 1191 1198 
f 1188 1189 1199 
f 1194 1195 1199 
f 1197 1195 1202 
f 1193 1200 1202 
f 1200 1197 1202 
f 1195 1194 1203 
f 1190 1197 1204 
f 1200 1196 1204 
f 1197 1200 1204 
f 1196 1200 1205 
f 1201 1196 1205 
f 1194 1201 1206 
f 1203 1194 1206 
f 1191 1190 1207 
f 1201 1191 1207 
f 1196 1201 1207 
f 1190 1204 1207 
f 1204 1196 1207 
f 1189 1191 1208 
f 1199 1189 1208 
f 1194 1199 1208 
f 1201 1194 1209 
f 1208 1191 1209 
f 1194 1208 1209 
f 1195 1188 1210 
f 1188 1199 1210 
f 1199 1195 1210 
f 1205 1187 1211 
f 1201 1205 1211 
f 1206 1201 1211 
f 1187 1206 1211 
f 1195 1193 1212 
f 1193 1202 1212 
f 1202 1195 1212 
f 1193 1195 1213 
f 1203 1193 1213 
f 1195 1203 1213 
f 1191 1201 1214 
f 1201 1209 1214 
f 1209 1191 1214 
f 1187 1205 1215 
f 1206 1187 1215 
f 1203 1206 1215 
f 1200 1193 1216 
f 1193 1203 1216 
f 1205 1200 1216 
f 1215 1205 1216 
o convex_35
v 0.138855 0.027654 0.013555
v 0.127701 0.065857 0.011962
v 0.127701 0.065857 0.008778
v 0.083133 0.064264 0.004004
v 0.114971 0.027654 0.002412
v 0.140448 0.032429 0.007188
v 0.103835 0.027654 0.004004
v 0.118158 0.062671 0.013555
v 0.094281 0.065857 0.002412
v 0.134069 0.029247 0.013555
v 0.130888 0.057895 0.007188
v 0.083133 0.065857 0.002412
v 0.134069 0.049938 0.013555
v 0.140448 0.027654 0.007188
v 0.118158 0.065857 0.013555
v 0.103835 0.027654 0.002412
v 0.113372 0.035615 0.002412
v 0.137256 0.045166 0.011962
v 0.087918 0.064264 0.005596
v 0.126113 0.065857 0.007188
v 0.103835 0.054713 0.002412
v 0.140448 0.034022 0.011962
v 0.135662 0.049938 0.008778
v 0.127701 0.064264 0.013555
v 0.087918 0.065857 0.005596
v 0.135662 0.046755 0.007188
v 0.140448 0.035615 0.008778
v 0.084726 0.061078 0.002412
v 0.134069 0.053120 0.011962
v 0.135662 0.027654 0.013555
v 0.140448 0.027654 0.011962
v 0.099061 0.061078 0.002412
v 0.137256 0.038798 0.013555
v 0.114971 0.030840 0.002412
v 0.084726 0.061078 0.004004
v 0.126113 0.065857 0.013555
v 0.132481 0.054713 0.007188
v 0.083133 0.065857 0.004004
f 1241 1228 1254 
f 1221 1217 1223 
f 1218 1219 1225 
f 1217 1224 1226 
f 1218 1225 1228 
f 1225 1221 1228 
f 1224 1217 1229 
f 1217 1221 1230 
f 1221 1222 1230 
f 1218 1228 1231 
f 1224 1229 1231 
f 1221 1223 1232 
f 1228 1221 1232 
f 1221 1225 1233 
f 1223 1226 1235 
f 1226 1224 1235 
f 1224 1231 1235 
f 1225 1219 1236 
f 1219 1227 1236 
f 1233 1225 1237 
f 1236 1227 1237 
f 1230 1222 1238 
f 1234 1229 1238 
f 1219 1218 1239 
f 1231 1229 1240 
f 1231 1228 1241 
f 1220 1235 1241 
f 1235 1231 1241 
f 1242 1239 1243 
f 1238 1222 1243 
f 1234 1238 1243 
f 1239 1234 1243 
f 1222 1242 1243 
f 1220 1228 1244 
f 1232 1223 1244 
f 1228 1232 1244 
f 1229 1234 1245 
f 1234 1239 1245 
f 1239 1218 1245 
f 1218 1240 1245 
f 1240 1229 1245 
f 1223 1217 1246 
f 1217 1226 1246 
f 1226 1223 1246 
f 1217 1230 1247 
f 1238 1217 1247 
f 1230 1238 1247 
f 1225 1236 1248 
f 1237 1225 1248 
f 1236 1237 1248 
f 1229 1217 1249 
f 1217 1238 1249 
f 1238 1229 1249 
f 1222 1221 1250 
f 1221 1233 1250 
f 1242 1222 1250 
f 1233 1242 1250 
f 1235 1220 1251 
f 1223 1235 1251 
f 1220 1244 1251 
f 1244 1223 1251 
f 1218 1231 1252 
f 1240 1218 1252 
f 1231 1240 1252 
f 1227 1219 1253 
f 1233 1237 1253 
f 1237 1227 1253 
f 1219 1239 1253 
f 1242 1233 1253 
f 1239 1242 1253 
f 1228 1220 1254 
f 1220 1241 1254 
o convex_36
v 0.067204 0.077005 0.002411
v 0.070396 0.097702 0.008779
v 0.070396 0.092923 0.008779
v 0.013087 0.097702 0.004004
v 0.048101 0.097702 0.002411
v 0.070396 0.092923 0.004004
v 0.068803 0.080190 0.005595
v 0.013087 0.096110 0.002411
v 0.013087 0.096110 0.004004
v 0.070396 0.086559 0.002411
v 0.060842 0.096110 0.008779
v 0.070396 0.077005 0.004004
v 0.070396 0.097702 0.005595
v 0.067204 0.077005 0.004004
v 0.067204 0.092923 0.008779
v 0.013087 0.097702 0.002411
v 0.060842 0.097702 0.008779
v 0.070396 0.077005 0.002411
v 0.052881 0.096110 0.002411
v 0.068803 0.088148 0.002411
v 0.060842 0.097702 0.004004
v 0.070396 0.080190 0.005595
f 1261 1266 1276 
f 1258 1256 1259 
f 1256 1257 1260 
f 1259 1255 1262 
f 1262 1255 1263 
f 1258 1262 1263 
f 1255 1259 1264 
f 1260 1257 1264 
f 1257 1256 1265 
f 1258 1263 1265 
f 1264 1257 1266 
f 1259 1256 1267 
f 1256 1260 1267 
f 1261 1263 1268 
f 1263 1255 1268 
f 1266 1261 1268 
f 1255 1266 1268 
f 1261 1257 1269 
f 1263 1261 1269 
f 1257 1265 1269 
f 1265 1263 1269 
f 1258 1259 1270 
f 1262 1258 1270 
f 1259 1262 1270 
f 1256 1258 1271 
f 1265 1256 1271 
f 1258 1265 1271 
f 1255 1264 1272 
f 1266 1255 1272 
f 1264 1266 1272 
f 1264 1259 1273 
f 1260 1264 1274 
f 1264 1273 1274 
f 1274 1273 1275 
f 1259 1267 1275 
f 1267 1260 1275 
f 1273 1259 1275 
f 1260 1274 1275 
f 1257 1261 1276 
f 1266 1257 1276 
o convex_37
v 0.075174 0.070638 0.004004
v 0.103827 0.097702 0.011962
v 0.103827 0.097702 0.010370
v 0.126119 0.065860 0.011962
v 0.087916 0.096106 0.013555
v 0.073587 0.084960 0.002412
v 0.094287 0.067456 0.002412
v 0.116557 0.065860 0.013555
v 0.071994 0.096106 0.010370
v 0.118150 0.081781 0.008778
v 0.070396 0.097702 0.005596
v 0.102228 0.097702 0.008778
v 0.113377 0.086556 0.013555
v 0.126119 0.065860 0.008778
v 0.081551 0.065860 0.002412
v 0.070396 0.075414 0.002412
v 0.070396 0.084960 0.007188
v 0.124521 0.070638 0.013555
v 0.087916 0.097702 0.013555
v 0.086318 0.065860 0.005596
v 0.126119 0.069049 0.008778
v 0.113377 0.088149 0.008778
v 0.084725 0.077006 0.002412
v 0.102228 0.097702 0.013555
v 0.070396 0.097702 0.008778
v 0.094287 0.065860 0.002412
v 0.113377 0.088149 0.011962
v 0.070396 0.084960 0.002412
v 0.076767 0.073821 0.005596
v 0.070396 0.075414 0.004004
v 0.071994 0.097702 0.005596
v 0.124521 0.072231 0.010370
v 0.124521 0.065860 0.013555
v 0.124521 0.072231 0.008778
v 0.081551 0.065860 0.004004
v 0.071994 0.097702 0.010370
v 0.073587 0.091331 0.004004
v 0.126119 0.069049 0.011962
v 0.078365 0.081781 0.002412
v 0.070396 0.091331 0.008778
v 0.075174 0.070638 0.002412
f 1292 1291 1317 
f 1284 1281 1285 
f 1278 1279 1287 
f 1287 1279 1288 
f 1281 1284 1289 
f 1280 1284 1290 
f 1282 1283 1291 
f 1290 1284 1291 
f 1282 1291 1292 
f 1284 1285 1293 
f 1287 1292 1293 
f 1289 1284 1294 
f 1285 1281 1295 
f 1278 1287 1295 
f 1281 1289 1295 
f 1291 1284 1296 
f 1280 1290 1297 
f 1290 1283 1297 
f 1279 1278 1298 
f 1286 1283 1298 
f 1288 1279 1298 
f 1283 1282 1299 
f 1298 1283 1299 
f 1288 1298 1299 
f 1289 1278 1300 
f 1278 1295 1300 
f 1295 1289 1300 
f 1287 1293 1301 
f 1295 1287 1301 
f 1283 1290 1302 
f 1291 1283 1302 
f 1290 1291 1302 
f 1278 1289 1303 
f 1289 1294 1303 
f 1298 1278 1303 
f 1286 1298 1303 
f 1287 1282 1304 
f 1282 1292 1304 
f 1292 1287 1304 
f 1293 1277 1305 
f 1284 1293 1305 
f 1277 1296 1305 
f 1296 1284 1305 
f 1292 1277 1306 
f 1277 1293 1306 
f 1293 1292 1306 
f 1282 1287 1307 
f 1287 1288 1307 
f 1286 1303 1308 
f 1284 1280 1309 
f 1280 1294 1309 
f 1294 1284 1309 
f 1283 1286 1310 
f 1297 1283 1310 
f 1286 1308 1310 
f 1308 1297 1310 
f 1277 1291 1311 
f 1296 1277 1311 
f 1291 1296 1311 
f 1285 1295 1312 
f 1301 1285 1312 
f 1295 1301 1312 
f 1288 1282 1313 
f 1282 1307 1313 
f 1307 1288 1313 
f 1294 1280 1314 
f 1280 1297 1314 
f 1303 1294 1314 
f 1297 1308 1314 
f 1308 1303 1314 
f 1282 1288 1315 
f 1299 1282 1315 
f 1288 1299 1315 
f 1293 1285 1316 
f 1285 1301 1316 
f 1301 1293 1316 
f 1291 1277 1317 
f 1277 1292 1317 
o convex_38
v -0.055385 -0.069467 0.002411
v -0.082444 -0.029666 0.000818
v -0.072887 -0.031261 -0.007142
v -0.074483 -0.026481 0.002411
v -0.053787 -0.051946 -0.007142
v -0.060160 -0.053541 -0.007142
v -0.053787 -0.061506 0.002411
v -0.071299 -0.051942 0.000818
v -0.069706 -0.026481 -0.007142
v -0.082444 -0.026481 0.002411
v -0.068115 -0.028080 -0.005548
v -0.053787 -0.058321 -0.007142
v -0.053787 -0.058321 0.000818
v -0.076071 -0.044006 0.002411
v -0.055385 -0.069467 0.000818
v -0.072887 -0.026481 -0.007142
v -0.076071 -0.044006 0.000818
v -0.066522 -0.043997 -0.007142
v -0.066525 -0.058321 0.000818
v -0.053787 -0.069467 0.000818
v -0.053787 -0.051946 -0.005548
v -0.066525 -0.058321 0.002411
v -0.055383 -0.058321 -0.007142
v -0.082444 -0.026481 0.000818
v -0.082444 -0.029666 0.002411
v -0.077661 -0.040812 0.000818
v -0.068115 -0.028080 -0.007142
v -0.053787 -0.069467 0.002411
v -0.071296 -0.026481 -0.002365
v -0.071299 -0.051942 0.002411
f 1339 1331 1347 
f 1320 1322 1323 
f 1321 1318 1324 
f 1322 1320 1326 
f 1318 1321 1327 
f 1321 1326 1327 
f 1323 1322 1329 
f 1322 1324 1329 
f 1321 1324 1330 
f 1324 1322 1330 
f 1328 1321 1330 
f 1318 1327 1331 
f 1320 1319 1333 
f 1326 1320 1333 
f 1327 1326 1333 
f 1325 1331 1334 
f 1320 1323 1335 
f 1323 1325 1335 
f 1334 1320 1335 
f 1325 1334 1335 
f 1325 1323 1336 
f 1332 1318 1336 
f 1323 1332 1336 
f 1329 1324 1337 
f 1318 1332 1337 
f 1332 1329 1337 
f 1322 1328 1338 
f 1330 1322 1338 
f 1328 1330 1338 
f 1318 1331 1339 
f 1325 1336 1339 
f 1336 1318 1339 
f 1323 1329 1340 
f 1332 1323 1340 
f 1329 1332 1340 
f 1319 1327 1341 
f 1333 1319 1341 
f 1327 1333 1341 
f 1327 1319 1342 
f 1331 1327 1342 
f 1331 1342 1343 
f 1319 1320 1343 
f 1320 1334 1343 
f 1334 1331 1343 
f 1342 1319 1343 
f 1322 1326 1344 
f 1328 1322 1344 
f 1326 1328 1344 
f 1324 1318 1345 
f 1318 1337 1345 
f 1337 1324 1345 
f 1326 1321 1346 
f 1321 1328 1346 
f 1328 1326 1346 
f 1331 1325 1347 
f 1325 1339 1347 
o convex_39
v -0.025129 -0.083796 -0.002365
v -0.053787 -0.071058 0.000818
v -0.053787 -0.071058 0.002411
v -0.052190 -0.053546 -0.007142
v -0.025129 -0.080611 0.002411
v -0.025129 -0.079011 -0.007142
v -0.052190 -0.063102 0.002411
v -0.044232 -0.069468 -0.007142
v -0.029906 -0.086980 0.000818
v -0.026725 -0.072645 -0.005548
v -0.052190 -0.053546 -0.005548
v -0.053787 -0.059918 -0.007142
v -0.025129 -0.086980 0.002411
v -0.039458 -0.082202 0.000818
v -0.034683 -0.075830 -0.007142
v -0.025129 -0.074239 -0.007142
v -0.053787 -0.053546 -0.005548
v -0.039458 -0.082202 0.002411
v -0.049007 -0.075833 0.000818
v -0.053787 -0.063102 0.002411
v -0.028316 -0.079011 -0.007142
v -0.029906 -0.086980 0.002411
v -0.025129 -0.086980 0.000818
v -0.049007 -0.075833 0.002411
v -0.025129 -0.074239 -0.005548
v -0.053787 -0.053546 -0.007142
v -0.026725 -0.072645 -0.007142
f 1357 1363 1374 
f 1352 1348 1353 
f 1350 1352 1354 
f 1351 1353 1355 
f 1354 1352 1358 
f 1357 1351 1358 
f 1352 1357 1358 
f 1349 1350 1359 
f 1355 1349 1359 
f 1351 1355 1359 
f 1348 1352 1360 
f 1352 1350 1360 
f 1361 1355 1362 
f 1355 1353 1362 
f 1356 1361 1362 
f 1353 1351 1363 
f 1352 1353 1363 
f 1358 1351 1364 
f 1354 1358 1364 
f 1359 1350 1364 
f 1360 1350 1365 
f 1361 1356 1365 
f 1361 1365 1366 
f 1350 1349 1366 
f 1349 1355 1366 
f 1355 1361 1366 
f 1350 1354 1367 
f 1364 1350 1367 
f 1354 1364 1367 
f 1353 1348 1368 
f 1348 1356 1368 
f 1362 1353 1368 
f 1356 1362 1368 
f 1356 1360 1369 
f 1360 1365 1369 
f 1365 1356 1369 
f 1356 1348 1370 
f 1348 1360 1370 
f 1360 1356 1370 
f 1365 1350 1371 
f 1366 1365 1371 
f 1350 1366 1371 
f 1357 1352 1372 
f 1352 1363 1372 
f 1363 1357 1372 
f 1351 1359 1373 
f 1364 1351 1373 
f 1359 1364 1373 
f 1351 1357 1374 
f 1363 1351 1374 
o convex_40
v -0.072893 -0.026481 -0.000775
v -0.087219 -0.008960 0.000818
v -0.087219 -0.008960 0.002411
v -0.074487 0.010137 -0.007142
v -0.080852 0.010137 0.002411
v -0.074487 -0.026481 -0.007142
v -0.082443 -0.026481 0.002411
v -0.087219 0.010137 0.000818
v -0.077668 0.010137 -0.007142
v -0.069707 -0.021703 -0.005548
v -0.076079 -0.026481 0.002411
v -0.077668 -0.013742 -0.007142
v -0.084034 -0.024886 0.000818
v -0.077668 0.010137 -0.000775
v -0.069707 -0.026481 -0.007142
v -0.087219 0.010137 0.002411
v -0.074487 0.010137 -0.005548
v -0.074485 -0.023294 0.000818
v -0.085624 -0.018516 0.000818
v -0.084034 -0.024886 0.002411
v -0.069707 -0.021703 -0.007142
v -0.072893 -0.024886 -0.000775
v -0.069707 -0.026481 -0.005548
v -0.076079 -0.023294 0.002411
v -0.082443 -0.026481 0.000818
f 1387 1380 1399 
f 1379 1377 1381 
f 1380 1375 1381 
f 1376 1377 1382 
f 1379 1378 1382 
f 1378 1380 1383 
f 1376 1382 1383 
f 1382 1378 1383 
f 1381 1375 1385 
f 1379 1381 1385 
f 1376 1383 1386 
f 1383 1380 1386 
f 1386 1380 1387 
f 1378 1379 1388 
f 1375 1380 1389 
f 1380 1378 1389 
f 1377 1379 1390 
f 1382 1377 1390 
f 1379 1382 1390 
f 1384 1378 1391 
f 1378 1388 1391 
f 1388 1384 1391 
f 1385 1375 1392 
f 1388 1379 1392 
f 1377 1376 1393 
f 1376 1386 1393 
f 1386 1387 1393 
f 1393 1387 1394 
f 1381 1377 1394 
f 1387 1381 1394 
f 1377 1393 1394 
f 1378 1384 1395 
f 1389 1378 1395 
f 1384 1389 1395 
f 1375 1384 1396 
f 1384 1388 1396 
f 1392 1375 1396 
f 1388 1392 1396 
f 1384 1375 1397 
f 1375 1389 1397 
f 1389 1384 1397 
f 1379 1385 1398 
f 1385 1392 1398 
f 1392 1379 1398 
f 1380 1381 1399 
f 1381 1387 1399 
o convex_41
v -0.068118 0.046755 0.000818
v -0.087216 0.010137 0.000818
v -0.077664 0.010137 -0.007142
v -0.068118 0.046755 -0.007142
v -0.080849 0.040386 0.000818
v -0.080849 0.010137 0.002411
v -0.063341 0.043569 -0.005548
v -0.077666 0.046755 0.002411
v -0.077664 0.019697 -0.007142
v -0.074483 0.010137 -0.007142
v -0.069712 0.043569 0.002411
v -0.076072 0.010137 -0.002365
v -0.087216 0.016507 0.002411
v -0.085624 0.024468 0.000818
v -0.063341 0.046755 -0.007142
v -0.074483 0.032421 -0.007142
v -0.087216 0.016507 0.000818
v -0.077666 0.046755 0.000818
v -0.084033 0.030834 0.002411
v -0.074483 0.010137 -0.005548
v -0.079258 0.013324 0.002411
v -0.087216 0.010137 0.002411
v -0.072891 0.037196 -0.007142
v -0.063341 0.043569 -0.007142
v -0.066526 0.045160 -0.000775
v -0.084033 0.030834 0.000818
v -0.069712 0.046755 0.002411
v -0.077666 0.013324 0.000818
v -0.063341 0.046755 -0.005548
v -0.080849 0.040386 0.002411
f 1418 1407 1429 
f 1401 1402 1405 
f 1400 1403 1407 
f 1402 1401 1408 
f 1403 1402 1408 
f 1402 1403 1409 
f 1405 1402 1409 
f 1407 1405 1410 
f 1405 1409 1411 
f 1405 1407 1412 
f 1403 1400 1414 
f 1409 1403 1414 
f 1403 1408 1415 
f 1408 1413 1415 
f 1408 1401 1416 
f 1401 1412 1416 
f 1413 1408 1416 
f 1412 1413 1416 
f 1403 1404 1417 
f 1407 1403 1417 
f 1404 1407 1417 
f 1412 1407 1418 
f 1413 1412 1418 
f 1409 1406 1419 
f 1411 1409 1419 
f 1406 1411 1419 
f 1410 1405 1420 
f 1405 1411 1420 
f 1401 1405 1421 
f 1412 1401 1421 
f 1405 1412 1421 
f 1404 1403 1422 
f 1403 1415 1422 
f 1415 1404 1422 
f 1406 1409 1423 
f 1414 1406 1423 
f 1409 1414 1423 
f 1400 1410 1424 
f 1411 1406 1424 
f 1404 1415 1425 
f 1415 1413 1425 
f 1418 1404 1425 
f 1413 1418 1425 
f 1400 1407 1426 
f 1410 1400 1426 
f 1407 1410 1426 
f 1410 1420 1427 
f 1420 1411 1427 
f 1424 1410 1427 
f 1411 1424 1427 
f 1414 1400 1428 
f 1406 1414 1428 
f 1400 1424 1428 
f 1424 1406 1428 
f 1407 1404 1429 
f 1404 1418 1429 
