o convex_0
v 0.002322 0.136072 -0.000034
v -0.003945 0.039997 -0.001079
v -0.003945 0.039997 -0.000034
v 0.004411 0.041047 -0.001079
v -0.001856 0.128761 -0.004212
v -0.000812 0.122489 0.004144
v 0.002322 0.035806 0.003100
v 0.002322 0.035806 -0.004212
v 0.004411 0.128761 -0.002123
v 0.004411 0.124580 0.002055
v -0.003945 0.119358 0.001010
v -0.001856 0.035806 0.003100
v -0.002901 0.041047 -0.004212
v 0.002322 0.121449 -0.004212
v -0.002901 0.131891 0.002055
v -0.003945 0.058802 0.002055
v -0.003945 0.120399 -0.001079
v 0.001277 0.080728 0.004144
v 0.003367 0.127710 0.003100
v 0.003367 0.035806 0.002055
v -0.002901 0.120399 0.003100
v -0.002901 0.035806 -0.003168
v -0.000812 0.136072 -0.002123
v -0.000812 0.079687 0.004144
v 0.004411 0.065064 -0.002123
v 0.004411 0.099513 0.002055
v 0.002322 0.131891 0.003100
v -0.002901 0.057752 0.003100
v 0.000233 0.130841 -0.004212
v 0.001277 0.122489 0.004144
v -0.002901 0.124580 -0.003168
v -0.003945 0.066114 -0.002123
v 0.003367 0.090111 0.003100
v -0.000812 0.136072 0.001010
v -0.002901 0.132932 -0.000034
v 0.004411 0.041047 -0.000034
v 0.003367 0.035806 -0.003168
v 0.001277 0.136072 -0.002123
v -0.002901 0.035806 0.002055
v 0.004411 0.129801 -0.000034
v -0.003945 0.041047 -0.002123
v 0.000233 0.131891 0.003100
v 0.003367 0.132932 -0.002123
v -0.001856 0.035806 -0.004212
v -0.003945 0.041047 0.001010
v -0.002901 0.049400 -0.004212
v 0.004411 0.061933 0.001010
v 0.003367 0.127710 -0.003168
v 0.002322 0.133982 0.002055
v -0.001856 0.131891 -0.003168
v -0.001856 0.135022 0.001010
v -0.000812 0.130841 0.003100
v -0.000812 0.130841 -0.004212
v 0.001277 0.136072 0.001010
v -0.001856 0.135022 -0.001079
v -0.002901 0.130841 -0.001079
v 0.002322 0.136072 -0.001079
v 0.001277 0.127710 -0.004212
v -0.002901 0.132932 0.001010
v -0.000812 0.133982 0.002055
v -0.001856 0.127710 0.003100
f 52 15 61 
f 4 9 10 
f 2 3 11 
f 8 7 12 
f 5 8 13 
f 8 5 14 
f 9 8 14 
f 11 3 16 
f 2 11 17 
f 7 8 20 
f 15 11 21 
f 11 16 21 
f 3 2 22 
f 8 12 22 
f 12 7 24 
f 18 6 24 
f 7 18 24 
f 6 21 24 
f 9 4 25 
f 8 9 25 
f 4 10 26 
f 10 19 26 
f 21 16 28 
f 12 24 28 
f 24 21 28 
f 14 5 29 
f 6 18 30 
f 18 19 30 
f 27 6 30 
f 19 27 30 
f 17 31 32 
f 2 17 32 
f 18 7 33 
f 19 18 33 
f 7 20 33 
f 26 19 33 
f 20 26 33 
f 1 23 34 
f 20 4 36 
f 4 26 36 
f 4 20 37 
f 20 8 37 
f 25 4 37 
f 8 25 37 
f 23 1 38 
f 29 23 38 
f 3 22 39 
f 22 12 39 
f 12 28 39 
f 28 16 39 
f 10 9 40 
f 19 10 40 
f 27 19 40 
f 22 2 41 
f 13 22 41 
f 2 32 41 
f 32 13 41 
f 6 27 42 
f 27 34 42 
f 29 38 43 
f 40 9 43 
f 13 8 44 
f 8 22 44 
f 22 13 44 
f 16 3 45 
f 3 39 45 
f 39 16 45 
f 5 13 46 
f 31 5 46 
f 32 31 46 
f 13 32 46 
f 26 20 47 
f 20 36 47 
f 36 26 47 
f 9 14 48 
f 43 9 48 
f 29 43 48 
f 34 27 49 
f 40 1 49 
f 27 40 49 
f 5 31 50 
f 34 23 51 
f 15 34 51 
f 6 42 52 
f 42 15 52 
f 29 5 53 
f 23 29 53 
f 5 50 53 
f 50 23 53 
f 1 34 54 
f 49 1 54 
f 34 49 54 
f 23 50 55 
f 50 35 55 
f 51 23 55 
f 35 51 55 
f 31 17 56 
f 17 35 56 
f 50 31 56 
f 35 50 56 
f 38 1 57 
f 1 40 57 
f 43 38 57 
f 40 43 57 
f 14 29 58 
f 48 14 58 
f 29 48 58 
f 11 15 59 
f 17 11 59 
f 35 17 59 
f 15 51 59 
f 51 35 59 
f 34 15 60 
f 15 42 60 
f 42 34 60 
f 21 6 61 
f 15 21 61 
f 6 52 61 
o convex_1
v -0.006032 -0.076992 -0.011523
v 0.003365 -0.062374 0.017723
v 0.006499 -0.061331 0.016677
v -0.010209 0.003426 -0.009434
v 0.016946 -0.024783 -0.007341
v 0.007542 0.003426 0.010409
v -0.016478 -0.025826 0.008320
v 0.016946 -0.069687 0.003095
v -0.017524 -0.069687 0.003098
v 0.006499 -0.066556 -0.016745
v 0.007542 0.003426 -0.011523
v -0.010209 -0.024783 -0.015702
v -0.007075 0.003426 0.010409
v -0.007075 -0.073869 0.013545
v 0.016946 -0.030008 0.007277
v -0.017524 -0.060287 -0.007345
v -0.004986 -0.023747 0.016677
v 0.004407 -0.081182 0.003098
v 0.004407 -0.024783 -0.017791
v -0.008121 -0.064469 -0.016745
v 0.013811 -0.069687 -0.010477
v -0.017524 -0.024783 -0.006298
v -0.012298 -0.065505 0.013545
v 0.008588 -0.025826 0.015634
v 0.010676 -0.069687 0.013541
v 0.011722 0.002374 0.005184
v 0.011722 -0.026878 -0.014652
v -0.011255 0.003426 0.006230
v -0.011255 -0.078043 -0.004209
v 0.008588 -0.078043 -0.007345
v -0.003943 -0.023747 -0.017791
v -0.014390 -0.067600 -0.011523
v -0.011255 -0.021644 0.013545
v -0.007075 -0.065505 0.016677
v 0.000230 -0.067600 -0.017791
v 0.010676 0.003426 -0.008388
v 0.016946 -0.057148 -0.007341
v -0.008121 -0.079087 0.006230
v 0.004407 -0.073869 0.014587
v 0.002319 -0.020600 0.016677
v 0.013811 -0.066556 0.011455
v 0.012765 -0.023739 0.012498
v -0.006032 0.000287 -0.012566
v -0.017524 -0.023747 0.004141
v -0.002901 -0.081182 -0.004209
v -0.015432 -0.024783 -0.010477
v 0.013811 -0.074913 0.004141
v -0.017524 -0.066556 0.006230
v 0.005453 -0.075956 -0.012566
v -0.013344 -0.002844 -0.003166
v 0.016946 -0.023739 0.006230
v -0.013344 -0.073869 0.008320
v 0.004407 -0.078043 0.010409
v 0.012765 -0.067600 -0.012566
v 0.016946 -0.069687 -0.003163
v -0.017524 -0.068635 -0.005256
v -0.001858 -0.066556 0.017723
v 0.016946 -0.021652 -0.006298
v 0.010676 -0.064461 0.014587
v 0.013811 -0.025834 -0.012566
v -0.006032 -0.071774 -0.015702
v 0.016946 -0.066556 0.006230
v 0.002319 -0.021644 -0.017791
v -0.003943 -0.079087 0.009366
f 114 100 125 
f 65 67 72 
f 67 65 74 
f 69 66 76 
f 77 70 83 
f 63 64 85 
f 71 80 88 
f 80 72 88 
f 74 65 89 
f 81 73 92 
f 73 81 93 
f 62 90 93 
f 78 74 94 
f 68 84 94 
f 74 89 94 
f 89 68 94 
f 84 75 95 
f 78 94 95 
f 94 84 95 
f 80 71 96 
f 92 80 96 
f 81 92 96 
f 72 67 97 
f 67 87 97 
f 66 69 98 
f 86 63 100 
f 67 74 101 
f 78 63 101 
f 74 78 101 
f 63 85 101 
f 85 67 101 
f 67 85 103 
f 87 67 103 
f 102 76 103 
f 65 72 104 
f 73 65 104 
f 92 73 104 
f 83 70 105 
f 68 89 105 
f 90 62 106 
f 91 79 106 
f 79 99 106 
f 99 90 106 
f 65 73 107 
f 83 65 107 
f 77 83 107 
f 93 77 107 
f 73 93 107 
f 79 91 108 
f 102 86 108 
f 84 68 109 
f 68 105 109 
f 105 70 109 
f 82 91 110 
f 96 71 110 
f 106 62 110 
f 91 106 110 
f 65 83 111 
f 89 65 111 
f 83 105 111 
f 105 89 111 
f 76 66 112 
f 87 103 112 
f 103 76 112 
f 75 84 113 
f 70 90 113 
f 99 75 113 
f 90 99 113 
f 109 70 113 
f 84 109 113 
f 86 100 114 
f 79 108 114 
f 108 86 114 
f 71 88 115 
f 98 82 115 
f 110 71 115 
f 82 110 115 
f 91 82 116 
f 98 69 116 
f 82 98 116 
f 69 108 116 
f 108 91 116 
f 70 77 117 
f 90 70 117 
f 77 93 117 
f 93 90 117 
f 63 78 118 
f 95 75 118 
f 78 95 118 
f 100 63 118 
f 75 100 118 
f 66 97 119 
f 97 87 119 
f 112 66 119 
f 87 112 119 
f 64 63 120 
f 85 64 120 
f 63 86 120 
f 86 102 120 
f 103 85 120 
f 102 103 120 
f 88 72 121 
f 72 97 121 
f 97 66 121 
f 66 98 121 
f 115 88 121 
f 98 115 121 
f 93 81 122 
f 62 93 122 
f 81 96 122 
f 96 110 122 
f 110 62 122 
f 69 76 123 
f 76 102 123 
f 108 69 123 
f 102 108 123 
f 72 80 124 
f 80 92 124 
f 104 72 124 
f 92 104 124 
f 75 99 125 
f 99 79 125 
f 100 75 125 
f 79 114 125 
o convex_2
v 0.003364 0.035806 -0.004209
v -0.015435 0.023267 -0.001078
v -0.012301 0.005518 -0.002122
v 0.004410 0.024310 0.014590
v 0.007545 0.003426 -0.011521
v -0.007077 0.027445 -0.014656
v 0.010676 0.003426 0.007278
v 0.014857 0.026405 -0.006297
v -0.009167 0.003426 0.009365
v -0.010211 0.032672 0.006231
v -0.009167 0.003426 -0.010478
v 0.013810 0.027445 0.007278
v 0.004410 0.026405 -0.015702
v -0.010211 0.026405 0.011455
v 0.001276 0.032672 0.011455
v -0.010211 0.032672 -0.007344
v -0.014388 0.026405 -0.007344
v 0.007545 0.003426 0.010409
v 0.010676 0.003426 -0.008390
v 0.005451 0.032672 -0.011521
v 0.011722 0.032672 0.002053
v 0.010676 0.026405 -0.012568
v -0.003942 0.025359 0.014590
v -0.014388 0.026405 0.006231
v -0.002899 0.023267 -0.015702
v -0.000811 0.035806 0.004143
v 0.014857 0.023267 0.004143
v -0.011254 0.003426 0.006231
v -0.004989 0.034760 -0.008390
v 0.011722 0.026405 0.010409
v 0.010676 0.032672 -0.006297
v 0.011722 0.004472 -0.003166
v -0.007077 0.003426 0.010409
v 0.008588 0.032672 0.008321
v -0.007077 0.003426 -0.011521
v -0.011254 0.003426 -0.007344
v -0.014388 0.028494 0.002053
v -0.012301 0.023267 -0.010478
v -0.004989 0.032672 0.010409
v -0.008123 0.034760 0.003097
v -0.001855 0.032672 -0.012568
v 0.007545 0.034760 0.004143
v 0.003364 0.027445 0.014590
v 0.012766 0.024310 -0.010478
v -0.009167 0.027445 -0.013612
v -0.012301 0.031622 -0.004209
v 0.014857 0.024310 -0.006297
v -0.001855 0.023267 0.014590
v 0.014857 0.027445 0.004143
v -0.007077 0.023267 -0.014656
v 0.007545 0.024310 -0.014656
v 0.001276 0.034760 0.008321
v -0.015435 0.024310 0.002053
v 0.004410 0.034760 -0.008390
v -0.012301 0.024310 0.009365
v -0.002899 0.035806 -0.003166
v 0.003364 0.023267 -0.015702
v 0.007545 0.034760 -0.005256
v -0.008123 0.034760 -0.004209
v -0.002899 0.027445 -0.015702
v 0.008588 0.023267 0.012499
v 0.011722 0.004472 0.002053
v -0.003942 0.028494 0.013543
v 0.007545 0.028494 0.012499
f 186 155 189 
f 130 132 134 
f 130 134 136 
f 134 132 143 
f 132 130 144 
f 138 145 147 
f 139 134 148 
f 139 135 149 
f 137 132 152 
f 136 134 153 
f 132 137 155 
f 143 132 155 
f 146 133 156 
f 133 147 156 
f 147 145 156 
f 132 144 157 
f 134 143 158 
f 148 134 158 
f 137 146 159 
f 155 137 159 
f 130 136 160 
f 150 130 160 
f 128 127 161 
f 127 142 161 
f 153 128 161 
f 136 153 161 
f 149 135 162 
f 161 142 163 
f 136 161 163 
f 135 139 164 
f 135 164 165 
f 145 138 166 
f 126 151 167 
f 159 146 167 
f 148 129 168 
f 144 130 169 
f 130 147 169 
f 147 133 169 
f 142 141 170 
f 141 154 170 
f 136 163 170 
f 163 142 170 
f 166 131 170 
f 154 166 170 
f 141 142 171 
f 162 135 171 
f 142 162 171 
f 135 165 171 
f 133 152 172 
f 157 144 172 
f 152 157 172 
f 144 169 172 
f 169 133 172 
f 143 129 173 
f 129 148 173 
f 158 143 173 
f 148 158 173 
f 133 146 174 
f 146 137 174 
f 137 152 174 
f 152 133 174 
f 131 150 175 
f 160 136 175 
f 150 160 175 
f 170 131 175 
f 136 170 175 
f 147 130 176 
f 138 147 176 
f 140 159 177 
f 164 140 177 
f 151 165 177 
f 165 164 177 
f 167 151 177 
f 159 167 177 
f 127 128 178 
f 142 127 178 
f 128 153 178 
f 153 149 178 
f 162 142 178 
f 149 162 178 
f 154 126 179 
f 156 145 179 
f 145 166 179 
f 166 154 179 
f 134 139 180 
f 139 149 180 
f 153 134 180 
f 149 153 180 
f 151 126 181 
f 126 154 181 
f 165 151 181 
f 130 150 182 
f 150 138 182 
f 176 130 182 
f 138 176 182 
f 146 156 183 
f 126 167 183 
f 167 146 183 
f 179 126 183 
f 156 179 183 
f 154 141 184 
f 141 171 184 
f 171 165 184 
f 181 154 184 
f 165 181 184 
f 150 131 185 
f 138 150 185 
f 131 166 185 
f 166 138 185 
f 129 143 186 
f 143 155 186 
f 152 132 187 
f 132 157 187 
f 157 152 187 
f 139 148 188 
f 164 139 188 
f 140 164 188 
f 168 140 188 
f 148 168 188 
f 159 140 189 
f 155 159 189 
f 140 168 189 
f 168 129 189 
f 129 186 189 
