# Blender v3.0.1 OBJ File: 'env_objects.blend11'
# www.blender.org
o Cube.007_Cube.006
v -0.034286 0.000000 0.000623
v -0.033627 0.006689 0.000623
v -0.031676 0.013121 0.000623
v -0.028508 0.019048 0.000623
v -0.024244 0.024244 0.000623
v -0.019048 0.028508 0.000623
v -0.013121 0.031676 0.000623
v -0.006689 0.033627 0.000623
v 0.000000 0.034286 0.000623
v 0.006689 0.033627 0.000623
v 0.013121 0.031676 0.000623
v 0.019048 0.028508 0.000623
v 0.024244 0.024244 0.000623
v 0.028508 0.019048 0.000623
v 0.031676 0.013121 0.000623
v 0.033627 0.006689 0.000623
v 0.034286 -0.000000 0.000623
v 0.033627 -0.006689 0.000623
v 0.031676 -0.013121 0.000623
v 0.028508 -0.019048 0.000623
v 0.024244 -0.024244 0.000623
v 0.019048 -0.028508 0.000623
v 0.013121 -0.031676 0.000623
v 0.006689 -0.033627 0.000623
v -0.000000 -0.034286 0.000623
v -0.006689 -0.033627 0.000623
v -0.013121 -0.031676 0.000623
v -0.019048 -0.028508 0.000623
v -0.024244 -0.024244 0.000623
v -0.028508 -0.019048 0.000623
v -0.031676 -0.013121 0.000623
v -0.033627 -0.006689 0.000623
v 0.040000 -0.040000 -0.040000
v 0.040000 -0.040000 0.040000
v -0.040000 -0.040000 -0.040000
v -0.040000 -0.040000 0.040000
v 0.040000 0.040000 -0.040000
v 0.040000 0.040000 0.040000
v -0.040000 0.040000 -0.040000
v -0.040000 0.040000 0.040000
v -0.013121 -0.031676 0.040000
v -0.019048 -0.028508 0.040000
v -0.031676 0.013121 0.040000
v -0.033627 0.006689 0.040000
v -0.006689 -0.033627 0.040000
v -0.024244 0.024244 0.040000
v 0.028508 0.019048 0.040000
v 0.031676 0.013121 0.040000
v -0.019048 0.028508 0.040000
v 0.033627 0.006689 0.040000
v 0.031676 -0.013121 0.040000
v -0.000000 -0.034286 0.040000
v -0.031676 -0.013121 0.040000
v 0.028508 -0.019048 0.040000
v 0.006689 0.033627 0.040000
v 0.024244 0.024244 0.040000
v 0.013121 0.031676 0.040000
v 0.000000 0.034286 0.040000
v -0.024244 -0.024244 0.040000
v -0.028508 -0.019048 0.040000
v 0.034286 -0.000000 0.040000
v -0.034286 0.000000 0.040000
v -0.006689 0.033627 0.040000
v -0.028508 0.019048 0.040000
v -0.013121 0.031676 0.040000
v 0.013121 -0.031676 0.040000
v 0.019048 -0.028508 0.040000
v 0.006689 -0.033627 0.040000
v 0.024244 -0.024244 0.040000
v 0.033627 -0.006689 0.040000
v 0.019048 0.028508 0.040000
v -0.033627 -0.006689 0.040000
vt 0.968750 0.500000
vt 1.000000 0.787122
vt 1.000000 0.500000
vt 0.937500 0.500000
vt 0.968750 0.787122
vt 0.906250 0.500000
vt 0.937500 0.787122
vt 0.875000 0.500000
vt 0.906250 0.787122
vt 0.843750 0.500000
vt 0.875000 0.787122
vt 0.812500 0.500000
vt 0.843750 0.787122
vt 0.781250 0.500000
vt 0.812500 0.787122
vt 0.750000 0.500000
vt 0.781250 0.787122
vt 0.718750 0.500000
vt 0.750000 0.787122
vt 0.687500 0.500000
vt 0.718750 0.787122
vt 0.656250 0.787122
vt 0.687500 0.787122
vt 0.625000 0.500000
vt 0.656250 0.500000
vt 0.593750 0.787122
vt 0.625000 0.787122
vt 0.562500 0.500000
vt 0.593750 0.500000
vt 0.531250 0.500000
vt 0.562500 0.787122
vt 0.500000 0.500000
vt 0.531250 0.787122
vt 0.468750 0.500000
vt 0.500000 0.787122
vt 0.437500 0.500000
vt 0.468750 0.787122
vt 0.406250 0.500000
vt 0.437500 0.787122
vt 0.375000 0.500000
vt 0.406250 0.787122
vt 0.343750 0.500000
vt 0.375000 0.787122
vt 0.312500 0.500000
vt 0.343750 0.787122
vt 0.281250 0.500000
vt 0.312500 0.787122
vt 0.250000 0.500000
vt 0.281250 0.787122
vt 0.218750 0.500000
vt 0.250000 0.787122
vt 0.187500 0.500000
vt 0.218750 0.787122
vt 0.156250 0.500000
vt 0.187500 0.787122
vt 0.125000 0.500000
vt 0.156250 0.787122
vt 0.093750 0.787122
vt 0.125000 0.787122
vt 0.062500 0.500000
vt 0.093750 0.500000
vt 0.031250 0.500000
vt 0.062500 0.787122
vt 0.000000 0.500000
vt 0.031250 0.787122
vt 0.796822 0.485388
vt 0.514612 0.296822
vt 0.703178 0.014612
vt 0.625000 0.000000
vt 0.375000 0.250000
vt 0.375000 0.000000
vt 0.625000 0.250000
vt 0.375000 0.500000
vt 0.625000 0.500000
vt 0.375000 0.750000
vt 0.625000 0.750000
vt 0.375000 1.000000
vt 0.125000 0.750000
vt 0.125000 0.500000
vt 0.750000 0.732143
vt 0.875000 0.750000
vt 0.750000 0.517857
vt 0.875000 0.500000
vt 0.000000 0.787122
vt 0.750000 0.490000
vt 0.703178 0.485388
vt 0.658156 0.471731
vt 0.616663 0.449553
vt 0.580294 0.419706
vt 0.550447 0.383337
vt 0.528269 0.341844
vt 0.510000 0.250000
vt 0.514612 0.203178
vt 0.528269 0.158156
vt 0.550447 0.116663
vt 0.580294 0.080294
vt 0.616663 0.050447
vt 0.658156 0.028269
vt 0.750000 0.010000
vt 0.796822 0.014612
vt 0.841844 0.028269
vt 0.883337 0.050447
vt 0.919706 0.080294
vt 0.949553 0.116663
vt 0.971731 0.158156
vt 0.985388 0.203178
vt 0.990000 0.250000
vt 0.985388 0.296822
vt 0.971731 0.341844
vt 0.949553 0.383337
vt 0.919706 0.419706
vt 0.883337 0.449553
vt 0.841844 0.471731
vt 0.625000 1.000000
vt 0.642857 0.625000
vt 0.644916 0.645903
vt 0.855084 0.645903
vt 0.857143 0.625000
vt 0.848987 0.666002
vt 0.651013 0.666002
vt 0.660914 0.684525
vt 0.839086 0.684525
vt 0.825761 0.700761
vt 0.674239 0.700761
vt 0.690475 0.714086
vt 0.809525 0.714086
vt 0.791002 0.723987
vt 0.708998 0.723987
vt 0.729097 0.730084
vt 0.770903 0.730084
vt 0.855084 0.604097
vt 0.644916 0.604097
vt 0.651013 0.583998
vt 0.848987 0.583998
vt 0.839086 0.565475
vt 0.660914 0.565475
vt 0.674239 0.549239
vt 0.825761 0.549239
vt 0.809525 0.535914
vt 0.690475 0.535914
vt 0.708998 0.526013
vt 0.791002 0.526013
vt 0.770903 0.519916
vt 0.729097 0.519916
vn 0.9952 -0.0980 0.0000
vn 0.9569 -0.2903 0.0000
vn 0.8819 -0.4714 0.0000
vn 0.7730 -0.6344 0.0000
vn 0.6344 -0.7730 0.0000
vn 0.4714 -0.8819 0.0000
vn 0.2903 -0.9569 0.0000
vn 0.0980 -0.9952 0.0000
vn -0.0980 -0.9952 0.0000
vn -0.2903 -0.9569 0.0000
vn -0.4714 -0.8819 0.0000
vn -0.6344 -0.7730 0.0000
vn -0.7730 -0.6344 0.0000
vn -0.8819 -0.4714 0.0000
vn -0.9569 -0.2903 0.0000
vn -0.9952 -0.0980 0.0000
vn -0.9952 0.0980 0.0000
vn -0.9569 0.2903 0.0000
vn -0.8819 0.4714 0.0000
vn -0.7730 0.6344 0.0000
vn -0.6344 0.7730 0.0000
vn -0.4714 0.8819 0.0000
vn -0.2903 0.9569 0.0000
vn -0.0980 0.9952 0.0000
vn 0.0980 0.9952 0.0000
vn 0.2903 0.9569 0.0000
vn 0.4714 0.8819 0.0000
vn 0.6344 0.7730 0.0000
vn 0.7730 0.6344 0.0000
vn 0.8819 0.4714 0.0000
vn 0.9569 0.2903 0.0000
vn 0.9952 0.0980 0.0000
vn 0.0000 0.0000 1.0000
vn 0.0000 -1.0000 0.0000
vn -1.0000 0.0000 0.0000
vn 0.0000 1.0000 0.0000
vn 1.0000 0.0000 0.0000
vn 0.0000 0.0000 -1.0000
s off
f 2/1/1 62/2/1 1/3/1
f 3/4/2 44/5/2 2/1/2
f 4/6/3 43/7/3 3/4/3
f 5/8/4 64/9/4 4/6/4
f 6/10/5 46/11/5 5/8/5
f 7/12/6 49/13/6 6/10/6
f 8/14/7 65/15/7 7/12/7
f 9/16/8 63/17/8 8/14/8
f 10/18/9 58/19/9 9/16/9
f 11/20/10 55/21/10 10/18/10
f 11/20/11 71/22/11 57/23/11
f 13/24/12 71/22/12 12/25/12
f 13/24/13 47/26/13 56/27/13
f 15/28/14 47/26/14 14/29/14
f 16/30/15 48/31/15 15/28/15
f 17/32/16 50/33/16 16/30/16
f 18/34/17 61/35/17 17/32/17
f 19/36/18 70/37/18 18/34/18
f 20/38/19 51/39/19 19/36/19
f 21/40/20 54/41/20 20/38/20
f 22/42/21 69/43/21 21/40/21
f 23/44/22 67/45/22 22/42/22
f 24/46/23 66/47/23 23/44/23
f 25/48/24 68/49/24 24/46/24
f 26/50/25 52/51/25 25/48/25
f 27/52/26 45/53/26 26/50/26
f 28/54/27 41/55/27 27/52/27
f 29/56/28 42/57/28 28/54/28
f 29/56/29 60/58/29 59/59/29
f 31/60/30 60/58/30 30/61/30
f 32/62/31 53/63/31 31/60/31
f 1/64/32 72/65/32 32/62/32
f 2/66/33 26/67/33 18/68/33
f 34/69/34 35/70/34 33/71/34
f 36/72/35 39/73/35 35/70/35
f 40/74/36 37/75/36 39/73/36
f 38/76/37 33/77/37 37/75/37
f 39/73/38 33/78/38 35/79/38
f 61/80/33 34/81/33 38/76/33
f 62/82/33 40/74/33 36/83/33
f 2/1/1 44/5/1 62/2/1
f 3/4/2 43/7/2 44/5/2
f 4/6/3 64/9/3 43/7/3
f 5/8/4 46/11/4 64/9/4
f 6/10/5 49/13/5 46/11/5
f 7/12/6 65/15/6 49/13/6
f 8/14/7 63/17/7 65/15/7
f 9/16/8 58/19/8 63/17/8
f 10/18/9 55/21/9 58/19/9
f 11/20/10 57/23/10 55/21/10
f 11/20/11 12/25/11 71/22/11
f 13/24/12 56/27/12 71/22/12
f 13/24/13 14/29/13 47/26/13
f 15/28/14 48/31/14 47/26/14
f 16/30/15 50/33/15 48/31/15
f 17/32/16 61/35/16 50/33/16
f 18/34/17 70/37/17 61/35/17
f 19/36/18 51/39/18 70/37/18
f 20/38/19 54/41/19 51/39/19
f 21/40/20 69/43/20 54/41/20
f 22/42/21 67/45/21 69/43/21
f 23/44/22 66/47/22 67/45/22
f 24/46/23 68/49/23 66/47/23
f 25/48/24 52/51/24 68/49/24
f 26/50/25 45/53/25 52/51/25
f 27/52/26 41/55/26 45/53/26
f 28/54/27 42/57/27 41/55/27
f 29/56/28 59/59/28 42/57/28
f 29/56/29 30/61/29 60/58/29
f 31/60/30 53/63/30 60/58/30
f 32/62/31 72/65/31 53/63/31
f 1/64/32 62/84/32 72/65/32
f 2/66/33 1/85/33 32/86/33
f 32/86/33 31/87/33 30/88/33
f 30/88/33 29/89/33 26/67/33
f 29/89/33 28/90/33 26/67/33
f 28/90/33 27/91/33 26/67/33
f 26/67/33 25/92/33 24/93/33
f 24/93/33 23/94/33 22/95/33
f 22/95/33 21/96/33 20/97/33
f 20/97/33 19/98/33 18/68/33
f 18/68/33 17/99/33 16/100/33
f 16/100/33 15/101/33 18/68/33
f 15/101/33 14/102/33 18/68/33
f 14/102/33 13/103/33 12/104/33
f 12/104/33 11/105/33 10/106/33
f 10/106/33 9/107/33 8/108/33
f 8/108/33 7/109/33 6/110/33
f 6/110/33 5/111/33 2/66/33
f 5/111/33 4/112/33 2/66/33
f 4/112/33 3/113/33 2/66/33
f 2/66/33 32/86/33 30/88/33
f 26/67/33 24/93/33 22/95/33
f 22/95/33 20/97/33 26/67/33
f 20/97/33 18/68/33 26/67/33
f 14/102/33 12/104/33 18/68/33
f 12/104/33 10/106/33 18/68/33
f 10/106/33 8/108/33 6/110/33
f 2/66/33 30/88/33 26/67/33
f 10/106/33 6/110/33 18/68/33
f 6/110/33 2/66/33 18/68/33
f 34/69/34 36/72/34 35/70/34
f 36/72/35 40/74/35 39/73/35
f 40/74/36 38/76/36 37/75/36
f 38/76/37 34/114/37 33/77/37
f 39/73/38 37/75/38 33/78/38
f 38/76/33 40/74/33 58/115/33
f 38/76/33 58/115/33 55/116/33
f 68/117/33 52/118/33 34/81/33
f 66/119/33 68/117/33 34/81/33
f 38/76/33 55/116/33 57/120/33
f 38/76/33 57/120/33 71/121/33
f 67/122/33 66/119/33 34/81/33
f 69/123/33 67/122/33 34/81/33
f 38/76/33 71/121/33 56/124/33
f 38/76/33 56/124/33 47/125/33
f 54/126/33 69/123/33 34/81/33
f 51/127/33 54/126/33 34/81/33
f 38/76/33 47/125/33 48/128/33
f 38/76/33 48/128/33 50/129/33
f 70/130/33 51/127/33 34/81/33
f 38/76/33 50/129/33 61/80/33
f 61/80/33 70/130/33 34/81/33
f 36/83/33 34/81/33 52/118/33
f 36/83/33 52/118/33 45/131/33
f 63/132/33 58/115/33 40/74/33
f 65/133/33 63/132/33 40/74/33
f 36/83/33 45/131/33 41/134/33
f 36/83/33 41/134/33 42/135/33
f 49/136/33 65/133/33 40/74/33
f 46/137/33 49/136/33 40/74/33
f 36/83/33 42/135/33 59/138/33
f 36/83/33 59/138/33 60/139/33
f 64/140/33 46/137/33 40/74/33
f 43/141/33 64/140/33 40/74/33
f 36/83/33 60/139/33 53/142/33
f 36/83/33 53/142/33 72/143/33
f 44/144/33 43/141/33 40/74/33
f 36/83/33 72/143/33 62/82/33
f 62/82/33 44/144/33 40/74/33
